<?xml version="1.0" encoding="us-ascii" standalone="no"?><svg xmlns="http://www.w3.org/2000/svg" xmlns:xlink="http://www.w3.org/1999/xlink" contentStyleType="text/css" height="222px" preserveAspectRatio="none" style="width:1361px;height:222px;background:#FFFFFF;" version="1.1" viewBox="0 0 1361 222" width="1361px" zoomAndPan="magnify"><defs/><g><text fill="#000000" font-family="sans-serif" font-size="14" font-weight="bold" lengthAdjust="spacing" textLength="243" x="552" y="24.5332">CP-03 - Criar Solicitacao (robustez)</text><!--entity ator--><g id="elem_ator"><ellipse cx="32.5" cy="78.1094" fill="#F1F1F1" rx="8" ry="8" style="stroke:#181818;stroke-width:0.5;"/><path d="M32.5,86.1094 L32.5,113.1094 M19.5,94.1094 L45.5,94.1094 M32.5,113.1094 L19.5,128.1094 M32.5,113.1094 L45.5,128.1094 " fill="none" style="stroke:#181818;stroke-width:0.5;"/><text fill="#000000" font-family="sans-serif" font-size="14" lengthAdjust="spacing" textLength="53" x="6" y="144.1426">Cidadao</text></g><!--entity b1--><g id="elem_b1"><path d="M166.5,87.6094 L166.5,111.6094 M166.5,99.6094 L183.5,99.6094 " fill="none" style="stroke:#181818;stroke-width:0.5;"/><ellipse cx="195.5" cy="99.6094" fill="#F1F1F1" rx="12" ry="12" style="stroke:#181818;stroke-width:0.5;"/><text fill="#000000" font-family="sans-serif" font-size="14" lengthAdjust="spacing" textLength="136" x="119" y="130.1426">Tela Nova Solicitacao</text></g><!--entity b2--><g id="elem_b2"><path d="M365.5,44.6094 L365.5,68.6094 M365.5,56.6094 L382.5,56.6094 " fill="none" style="stroke:#181818;stroke-width:0.5;"/><ellipse cx="394.5" cy="56.6094" fill="#F1F1F1" rx="12" ry="12" style="stroke:#181818;stroke-width:0.5;"/><text fill="#000000" font-family="sans-serif" font-size="14" lengthAdjust="spacing" textLength="125" x="323.5" y="87.1426">Cloudinary (upload)</text></g><!--entity b3--><g id="elem_b3"><path d="M365.5,129.6094 L365.5,153.6094 M365.5,141.6094 L382.5,141.6094 " fill="none" style="stroke:#181818;stroke-width:0.5;"/><ellipse cx="394.5" cy="141.6094" fill="#F1F1F1" rx="12" ry="12" style="stroke:#181818;stroke-width:0.5;"/><text fill="#000000" font-family="sans-serif" font-size="14" lengthAdjust="spacing" textLength="142" x="315" y="172.1426">POST /api/solicitacoes</text></g><!--entity c0--><g id="elem_c0"><ellipse cx="585" cy="141.6094" fill="#F1F1F1" rx="12" ry="12" style="stroke:#181818;stroke-width:0.5;"/><polygon fill="#181818" points="581,129.6094,587,124.6094,585,129.6094,587,134.6094,581,129.6094" style="stroke:#181818;stroke-width:1.0;"/><text fill="#000000" font-family="sans-serif" font-size="14" lengthAdjust="spacing" textLength="136" x="517" y="172.1426">route-guard (usuario)</text></g><!--entity c1--><g id="elem_c1"><ellipse cx="793" cy="141.6094" fill="#F1F1F1" rx="12" ry="12" style="stroke:#181818;stroke-width:0.5;"/><polygon fill="#181818" points="789,129.6094,795,124.6094,793,129.6094,795,134.6094,789,129.6094" style="stroke:#181818;stroke-width:1.0;"/><text fill="#000000" font-family="sans-serif" font-size="14" lengthAdjust="spacing" textLength="160" x="713" y="172.1426">solicitacaoCreateSchema</text></g><!--entity c2--><g id="elem_c2"><ellipse cx="986" cy="141.6094" fill="#F1F1F1" rx="12" ry="12" style="stroke:#181818;stroke-width:0.5;"/><polygon fill="#181818" points="982,129.6094,988,124.6094,986,129.6094,988,134.6094,982,129.6094" style="stroke:#181818;stroke-width:1.0;"/><text fill="#000000" font-family="sans-serif" font-size="14" lengthAdjust="spacing" textLength="106" x="933" y="172.1426">criarSolicitacao()</text></g><!--entity e1--><g id="elem_e1"><ellipse cx="1157.5" cy="98.6094" fill="#F1F1F1" rx="12" ry="12" style="stroke:#181818;stroke-width:0.5;"/><line style="stroke:#181818;stroke-width:0.5;" x1="1145.5" x2="1169.5" y1="112.6094" y2="112.6094"/><text fill="#000000" font-family="sans-serif" font-size="14" lengthAdjust="spacing" textLength="109" x="1103" y="129.1426">SolicitacaoColeta</text></g><!--entity e2--><g id="elem_e2"><ellipse cx="1157.5" cy="183.6094" fill="#F1F1F1" rx="12" ry="12" style="stroke:#181818;stroke-width:0.5;"/><line style="stroke:#181818;stroke-width:0.5;" x1="1145.5" x2="1169.5" y1="197.6094" y2="197.6094"/><text fill="#000000" font-family="sans-serif" font-size="14" lengthAdjust="spacing" textLength="117" x="1099" y="214.1426">SolicitacaoImagem</text></g><!--entity e3--><g id="elem_e3"><ellipse cx="1315" cy="98.6094" fill="#F1F1F1" rx="12" ry="12" style="stroke:#181818;stroke-width:0.5;"/><line style="stroke:#181818;stroke-width:0.5;" x1="1303" x2="1327" y1="112.6094" y2="112.6094"/><text fill="#000000" font-family="sans-serif" font-size="14" lengthAdjust="spacing" textLength="78" x="1276" y="129.1426">MaterialTipo</text></g><!--link ator to b1--><g id="link_ator_b1"><path d="M59.03,108.6094 C75.47,108.6094 97.69,108.6094 118.94,108.6094 " fill="none" id="ator-b1" style="stroke:#181818;stroke-width:1.0;"/></g><!--link b1 to b2--><g id="link_b1_b2"><path d="M255.25,93.9294 C277.32,89.1094 301.72,83.7894 323.35,79.0694 " fill="none" id="b1-b2" style="stroke:#181818;stroke-width:1.0;"/></g><!--link b1 to b3--><g id="link_b1_b3"><path d="M255.25,122.9494 C274.42,127.0294 295.35,131.4994 314.7,135.6194 " fill="none" id="b1-b3" style="stroke:#181818;stroke-width:1.0;"/></g><!--link b3 to c0--><g id="link_b3_c0"><path d="M457.01,150.6094 C476.47,150.6094 497.56,150.6094 516.86,150.6094 " fill="none" id="b3-c0" style="stroke:#181818;stroke-width:1.0;"/></g><!--link c0 to c1--><g id="link_c0_c1"><path d="M653.17,150.6094 C672.19,150.6094 693.07,150.6094 712.73,150.6094 " fill="none" id="c0-c1" style="stroke:#181818;stroke-width:1.0;"/></g><!--link c1 to c2--><g id="link_c1_c2"><path d="M873.07,150.6094 C893.28,150.6094 914.51,150.6094 932.99,150.6094 " fill="none" id="c1-c2" style="stroke:#181818;stroke-width:1.0;"/></g><!--link c2 to e1--><g id="link_c2_e1"><path d="M1039.24,137.3594 C1059.47,132.2194 1082.62,126.3494 1102.97,121.1894 " fill="none" id="c2-e1" style="stroke:#181818;stroke-width:1.0;"/></g><!--link c2 to e2--><g id="link_c2_e2"><path d="M1039.24,163.5494 C1058.11,168.2294 1079.51,173.5294 1098.82,178.3194 " fill="none" id="c2-e2" style="stroke:#181818;stroke-width:1.0;"/></g><!--link e1 to e3--><g id="link_e1_e3"><path d="M1212.01,107.6094 C1232.92,107.6094 1256.43,107.6094 1275.6,107.6094 " fill="none" id="e1-e3" style="stroke:#181818;stroke-width:1.0;"/></g><!--SRC=[RP3DReGm38JlUGgB4tj0oyyZSEgXxKhm0YPnMKjPZ8Afr3vz0zaL77fYX3_DJ4PPFK5xAye62cW3Ou1EF5jMj2YG1ndMHUdtOZnzAQX0uF6ku3YGLPR9e5K9aBNiqA5aW0jW_6C6MIU7uGUodZp2XtpZsNe7X-g4jLvMnzEcytNsWkwIeFe4tJwx7guuytLvUGajYMkCbKc3UCY2h4h5k69mqMo9NvRaPik3MeuwRI1KwkoT7fYuwk3ijikfU_wqgWrDoXfhdOwjUDBaGTL_mDi3Hteau71uZ_4nnlSyfsseCMOR4efYtwdQHVqIZHcQJMplANSH2- -dMClMcuZnJn5ZzXCrVm00]--></g></svg>