<?xml version="1.0" encoding="us-ascii" standalone="no"?><svg xmlns="http://www.w3.org/2000/svg" xmlns:xlink="http://www.w3.org/1999/xlink" contentStyleType="text/css" height="270px" preserveAspectRatio="none" style="width:1252px;height:270px;background:#FFFFFF;" version="1.1" viewBox="0 0 1252 270" width="1252px" zoomAndPan="magnify"><defs/><g><text fill="#000000" font-family="sans-serif" font-size="14" font-weight="bold" lengthAdjust="spacing" textLength="281" x="478.5" y="24.5332">CP-09 - Avaliar Coleta (robustez) [NOVO]</text><!--entity ator--><g id="elem_ator"><ellipse cx="32.5" cy="125.1094" fill="#F1F1F1" rx="8" ry="8" style="stroke:#181818;stroke-width:0.5;"/><path d="M32.5,133.1094 L32.5,160.1094 M19.5,141.1094 L45.5,141.1094 M32.5,160.1094 L19.5,175.1094 M32.5,160.1094 L45.5,175.1094 " fill="none" style="stroke:#181818;stroke-width:0.5;"/><text fill="#000000" font-family="sans-serif" font-size="14" lengthAdjust="spacing" textLength="53" x="6" y="191.1426">Cidadao</text></g><!--entity b1--><g id="elem_b1"><path d="M157.5,134.6094 L157.5,158.6094 M157.5,146.6094 L174.5,146.6094 " fill="none" style="stroke:#181818;stroke-width:0.5;"/><ellipse cx="186.5" cy="146.6094" fill="#F1F1F1" rx="12" ry="12" style="stroke:#181818;stroke-width:0.5;"/><text fill="#000000" font-family="sans-serif" font-size="14" lengthAdjust="spacing" textLength="118" x="119" y="177.1426">Form de Avaliacao</text></g><!--entity b2--><g id="elem_b2"><path d="M344.5,134.6094 L344.5,158.6094 M344.5,146.6094 L361.5,146.6094 " fill="none" style="stroke:#181818;stroke-width:0.5;"/><ellipse cx="373.5" cy="146.6094" fill="#F1F1F1" rx="12" ry="12" style="stroke:#181818;stroke-width:0.5;"/><text fill="#000000" font-family="sans-serif" font-size="14" lengthAdjust="spacing" textLength="136" x="297" y="177.1426">POST /api/avaliacoes</text></g><!--entity c1--><g id="elem_c1"><ellipse cx="570" cy="146.6094" fill="#F1F1F1" rx="12" ry="12" style="stroke:#181818;stroke-width:0.5;"/><polygon fill="#181818" points="566,134.6094,572,129.6094,570,134.6094,572,139.6094,566,134.6094" style="stroke:#181818;stroke-width:1.0;"/><text fill="#000000" font-family="sans-serif" font-size="14" lengthAdjust="spacing" textLength="154" x="493" y="177.1426">avaliacaoCreateSchema</text></g><!--entity c2--><g id="elem_c2"><ellipse cx="791" cy="138.1094" fill="#F1F1F1" rx="12" ry="12" style="stroke:#181818;stroke-width:0.5;"/><polygon fill="#181818" points="787,126.1094,793,121.1094,791,126.1094,793,131.1094,787,126.1094" style="stroke:#181818;stroke-width:1.0;"/><text fill="#000000" font-family="sans-serif" font-size="14" lengthAdjust="spacing" textLength="99" x="707" y="168.6426">criarAvaliacao()</text><text fill="#000000" font-family="sans-serif" font-size="14" lengthAdjust="spacing" textLength="168" x="707" y="186.252">(dono + concluida + unica)</text></g><!--entity c3--><g id="elem_c3"><ellipse cx="1025.5" cy="61.6094" fill="#F1F1F1" rx="12" ry="12" style="stroke:#181818;stroke-width:0.5;"/><polygon fill="#181818" points="1021.5,49.6094,1027.5,44.6094,1025.5,49.6094,1027.5,54.6094,1021.5,49.6094" style="stroke:#181818;stroke-width:1.0;"/><text fill="#000000" font-family="sans-serif" font-size="14" lengthAdjust="spacing" textLength="181" x="935" y="92.1426">notificarAvaliacaoRecebida()</text></g><!--entity e1--><g id="elem_e1"><ellipse cx="1025.5" cy="146.6094" fill="#F1F1F1" rx="12" ry="12" style="stroke:#181818;stroke-width:0.5;"/><line style="stroke:#181818;stroke-width:0.5;" x1="1013.5" x2="1037.5" y1="160.6094" y2="160.6094"/><text fill="#000000" font-family="sans-serif" font-size="14" lengthAdjust="spacing" textLength="41" x="1005" y="177.1426">Coleta</text></g><!--entity e2--><g id="elem_e2"><ellipse cx="1025.5" cy="231.6094" fill="#F1F1F1" rx="12" ry="12" style="stroke:#181818;stroke-width:0.5;"/><line style="stroke:#181818;stroke-width:0.5;" x1="1013.5" x2="1037.5" y1="245.6094" y2="245.6094"/><text fill="#000000" font-family="sans-serif" font-size="14" lengthAdjust="spacing" textLength="61" x="995" y="262.1426">Avaliacao</text></g><!--entity e3--><g id="elem_e3"><ellipse cx="1210.5" cy="61.6094" fill="#F1F1F1" rx="12" ry="12" style="stroke:#181818;stroke-width:0.5;"/><line style="stroke:#181818;stroke-width:0.5;" x1="1198.5" x2="1222.5" y1="75.6094" y2="75.6094"/><text fill="#000000" font-family="sans-serif" font-size="14" lengthAdjust="spacing" textLength="69" x="1176" y="92.1426">Notificacao</text></g><!--link ator to b1--><g id="link_ator_b1"><path d="M59.15,155.6094 C75.76,155.6094 98.08,155.6094 118.83,155.6094 " fill="none" id="ator-b1" style="stroke:#181818;stroke-width:1.0;"/></g><!--link b1 to b2--><g id="link_b1_b2"><path d="M237.03,155.6094 C256,155.6094 277.22,155.6094 296.81,155.6094 " fill="none" id="b1-b2" style="stroke:#181818;stroke-width:1.0;"/></g><!--link b2 to c1--><g id="link_b2_c1"><path d="M433.03,155.6094 C452.2,155.6094 473.24,155.6094 492.91,155.6094 " fill="none" id="b2-c1" style="stroke:#181818;stroke-width:1.0;"/></g><!--link c1 to c2--><g id="link_c1_c2"><path d="M647.29,155.6094 C666.55,155.6094 687.32,155.6094 706.89,155.6094 " fill="none" id="c1-c2" style="stroke:#181818;stroke-width:1.0;"/></g><!--link c2 to e1--><g id="link_c2_e1"><path d="M875.28,155.6094 C921.93,155.6094 976.3,155.6094 1004.78,155.6094 " fill="none" id="c2-e1" style="stroke:#181818;stroke-width:1.0;"/></g><!--link c2 to e2--><g id="link_c2_e2"><path d="M875.28,186.0594 C916.98,201.2994 964.84,218.7994 994.88,229.7794 " fill="none" id="c2-e2" style="stroke:#181818;stroke-width:1.0;"/></g><!--link c2 to c3--><g id="link_c2_c3"><path d="M875.28,125.1594 C901.73,115.4894 930.67,104.9194 955.95,95.6694 " fill="none" id="c2-c3" style="stroke:#181818;stroke-width:1.0;"/></g><!--link c3 to e3--><g id="link_c3_e3"><path d="M1116.12,70.6094 C1137.5,70.6094 1159,70.6094 1175.98,70.6094 " fill="none" id="c3-e3" style="stroke:#181818;stroke-width:1.0;"/></g><!--SRC=[LP11JyCm38Nl-HLMJwrGDTgUEA9A7DTfGro0WvjuB58MezIT1B-UDEswSNjw_cm_MwmuWdPNFZv12SyNT1O3jEn84FB0_JW8_HRmlktUka_bw2WW3C5-dGIC3QJ5ibUeXGDahJLea3F00J0wgkVH6mm_aBrmE8EXPOLUeBwwGtRTuHKs-6qtE4DCmqpLIhENm0uolFQtWL3ee4zqnaJfwaRf4CzOL-N5XyyDUuO7Y8XsOymPzUYjnc9klblXMUmnLcu3zgIfZptv0ZUAl5Y9cUTF9PUgrVr_9DLhORkCNakDKjEZe2pJBweaQjNNavWkIiwKBZbnnoAkJioYc-GqVm00]--></g></svg>