<?xml version="1.0" encoding="us-ascii" standalone="no"?><svg xmlns="http://www.w3.org/2000/svg" xmlns:xlink="http://www.w3.org/1999/xlink" contentStyleType="text/css" height="440px" preserveAspectRatio="none" style="width:1363px;height:440px;background:#FFFFFF;" version="1.1" viewBox="0 0 1363 440" width="1363px" zoomAndPan="magnify"><defs/><g><text fill="#000000" font-family="sans-serif" font-size="14" font-weight="bold" lengthAdjust="spacing" textLength="258" x="545.5" y="24.5332">CP-06 - Aceitar Solicitacao (robustez)</text><!--entity ator--><g id="elem_ator"><ellipse cx="34" cy="210.1094" fill="#F1F1F1" rx="8" ry="8" style="stroke:#181818;stroke-width:0.5;"/><path d="M34,218.1094 L34,245.1094 M21,226.1094 L47,226.1094 M34,245.1094 L21,260.1094 M34,245.1094 L47,260.1094 " fill="none" style="stroke:#181818;stroke-width:0.5;"/><text fill="#000000" font-family="sans-serif" font-size="14" lengthAdjust="spacing" textLength="56" x="6" y="276.1426">Empresa</text></g><!--entity b1--><g id="elem_b1"><path d="M193,219.6094 L193,243.6094 M193,231.6094 L210,231.6094 " fill="none" style="stroke:#181818;stroke-width:0.5;"/><ellipse cx="222" cy="231.6094" fill="#F1F1F1" rx="12" ry="12" style="stroke:#181818;stroke-width:0.5;"/><text fill="#000000" font-family="sans-serif" font-size="14" lengthAdjust="spacing" textLength="183" x="122" y="262.1426">Tela Solicitacoes Disponiveis</text></g><!--entity b2--><g id="elem_b2"><path d="M431,219.6094 L431,243.6094 M431,231.6094 L448,231.6094 " fill="none" style="stroke:#181818;stroke-width:0.5;"/><ellipse cx="460" cy="231.6094" fill="#F1F1F1" rx="12" ry="12" style="stroke:#181818;stroke-width:0.5;"/><text fill="#000000" font-family="sans-serif" font-size="14" lengthAdjust="spacing" textLength="173" x="365" y="262.1426">POST /api/empresa/coletas</text></g><!--entity c0--><g id="elem_c0"><ellipse cx="670" cy="231.6094" fill="#F1F1F1" rx="12" ry="12" style="stroke:#181818;stroke-width:0.5;"/><polygon fill="#181818" points="666,219.6094,672,214.6094,670,219.6094,672,224.6094,666,219.6094" style="stroke:#181818;stroke-width:1.0;"/><text fill="#000000" font-family="sans-serif" font-size="14" lengthAdjust="spacing" textLength="144" x="598" y="262.1426">route-guard (empresa)</text></g><!--entity c1--><g id="elem_c1"><ellipse cx="900" cy="231.6094" fill="#F1F1F1" rx="12" ry="12" style="stroke:#181818;stroke-width:0.5;"/><polygon fill="#181818" points="896,219.6094,902,214.6094,900,219.6094,902,224.6094,896,219.6094" style="stroke:#181818;stroke-width:1.0;"/><text fill="#000000" font-family="sans-serif" font-size="14" lengthAdjust="spacing" textLength="196" x="802" y="262.1426">aceitarSolicitacao() [transacao]</text></g><!--entity c2--><g id="elem_c2"><ellipse cx="1142.5" cy="61.6094" fill="#F1F1F1" rx="12" ry="12" style="stroke:#181818;stroke-width:0.5;"/><polygon fill="#181818" points="1138.5,49.6094,1144.5,44.6094,1142.5,49.6094,1144.5,54.6094,1138.5,49.6094" style="stroke:#181818;stroke-width:1.0;"/><text fill="#000000" font-family="sans-serif" font-size="14" lengthAdjust="spacing" textLength="169" x="1058" y="92.1426">gerarCodigoConfirmacao()</text></g><!--entity c3--><g id="elem_c3"><ellipse cx="1142.5" cy="146.6094" fill="#F1F1F1" rx="12" ry="12" style="stroke:#181818;stroke-width:0.5;"/><polygon fill="#181818" points="1138.5,134.6094,1144.5,129.6094,1142.5,134.6094,1144.5,139.6094,1138.5,134.6094" style="stroke:#181818;stroke-width:1.0;"/><text fill="#000000" font-family="sans-serif" font-size="14" lengthAdjust="spacing" textLength="140" x="1072.5" y="177.1426">notificarColetaAceita()</text></g><!--entity e1--><g id="elem_e1"><ellipse cx="1142.5" cy="231.6094" fill="#F1F1F1" rx="12" ry="12" style="stroke:#181818;stroke-width:0.5;"/><line style="stroke:#181818;stroke-width:0.5;" x1="1130.5" x2="1154.5" y1="245.6094" y2="245.6094"/><text fill="#000000" font-family="sans-serif" font-size="14" lengthAdjust="spacing" textLength="109" x="1088" y="262.1426">SolicitacaoColeta</text></g><!--entity e2--><g id="elem_e2"><ellipse cx="1142.5" cy="316.6094" fill="#F1F1F1" rx="12" ry="12" style="stroke:#181818;stroke-width:0.5;"/><line style="stroke:#181818;stroke-width:0.5;" x1="1130.5" x2="1154.5" y1="330.6094" y2="330.6094"/><text fill="#000000" font-family="sans-serif" font-size="14" lengthAdjust="spacing" textLength="41" x="1122" y="347.1426">Coleta</text></g><!--entity e3--><g id="elem_e3"><ellipse cx="1142.5" cy="401.6094" fill="#F1F1F1" rx="12" ry="12" style="stroke:#181818;stroke-width:0.5;"/><line style="stroke:#181818;stroke-width:0.5;" x1="1130.5" x2="1154.5" y1="415.6094" y2="415.6094"/><text fill="#000000" font-family="sans-serif" font-size="14" lengthAdjust="spacing" textLength="129" x="1078" y="432.1426">ConversaSolicitacao</text></g><!--entity e4--><g id="elem_e4"><ellipse cx="1321.5" cy="146.6094" fill="#F1F1F1" rx="12" ry="12" style="stroke:#181818;stroke-width:0.5;"/><line style="stroke:#181818;stroke-width:0.5;" x1="1309.5" x2="1333.5" y1="160.6094" y2="160.6094"/><text fill="#000000" font-family="sans-serif" font-size="14" lengthAdjust="spacing" textLength="69" x="1287" y="177.1426">Notificacao</text></g><!--link ator to b1--><g id="link_ator_b1"><path d="M62.35,240.6094 C78.59,240.6094 100.21,240.6094 121.97,240.6094 " fill="none" id="ator-b1" style="stroke:#181818;stroke-width:1.0;"/></g><!--link b1 to b2--><g id="link_b1_b2"><path d="M305.07,240.6094 C324.7,240.6094 345.4,240.6094 364.83,240.6094 " fill="none" id="b1-b2" style="stroke:#181818;stroke-width:1.0;"/></g><!--link b2 to c0--><g id="link_b2_c0"><path d="M538.07,240.6094 C557.92,240.6094 578.85,240.6094 598,240.6094 " fill="none" id="b2-c0" style="stroke:#181818;stroke-width:1.0;"/></g><!--link c0 to c1--><g id="link_c0_c1"><path d="M742.2,240.6094 C761.02,240.6094 781.65,240.6094 801.59,240.6094 " fill="none" id="c0-c1" style="stroke:#181818;stroke-width:1.0;"/></g><!--link c1 to c2--><g id="link_c1_c2"><path d="M927.95,215.5494 C958.16,188.2194 1009.3,144.1694 1058,112.6094 C1067.12,106.6994 1077.19,100.9994 1087.08,95.8194 " fill="none" id="c1-c2" style="stroke:#181818;stroke-width:1.0;"/></g><!--link c1 to e1--><g id="link_c1_e1"><path d="M998.13,240.6094 C1028.76,240.6094 1061.48,240.6094 1087.91,240.6094 " fill="none" id="c1-e1" style="stroke:#181818;stroke-width:1.0;"/></g><!--link c1 to e2--><g id="link_c1_e2"><path d="M971.86,265.6494 C1023.4,283.8694 1089.6,307.2694 1121.95,318.6994 " fill="none" id="c1-e2" style="stroke:#181818;stroke-width:1.0;"/></g><!--link c1 to e3--><g id="link_c1_e3"><path d="M928.32,265.6094 C958.64,292.6494 1009.69,336.1094 1058,367.6094 C1067.7,373.9294 1078.44,380.0594 1088.9,385.6094 " fill="none" id="c1-e3" style="stroke:#181818;stroke-width:1.0;"/></g><!--link c1 to c3--><g id="link_c1_c3"><path d="M971.86,215.5694 C1003.59,204.3494 1040.87,191.1794 1072.39,180.0394 " fill="none" id="c1-c3" style="stroke:#181818;stroke-width:1.0;"/></g><!--link c3 to e4--><g id="link_c3_e4"><path d="M1212.69,155.6094 C1238.1,155.6094 1265.73,155.6094 1286.66,155.6094 " fill="none" id="c3-e4" style="stroke:#181818;stroke-width:1.0;"/></g><!--SRC=[JP11Ry8m38Nl-HLMJt2ee0NjFh5TDoIuJJkugM6MIemS5sdxzMiJeBszl7pFoREnTGIxVRb-WH9UFR6Xma4wzeFoAB1GQVfezBTq7PqCJ43v_6FGif8tbk3GcoWKxvUhKiG2C08EZcka3otgBnH7wd2QAXJXZUDL0j-8OmeqrGpVVnwEiC8hhoZFN7dfoF2ErivBC9KE2fNUg3ptg2qixl0oKNuzKPXxpMejbl1bYY6EX-ySgAR0cHHr9osVPIVXn7h9eGpEtWzYV68_mkC7ym8VtCPHCBQXqEpb32Q0gYSmT-kP6swa4MVnZ4oJF-uVU5vjdHkN3sMPTbebKRkc7iMub7KIGzbqDPP9WXuEFPtDWnd49ZdRVm00]--></g></svg>