<?xml version="1.0" encoding="us-ascii" standalone="no"?><svg xmlns="http://www.w3.org/2000/svg" xmlns:xlink="http://www.w3.org/1999/xlink" contentStyleType="text/css" height="227px" preserveAspectRatio="none" style="width:1287px;height:227px;background:#FFFFFF;" version="1.1" viewBox="0 0 1287 227" width="1287px" zoomAndPan="magnify"><defs/><g><text fill="#000000" font-family="sans-serif" font-size="14" font-weight="bold" lengthAdjust="spacing" textLength="273" x="500" y="24.5332">CP-08 - Conversar na Coleta (robustez)</text><!--entity ator--><g id="elem_ator"><ellipse cx="66.5" cy="125.1094" fill="#F1F1F1" rx="8" ry="8" style="stroke:#181818;stroke-width:0.5;"/><path d="M66.5,133.1094 L66.5,160.1094 M53.5,141.1094 L79.5,141.1094 M66.5,160.1094 L53.5,175.1094 M66.5,160.1094 L79.5,175.1094 " fill="none" style="stroke:#181818;stroke-width:0.5;"/><text fill="#000000" font-family="sans-serif" font-size="14" lengthAdjust="spacing" textLength="121" x="6" y="191.1426">Cidadao / Empresa</text></g><!--entity b1--><g id="elem_b1"><path d="M214,134.6094 L214,158.6094 M214,146.6094 L231,146.6094 " fill="none" style="stroke:#181818;stroke-width:0.5;"/><ellipse cx="243" cy="146.6094" fill="#F1F1F1" rx="12" ry="12" style="stroke:#181818;stroke-width:0.5;"/><text fill="#000000" font-family="sans-serif" font-size="14" lengthAdjust="spacing" textLength="95" x="187" y="177.1426">Chat da Coleta</text></g><!--entity b2--><g id="elem_b2"><path d="M423,134.6094 L423,158.6094 M423,146.6094 L440,146.6094 " fill="none" style="stroke:#181818;stroke-width:0.5;"/><ellipse cx="452" cy="146.6094" fill="#F1F1F1" rx="12" ry="12" style="stroke:#181818;stroke-width:0.5;"/><text fill="#000000" font-family="sans-serif" font-size="14" lengthAdjust="spacing" textLength="203" x="342" y="177.1426">POST /api/mensagens/[coletaId]</text></g><!--entity c1--><g id="elem_c1"><ellipse cx="678.5" cy="146.6094" fill="#F1F1F1" rx="12" ry="12" style="stroke:#181818;stroke-width:0.5;"/><polygon fill="#181818" points="674.5,134.6094,680.5,129.6094,678.5,134.6094,680.5,139.6094,674.5,134.6094" style="stroke:#181818;stroke-width:1.0;"/><text fill="#000000" font-family="sans-serif" font-size="14" lengthAdjust="spacing" textLength="147" x="605" y="177.1426">verificarAcessoColeta()</text></g><!--entity c2--><g id="elem_c2"><ellipse cx="871" cy="103.6094" fill="#F1F1F1" rx="12" ry="12" style="stroke:#181818;stroke-width:0.5;"/><polygon fill="#181818" points="867,91.6094,873,86.6094,871,91.6094,873,96.6094,867,91.6094" style="stroke:#181818;stroke-width:1.0;"/><text fill="#000000" font-family="sans-serif" font-size="14" lengthAdjust="spacing" textLength="118" x="812" y="134.1426">enviarMensagem()</text></g><!--entity c3--><g id="elem_c3"><ellipse cx="1070.5" cy="61.6094" fill="#F1F1F1" rx="12" ry="12" style="stroke:#181818;stroke-width:0.5;"/><polygon fill="#181818" points="1066.5,49.6094,1072.5,44.6094,1070.5,49.6094,1072.5,54.6094,1066.5,49.6094" style="stroke:#181818;stroke-width:1.0;"/><text fill="#000000" font-family="sans-serif" font-size="14" lengthAdjust="spacing" textLength="161" x="990" y="92.1426">notificarNovaMensagem()</text></g><!--entity e1--><g id="elem_e1"><ellipse cx="871" cy="188.6094" fill="#F1F1F1" rx="12" ry="12" style="stroke:#181818;stroke-width:0.5;"/><line style="stroke:#181818;stroke-width:0.5;" x1="859" x2="883" y1="202.6094" y2="202.6094"/><text fill="#000000" font-family="sans-serif" font-size="14" lengthAdjust="spacing" textLength="41" x="850.5" y="219.1426">Coleta</text></g><!--entity e2--><g id="elem_e2"><ellipse cx="1070.5" cy="146.6094" fill="#F1F1F1" rx="12" ry="12" style="stroke:#181818;stroke-width:0.5;"/><line style="stroke:#181818;stroke-width:0.5;" x1="1058.5" x2="1082.5" y1="160.6094" y2="160.6094"/><text fill="#000000" font-family="sans-serif" font-size="14" lengthAdjust="spacing" textLength="69" x="1036" y="177.1426">Mensagem</text></g><!--entity e3--><g id="elem_e3"><ellipse cx="1245.5" cy="61.6094" fill="#F1F1F1" rx="12" ry="12" style="stroke:#181818;stroke-width:0.5;"/><line style="stroke:#181818;stroke-width:0.5;" x1="1233.5" x2="1257.5" y1="75.6094" y2="75.6094"/><text fill="#000000" font-family="sans-serif" font-size="14" lengthAdjust="spacing" textLength="69" x="1211" y="92.1426">Notificacao</text></g><!--link ator to b1--><g id="link_ator_b1"><path d="M127.43,155.6094 C147.03,155.6094 168.48,155.6094 186.94,155.6094 " fill="none" id="ator-b1" style="stroke:#181818;stroke-width:1.0;"/></g><!--link b1 to b2--><g id="link_b1_b2"><path d="M282.21,155.6094 C299.98,155.6094 320.98,155.6094 341.83,155.6094 " fill="none" id="b1-b2" style="stroke:#181818;stroke-width:1.0;"/></g><!--link b2 to c1--><g id="link_b2_c1"><path d="M545,155.6094 C565.08,155.6094 585.8,155.6094 604.72,155.6094 " fill="none" id="b2-c1" style="stroke:#181818;stroke-width:1.0;"/></g><!--link c1 to e1--><g id="link_c1_e1"><path d="M752.06,171.6094 C787.39,179.3994 827.14,188.1594 850.3,193.2694 " fill="none" id="c1-e1" style="stroke:#181818;stroke-width:1.0;"/></g><!--link c1 to c2--><g id="link_c1_c2"><path d="M752.06,139.2294 C771.83,134.7694 792.98,129.9894 811.84,125.7394 " fill="none" id="c1-c2" style="stroke:#181818;stroke-width:1.0;"/></g><!--link c2 to e2--><g id="link_c2_e2"><path d="M930.19,125.2794 C964.55,132.7594 1006.85,141.9694 1035.76,148.2594 " fill="none" id="c2-e2" style="stroke:#181818;stroke-width:1.0;"/></g><!--link c2 to c3--><g id="link_c2_c3"><path d="M930.19,100.2394 C948.85,96.2694 969.85,91.7994 989.77,87.5594 " fill="none" id="c2-c3" style="stroke:#181818;stroke-width:1.0;"/></g><!--link c3 to e3--><g id="link_c3_e3"><path d="M1151.16,70.6094 C1172.09,70.6094 1193.56,70.6094 1210.62,70.6094 " fill="none" id="c3-e3" style="stroke:#181818;stroke-width:1.0;"/></g><!--SRC=[NP0nJyCm48Lt_ufJfdQ8GfA55KKC39HAi266YtDjBIM-wdoD1ByUnoPjnHAzlFVvwTdgT2JezkN38vJGiPz90WfuZ3yZAS96kBy4fP-j6UcWe0pYZYU5mGbPTUmDMcM1edC33iXGmVDq5WfO00R0c9cUBtv0-OxG2UFHjJqHVNsNxz_UFw32iwicyW6FyLDzsWI_35-PRunbhy8Z576kEpYBycGf1CwjcstYR7tZoCyEvJLNJYjmL-HPSz6EP_pFjOQyEbtctsPJVNLNFllDrT_zbLha7BN6BEy1PPbkNIVHcBvPnB8tERIAPM2AQ1LnYcsJq_u2]--></g></svg>