<?xml version="1.0" encoding="us-ascii" standalone="no"?><svg xmlns="http://www.w3.org/2000/svg" xmlns:xlink="http://www.w3.org/1999/xlink" contentStyleType="text/css" height="185px" preserveAspectRatio="none" style="width:1105px;height:185px;background:#FFFFFF;" version="1.1" viewBox="0 0 1105 185" width="1105px" zoomAndPan="magnify"><defs/><g><text fill="#000000" font-family="sans-serif" font-size="14" font-weight="bold" lengthAdjust="spacing" textLength="201" x="445.25" y="24.5332">CP-02 - Autenticar (robustez)</text><!--entity ator--><g id="elem_ator"><ellipse cx="30" cy="83.1094" fill="#F1F1F1" rx="8" ry="8" style="stroke:#181818;stroke-width:0.5;"/><path d="M30,91.1094 L30,118.1094 M17,99.1094 L43,99.1094 M30,118.1094 L17,133.1094 M30,118.1094 L43,133.1094 " fill="none" style="stroke:#181818;stroke-width:0.5;"/><text fill="#000000" font-family="sans-serif" font-size="14" lengthAdjust="spacing" textLength="48" x="6" y="149.1426">Usuario</text></g><!--entity b1--><g id="elem_b1"><path d="M126.5,92.6094 L126.5,116.6094 M126.5,104.6094 L143.5,104.6094 " fill="none" style="stroke:#181818;stroke-width:0.5;"/><ellipse cx="155.5" cy="104.6094" fill="#F1F1F1" rx="12" ry="12" style="stroke:#181818;stroke-width:0.5;"/><text fill="#000000" font-family="sans-serif" font-size="14" lengthAdjust="spacing" textLength="66" x="114" y="135.1426">Tela /login</text></g><!--entity b2--><g id="elem_b2"><path d="M291,92.6094 L291,116.6094 M291,104.6094 L308,104.6094 " fill="none" style="stroke:#181818;stroke-width:0.5;"/><ellipse cx="320" cy="104.6094" fill="#F1F1F1" rx="12" ry="12" style="stroke:#181818;stroke-width:0.5;"/><text fill="#000000" font-family="sans-serif" font-size="14" lengthAdjust="spacing" textLength="143" x="240" y="135.1426">NextAuth / mobile/login</text></g><!--entity c1--><g id="elem_c1"><ellipse cx="483.5" cy="104.6094" fill="#F1F1F1" rx="12" ry="12" style="stroke:#181818;stroke-width:0.5;"/><polygon fill="#181818" points="479.5,92.6094,485.5,87.6094,483.5,92.6094,485.5,97.6094,479.5,92.6094" style="stroke:#181818;stroke-width:1.0;"/><text fill="#000000" font-family="sans-serif" font-size="14" lengthAdjust="spacing" textLength="81" x="443" y="135.1426">loginSchema</text></g><!--entity c2--><g id="elem_c2"><ellipse cx="681.5" cy="96.1094" fill="#F1F1F1" rx="12" ry="12" style="stroke:#181818;stroke-width:0.5;"/><polygon fill="#181818" points="677.5,84.1094,683.5,79.1094,681.5,84.1094,683.5,89.1094,677.5,84.1094" style="stroke:#181818;stroke-width:1.0;"/><text fill="#000000" font-family="sans-serif" font-size="14" lengthAdjust="spacing" textLength="195" x="584" y="126.6426">authenticateUserByCredentials</text><text fill="#000000" font-family="sans-serif" font-size="14" lengthAdjust="spacing" textLength="108" x="584" y="144.252">(bcrypt.compare)</text></g><!--entity c3--><g id="elem_c3"><ellipse cx="923.5" cy="61.6094" fill="#F1F1F1" rx="12" ry="12" style="stroke:#181818;stroke-width:0.5;"/><polygon fill="#181818" points="919.5,49.6094,925.5,44.6094,923.5,49.6094,925.5,54.6094,919.5,49.6094" style="stroke:#181818;stroke-width:1.0;"/><text fill="#000000" font-family="sans-serif" font-size="14" lengthAdjust="spacing" textLength="169" x="839" y="92.1426">emite sessao JWT / tokens</text></g><!--entity e1--><g id="elem_e1"><ellipse cx="923.5" cy="146.6094" fill="#F1F1F1" rx="12" ry="12" style="stroke:#181818;stroke-width:0.5;"/><line style="stroke:#181818;stroke-width:0.5;" x1="911.5" x2="935.5" y1="160.6094" y2="160.6094"/><text fill="#000000" font-family="sans-serif" font-size="14" lengthAdjust="spacing" textLength="29" x="909" y="177.1426">User</text></g><!--entity e2--><g id="elem_e2"><ellipse cx="1084" cy="146.6094" fill="#F1F1F1" rx="12" ry="12" style="stroke:#181818;stroke-width:0.5;"/><line style="stroke:#181818;stroke-width:0.5;" x1="1072" x2="1096" y1="160.6094" y2="160.6094"/><text fill="#000000" font-family="sans-serif" font-size="14" lengthAdjust="spacing" textLength="29" x="1069.5" y="177.1426">Role</text></g><!--link ator to b1--><g id="link_ator_b1"><path d="M54.27,113.6094 C71.34,113.6094 94.72,113.6094 113.61,113.6094 " fill="none" id="ator-b1" style="stroke:#181818;stroke-width:1.0;"/></g><!--link b1 to b2--><g id="link_b1_b2"><path d="M180.1,113.6094 C197.22,113.6094 218.99,113.6094 239.81,113.6094 " fill="none" id="b1-b2" style="stroke:#181818;stroke-width:1.0;"/></g><!--link b2 to c1--><g id="link_b2_c1"><path d="M383.12,113.6094 C403.55,113.6094 425.13,113.6094 442.94,113.6094 " fill="none" id="b2-c1" style="stroke:#181818;stroke-width:1.0;"/></g><!--link c1 to c2--><g id="link_c1_c2"><path d="M524.16,113.6094 C541.5,113.6094 562.67,113.6094 583.76,113.6094 " fill="none" id="c1-c2" style="stroke:#181818;stroke-width:1.0;"/></g><!--link c2 to e1--><g id="link_c2_e1"><path d="M779.08,130.5094 C827.79,139.0394 881.87,148.4994 907.48,152.9794 " fill="none" id="c2-e1" style="stroke:#181818;stroke-width:1.0;"/></g><!--link e1 to e2--><g id="link_e1_e2"><path d="M939.7,155.6094 C969.92,155.6094 1037.24,155.6094 1067.62,155.6094 " fill="none" id="e1-e2" style="stroke:#181818;stroke-width:1.0;"/></g><!--link c2 to c3--><g id="link_c2_c3"><path d="M779.08,96.3094 C798.88,92.7594 819.56,89.0494 838.86,85.5994 " fill="none" id="c2-c3" style="stroke:#181818;stroke-width:1.0;"/></g><!--SRC=[JO-nRiCm34HtVGNXAHdSnCuNjDao54MJe4iNIcPZeR8OK3HGz-jhoMZhZNX77k_KQo0uljJx5cfu79MYUeS26s4x9gNlhGdqeQ0Cuc-zGkU5d7gE1fsoG7LD8uhd2Z01piHO7cE7Ca5reO2m2tppiSYsMOdFzANpmnvsCB3rWTQBhN4SLJX0LUZPzJHWqLpph-5yloHMkYQIf-aer6M28Rt7ZNKotVN1yN17eUrol_AcmIj1efIGuVHscRCeVr9Co-R1P2kTSacImgZvOwySQ66jCRavr7Mfs9IXDRRDGyvRI7vSIFOeX7w9E_m0]--></g></svg>