<?xml version="1.0" encoding="us-ascii" standalone="no"?><svg xmlns="http://www.w3.org/2000/svg" xmlns:xlink="http://www.w3.org/1999/xlink" contentStyleType="text/css" height="255px" preserveAspectRatio="none" style="width:1519px;height:255px;background:#FFFFFF;" version="1.1" viewBox="0 0 1519 255" width="1519px" zoomAndPan="magnify"><defs/><g><text fill="#000000" font-family="sans-serif" font-size="14" font-weight="bold" lengthAdjust="spacing" textLength="367" x="569" y="24.5332">CP-05 - Negociar (chat pre-aceite) (robustez) [NOVO]</text><!--entity a1--><g id="elem_a1"><ellipse cx="34" cy="68.1094" fill="#F1F1F1" rx="8" ry="8" style="stroke:#181818;stroke-width:0.5;"/><path d="M34,76.1094 L34,103.1094 M21,84.1094 L47,84.1094 M34,103.1094 L21,118.1094 M34,103.1094 L47,118.1094 " fill="none" style="stroke:#181818;stroke-width:0.5;"/><text fill="#000000" font-family="sans-serif" font-size="14" lengthAdjust="spacing" textLength="56" x="6" y="134.1426">Empresa</text></g><!--entity a2--><g id="elem_a2"><ellipse cx="34" cy="181.1094" fill="#F1F1F1" rx="8" ry="8" style="stroke:#181818;stroke-width:0.5;"/><path d="M34,189.1094 L34,216.1094 M21,197.1094 L47,197.1094 M34,216.1094 L21,231.1094 M34,216.1094 L47,231.1094 " fill="none" style="stroke:#181818;stroke-width:0.5;"/><text fill="#000000" font-family="sans-serif" font-size="14" lengthAdjust="spacing" textLength="53" x="7.5" y="247.1426">Cidadao</text></g><!--entity b1--><g id="elem_b1"><path d="M165,134.6094 L165,158.6094 M165,146.6094 L182,146.6094 " fill="none" style="stroke:#181818;stroke-width:0.5;"/><ellipse cx="194" cy="146.6094" fill="#F1F1F1" rx="12" ry="12" style="stroke:#181818;stroke-width:0.5;"/><text fill="#000000" font-family="sans-serif" font-size="14" lengthAdjust="spacing" textLength="127" x="122" y="177.1426">Chat de negociacao</text></g><!--entity b2--><g id="elem_b2"><path d="M441,134.6094 L441,158.6094 M441,146.6094 L458,146.6094 " fill="none" style="stroke:#181818;stroke-width:0.5;"/><ellipse cx="470" cy="146.6094" fill="#F1F1F1" rx="12" ry="12" style="stroke:#181818;stroke-width:0.5;"/><text fill="#000000" font-family="sans-serif" font-size="14" lengthAdjust="spacing" textLength="305" x="309" y="177.1426">POST /api/conversas-solicitacao/[id]/mensagens</text></g><!--entity c1--><g id="elem_c1"><ellipse cx="764.5" cy="146.6094" fill="#F1F1F1" rx="12" ry="12" style="stroke:#181818;stroke-width:0.5;"/><polygon fill="#181818" points="760.5,134.6094,766.5,129.6094,764.5,134.6094,766.5,139.6094,760.5,134.6094" style="stroke:#181818;stroke-width:1.0;"/><text fill="#000000" font-family="sans-serif" font-size="14" lengthAdjust="spacing" textLength="181" x="674" y="177.1426">buscarConversaAutorizada()</text></g><!--entity c2--><g id="elem_c2"><ellipse cx="1038.5" cy="103.6094" fill="#F1F1F1" rx="12" ry="12" style="stroke:#181818;stroke-width:0.5;"/><polygon fill="#181818" points="1034.5,91.6094,1040.5,86.6094,1038.5,91.6094,1040.5,96.6094,1034.5,91.6094" style="stroke:#181818;stroke-width:1.0;"/><text fill="#000000" font-family="sans-serif" font-size="14" lengthAdjust="spacing" textLength="247" x="915" y="134.1426">enviarMensagemConversaSolicitacao()</text></g><!--entity c3--><g id="elem_c3"><ellipse cx="1302.5" cy="61.6094" fill="#F1F1F1" rx="12" ry="12" style="stroke:#181818;stroke-width:0.5;"/><polygon fill="#181818" points="1298.5,49.6094,1304.5,44.6094,1302.5,49.6094,1304.5,54.6094,1298.5,49.6094" style="stroke:#181818;stroke-width:1.0;"/><text fill="#000000" font-family="sans-serif" font-size="14" lengthAdjust="spacing" textLength="161" x="1222" y="92.1426">notificarNovaMensagem()</text></g><!--entity e1--><g id="elem_e1"><ellipse cx="1038.5" cy="188.6094" fill="#F1F1F1" rx="12" ry="12" style="stroke:#181818;stroke-width:0.5;"/><line style="stroke:#181818;stroke-width:0.5;" x1="1026.5" x2="1050.5" y1="202.6094" y2="202.6094"/><text fill="#000000" font-family="sans-serif" font-size="14" lengthAdjust="spacing" textLength="129" x="974" y="219.1426">ConversaSolicitacao</text></g><!--entity e2--><g id="elem_e2"><ellipse cx="1302.5" cy="146.6094" fill="#F1F1F1" rx="12" ry="12" style="stroke:#181818;stroke-width:0.5;"/><line style="stroke:#181818;stroke-width:0.5;" x1="1290.5" x2="1314.5" y1="160.6094" y2="160.6094"/><text fill="#000000" font-family="sans-serif" font-size="14" lengthAdjust="spacing" textLength="130" x="1237.5" y="177.1426">MensagemPreAceite</text></g><!--entity e3--><g id="elem_e3"><ellipse cx="1477.5" cy="61.6094" fill="#F1F1F1" rx="12" ry="12" style="stroke:#181818;stroke-width:0.5;"/><line style="stroke:#181818;stroke-width:0.5;" x1="1465.5" x2="1489.5" y1="75.6094" y2="75.6094"/><text fill="#000000" font-family="sans-serif" font-size="14" lengthAdjust="spacing" textLength="69" x="1443" y="92.1426">Notificacao</text></g><!--link a1 to b1--><g id="link_a1_b1"><path d="M62.07,108.9294 C78.82,115.3194 101.04,123.7894 121.95,131.7594 " fill="none" id="a1-b1" style="stroke:#181818;stroke-width:1.0;"/></g><!--link a2 to b1--><g id="link_a2_b1"><path d="M60.7,201.9794 C77.56,195.6694 100.39,187.1194 121.85,179.0794 " fill="none" id="a2-b1" style="stroke:#181818;stroke-width:1.0;"/></g><!--link b1 to b2--><g id="link_b1_b2"><path d="M249.02,155.6094 C267.18,155.6094 287.85,155.6094 308.99,155.6094 " fill="none" id="b1-b2" style="stroke:#181818;stroke-width:1.0;"/></g><!--link b2 to c1--><g id="link_b2_c1"><path d="M614.32,155.6094 C634.63,155.6094 654.91,155.6094 673.67,155.6094 " fill="none" id="b2-c1" style="stroke:#181818;stroke-width:1.0;"/></g><!--link c1 to e1--><g id="link_c1_e1"><path d="M855.32,169.4794 C894,175.4494 938.34,182.2994 973.6,187.7394 " fill="none" id="c1-e1" style="stroke:#181818;stroke-width:1.0;"/></g><!--link c1 to c2--><g id="link_c1_c2"><path d="M855.32,141.4094 C874.35,138.3994 894.75,135.1794 914.77,132.0094 " fill="none" id="c1-c2" style="stroke:#181818;stroke-width:1.0;"/></g><!--link c2 to e2--><g id="link_c2_e2"><path d="M1162.06,132.7294 C1188.03,136.9894 1214.45,141.3194 1237.2,145.0594 " fill="none" id="c2-e2" style="stroke:#181818;stroke-width:1.0;"/></g><!--link c2 to c3--><g id="link_c2_c3"><path d="M1162.06,92.9594 C1182.31,89.7194 1202.82,86.4294 1221.66,83.4094 " fill="none" id="c2-c3" style="stroke:#181818;stroke-width:1.0;"/></g><!--link c3 to e3--><g id="link_c3_e3"><path d="M1383.16,70.6094 C1404.09,70.6094 1425.56,70.6094 1442.62,70.6094 " fill="none" id="c3-e3" style="stroke:#181818;stroke-width:1.0;"/></g><!--SRC=[PP31Ri8m38RlUGgB4noghgts00ZjI45YsWLnS5C3bag24hVIUFgbQGD8kqJMx- -t_rXOEeBDFlluX0ngkbZDw62fhoXmTvIX9XPQmTBPflT2ZnKSwztFxgGwEWk81SUNgq3BZhImDGgrM0UBhrkmUrm0Ui0YgHjkiKKxgQLgR6zQTB-XCIvi2SmKGSzCKxmn-ztX6tAySwwj6SXvz9ct7MkMqP0VkJtbDp8UB-6P_AKAh3ZRmIBar-WsitNTXq3y26cMguZgueMI6S8PjjEeMx8SNhkIvssyiS9d3XjgEs2o9gvIP8Hb_EZ_OH6XueaayzxHEfv_0iedKC-hdjvAAImWoyPxOJaNpQI4AqTb_5zKA1LZ-jYYL8ISkefAzGS0]--></g></svg>