<?xml version="1.0" encoding="us-ascii" standalone="no"?><svg xmlns="http://www.w3.org/2000/svg" xmlns:xlink="http://www.w3.org/1999/xlink" contentStyleType="text/css" height="265px" preserveAspectRatio="none" style="width:903px;height:265px;background:#FFFFFF;" version="1.1" viewBox="0 0 903 265" width="903px" zoomAndPan="magnify"><defs/><g><text fill="#000000" font-family="sans-serif" font-size="14" font-weight="bold" lengthAdjust="spacing" textLength="337" x="276" y="24.5332">CP-01 - Cadastro de Usuario/Empresa (robustez)</text><!--entity ator--><g id="elem_ator"><ellipse cx="33" cy="120.1094" fill="#F1F1F1" rx="8" ry="8" style="stroke:#181818;stroke-width:0.5;"/><path d="M33,128.1094 L33,155.1094 M20,136.1094 L46,136.1094 M33,155.1094 L20,170.1094 M33,155.1094 L46,170.1094 " fill="none" style="stroke:#181818;stroke-width:0.5;"/><text fill="#000000" font-family="sans-serif" font-size="14" lengthAdjust="spacing" textLength="54" x="6" y="186.1426">Visitante</text></g><!--entity b1--><g id="elem_b1"><path d="M141.5,129.6094 L141.5,153.6094 M141.5,141.6094 L158.5,141.6094 " fill="none" style="stroke:#181818;stroke-width:0.5;"/><ellipse cx="170.5" cy="141.6094" fill="#F1F1F1" rx="12" ry="12" style="stroke:#181818;stroke-width:0.5;"/><text fill="#000000" font-family="sans-serif" font-size="14" lengthAdjust="spacing" textLength="84" x="120" y="172.1426">Tela /register</text></g><!--entity b2--><g id="elem_b2"><path d="M318,129.6094 L318,153.6094 M318,141.6094 L335,141.6094 " fill="none" style="stroke:#181818;stroke-width:0.5;"/><ellipse cx="347" cy="141.6094" fill="#F1F1F1" rx="12" ry="12" style="stroke:#181818;stroke-width:0.5;"/><text fill="#000000" font-family="sans-serif" font-size="14" lengthAdjust="spacing" textLength="149" x="264" y="172.1426">POST /api/auth/register</text></g><!--entity c1--><g id="elem_c1"><ellipse cx="541.5" cy="141.6094" fill="#F1F1F1" rx="12" ry="12" style="stroke:#181818;stroke-width:0.5;"/><polygon fill="#181818" points="537.5,129.6094,543.5,124.6094,541.5,129.6094,543.5,134.6094,537.5,129.6094" style="stroke:#181818;stroke-width:1.0;"/><text fill="#000000" font-family="sans-serif" font-size="14" lengthAdjust="spacing" textLength="137" x="473" y="172.1426">registerSchema (Zod)</text></g><!--entity c2--><g id="elem_c2"><ellipse cx="723" cy="141.6094" fill="#F1F1F1" rx="12" ry="12" style="stroke:#181818;stroke-width:0.5;"/><polygon fill="#181818" points="719,129.6094,725,124.6094,723,129.6094,725,134.6094,719,129.6094" style="stroke:#181818;stroke-width:1.0;"/><text fill="#000000" font-family="sans-serif" font-size="14" lengthAdjust="spacing" textLength="106" x="670" y="172.1426">registerUsuario()</text></g><!--entity e1--><g id="elem_e1"><ellipse cx="866" cy="56.6094" fill="#F1F1F1" rx="12" ry="12" style="stroke:#181818;stroke-width:0.5;"/><line style="stroke:#181818;stroke-width:0.5;" x1="854" x2="878" y1="70.6094" y2="70.6094"/><text fill="#000000" font-family="sans-serif" font-size="14" lengthAdjust="spacing" textLength="29" x="851.5" y="87.1426">User</text></g><!--entity e2--><g id="elem_e2"><ellipse cx="866" cy="141.6094" fill="#F1F1F1" rx="12" ry="12" style="stroke:#181818;stroke-width:0.5;"/><line style="stroke:#181818;stroke-width:0.5;" x1="854" x2="878" y1="155.6094" y2="155.6094"/><text fill="#000000" font-family="sans-serif" font-size="14" lengthAdjust="spacing" textLength="60" x="836" y="172.1426">Company</text></g><!--entity e3--><g id="elem_e3"><ellipse cx="866" cy="226.6094" fill="#F1F1F1" rx="12" ry="12" style="stroke:#181818;stroke-width:0.5;"/><line style="stroke:#181818;stroke-width:0.5;" x1="854" x2="878" y1="240.6094" y2="240.6094"/><text fill="#000000" font-family="sans-serif" font-size="14" lengthAdjust="spacing" textLength="29" x="851.5" y="257.1426">Role</text></g><!--link ator to b1--><g id="link_ator_b1"><path d="M60.01,150.6094 C77.13,150.6094 99.93,150.6094 119.53,150.6094 " fill="none" id="ator-b1" style="stroke:#181818;stroke-width:1.0;"/></g><!--link b1 to b2--><g id="link_b1_b2"><path d="M204.35,150.6094 C222.09,150.6094 243.37,150.6094 263.65,150.6094 " fill="none" id="b1-b2" style="stroke:#181818;stroke-width:1.0;"/></g><!--link b2 to c1--><g id="link_b2_c1"><path d="M413.2,150.6094 C432.7,150.6094 453.65,150.6094 472.81,150.6094 " fill="none" id="b2-c1" style="stroke:#181818;stroke-width:1.0;"/></g><!--link c1 to c2--><g id="link_c1_c2"><path d="M610.11,150.6094 C629.88,150.6094 651.19,150.6094 669.85,150.6094 " fill="none" id="c1-c2" style="stroke:#181818;stroke-width:1.0;"/></g><!--link c2 to e1--><g id="link_c2_e1"><path d="M765.54,125.5694 C793.97,108.4294 830.01,86.6994 849.97,74.6694 " fill="none" id="c2-e1" style="stroke:#181818;stroke-width:1.0;"/></g><!--link c2 to e2--><g id="link_c2_e2"><path d="M776.1,150.6094 C796.19,150.6094 818.41,150.6094 835.61,150.6094 " fill="none" id="c2-e2" style="stroke:#181818;stroke-width:1.0;"/></g><!--link c2 to e3--><g id="link_c2_e3"><path d="M765.54,175.6494 C793.97,192.7894 830.01,214.5194 849.97,226.5494 " fill="none" id="c2-e3" style="stroke:#181818;stroke-width:1.0;"/></g><!--SRC=[POyzRiCm38LtdOBmb0o6A-S8HkS6JTAX6osnCG5RD2HwI4zVMN7Jejs8nm_lHrb7WkvOFrceeKEFIQE09xYa1IDByppDaHB2Bag_9ANFlHdfGq458by71S-HdB84WqubGlN6YHM3KWMO0BDcUbc2ntY3wamZGXFfojah5gAtl_x7bzCP6fovmKM7Fs1hd8JSRuJg-t5o0qsvtRluVO6S_GzjMtORqHeAofhJBccp9llGEfbc3BUx_8E-odWVH0TZrb5GrwMwBKTh-dOzrlYYv1HNb6oz7G_by0K0]--></g></svg>