<?xml version="1.0" encoding="us-ascii" standalone="no"?><svg xmlns="http://www.w3.org/2000/svg" xmlns:xlink="http://www.w3.org/1999/xlink" contentStyleType="text/css" height="185px" preserveAspectRatio="none" style="width:1374px;height:185px;background:#FFFFFF;" version="1.1" viewBox="0 0 1374 185" width="1374px" zoomAndPan="magnify"><defs/><g><text fill="#000000" font-family="sans-serif" font-size="14" font-weight="bold" lengthAdjust="spacing" textLength="269" x="545.5" y="24.5332">CP-04 - Moderar Solicitacao (robustez)</text><!--entity ator--><g id="elem_ator"><ellipse cx="49.5" cy="83.1094" fill="#F1F1F1" rx="8" ry="8" style="stroke:#181818;stroke-width:0.5;"/><path d="M49.5,91.1094 L49.5,118.1094 M36.5,99.1094 L62.5,99.1094 M49.5,118.1094 L36.5,133.1094 M49.5,118.1094 L62.5,133.1094 " fill="none" style="stroke:#181818;stroke-width:0.5;"/><text fill="#000000" font-family="sans-serif" font-size="14" lengthAdjust="spacing" textLength="87" x="6" y="149.1426">Administrador</text></g><!--entity b1--><g id="elem_b1"><path d="M207.5,92.6094 L207.5,116.6094 M207.5,104.6094 L224.5,104.6094 " fill="none" style="stroke:#181818;stroke-width:0.5;"/><ellipse cx="236.5" cy="104.6094" fill="#F1F1F1" rx="12" ry="12" style="stroke:#181818;stroke-width:0.5;"/><text fill="#000000" font-family="sans-serif" font-size="14" lengthAdjust="spacing" textLength="150" x="153" y="135.1426">Tela Admin Solicitacoes</text></g><!--entity b2--><g id="elem_b2"><path d="M450,92.6094 L450,116.6094 M450,104.6094 L467,104.6094 " fill="none" style="stroke:#181818;stroke-width:0.5;"/><ellipse cx="479" cy="104.6094" fill="#F1F1F1" rx="12" ry="12" style="stroke:#181818;stroke-width:0.5;"/><text fill="#000000" font-family="sans-serif" font-size="14" lengthAdjust="spacing" textLength="215" x="363" y="135.1426">PATCH /api/admin/solicitacoes/[id]</text></g><!--entity c0--><g id="elem_c0"><ellipse cx="701.5" cy="104.6094" fill="#F1F1F1" rx="12" ry="12" style="stroke:#181818;stroke-width:0.5;"/><polygon fill="#181818" points="697.5,92.6094,703.5,87.6094,701.5,92.6094,703.5,97.6094,697.5,92.6094" style="stroke:#181818;stroke-width:1.0;"/><text fill="#000000" font-family="sans-serif" font-size="14" lengthAdjust="spacing" textLength="127" x="638" y="135.1426">route-guard (admin)</text></g><!--entity c1--><g id="elem_c1"><ellipse cx="910.5" cy="104.6094" fill="#F1F1F1" rx="12" ry="12" style="stroke:#181818;stroke-width:0.5;"/><polygon fill="#181818" points="906.5,92.6094,912.5,87.6094,910.5,92.6094,912.5,97.6094,906.5,92.6094" style="stroke:#181818;stroke-width:1.0;"/><text fill="#000000" font-family="sans-serif" font-size="14" lengthAdjust="spacing" textLength="171" x="825" y="135.1426">atualizarStatusSolicitacao()</text></g><!--entity c2--><g id="elem_c2"><ellipse cx="1147" cy="61.6094" fill="#F1F1F1" rx="12" ry="12" style="stroke:#181818;stroke-width:0.5;"/><polygon fill="#181818" points="1143,49.6094,1149,44.6094,1147,49.6094,1149,54.6094,1143,49.6094" style="stroke:#181818;stroke-width:1.0;"/><text fill="#000000" font-family="sans-serif" font-size="14" lengthAdjust="spacing" textLength="182" x="1056" y="92.1426">notificarSolicitacaoAvaliada()</text></g><!--entity e1--><g id="elem_e1"><ellipse cx="1147" cy="146.6094" fill="#F1F1F1" rx="12" ry="12" style="stroke:#181818;stroke-width:0.5;"/><line style="stroke:#181818;stroke-width:0.5;" x1="1135" x2="1159" y1="160.6094" y2="160.6094"/><text fill="#000000" font-family="sans-serif" font-size="14" lengthAdjust="spacing" textLength="109" x="1092.5" y="177.1426">SolicitacaoColeta</text></g><!--entity e2--><g id="elem_e2"><ellipse cx="1332.5" cy="61.6094" fill="#F1F1F1" rx="12" ry="12" style="stroke:#181818;stroke-width:0.5;"/><line style="stroke:#181818;stroke-width:0.5;" x1="1320.5" x2="1344.5" y1="75.6094" y2="75.6094"/><text fill="#000000" font-family="sans-serif" font-size="14" lengthAdjust="spacing" textLength="69" x="1298" y="92.1426">Notificacao</text></g><!--link ator to b1--><g id="link_ator_b1"><path d="M93.23,113.6094 C111.18,113.6094 132.6,113.6094 152.98,113.6094 " fill="none" id="ator-b1" style="stroke:#181818;stroke-width:1.0;"/></g><!--link b1 to b2--><g id="link_b1_b2"><path d="M303.12,113.6094 C322.03,113.6094 342.73,113.6094 362.91,113.6094 " fill="none" id="b1-b2" style="stroke:#181818;stroke-width:1.0;"/></g><!--link b2 to c0--><g id="link_b2_c0"><path d="M578.29,113.6094 C598.7,113.6094 619.43,113.6094 637.88,113.6094 " fill="none" id="b2-c0" style="stroke:#181818;stroke-width:1.0;"/></g><!--link c0 to c1--><g id="link_c0_c1"><path d="M765.17,113.6094 C783.97,113.6094 804.91,113.6094 824.88,113.6094 " fill="none" id="c0-c1" style="stroke:#181818;stroke-width:1.0;"/></g><!--link c1 to e1--><g id="link_c1_e1"><path d="M996.16,128.7694 C1028.3,134.5294 1063.99,140.9194 1092.48,146.0194 " fill="none" id="c1-e1" style="stroke:#181818;stroke-width:1.0;"/></g><!--link c1 to c2--><g id="link_c1_c2"><path d="M996.16,98.0894 C1015.58,94.5294 1036.29,90.7294 1055.92,87.1294 " fill="none" id="c1-c2" style="stroke:#181818;stroke-width:1.0;"/></g><!--link c2 to e2--><g id="link_c2_e2"><path d="M1238.14,70.6094 C1259.35,70.6094 1280.67,70.6094 1297.57,70.6094 " fill="none" id="c2-e2" style="stroke:#181818;stroke-width:1.0;"/></g><!--SRC=[JT0xRiCm30RWNQSWF3c3uGTw0IDBbnO1agteG4jCIa0n2vekq9o-ifBKtdw87oLInXO9zeUgUO4AtYIGei9H8disz2XGgWppP7JRkKXd0nDGldmP15RonZ8wz2OAHH-kFF9aYa6q09m0qxaRP1u3wYyK9ue8MQql24sP3kq67lhJ_XLg_EOQ5rvF6rv_SFYyztJEosWg4GgLsQYwpAW1ojoqoyOtgq6RCV8DzMWfJfijomTkLpoAyPbzmYlhVr8_1dpopj5eR6dY3TfB9CCCgFq7xu_h4hYNEkUMxu6gohktENHkw9QmJDtaa2RA9Ng6zAZFXhe_]--></g></svg>