<?xml version="1.0" encoding="us-ascii" standalone="no"?><svg xmlns="http://www.w3.org/2000/svg" xmlns:xlink="http://www.w3.org/1999/xlink" contentStyleType="text/css" height="185px" preserveAspectRatio="none" style="width:1466px;height:185px;background:#FFFFFF;" version="1.1" viewBox="0 0 1466 185" width="1466px" zoomAndPan="magnify"><defs/><g><text fill="#000000" font-family="sans-serif" font-size="14" font-weight="bold" lengthAdjust="spacing" textLength="309" x="571.5" y="24.5332">CP-07 - Atualizar / Concluir Coleta (robustez)</text><!--entity ator--><g id="elem_ator"><ellipse cx="34" cy="83.1094" fill="#F1F1F1" rx="8" ry="8" style="stroke:#181818;stroke-width:0.5;"/><path d="M34,91.1094 L34,118.1094 M21,99.1094 L47,99.1094 M34,118.1094 L21,133.1094 M34,118.1094 L47,133.1094 " fill="none" style="stroke:#181818;stroke-width:0.5;"/><text fill="#000000" font-family="sans-serif" font-size="14" lengthAdjust="spacing" textLength="56" x="6" y="149.1426">Empresa</text></g><!--entity b1--><g id="elem_b1"><path d="M174.5,92.6094 L174.5,116.6094 M174.5,104.6094 L191.5,104.6094 " fill="none" style="stroke:#181818;stroke-width:0.5;"/><ellipse cx="203.5" cy="104.6094" fill="#F1F1F1" rx="12" ry="12" style="stroke:#181818;stroke-width:0.5;"/><text fill="#000000" font-family="sans-serif" font-size="14" lengthAdjust="spacing" textLength="146" x="122" y="135.1426">Tela Detalhe da Coleta</text></g><!--entity b2--><g id="elem_b2"><path d="M409.5,92.6094 L409.5,116.6094 M409.5,104.6094 L426.5,104.6094 " fill="none" style="stroke:#181818;stroke-width:0.5;"/><ellipse cx="438.5" cy="104.6094" fill="#F1F1F1" rx="12" ry="12" style="stroke:#181818;stroke-width:0.5;"/><text fill="#000000" font-family="sans-serif" font-size="14" lengthAdjust="spacing" textLength="204" x="328" y="135.1426">PATCH /api/empresa/coletas/[id]</text></g><!--entity c0--><g id="elem_c0"><ellipse cx="664" cy="104.6094" fill="#F1F1F1" rx="12" ry="12" style="stroke:#181818;stroke-width:0.5;"/><polygon fill="#181818" points="660,92.6094,666,87.6094,664,92.6094,666,97.6094,660,92.6094" style="stroke:#181818;stroke-width:1.0;"/><text fill="#000000" font-family="sans-serif" font-size="14" lengthAdjust="spacing" textLength="144" x="592" y="135.1426">route-guard (empresa)</text></g><!--entity c1--><g id="elem_c1"><ellipse cx="860.5" cy="104.6094" fill="#F1F1F1" rx="12" ry="12" style="stroke:#181818;stroke-width:0.5;"/><polygon fill="#181818" points="856.5,92.6094,862.5,87.6094,860.5,92.6094,862.5,97.6094,856.5,92.6094" style="stroke:#181818;stroke-width:1.0;"/><text fill="#000000" font-family="sans-serif" font-size="14" lengthAdjust="spacing" textLength="129" x="796" y="135.1426">coletaStatusSchema</text></g><!--entity c2--><g id="elem_c2"><ellipse cx="1057" cy="104.6094" fill="#F1F1F1" rx="12" ry="12" style="stroke:#181818;stroke-width:0.5;"/><polygon fill="#181818" points="1053,92.6094,1059,87.6094,1057,92.6094,1059,97.6094,1053,92.6094" style="stroke:#181818;stroke-width:1.0;"/><text fill="#000000" font-family="sans-serif" font-size="14" lengthAdjust="spacing" textLength="144" x="985" y="135.1426">atualizarStatusColeta()</text></g><!--entity c3--><g id="elem_c3"><ellipse cx="1259.5" cy="61.6094" fill="#F1F1F1" rx="12" ry="12" style="stroke:#181818;stroke-width:0.5;"/><polygon fill="#181818" points="1255.5,49.6094,1261.5,44.6094,1259.5,49.6094,1261.5,54.6094,1255.5,49.6094" style="stroke:#181818;stroke-width:1.0;"/><text fill="#000000" font-family="sans-serif" font-size="14" lengthAdjust="spacing" textLength="141" x="1189" y="92.1426">notificarColetaStatus()</text></g><!--entity e1--><g id="elem_e1"><ellipse cx="1259.5" cy="146.6094" fill="#F1F1F1" rx="12" ry="12" style="stroke:#181818;stroke-width:0.5;"/><line style="stroke:#181818;stroke-width:0.5;" x1="1247.5" x2="1271.5" y1="160.6094" y2="160.6094"/><text fill="#000000" font-family="sans-serif" font-size="14" lengthAdjust="spacing" textLength="41" x="1239" y="177.1426">Coleta</text></g><!--entity e2--><g id="elem_e2"><ellipse cx="1424.5" cy="61.6094" fill="#F1F1F1" rx="12" ry="12" style="stroke:#181818;stroke-width:0.5;"/><line style="stroke:#181818;stroke-width:0.5;" x1="1412.5" x2="1436.5" y1="75.6094" y2="75.6094"/><text fill="#000000" font-family="sans-serif" font-size="14" lengthAdjust="spacing" textLength="69" x="1390" y="92.1426">Notificacao</text></g><!--link ator to b1--><g id="link_ator_b1"><path d="M62.33,113.6094 C78.85,113.6094 100.74,113.6094 121.92,113.6094 " fill="none" id="ator-b1" style="stroke:#181818;stroke-width:1.0;"/></g><!--link b1 to b2--><g id="link_b1_b2"><path d="M268.13,113.6094 C286.97,113.6094 307.64,113.6094 327.69,113.6094 " fill="none" id="b1-b2" style="stroke:#181818;stroke-width:1.0;"/></g><!--link b2 to c0--><g id="link_b2_c0"><path d="M532.08,113.6094 C552.23,113.6094 572.99,113.6094 591.87,113.6094 " fill="none" id="b2-c0" style="stroke:#181818;stroke-width:1.0;"/></g><!--link c0 to c1--><g id="link_c0_c1"><path d="M736.04,113.6094 C755.58,113.6094 776.64,113.6094 795.73,113.6094 " fill="none" id="c0-c1" style="stroke:#181818;stroke-width:1.0;"/></g><!--link c1 to c2--><g id="link_c1_c2"><path d="M925.19,113.6094 C944.24,113.6094 965.26,113.6094 984.77,113.6094 " fill="none" id="c1-c2" style="stroke:#181818;stroke-width:1.0;"/></g><!--link c2 to e1--><g id="link_c2_e1"><path d="M1129.25,128.5394 C1168.2,136.6894 1213.53,146.1894 1238.83,151.4894 " fill="none" id="c2-e1" style="stroke:#181818;stroke-width:1.0;"/></g><!--link c2 to c3--><g id="link_c2_c3"><path d="M1129.25,98.3294 C1148.61,94.1794 1169.55,89.6894 1188.82,85.5494 " fill="none" id="c2-c3" style="stroke:#181818;stroke-width:1.0;"/></g><!--link c3 to e2--><g id="link_c3_e2"><path d="M1330.1,70.6094 C1350.69,70.6094 1372.32,70.6094 1389.58,70.6094 " fill="none" id="c3-e2" style="stroke:#181818;stroke-width:1.0;"/></g><!--SRC=[JP2zRiCm38HtFGNXoHaC_sJe7BW5EXK1agteGCjCB42H0feQcgUlB3cDjmFvyNYa6B44_R5gtg22WmIqve4CDVJUQHiCHs5944hsGvY57ZjbwI8W7jXS9u7HC6antYdKuXcAZzkTQSO2S0QC5JNuu4RaNoZEP17UevsT24PSlHCvj1lkU3Ztdr3ZtTIKtMgTqBd-DkDF7kYKzaxOMoZO1w7g6f17ADU9NQ9qywAonKbGmdpI4ztoPjs-47n-85CvNxbQRHOwB-PYD7A_yNnoUqLEZCGxDlTH-r_zMeSr-jpgb5eU1LMLtj0cqQcXMyHoGPD4p9bQIv3KYfvPn9LwdohT7m00]--></g></svg>