<?xml version="1.0" encoding="us-ascii" standalone="no"?><svg xmlns="http://www.w3.org/2000/svg" xmlns:xlink="http://www.w3.org/1999/xlink" contentStyleType="text/css" height="2102px" preserveAspectRatio="none" style="width:905px;height:2102px;background:#FFFFFF;" version="1.1" viewBox="0 0 905 2102" width="905px" zoomAndPan="magnify"><defs/><g><!--cluster ECOnecta--><g id="cluster_ECOnecta"><rect fill="none" height="1576" rx="2.5" ry="2.5" style="stroke:#181818;stroke-width:1.0;" width="616" x="167" y="221.55"/><text fill="#000000" font-family="sans-serif" font-size="14" font-weight="bold" lengthAdjust="spacing" textLength="69" x="440.5" y="238.0832">ECOnecta</text></g><g id="elem_UC01"><ellipse cx="305.9277" cy="586.6355" fill="#F1F1F1" rx="68.4277" ry="16.0855" style="stroke:#181818;stroke-width:0.5;"/><text fill="#000000" font-family="sans-serif" font-size="14" lengthAdjust="spacing" textLength="83" x="261.4277" y="591.1521">Cadastrar-se</text></g><g id="elem_UC02"><ellipse cx="656.4775" cy="1402.3455" fill="#F1F1F1" rx="79.4775" ry="18.2955" style="stroke:#181818;stroke-width:0.5;"/><text fill="#000000" font-family="sans-serif" font-size="14" lengthAdjust="spacing" textLength="113" x="598.756" y="1406.4209">Autenticar (Login)</text></g><g id="elem_UC03"><ellipse cx="305.7877" cy="655.6075" fill="#F1F1F1" rx="78.2877" ry="18.0575" style="stroke:#181818;stroke-width:0.5;"/><text fill="#000000" font-family="sans-serif" font-size="14" lengthAdjust="spacing" textLength="110" x="249.0149" y="659.8274">Recuperar senha</text></g><g id="elem_UC04"><ellipse cx="305.8753" cy="729.7251" fill="#F1F1F1" rx="93.8753" ry="21.1751" style="stroke:#181818;stroke-width:0.5;"/><text fill="#000000" font-family="sans-serif" font-size="14" lengthAdjust="spacing" textLength="147" x="232.3753" y="733.4536">Visualizar e editar perfil</text></g><g id="elem_UC05"><ellipse cx="305.9506" cy="280.6401" fill="#F1F1F1" rx="100.9506" ry="22.5901" style="stroke:#181818;stroke-width:0.5;"/><text fill="#000000" font-family="sans-serif" font-size="14" lengthAdjust="spacing" textLength="163" x="224.4506" y="284.3686">Criar solicitacao de coleta</text></g><g id="elem_UC06"><ellipse cx="656.3753" cy="280.7251" fill="#F1F1F1" rx="93.8753" ry="21.1751" style="stroke:#181818;stroke-width:0.5;"/><text fill="#000000" font-family="sans-serif" font-size="14" lengthAdjust="spacing" textLength="147" x="582.8753" y="284.4536">Anexar imagens (ate 5)</text></g><g id="elem_UC07"><ellipse cx="306.0583" cy="360.4617" fill="#F1F1F1" rx="100.0583" ry="22.4117" style="stroke:#181818;stroke-width:0.5;"/><text fill="#000000" font-family="sans-serif" font-size="14" lengthAdjust="spacing" textLength="161" x="225.5583" y="364.1902">Listar minhas solicitacoes</text></g><g id="elem_UC08"><ellipse cx="656.434" cy="399.5368" fill="#F1F1F1" rx="110.434" ry="24.4868" style="stroke:#181818;stroke-width:0.5;"/><text fill="#000000" font-family="sans-serif" font-size="14" lengthAdjust="spacing" textLength="184" x="564.434" y="403.2653">Acompanhar status da coleta</text></g><g id="elem_UC09"><ellipse cx="306.1926" cy="896.5885" fill="#F1F1F1" rx="85.6926" ry="19.5385" style="stroke:#181818;stroke-width:0.5;"/><text fill="#000000" font-family="sans-serif" font-size="14" lengthAdjust="spacing" textLength="128" x="242.1926" y="900.317">Conversar na coleta</text></g><g id="elem_UC22"><ellipse cx="305.7698" cy="437.504" fill="#F1F1F1" rx="85.2698" ry="19.454" style="stroke:#181818;stroke-width:0.5;"/><text fill="#000000" font-family="sans-serif" font-size="14" lengthAdjust="spacing" textLength="127" x="242.2698" y="441.2325">Cancelar solicitacao</text></g><g id="elem_UC23"><ellipse cx="305.7514" cy="513.4003" fill="#F1F1F1" rx="94.7514" ry="21.3503" style="stroke:#181818;stroke-width:0.5;"/><text fill="#000000" font-family="sans-serif" font-size="14" lengthAdjust="spacing" textLength="149" x="231.2514" y="517.1288">Avaliar coleta concluida</text></g><g id="elem_UC10"><ellipse cx="306.0894" cy="974.7679" fill="#F1F1F1" rx="104.0894" ry="23.2179" style="stroke:#181818;stroke-width:0.5;"/><text fill="#000000" font-family="sans-serif" font-size="14" lengthAdjust="spacing" textLength="170" x="221.0894" y="978.4964">Ver solicitacoes aprovadas</text></g><g id="elem_UC24"><ellipse cx="306.1495" cy="813.5886" fill="#F1F1F1" rx="123.1495" ry="28.0386" style="stroke:#181818;stroke-width:0.5;"/><text fill="#000000" font-family="sans-serif" font-size="14" lengthAdjust="spacing" textLength="157" x="224.6495" y="809.3005">Negociar antes do aceite</text><text fill="#000000" font-family="sans-serif" font-size="14" lengthAdjust="spacing" textLength="105" x="250.6495" y="826.9098">(chat pre-aceite)</text></g><g id="elem_UC11"><ellipse cx="305.8789" cy="1051.4258" fill="#F1F1F1" rx="79.8789" ry="18.3758" style="stroke:#181818;stroke-width:0.5;"/><text fill="#000000" font-family="sans-serif" font-size="14" lengthAdjust="spacing" textLength="114" x="247.8373" y="1055.4524">Aceitar solicitacao</text></g><g id="elem_UC12"><ellipse cx="305.8193" cy="1125.5139" fill="#F1F1F1" rx="87.8193" ry="19.9639" style="stroke:#181818;stroke-width:0.5;"/><text fill="#000000" font-family="sans-serif" font-size="14" lengthAdjust="spacing" textLength="133" x="239.3193" y="1129.2424">Listar minhas coletas</text></g><g id="elem_UC13"><ellipse cx="306.2239" cy="1281.6948" fill="#F1F1F1" rx="98.7239" ry="22.1448" style="stroke:#181818;stroke-width:0.5;"/><text fill="#000000" font-family="sans-serif" font-size="14" lengthAdjust="spacing" textLength="158" x="227.2239" y="1285.4233">Atualizar status da coleta</text></g><g id="elem_UC14"><ellipse cx="306.0894" cy="1379.7679" fill="#F1F1F1" rx="104.0894" ry="23.2179" style="stroke:#181818;stroke-width:0.5;"/><text fill="#000000" font-family="sans-serif" font-size="14" lengthAdjust="spacing" textLength="170" x="221.0894" y="1383.4964">Concluir coleta com codigo</text></g><g id="elem_UC25"><ellipse cx="306.1681" cy="1202.7836" fill="#F1F1F1" rx="99.1681" ry="22.2336" style="stroke:#181818;stroke-width:0.5;"/><text fill="#000000" font-family="sans-serif" font-size="14" lengthAdjust="spacing" textLength="159" x="226.6681" y="1206.5121">Ver avaliacoes recebidas</text></g><g id="elem_UC16"><ellipse cx="305.8923" cy="1678.4285" fill="#F1F1F1" rx="87.3923" ry="19.8785" style="stroke:#181818;stroke-width:0.5;"/><text fill="#000000" font-family="sans-serif" font-size="14" lengthAdjust="spacing" textLength="132" x="239.8923" y="1682.157">Visualizar dashboard</text></g><g id="elem_UC17"><ellipse cx="656.6926" cy="1753.5885" fill="#F1F1F1" rx="85.6926" ry="19.5385" style="stroke:#181818;stroke-width:0.5;"/><text fill="#000000" font-family="sans-serif" font-size="14" lengthAdjust="spacing" textLength="128" x="592.6926" y="1757.317">Analisar solicitacoes</text></g><g id="elem_UC18"><ellipse cx="305.7982" cy="1757.3096" fill="#F1F1F1" rx="106.7982" ry="23.7596" style="stroke:#181818;stroke-width:0.5;"/><text fill="#000000" font-family="sans-serif" font-size="14" lengthAdjust="spacing" textLength="176" x="217.7982" y="1761.0382">Aprovar / rejeitar solicitacao</text></g><g id="elem_UC19"><ellipse cx="305.7516" cy="1456.5003" fill="#F1F1F1" rx="82.7516" ry="18.9503" style="stroke:#181818;stroke-width:0.5;"/><text fill="#000000" font-family="sans-serif" font-size="14" lengthAdjust="spacing" textLength="121" x="245.2516" y="1460.2288">Gerenciar usuarios</text></g><g id="elem_UC20"><ellipse cx="306.1163" cy="1530.6733" fill="#F1F1F1" rx="86.1163" ry="19.6233" style="stroke:#181818;stroke-width:0.5;"/><text fill="#000000" font-family="sans-serif" font-size="14" lengthAdjust="spacing" textLength="129" x="241.6163" y="1534.4018">Gerenciar empresas</text></g><g id="elem_UC21"><ellipse cx="306.0066" cy="1604.7513" fill="#F1F1F1" rx="84.0066" ry="19.2013" style="stroke:#181818;stroke-width:0.5;"/><text fill="#000000" font-family="sans-serif" font-size="14" lengthAdjust="spacing" textLength="124" x="244.0066" y="1608.4798">Gerenciar materiais</text></g><g id="elem_UC15"><ellipse cx="656.3193" cy="1051.5139" fill="#F1F1F1" rx="87.8193" ry="19.9639" style="stroke:#181818;stroke-width:0.5;"/><text fill="#000000" font-family="sans-serif" font-size="14" lengthAdjust="spacing" textLength="133" x="589.8193" y="1055.2424">Receber notificacoes</text></g><!--entity Cidadao--><g id="elem_Cidadao"><ellipse cx="63" cy="444.05" fill="#F1F1F1" rx="16" ry="16" style="stroke:#181818;stroke-width:0.5;"/><path d="M63,464.05 C67,464.05 70,464.05 74,460.05 C82,460.05 90,468.05 90,476.05 L90,480.05 C90,484.05 86,488.05 82,488.05 L44,488.05 C40,488.05 36,484.05 36,480.05 L36,476.05 C36,468.05 44,460.05 52,460.05 C56,464.05 59,464.05 63,464.05 " fill="#F1F1F1" style="stroke:#181818;stroke-width:0.5;"/><text fill="#000000" font-family="sans-serif" font-size="14" lengthAdjust="spacing" textLength="53" x="34.5" y="503.0832">Cidadao</text><text fill="#000000" font-family="sans-serif" font-size="14" lengthAdjust="spacing" textLength="57" x="34.5" y="520.6926">(usuario)</text></g><!--entity Empresa--><g id="elem_Empresa"><ellipse cx="63" cy="982.05" fill="#F1F1F1" rx="16" ry="16" style="stroke:#181818;stroke-width:0.5;"/><path d="M63,1002.05 C67,1002.05 70,1002.05 74,998.05 C82,998.05 90,1006.05 90,1014.05 L90,1018.05 C90,1022.05 86,1026.05 82,1026.05 L44,1026.05 C40,1026.05 36,1022.05 36,1018.05 L36,1014.05 C36,1006.05 44,998.05 52,998.05 C56,1002.05 59,1002.05 63,1002.05 " fill="#F1F1F1" style="stroke:#181818;stroke-width:0.5;"/><text fill="#000000" font-family="sans-serif" font-size="14" lengthAdjust="spacing" textLength="114" x="6" y="1041.0832">Empresa Coletora</text><text fill="#000000" font-family="sans-serif" font-size="14" lengthAdjust="spacing" textLength="65" x="6" y="1058.6926">(empresa)</text></g><!--entity Admin--><g id="elem_Admin"><ellipse cx="63" cy="1738.05" fill="#F1F1F1" rx="16" ry="16" style="stroke:#181818;stroke-width:0.5;"/><path d="M63,1758.05 C67,1758.05 70,1758.05 74,1754.05 C82,1754.05 90,1762.05 90,1770.05 L90,1774.05 C90,1778.05 86,1782.05 82,1782.05 L44,1782.05 C40,1782.05 36,1778.05 36,1774.05 L36,1770.05 C36,1762.05 44,1754.05 52,1754.05 C56,1758.05 59,1758.05 63,1758.05 " fill="#F1F1F1" style="stroke:#181818;stroke-width:0.5;"/><text fill="#000000" font-family="sans-serif" font-size="14" lengthAdjust="spacing" textLength="87" x="19.5" y="1797.0832">Administrador</text><text fill="#000000" font-family="sans-serif" font-size="14" lengthAdjust="spacing" textLength="48" x="19.5" y="1814.6926">(admin)</text></g><!--entity Cloud--><g id="elem_Cloud"><ellipse cx="864" cy="257.55" fill="#F1F1F1" rx="16" ry="16" style="stroke:#181818;stroke-width:0.5;"/><path d="M864,277.55 C868,277.55 871,277.55 875,273.55 C883,273.55 891,281.55 891,289.55 L891,293.55 C891,297.55 887,301.55 883,301.55 L845,301.55 C841,301.55 837,297.55 837,293.55 L837,289.55 C837,281.55 845,273.55 853,273.55 C857,277.55 860,277.55 864,277.55 " fill="#F1F1F1" style="stroke:#181818;stroke-width:0.5;"/><text fill="#000000" font-family="sans-serif" font-size="14" lengthAdjust="spacing" textLength="68" x="830" y="316.5832">Cloudinary</text></g><!--entity ViaCEP--><g id="elem_ViaCEP"><ellipse cx="656.5" cy="66.55" fill="#F1F1F1" rx="16" ry="16" style="stroke:#181818;stroke-width:0.5;"/><path d="M656.5,86.55 C660.5,86.55 663.5,86.55 667.5,82.55 C675.5,82.55 683.5,90.55 683.5,98.55 L683.5,102.55 C683.5,106.55 679.5,110.55 675.5,110.55 L637.5,110.55 C633.5,110.55 629.5,106.55 629.5,102.55 L629.5,98.55 C629.5,90.55 637.5,82.55 645.5,82.55 C649.5,86.55 652.5,86.55 656.5,86.55 " fill="#F1F1F1" style="stroke:#181818;stroke-width:0.5;"/><text fill="#000000" font-family="sans-serif" font-size="14" lengthAdjust="spacing" textLength="48" x="632.5" y="125.5832">ViaCEP</text></g><!--link Cidadao to UC01--><g id="link_Cidadao_UC01"><path d="M91.56,503.58 C109.36,520.15 133.83,540.23 159,552.55 C185.88,565.7 212.1797,572.8107 239.4797,577.8507 " fill="none" id="Cidadao-to-UC01" style="stroke:#181818;stroke-width:1.0;"/><polygon fill="#181818" points="245.38,578.94,237.2558,573.3725,240.4631,578.0323,235.8034,581.2396,245.38,578.94" style="stroke:#181818;stroke-width:1.0;"/></g><!--link Cidadao to UC02--><g id="link_Cidadao_UC02"><path d="M68.03,427.47 C75.56,371.75 97.16,282.25 159,240.55 C224.83,196.16 463.43,195.05 516,254.55 C546.7,289.29 537.44,1042.98 546,1088.55 C567.86,1204.87 622.4307,1330.7953 644.3007,1378.5253 " fill="none" id="Cidadao-to-UC02" style="stroke:#181818;stroke-width:1.0;"/><polygon fill="#181818" points="646.8,1383.98,646.6874,1374.1318,644.7172,1379.4345,639.4146,1377.4642,646.8,1383.98" style="stroke:#181818;stroke-width:1.0;"/></g><!--link Cidadao to UC03--><g id="link_Cidadao_UC03"><path d="M84.25,523.59 C100.09,555.44 125.11,595.63 159,619.55 C180.65,634.83 202.1985,642.4634 227.4285,647.5534 " fill="none" id="Cidadao-to-UC03" style="stroke:#181818;stroke-width:1.0;"/><polygon fill="#181818" points="233.31,648.74,225.2788,643.0392,228.4087,647.7512,223.6967,650.8812,233.31,648.74" style="stroke:#181818;stroke-width:1.0;"/></g><!--link Cidadao to UC04--><g id="link_Cidadao_UC04"><path d="M72.7,523.84 C84.07,572.88 108.77,647.56 159,690.55 C176.34,705.39 192.9543,713.1354 214.9943,718.8854 " fill="none" id="Cidadao-to-UC04" style="stroke:#181818;stroke-width:1.0;"/><polygon fill="#181818" points="220.8,720.4,213.1012,714.2576,215.9619,719.1378,211.0817,721.9985,220.8,720.4" style="stroke:#181818;stroke-width:1.0;"/></g><!--link Cidadao to UC05--><g id="link_Cidadao_UC05"><path d="M82.09,427.45 C97.5,392.84 122.91,347.65 159,320.55 C176.76,307.21 192.9173,299.9202 214.3473,293.9902 " fill="none" id="Cidadao-to-UC05" style="stroke:#181818;stroke-width:1.0;"/><polygon fill="#181818" points="220.13,292.39,210.3892,290.9351,215.3111,293.7235,212.5227,298.6454,220.13,292.39" style="stroke:#181818;stroke-width:1.0;"/></g><!--link Cidadao to UC07--><g id="link_Cidadao_UC07"><path d="M91.85,448.61 C109.76,432.61 134.24,413.06 159,400.55 C180.82,389.53 200.2452,382.7479 223.5352,376.6579 " fill="none" id="Cidadao-to-UC07" style="stroke:#181818;stroke-width:1.0;"/><polygon fill="#181818" points="229.34,375.14,219.6208,373.5469,224.5026,376.4049,221.6447,381.2867,229.34,375.14" style="stroke:#181818;stroke-width:1.0;"/></g><!--link Cidadao to UC08--><g id="link_Cidadao_UC08"><path d="M67.98,427.51 C76.58,337.06 100.27,147 150,107.55 C278.02,6 413.43,15.34 516,142.55 C565.81,204.32 504.43,250.96 546,318.55 C561.42,343.62 582.5939,360.385 605.5639,374.155 " fill="none" id="Cidadao-to-UC08" style="stroke:#181818;stroke-width:1.0;"/><polygon fill="#181818" points="610.71,377.24,605.0475,369.1817,606.4215,374.6692,600.9341,376.0433,610.71,377.24" style="stroke:#181818;stroke-width:1.0;"/></g><!--link Cidadao to UC09--><g id="link_Cidadao_UC09"><path d="M69.8,523.75 C81.81,615.71 112.28,811.29 159,858.55 C176.12,875.87 194.2318,884.279 217.7818,889.679 " fill="none" id="Cidadao-to-UC09" style="stroke:#181818;stroke-width:1.0;"/><polygon fill="#181818" points="223.63,891.02,215.7517,885.1097,218.7565,889.9025,213.9637,892.9073,223.63,891.02" style="stroke:#181818;stroke-width:1.0;"/></g><!--link Cidadao to UC22--><g id="link_Cidadao_UC22"><path d="M91.65,471.19 C126.39,465.71 181.3331,457.0437 229.1931,449.5037 " fill="none" id="Cidadao-to-UC22" style="stroke:#181818;stroke-width:1.0;"/><polygon fill="#181818" points="235.12,448.57,225.6072,446.0193,230.1809,449.3481,226.8521,453.9219,235.12,448.57" style="stroke:#181818;stroke-width:1.0;"/></g><!--link Cidadao to UC23--><g id="link_Cidadao_UC23"><path d="M91.65,479.91 C124.6,485.1 175.1234,493.0644 221.6834,500.4144 " fill="none" id="Cidadao-to-UC23" style="stroke:#181818;stroke-width:1.0;"/><polygon fill="#181818" points="227.61,501.35,219.3438,495.9956,222.6712,500.5704,218.0964,503.8977,227.61,501.35" style="stroke:#181818;stroke-width:1.0;"/></g><!--link Cidadao to UC24--><g id="link_Cidadao_UC24"><path d="M66.48,523.65 C72.38,587.94 92.25,701.42 159,767.55 C172.31,780.73 183.7488,788.0252 201.4688,794.7352 " fill="none" id="Cidadao-to-UC24" style="stroke:#181818;stroke-width:1.0;"/><polygon fill="#181818" points="207.08,796.86,200.0797,789.9321,202.404,795.0894,197.2467,797.4136,207.08,796.86" style="stroke:#181818;stroke-width:1.0;"/></g><!--link Cidadao to UC15--><g id="link_Cidadao_UC15"><path d="M70.87,427.49 C82.85,351.35 110.14,208.5 150,178.55 C215.02,129.68 455.32,124.39 516,178.55 C559.89,217.71 537.47,383.35 546,441.55 C580.15,674.42 634.7006,948.8291 650.2006,1025.4691 " fill="none" id="Cidadao-to-UC15" style="stroke:#181818;stroke-width:1.0;"/><polygon fill="#181818" points="651.39,1031.35,653.5265,1021.7357,650.3988,1026.4492,645.6853,1023.3215,651.39,1031.35" style="stroke:#181818;stroke-width:1.0;"/></g><!--link Empresa to UC01--><g id="link_Empresa_UC01"><path d="M69.29,965.3 C80.6,871.1 110.14,667.71 159,619.55 C179.54,599.3 203.7696,591.1699 231.3596,587.5999 " fill="none" id="Empresa-to-UC01" style="stroke:#181818;stroke-width:1.0;"/><polygon fill="#181818" points="237.31,586.83,227.8711,584.018,232.3513,587.4716,228.8977,591.9519,237.31,586.83" style="stroke:#181818;stroke-width:1.0;"/></g><!--link Empresa to UC02--><g id="link_Empresa_UC02"><path d="M67.52,1061.71 C80.74,1239.64 128.25,1850.99 159,1878.55 C278.22,1985.39 417.59,1956.83 516,1830.55 C548.2,1789.22 530.7,1766.65 546,1716.55 C580.66,1603.08 628.1137,1475.0644 646.3237,1426.7544 " fill="none" id="Empresa-to-UC02" style="stroke:#181818;stroke-width:1.0;"/><polygon fill="#181818" points="648.44,1421.14,641.5226,1428.1507,646.6764,1425.8187,649.0085,1430.9724,648.44,1421.14" style="stroke:#181818;stroke-width:1.0;"/></g><!--link Empresa to UC03--><g id="link_Empresa_UC03"><path d="M63.94,965.39 C66.58,894.72 82.32,763.44 159,690.55 C177.7,672.77 197.8829,664.6166 222.8229,659.9366 " fill="none" id="Empresa-to-UC03" style="stroke:#181818;stroke-width:1.0;"/><polygon fill="#181818" points="228.72,658.83,219.1367,656.5585,223.8058,659.7522,220.6121,664.4213,228.72,658.83" style="stroke:#181818;stroke-width:1.0;"/></g><!--link Empresa to UC04--><g id="link_Empresa_UC04"><path d="M69.45,965.47 C78.36,909.77 101.26,819.06 159,767.55 C175.71,752.64 191.7326,744.9581 213.4126,739.3281 " fill="none" id="Empresa-to-UC04" style="stroke:#181818;stroke-width:1.0;"/><polygon fill="#181818" points="219.22,737.82,209.5035,736.2106,214.3805,739.0767,211.5143,743.9537,219.22,737.82" style="stroke:#181818;stroke-width:1.0;"/></g><!--link Empresa to UC10--><g id="link_Empresa_UC10"><path d="M120.2,1004.45 C150.38,999.57 182.2569,994.4074 215.7869,988.9874 " fill="none" id="Empresa-to-UC10" style="stroke:#181818;stroke-width:1.0;"/><polygon fill="#181818" points="221.71,988.03,212.187,985.5174,216.7741,988.8279,213.4636,993.4149,221.71,988.03" style="stroke:#181818;stroke-width:1.0;"/></g><!--link Empresa to UC24--><g id="link_Empresa_UC24"><path d="M82.8,965.44 C98.43,931.34 123.8,886.96 159,859.55 C174.62,847.38 187.846,840.3797 206.786,833.7597 " fill="none" id="Empresa-to-UC24" style="stroke:#181818;stroke-width:1.0;"/><polygon fill="#181818" points="212.45,831.78,202.6342,830.9736,207.73,833.4298,205.2738,838.5255,212.45,831.78" style="stroke:#181818;stroke-width:1.0;"/></g><!--link Empresa to UC11--><g id="link_Empresa_UC11"><path d="M120.2,1022.41 C155.81,1028.02 196.0832,1034.3754 233.3732,1040.2554 " fill="none" id="Empresa-to-UC11" style="stroke:#181818;stroke-width:1.0;"/><polygon fill="#181818" points="239.3,1041.19,231.0329,1035.837,234.361,1040.4112,229.7868,1043.7394,239.3,1041.19" style="stroke:#181818;stroke-width:1.0;"/></g><!--link Empresa to UC12--><g id="link_Empresa_UC12"><path d="M117.97,1061.62 C130.77,1071.27 144.84,1080.57 159,1087.55 C182.72,1099.25 204.6198,1106.2545 229.4998,1112.1145 " fill="none" id="Empresa-to-UC12" style="stroke:#181818;stroke-width:1.0;"/><polygon fill="#181818" points="235.34,1113.49,227.4967,1107.5332,230.4732,1112.3437,225.6627,1115.3201,235.34,1113.49" style="stroke:#181818;stroke-width:1.0;"/></g><!--link Empresa to UC13--><g id="link_Empresa_UC13"><path d="M71.34,1061.77 C81.77,1113.6 105.89,1194.8 159,1241.55 C175.57,1256.13 191.2107,1263.8376 212.5007,1269.7776 " fill="none" id="Empresa-to-UC13" style="stroke:#181818;stroke-width:1.0;"/><polygon fill="#181818" points="218.28,1271.39,210.686,1265.1185,213.4639,1270.0463,208.5361,1272.8242,218.28,1271.39" style="stroke:#181818;stroke-width:1.0;"/></g><!--link Empresa to UC09--><g id="link_Empresa_UC09"><path d="M112.71,965.35 C126.74,953.54 142.69,941.91 159,933.55 C182.5,921.49 204.3276,914.5127 229.2376,908.8827 " fill="none" id="Empresa-to-UC09" style="stroke:#181818;stroke-width:1.0;"/><polygon fill="#181818" points="235.09,907.56,225.4296,905.6425,230.213,908.6623,227.1932,913.4457,235.09,907.56" style="stroke:#181818;stroke-width:1.0;"/></g><!--link Empresa to UC25--><g id="link_Empresa_UC25"><path d="M83.38,1061.55 C99.08,1094.59 124.31,1136.97 159,1162.55 C177.3,1176.04 194.1077,1183.4149 216.0177,1189.3349 " fill="none" id="Empresa-to-UC25" style="stroke:#181818;stroke-width:1.0;"/><polygon fill="#181818" points="221.81,1190.9,214.1649,1184.6909,216.9831,1189.5958,212.0782,1192.4139,221.81,1190.9" style="stroke:#181818;stroke-width:1.0;"/></g><!--link Empresa to UC15--><g id="link_Empresa_UC15"><path d="M66.18,1061.74 C74.07,1224.94 103.55,1749.41 159,1798.55 C278.28,1904.26 421.23,1892.7 516,1764.55 C568.74,1693.23 527.95,1453.39 546,1366.55 C569.91,1251.47 622.3389,1126.3198 644.0189,1077.1598 " fill="none" id="Empresa-to-UC15" style="stroke:#181818;stroke-width:1.0;"/><polygon fill="#181818" points="646.44,1071.67,639.1485,1078.2907,644.4224,1076.2449,646.4683,1081.5188,646.44,1071.67" style="stroke:#181818;stroke-width:1.0;"/></g><!--link Admin to UC02--><g id="link_Admin_UC02"><path d="M75.09,1817.59 C86.73,1855.89 109.2,1907.02 150,1931.55 C289.4,2015.37 393.29,2038.33 516,1931.55 C552.39,1899.88 534.67,1763.44 546,1716.55 C573.8,1601.51 624.9654,1474.8914 645.1754,1426.8014 " fill="none" id="Admin-to-UC02" style="stroke:#181818;stroke-width:1.0;"/><polygon fill="#181818" points="647.5,1421.27,640.3255,1428.0174,645.5628,1425.8795,647.7007,1431.1168,647.5,1421.27" style="stroke:#181818;stroke-width:1.0;"/></g><!--link Admin to UC16--><g id="link_Admin_UC16"><path d="M106.59,1767.78 C122.42,1765.02 139.34,1759.24 151,1747.55 C161.35,1737.17 148.65,1725.93 159,1715.55 C175.61,1698.88 192.748,1690.7277 215.558,1685.3877 " fill="none" id="Admin-to-UC16" style="stroke:#181818;stroke-width:1.0;"/><polygon fill="#181818" points="221.4,1684.02,211.7252,1682.1768,216.5316,1685.1597,213.5487,1689.9662,221.4,1684.02" style="stroke:#181818;stroke-width:1.0;"/></g><!--link Admin to UC17--><g id="link_Admin_UC17"><path d="M66.33,1817.55 C71.88,1872.69 90.21,1960.89 150,2002.55 C283.46,2095.55 375.66,2084.79 516,2002.55 C603.64,1951.19 639.0445,1828.2618 650.2045,1778.9918 " fill="none" id="Admin-to-UC17" style="stroke:#181818;stroke-width:1.0;"/><polygon fill="#181818" points="651.53,1773.14,645.6406,1781.034,650.4254,1778.0165,653.443,1782.8013,651.53,1773.14" style="stroke:#181818;stroke-width:1.0;"/></g><!--link Admin to UC18--><g id="link_Admin_UC18"><path d="M106.56,1780.87 C120.32,1784.01 135.71,1786.99 150,1788.55 C182.46,1792.09 212.4521,1787.2212 241.4421,1779.3012 " fill="none" id="Admin-to-UC18" style="stroke:#181818;stroke-width:1.0;"/><polygon fill="#181818" points="247.23,1777.72,237.494,1776.2333,242.4068,1779.0377,239.6023,1783.9505,247.23,1777.72" style="stroke:#181818;stroke-width:1.0;"/></g><!--link Admin to UC19--><g id="link_Admin_UC19"><path d="M67,1721.38 C73.48,1659.6 94.02,1553.33 159,1493.55 C177.38,1476.64 196.4944,1468.4627 220.6044,1463.2727 " fill="none" id="Admin-to-UC19" style="stroke:#181818;stroke-width:1.0;"/><polygon fill="#181818" points="226.47,1462.01,216.8298,1459.9936,221.582,1463.0622,218.5133,1467.8144,226.47,1462.01" style="stroke:#181818;stroke-width:1.0;"/></g><!--link Admin to UC20--><g id="link_Admin_UC20"><path d="M106.58,1730.52 C123.42,1712.49 141.09,1689.72 151,1665.55 C159.29,1645.33 144.89,1584.23 159,1567.55 C174.53,1549.18 191.9036,1540.545 215.2836,1535.335 " fill="none" id="Admin-to-UC20" style="stroke:#181818;stroke-width:1.0;"/><polygon fill="#181818" points="221.14,1534.03,211.4854,1532.0833,216.2597,1535.1175,213.2255,1539.8918,221.14,1534.03" style="stroke:#181818;stroke-width:1.0;"/></g><!--link Admin to UC21--><g id="link_Admin_UC21"><path d="M106.91,1748.41 C123.38,1738.08 140.68,1724.06 151,1706.55 C166,1681.09 139.41,1662.67 159,1640.55 C175.18,1622.27 193.1483,1613.7842 216.8883,1608.7942 " fill="none" id="Admin-to-UC21" style="stroke:#181818;stroke-width:1.0;"/><polygon fill="#181818" points="222.76,1607.56,213.1297,1605.4968,217.8669,1608.5885,214.7753,1613.3258,222.76,1607.56" style="stroke:#181818;stroke-width:1.0;"/></g><!--link UC05 to UC06--><g id="link_UC05_UC06"><path d="M407.33,280.55 C456.2,280.55 508.58,280.55 556.44,280.55 " fill="none" id="UC05-to-UC06" style="stroke:#181818;stroke-width:1.0;stroke-dasharray:7.0,7.0;"/><polygon fill="#181818" points="562.44,280.55,553.44,276.55,557.44,280.55,553.44,284.55,562.44,280.55" style="stroke:#181818;stroke-width:1.0;"/><text fill="#000000" font-family="sans-serif" font-size="13" lengthAdjust="spacing" textLength="55" x="460" y="277.0451">&#171;include&#187;</text></g><!--link UC05 to UC02--><g id="link_UC05_UC02"><path d="M388.24,293.68 C403.64,299.6 418.27,308.17 429,320.55 C479.26,378.51 437.18,416.99 459,490.55 C477.41,552.59 501.03,561.58 516,624.55 C563.79,825.6 504.93,886.02 546,1088.55 C569.52,1204.54 623.1392,1330.6434 644.5392,1378.4634 " fill="none" id="UC05-to-UC02" style="stroke:#181818;stroke-width:1.0;stroke-dasharray:7.0,7.0;"/><polygon fill="#181818" points="646.99,1383.94,646.9648,1374.0912,644.9476,1379.3762,639.6626,1377.359,646.99,1383.94" style="stroke:#181818;stroke-width:1.0;"/><text fill="#000000" font-family="sans-serif" font-size="13" lengthAdjust="spacing" textLength="55" x="460" y="487.0451">&#171;include&#187;</text></g><!--link UC14 to UC13--><g id="link_UC14_UC13"><path d="M306,1356.32 C306,1340.36 306,1325.3 306,1309.6 " fill="none" id="UC14-to-UC13" style="stroke:#181818;stroke-width:1.0;stroke-dasharray:7.0,7.0;"/><polygon fill="#181818" points="306,1303.6,302,1312.6,306,1308.6,310,1312.6,306,1303.6" style="stroke:#181818;stroke-width:1.0;"/><text fill="#000000" font-family="sans-serif" font-size="13" lengthAdjust="spacing" textLength="53" x="267.5" y="1335.5451">&#171;extend&#187;</text></g><!--link UC18 to UC17--><g id="link_UC18_UC17"><path d="M412.98,1756.33 C463.65,1755.75 517.4604,1755.1281 565.0004,1754.5881 " fill="none" id="UC18-to-UC17" style="stroke:#181818;stroke-width:1.0;stroke-dasharray:7.0,7.0;"/><polygon fill="#181818" points="571,1754.52,561.9551,1750.6225,566.0003,1754.5768,562.046,1758.622,571,1754.52" style="stroke:#181818;stroke-width:1.0;"/><text fill="#000000" font-family="sans-serif" font-size="13" lengthAdjust="spacing" textLength="55" x="460" y="1752.0451">&#171;include&#187;</text></g><!--link UC18 to UC15--><g id="link_UC18_UC15"><path d="M386.93,1741.77 C402.41,1735.68 417.41,1727.24 429,1715.55 C544.21,1599.4 493.14,1521.37 546,1366.55 C584.07,1255.05 628.8201,1127.4304 646.3901,1077.4504 " fill="none" id="UC18-to-UC15" style="stroke:#181818;stroke-width:1.0;stroke-dasharray:7.0,7.0;"/><polygon fill="#181818" points="648.38,1071.79,641.6216,1078.9541,646.7218,1076.507,649.1688,1081.6072,648.38,1071.79" style="stroke:#181818;stroke-width:1.0;"/><text fill="#000000" font-family="sans-serif" font-size="13" lengthAdjust="spacing" textLength="55" x="460" y="1513.0451">&#171;include&#187;</text></g><!--link UC11 to UC15--><g id="link_UC11_UC15"><path d="M386.08,1051.55 C440.4,1051.55 506.53,1051.55 562.48,1051.55 " fill="none" id="UC11-to-UC15" style="stroke:#181818;stroke-width:1.0;stroke-dasharray:7.0,7.0;"/><polygon fill="#181818" points="568.48,1051.55,559.48,1047.55,563.48,1051.55,559.48,1055.55,568.48,1051.55" style="stroke:#181818;stroke-width:1.0;"/><text fill="#000000" font-family="sans-serif" font-size="13" lengthAdjust="spacing" textLength="55" x="460" y="1048.0451">&#171;include&#187;</text></g><!--link UC13 to UC15--><g id="link_UC13_UC15"><path d="M372.25,1265.2 C391.18,1259.13 411.47,1251.3 429,1241.55 C515.8,1193.29 596.6483,1113.7712 632.9683,1075.7012 " fill="none" id="UC13-to-UC15" style="stroke:#181818;stroke-width:1.0;stroke-dasharray:7.0,7.0;"/><polygon fill="#181818" points="637.11,1071.36,628.0033,1075.1107,633.6586,1074.9777,633.7916,1080.633,637.11,1071.36" style="stroke:#181818;stroke-width:1.0;"/><text fill="#000000" font-family="sans-serif" font-size="13" lengthAdjust="spacing" textLength="55" x="460" y="1184.0451">&#171;include&#187;</text></g><!--link UC23 to UC15--><g id="link_UC23_UC15"><path d="M383.82,525.99 C400.42,531.76 416.66,540.2 429,552.55 C460,583.56 442.72,605.83 459,646.55 C519.78,798.58 609.813,967.7393 641.553,1026.0893 " fill="none" id="UC23-to-UC15" style="stroke:#181818;stroke-width:1.0;stroke-dasharray:7.0,7.0;"/><polygon fill="#181818" points="644.42,1031.36,643.6332,1021.5426,642.0308,1026.9678,636.6057,1025.3653,644.42,1031.36" style="stroke:#181818;stroke-width:1.0;"/><text fill="#000000" font-family="sans-serif" font-size="13" lengthAdjust="spacing" textLength="55" x="460" y="643.0451">&#171;include&#187;</text></g><!--link UC09 to UC15--><g id="link_UC09_UC15"><path d="M363.02,911.17 C384.02,917.26 407.89,924.94 429,933.55 C501.25,963.03 576.0391,1004.7238 618.9591,1029.7938 " fill="none" id="UC09-to-UC15" style="stroke:#181818;stroke-width:1.0;stroke-dasharray:7.0,7.0;"/><polygon fill="#181818" points="624.14,1032.82,618.3861,1024.8267,619.8226,1030.2981,614.3511,1031.7346,624.14,1032.82" style="stroke:#181818;stroke-width:1.0;"/><text fill="#000000" font-family="sans-serif" font-size="13" lengthAdjust="spacing" textLength="55" x="460" y="944.0451">&#171;include&#187;</text></g><!--reverse link UC23 to UC08--><g id="link_UC23_UC08"><path d="M367.7164,494.2772 C388.6964,487.5872 407.11,481.67 429,474.55 C485.13,456.28 548.95,435.11 594.51,419.93 " fill="none" id="UC23-backto-UC08" style="stroke:#181818;stroke-width:1.0;stroke-dasharray:7.0,7.0;"/><polygon fill="#181818" points="362,496.1,371.7898,497.1767,366.7637,494.581,369.3594,489.5548,362,496.1" style="stroke:#181818;stroke-width:1.0;"/><text fill="#000000" font-family="sans-serif" font-size="13" lengthAdjust="spacing" textLength="53" x="461" y="445.0451">&#171;extend&#187;</text></g><!--link UC06 to Cloud--><g id="link_UC06_Cloud"><path d="M750.63,280.55 C778.88,280.55 802.1,280.55 823.67,280.55 " fill="none" id="UC06-to-Cloud" style="stroke:#181818;stroke-width:1.0;"/><polygon fill="#181818" points="829.67,280.55,820.67,276.55,824.67,280.55,820.67,284.55,829.67,280.55" style="stroke:#181818;stroke-width:1.0;"/></g><!--link UC05 to ViaCEP--><g id="link_UC05_ViaCEP"><path d="M344.96,259.74 C416.05,220.78 562.3581,140.5932 623.6781,106.9932 " fill="none" id="UC05-to-ViaCEP" style="stroke:#181818;stroke-width:1.0;stroke-dasharray:7.0,7.0;"/><polygon fill="#181818" points="628.94,104.11,619.1251,104.9269,624.5551,106.5127,622.9694,111.9427,628.94,104.11" style="stroke:#181818;stroke-width:1.0;"/><text fill="#000000" font-family="sans-serif" font-size="13" lengthAdjust="spacing" textLength="53" x="461" y="165.0451">&#171;extend&#187;</text></g><!--SRC=[VLPDRzim3BtxLn2zhCFch7QIjYcA0aLMx39imuRrj0jhiuasMmeakVl2_lieot8ifUsXgFJu99AFfE8Ny5RWHcEBK1EiqIZZ5b-DWXnkrXybLHRX66s7ZVY3jRg0Lo1feog1-ZNW0yDk8PKLzwB2If5v3PfsdSKArSkieNiBLe4Mcws5McY-K2YPcHz2xf0Tmmwh7xYXB_PtG-3CA3SDJGXOMQMz6N-IKIrbMO_1qLhKMAFw9eyxqw4MwkKHe8413goRTgV98AnLGmmWqyb3dZxO0_swReKKncfELpCNtTupUzFel55TBIJgtzwfsmRRhS3rpQSUzyii6rFZW0PXZ-1lbW5qXYeqZAyvQkTNvuRwir_N9yMKSDrPafPrrd3yNcr2M4mhfxJFL7Kxudl0aDnYuCodd5jXV4qr450jB2_upBre0dtXOdi1UPu7GTqwYbSBvqCreX9zlLtlL4xbqUSo2b_IBpuWMgwtDAwj29PZ2gTJwdik05DPxYrRHnVSNe5-5jrSgNQ7pELmB7ShTp4caPn7aIlvGDemNQQyLLmHML4J9paGoqZoQpy9mrtyJrPDnwe5ydmlPcZ7HCnRqb6UW3kj7bn737SK9rFwXs480QLbSgruJaXOueQjjcY1VUGU2GANYrWnwcj-c5XHF5q8dzuOKIo13GtrH0cAUL829z54ifR_Qh4PurYaylZdfXU7fudkn5wSShaNk9_I0tdt_SwdjdSATHqSdSPDoZI3-h6cA-AcwmkauGr7y_r9DQE-UqUQP5-suS4QRruzJXiUgZ7DayTfBOyI3wCOUSLaU5NRjQaSdvr-BEdquGwXBBD_MTQVZIO_p_QRA_yq9K2P0lCKMAJ0CWNEKk0y1LO9KAPkozHjcRhb54E2asdCi_rcI301oXIOfy0Y0NXeOw0yOAHUYjHBSU1bbLwwJ8_i4nod8S_2SiXbkkKPYBPdyVOytgwYBJTbj2r6tyADEFycl07wnRzSjG_3bHrcipwAKxY0oyk1TtKLsSe3Mx60cLUaD_bBlULyE5MS7PuQRSj3M_6CRVwqhNp6Th9wzjpbRDRtTPp2NZ9B_47MFtBEg2KFPP3jj9VOVscCIlaFZFYs_m00]--></g></svg>