<svg xmlns="http://www.w3.org/2000/svg" xmlns:xlink="http://www.w3.org/1999/xlink" contentStyleType="text/css" data-diagram-type="DESCRIPTION" height="1773px" preserveAspectRatio="none" style="width:1134px;height:1773px;background:#FFFFFF;" version="1.1" viewBox="0 0 1134 1773" width="1134px" zoomAndPan="magnify"><?plantuml 1.2026.5?><defs/><g><!--cluster ECOnecta--><g class="cluster" data-qualified-name="ECOnecta" data-source-line="9" id="ent0004"><rect fill="none" height="1179" rx="2.5" ry="2.5" style="stroke:#181818;stroke-width:1;" width="942.17" x="178.3" y="315.58"/><text fill="#000000" font-family="sans-serif" font-size="14" font-weight="700" lengthAdjust="spacing" textLength="75.6396" x="611.5652" y="330.5751">ECOnecta</text></g><!--entity UC01--><g class="entity" data-qualified-name="ECOnecta.UC01" data-source-line="11" id="ent0005"><ellipse cx="304.4352" cy="528.575" fill="#F1F1F1" rx="63.5752" ry="15.115" style="stroke:#181818;stroke-width:0.5;"/><text fill="#000000" font-family="sans-serif" font-size="14" lengthAdjust="spacing" textLength="89.6533" x="259.6085" y="533.2235">Cadastrar-se</text></g><!--entity UC02--><g class="entity" data-qualified-name="ECOnecta.UC02" data-source-line="12" id="ent0006"><ellipse cx="998.1509" cy="964.5842" fill="#F1F1F1" rx="78.1209" ry="18.0242" style="stroke:#181818;stroke-width:0.5;"/><text fill="#000000" font-family="sans-serif" font-size="14" lengthAdjust="spacing" textLength="126.2256" x="935.0381" y="969.2326">Autenticar (Login)</text></g><!--entity UC03--><g class="entity" data-qualified-name="ECOnecta.UC03" data-source-line="13" id="ent0007"><ellipse cx="304.4384" cy="596.5777" fill="#F1F1F1" rx="75.1884" ry="17.4377" style="stroke:#181818;stroke-width:0.5;"/><text fill="#000000" font-family="sans-serif" font-size="14" lengthAdjust="spacing" textLength="119.1846" x="244.8461" y="601.2261">Recuperar senha</text></g><!--entity UC04--><g class="entity" data-qualified-name="ECOnecta.UC04" data-source-line="14" id="ent0008"><ellipse cx="653.2075" cy="855.5755" fill="#F1F1F1" rx="95.8275" ry="21.5655" style="stroke:#181818;stroke-width:0.5;"/><text fill="#000000" font-family="sans-serif" font-size="14" lengthAdjust="spacing" textLength="166.8174" x="569.7988" y="860.2239">Visualizar e editar perfil</text></g><!--entity UC05--><g class="entity" data-qualified-name="ECOnecta.UC05" data-source-line="17" id="ent0009"><ellipse cx="653.2108" cy="373.5822" fill="#F1F1F1" rx="102.5108" ry="22.9022" style="stroke:#181818;stroke-width:0.5;"/><text fill="#000000" font-family="sans-serif" font-size="14" lengthAdjust="spacing" textLength="181.5762" x="562.4227" y="378.2306">Criar solicita&#231;&#227;o de coleta</text></g><!--entity UC06--><g class="entity" data-qualified-name="ECOnecta.UC06" data-source-line="18" id="ent0010"><ellipse cx="998.1455" cy="373.5811" fill="#F1F1F1" rx="95.1555" ry="21.4311" style="stroke:#181818;stroke-width:0.5;"/><text fill="#000000" font-family="sans-serif" font-size="14" lengthAdjust="spacing" textLength="165.3203" x="915.4853" y="378.2295">Anexar imagens (at&#233; 5)</text></g><!--entity UC07--><g class="entity" data-qualified-name="ECOnecta.UC07" data-source-line="19" id="ent0011"><ellipse cx="653.2074" cy="454.5775" fill="#F1F1F1" rx="101.9374" ry="22.7875" style="stroke:#181818;stroke-width:0.5;"/><text fill="#000000" font-family="sans-serif" font-size="14" lengthAdjust="spacing" textLength="180.3184" x="563.0482" y="459.2259">Listar minhas solicita&#231;&#245;es</text></g><!--entity UC08--><g class="entity" data-qualified-name="ECOnecta.UC08" data-source-line="20" id="ent0012"><ellipse cx="653.2126" cy="537.5845" fill="#F1F1F1" rx="113.6226" ry="25.1245" style="stroke:#181818;stroke-width:0.5;"/><text fill="#000000" font-family="sans-serif" font-size="14" lengthAdjust="spacing" textLength="205.6934" x="550.3659" y="542.233">Acompanhar status da coleta</text></g><!--entity UC09--><g class="entity" data-qualified-name="ECOnecta.UC09" data-source-line="21" id="ent0013"><ellipse cx="653.2111" cy="620.5782" fill="#F1F1F1" rx="103.9411" ry="23.1882" style="stroke:#181818;stroke-width:0.5;"/><text fill="#000000" font-family="sans-serif" font-size="14" lengthAdjust="spacing" textLength="184.707" x="560.8575" y="625.2266">Conversar com a empresa</text></g><!--entity UC10--><g class="entity" data-qualified-name="ECOnecta.UC10" data-source-line="24" id="ent0014"><ellipse cx="653.212" cy="935.5844" fill="#F1F1F1" rx="105.322" ry="23.4644" style="stroke:#181818;stroke-width:0.5;"/><text fill="#000000" font-family="sans-serif" font-size="14" lengthAdjust="spacing" textLength="187.7217" x="559.3511" y="940.2328">Ver solicita&#231;&#245;es aprovadas</text></g><!--entity UC11--><g class="entity" data-qualified-name="ECOnecta.UC11" data-source-line="25" id="ent0015"><ellipse cx="653.2069" cy="1012.5794" fill="#F1F1F1" rx="78.9469" ry="18.1894" style="stroke:#181818;stroke-width:0.5;"/><text fill="#000000" font-family="sans-serif" font-size="14" lengthAdjust="spacing" textLength="128.1875" x="589.1132" y="1017.2278">Aceitar solicita&#231;&#227;o</text></g><!--entity UC12--><g class="entity" data-qualified-name="ECOnecta.UC12" data-source-line="26" id="ent0016"><ellipse cx="653.205" cy="698.581" fill="#F1F1F1" rx="87.905" ry="19.981" style="stroke:#181818;stroke-width:0.5;"/><text fill="#000000" font-family="sans-serif" font-size="14" lengthAdjust="spacing" textLength="148.9824" x="578.7138" y="703.2294">Listar minhas coletas</text></g><!--entity UC13--><g class="entity" data-qualified-name="ECOnecta.UC13" data-source-line="27" id="ent0017"><ellipse cx="653.208" cy="1088.5756" fill="#F1F1F1" rx="101.178" ry="22.6356" style="stroke:#181818;stroke-width:0.5;"/><text fill="#000000" font-family="sans-serif" font-size="14" lengthAdjust="spacing" textLength="178.6504" x="563.8828" y="1093.224">Atualizar status da coleta</text></g><!--entity UC14--><g class="entity" data-qualified-name="ECOnecta.UC14" data-source-line="28" id="ent0018"><ellipse cx="998.1499" cy="1163.584" fill="#F1F1F1" rx="106.3199" ry="23.664" style="stroke:#181818;stroke-width:0.5;"/><text fill="#000000" font-family="sans-serif" font-size="14" lengthAdjust="spacing" textLength="189.8955" x="903.2021" y="1168.2324">Concluir coleta com c&#243;digo</text></g><!--entity UC15--><g class="entity" data-qualified-name="ECOnecta.UC15" data-source-line="29" id="ent0019"><ellipse cx="653.2129" cy="776.5826" fill="#F1F1F1" rx="101.0629" ry="22.6126" style="stroke:#181818;stroke-width:0.5;"/><text fill="#000000" font-family="sans-serif" font-size="14" lengthAdjust="spacing" textLength="178.3975" x="564.0142" y="781.231">Conversar com o cidad&#227;o</text></g><!--entity UC16--><g class="entity" data-qualified-name="ECOnecta.UC16" data-source-line="32" id="ent0020"><ellipse cx="653.2087" cy="1458.5777" fill="#F1F1F1" rx="86.7887" ry="19.7577" style="stroke:#181818;stroke-width:0.5;"/><text fill="#000000" font-family="sans-serif" font-size="14" lengthAdjust="spacing" textLength="146.4326" x="579.9924" y="1463.2262">Visualizar dashboard</text></g><!--entity UC17--><g class="entity" data-qualified-name="ECOnecta.UC17" data-source-line="33" id="ent0021"><ellipse cx="653.2117" cy="1165.5823" fill="#F1F1F1" rx="85.0117" ry="19.4023" style="stroke:#181818;stroke-width:0.5;"/><text fill="#000000" font-family="sans-serif" font-size="14" lengthAdjust="spacing" textLength="142.3516" x="582.0359" y="1170.2308">Analisar solicita&#231;&#245;es</text></g><!--entity UC18--><g class="entity" data-qualified-name="ECOnecta.UC18" data-source-line="34" id="ent0022"><ellipse cx="304.4356" cy="673.5791" fill="#F1F1F1" rx="110.1456" ry="24.4291" style="stroke:#181818;stroke-width:0.5;"/><text fill="#000000" font-family="sans-serif" font-size="14" lengthAdjust="spacing" textLength="198.1943" x="205.3384" y="678.2276">Aprovar / rejeitar solicita&#231;&#227;o</text></g><!--entity UC19--><g class="entity" data-qualified-name="ECOnecta.UC19" data-source-line="35" id="ent0023"><ellipse cx="653.2076" cy="1238.5795" fill="#F1F1F1" rx="80.6476" ry="18.5295" style="stroke:#181818;stroke-width:0.5;"/><text fill="#000000" font-family="sans-serif" font-size="14" lengthAdjust="spacing" textLength="132.2002" x="587.1075" y="1243.228">Gerenciar usu&#225;rios</text></g><!--entity UC20--><g class="entity" data-qualified-name="ECOnecta.UC20" data-source-line="36" id="ent0024"><ellipse cx="653.2108" cy="1311.5802" fill="#F1F1F1" rx="84.7508" ry="19.3502" style="stroke:#181818;stroke-width:0.5;"/><text fill="#000000" font-family="sans-serif" font-size="14" lengthAdjust="spacing" textLength="141.75" x="582.3358" y="1316.2286">Gerenciar empresas</text></g><!--entity UC21--><g class="entity" data-qualified-name="ECOnecta.UC21" data-source-line="37" id="ent0025"><ellipse cx="653.207" cy="1384.5754" fill="#F1F1F1" rx="83.477" ry="19.0954" style="stroke:#181818;stroke-width:0.5;"/><text fill="#000000" font-family="sans-serif" font-size="14" lengthAdjust="spacing" textLength="138.8037" x="583.8051" y="1389.2238">Gerenciar materiais</text></g><!--entity Cidadao--><g class="entity" data-qualified-name="Cidadao" data-source-line="5" id="ent0001"><ellipse cx="68.647" cy="324.28" fill="#F1F1F1" rx="16" ry="16" style="stroke:#181818;stroke-width:0.5;"/><path d="M68.647,344.28 C72.647,344.28 75.647,344.28 79.647,340.28 C87.647,340.28 95.647,348.28 95.647,356.28 L95.647,360.28 C95.647,364.28 91.647,368.28 87.647,368.28 L49.647,368.28 C45.647,368.28 41.647,364.28 41.647,360.28 L41.647,356.28 C41.647,348.28 49.647,340.28 57.647,340.28 C61.647,344.28 64.647,344.28 68.647,344.28" fill="#F1F1F1" style="stroke:#181818;stroke-width:0.5;"/><text fill="#000000" font-family="sans-serif" font-size="14" lengthAdjust="spacing" textLength="57.1621" x="37.27" y="381.7751">Cidad&#227;o</text><text fill="#000000" font-family="sans-serif" font-size="14" lengthAdjust="spacing" textLength="62.7539" x="37.27" y="398.072">(usuario)</text></g><!--entity Empresa--><g class="entity" data-qualified-name="Empresa" data-source-line="6" id="ent0002"><ellipse cx="68.6479" cy="873.28" fill="#F1F1F1" rx="16" ry="16" style="stroke:#181818;stroke-width:0.5;"/><path d="M68.6479,893.28 C72.6479,893.28 75.6479,893.28 79.6479,889.28 C87.6479,889.28 95.6479,897.28 95.6479,905.28 L95.6479,909.28 C95.6479,913.28 91.6479,917.28 87.6479,917.28 L49.6479,917.28 C45.6479,917.28 41.6479,913.28 41.6479,909.28 L41.6479,905.28 C41.6479,897.28 49.6479,889.28 57.6479,889.28 C61.6479,893.28 64.6479,893.28 68.6479,893.28" fill="#F1F1F1" style="stroke:#181818;stroke-width:0.5;"/><text fill="#000000" font-family="sans-serif" font-size="14" lengthAdjust="spacing" textLength="125.2959" x="6" y="930.7751">Empresa Coletora</text><text fill="#000000" font-family="sans-serif" font-size="14" lengthAdjust="spacing" textLength="72.3037" x="6" y="947.072">(empresa)</text></g><!--entity Admin--><g class="entity" data-qualified-name="Admin" data-source-line="7" id="ent0003"><ellipse cx="68.65" cy="1359.28" fill="#F1F1F1" rx="16" ry="16" style="stroke:#181818;stroke-width:0.5;"/><path d="M68.65,1379.28 C72.65,1379.28 75.65,1379.28 79.65,1375.28 C87.65,1375.28 95.65,1383.28 95.65,1391.28 L95.65,1395.28 C95.65,1399.28 91.65,1403.28 87.65,1403.28 L49.65,1403.28 C45.65,1403.28 41.65,1399.28 41.65,1395.28 L41.65,1391.28 C41.65,1383.28 49.65,1375.28 57.65,1375.28 C61.65,1379.28 64.65,1379.28 68.65,1379.28" fill="#F1F1F1" style="stroke:#181818;stroke-width:0.5;"/><text fill="#000000" font-family="sans-serif" font-size="14" lengthAdjust="spacing" textLength="99.0801" x="19.11" y="1416.7751">Administrador</text><text fill="#000000" font-family="sans-serif" font-size="14" lengthAdjust="spacing" textLength="54.79" x="19.11" y="1433.072">(admin)</text></g><!--link Cidadao to UC01--><g class="link" data-entity-1="ent0001" data-entity-2="ent0005" data-link-type="dependency" data-source-line="41" id="lnk26"><path d="M92.26,401.56 C108.01,429.67 131.52,464 161.3,485.58 C186.98,504.19 215.9012,513.7915 244.1112,519.8415" fill="none" id="Cidadao-to-UC01" style="stroke:#181818;stroke-width:1;"/><polygon fill="#181818" points="249,520.89,241.0389,515.0917,244.1112,519.8415,239.3613,522.9138,249,520.89" style="stroke:#181818;stroke-width:1;stroke-linejoin:miter;stroke-miterlimit:10;"/></g><!--link Cidadao to UC02--><g class="link" data-entity-1="ent0001" data-entity-2="ent0006" data-link-type="dependency" data-source-line="42" id="lnk27"><path d="M80.45,307.58 C93.47,262.98 120.15,198.46 170.3,168.58 C443.12,6 663.5,100.53 861.83,348.58 C900.85,397.38 977.0369,843.9182 993.2769,941.2182" fill="none" id="Cidadao-to-UC02" style="stroke:#181818;stroke-width:1;"/><polygon fill="#181818" points="994.1,946.15,996.5638,936.6143,993.2769,941.2182,988.6729,937.9313,994.1,946.15" style="stroke:#181818;stroke-width:1;stroke-linejoin:miter;stroke-miterlimit:10;"/></g><!--link Cidadao to UC03--><g class="link" data-entity-1="ent0001" data-entity-2="ent0007" data-link-type="dependency" data-source-line="43" id="lnk28"><path d="M80.28,401.63 C93.42,448.96 120.43,520.62 170.3,561.58 C188.3,576.37 207.03,583.8812 229.35,588.8612" fill="none" id="Cidadao-to-UC03" style="stroke:#181818;stroke-width:1;"/><polygon fill="#181818" points="234.23,589.95,226.317,584.0861,229.35,588.8612,224.5749,591.8941,234.23,589.95" style="stroke:#181818;stroke-width:1;stroke-linejoin:miter;stroke-miterlimit:10;"/></g><!--link Cidadao to UC04--><g class="link" data-entity-1="ent0001" data-entity-2="ent0008" data-link-type="dependency" data-source-line="44" id="lnk29"><path d="M100.28,363.68 C175.81,386.63 368.2,448.41 414.59,495.58 C521.94,604.74 429.29,710.4 539.59,816.58 C550.99,827.56 560.9668,833.6821 575.8968,839.3621" fill="none" id="Cidadao-to-UC04" style="stroke:#181818;stroke-width:1;"/><polygon fill="#181818" points="580.57,841.14,573.5805,834.2012,575.8968,839.3621,570.7359,841.6784,580.57,841.14" style="stroke:#181818;stroke-width:1;stroke-linejoin:miter;stroke-miterlimit:10;"/></g><!--link Cidadao to UC05--><g class="link" data-entity-1="ent0001" data-entity-2="ent0009" data-link-type="dependency" data-source-line="45" id="lnk30"><path d="M88.28,307.33 C103.08,276.82 127.04,239.58 161.3,221.58 C298.33,149.59 367.53,160.07 509.59,221.58 C570.69,248.04 615.0474,310.7047 636.6174,346.2747" fill="none" id="Cidadao-to-UC05" style="stroke:#181818;stroke-width:1;"/><polygon fill="#181818" points="639.21,350.55,637.9636,340.7803,636.6174,346.2747,631.1231,344.9285,639.21,350.55" style="stroke:#181818;stroke-width:1;stroke-linejoin:miter;stroke-miterlimit:10;"/></g><!--link Cidadao to UC07--><g class="link" data-entity-1="ent0001" data-entity-2="ent0011" data-link-type="dependency" data-source-line="46" id="lnk31"><path d="M100.27,327.05 C117.02,313.85 138.89,299.45 161.3,292.58 C309.3,247.22 387.67,197.2 509.59,292.58 C553.23,326.72 502.54,372.38 539.59,413.58 C549.74,424.87 558.6497,431.1247 572.7997,437.0647" fill="none" id="Cidadao-to-UC07" style="stroke:#181818;stroke-width:1;"/><polygon fill="#181818" points="577.41,439,570.6598,431.8282,572.7997,437.0647,567.5633,439.2046,577.41,439" style="stroke:#181818;stroke-width:1;stroke-linejoin:miter;stroke-miterlimit:10;"/></g><!--link Cidadao to UC08--><g class="link" data-entity-1="ent0001" data-entity-2="ent0012" data-link-type="dependency" data-source-line="47" id="lnk32"><path d="M100.32,343.83 C178.57,318.56 387.97,264.61 509.59,363.58 C555.92,401.28 500.4,449.5 539.59,494.58 C548.86,505.24 556.5386,511.1565 569.4886,517.1965" fill="none" id="Cidadao-to-UC08" style="stroke:#181818;stroke-width:1;"/><polygon fill="#181818" points="574.02,519.31,567.5543,511.8807,569.4886,517.1965,564.1728,519.1308,574.02,519.31" style="stroke:#181818;stroke-width:1;stroke-linejoin:miter;stroke-miterlimit:10;"/></g><!--link Cidadao to UC09--><g class="link" data-entity-1="ent0001" data-entity-2="ent0013" data-link-type="dependency" data-source-line="48" id="lnk33"><path d="M100.35,349.75 C180.04,339.11 395.23,322.79 509.59,434.58 C556.96,480.88 496.1,530.61 539.59,580.58 C548.99,591.38 556.9134,597.2692 570.1834,603.0292" fill="none" id="Cidadao-to-UC09" style="stroke:#181818;stroke-width:1;"/><polygon fill="#181818" points="574.77,605.02,568.1069,597.7672,570.1834,603.0292,564.9215,605.1057,574.77,605.02" style="stroke:#181818;stroke-width:1;stroke-linejoin:miter;stroke-miterlimit:10;"/></g><!--link Empresa to UC01--><g class="link" data-entity-1="ent0002" data-entity-2="ent0005" data-link-type="dependency" data-source-line="51" id="lnk34"><path d="M69.54,856.33 C72.04,782.56 88.05,640.35 170.3,561.58 C189.22,543.46 211.522,535.6047 236.442,531.6447" fill="none" id="Empresa-to-UC01" style="stroke:#181818;stroke-width:1;"/><polygon fill="#181818" points="241.38,530.86,231.8638,528.322,236.442,531.6447,233.1193,536.2229,241.38,530.86" style="stroke:#181818;stroke-width:1;stroke-linejoin:miter;stroke-miterlimit:10;"/></g><!--link Empresa to UC02--><g class="link" data-entity-1="ent0002" data-entity-2="ent0006" data-link-type="dependency" data-source-line="52" id="lnk35"><path d="M88.53,950.82 C139.54,1070.9 293.16,1386.07 539.59,1495.58 C672.16,1554.49 782.14,1564.8 861.83,1443.58 C901.19,1383.71 867.9,1190.11 891.83,1122.58 C911.87,1066.03 953.3562,1013.7918 977.5662,986.1418" fill="none" id="Empresa-to-UC02" style="stroke:#181818;stroke-width:1;"/><polygon fill="#181818" points="980.86,982.38,971.9218,986.5162,977.5662,986.1418,977.9406,991.7862,980.86,982.38" style="stroke:#181818;stroke-width:1;stroke-linejoin:miter;stroke-miterlimit:10;"/></g><!--link Empresa to UC03--><g class="link" data-entity-1="ent0002" data-entity-2="ent0007" data-link-type="dependency" data-source-line="53" id="lnk36"><path d="M73.97,856.38 C82.1,795.55 105.22,690.61 170.3,631.58 C187.47,616 205.8575,608.2877 228.1475,603.3677" fill="none" id="Empresa-to-UC03" style="stroke:#181818;stroke-width:1;"/><polygon fill="#181818" points="233.03,602.29,223.3794,600.3239,228.1475,603.3677,225.1037,608.1358,233.03,602.29" style="stroke:#181818;stroke-width:1;stroke-linejoin:miter;stroke-miterlimit:10;"/></g><!--link Empresa to UC04--><g class="link" data-entity-1="ent0002" data-entity-2="ent0008" data-link-type="dependency" data-source-line="54" id="lnk37"><path d="M131.72,898.47 C235.14,889.94 438.1269,873.2207 557.5069,863.3807" fill="none" id="Empresa-to-UC04" style="stroke:#181818;stroke-width:1;"/><polygon fill="#181818" points="562.49,862.97,553.1918,859.7228,557.5069,863.3807,553.849,867.6958,562.49,862.97" style="stroke:#181818;stroke-width:1;stroke-linejoin:miter;stroke-miterlimit:10;"/></g><!--link Empresa to UC10--><g class="link" data-entity-1="ent0002" data-entity-2="ent0014" data-link-type="dependency" data-source-line="55" id="lnk38"><path d="M131.78,923.58 C141.57,926.04 151.64,928.18 161.3,929.58 C295.2,949.04 446.8153,946.9005 546.4753,942.3005" fill="none" id="Empresa-to-UC10" style="stroke:#181818;stroke-width:1;"/><polygon fill="#181818" points="551.47,942.07,542.2951,938.4892,546.4753,942.3005,542.664,946.4807,551.47,942.07" style="stroke:#181818;stroke-width:1;stroke-linejoin:miter;stroke-miterlimit:10;"/></g><!--link Empresa to UC11--><g class="link" data-entity-1="ent0002" data-entity-2="ent0015" data-link-type="dependency" data-source-line="56" id="lnk39"><path d="M131.66,938.45 C144.15,944.3 157.4,949.71 170.3,953.58 C308.56,995.06 472.4936,1007.2509 569.1936,1010.9109" fill="none" id="Empresa-to-UC11" style="stroke:#181818;stroke-width:1;"/><polygon fill="#181818" points="574.19,1011.1,565.3477,1006.7625,569.1936,1010.9109,565.0452,1014.7567,574.19,1011.1" style="stroke:#181818;stroke-width:1;stroke-linejoin:miter;stroke-miterlimit:10;"/></g><!--link Empresa to UC12--><g class="link" data-entity-1="ent0002" data-entity-2="ent0016" data-link-type="dependency" data-source-line="57" id="lnk40"><path d="M108.62,856.78 C125.81,838.91 147.31,819.9 170.3,807.58 C188.79,797.66 455.8791,740.219 582.8791,713.239" fill="none" id="Empresa-to-UC12" style="stroke:#181818;stroke-width:1;"/><polygon fill="#181818" points="587.77,712.2,578.1353,710.1575,582.8791,713.239,579.7977,717.9829,587.77,712.2" style="stroke:#181818;stroke-width:1;stroke-linejoin:miter;stroke-miterlimit:10;"/></g><!--link Empresa to UC13--><g class="link" data-entity-1="ent0002" data-entity-2="ent0017" data-link-type="dependency" data-source-line="58" id="lnk41"><path d="M103.88,950.7 C121.42,971.39 144.5,994.01 170.3,1007.58 C291,1071.06 445.132,1086.6075 546.842,1089.5075" fill="none" id="Empresa-to-UC13" style="stroke:#181818;stroke-width:1;"/><polygon fill="#181818" points="551.84,1089.65,542.9577,1085.3951,546.842,1089.5075,542.7297,1093.3919,551.84,1089.65" style="stroke:#181818;stroke-width:1;stroke-linejoin:miter;stroke-miterlimit:10;"/></g><!--link Empresa to UC15--><g class="link" data-entity-1="ent0002" data-entity-2="ent0019" data-link-type="dependency" data-source-line="59" id="lnk42"><path d="M131.59,873.72 C144.19,868.44 157.51,863.41 170.3,859.58 C302.85,819.83 457.0129,797.6225 555.1329,786.3125" fill="none" id="Empresa-to-UC15" style="stroke:#181818;stroke-width:1;"/><polygon fill="#181818" points="560.1,785.74,550.7012,782.7969,555.1329,786.3125,551.6172,790.7443,560.1,785.74" style="stroke:#181818;stroke-width:1;stroke-linejoin:miter;stroke-miterlimit:10;"/></g><!--link Admin to UC02--><g class="link" data-entity-1="ent0003" data-entity-2="ent0006" data-link-type="dependency" data-source-line="62" id="lnk43"><path d="M116.36,1436.85 C132.29,1450.59 150.99,1464.36 170.3,1473.58 C448.26,1606.25 668.19,1758.09 861.83,1518.58 C917.32,1449.95 863.09,1206.02 891.83,1122.58 C911.38,1065.85 953.0498,1013.6774 977.4298,986.0774" fill="none" id="Admin-to-UC02" style="stroke:#181818;stroke-width:1;"/><polygon fill="#181818" points="980.74,982.33,971.7838,986.4271,977.4298,986.0774,977.7796,991.7234,980.74,982.33" style="stroke:#181818;stroke-width:1;stroke-linejoin:miter;stroke-miterlimit:10;"/></g><!--link Admin to UC16--><g class="link" data-entity-1="ent0003" data-entity-2="ent0020" data-link-type="dependency" data-source-line="63" id="lnk44"><path d="M118.47,1416.41 C134.51,1423.98 152.75,1431.32 170.3,1435.58 C307.24,1468.83 467.3448,1468.5292 564.4348,1464.2692" fill="none" id="Admin-to-UC16" style="stroke:#181818;stroke-width:1;"/><polygon fill="#181818" points="569.43,1464.05,560.2633,1460.4484,564.4348,1464.2692,560.614,1468.4407,569.43,1464.05" style="stroke:#181818;stroke-width:1;stroke-linejoin:miter;stroke-miterlimit:10;"/></g><!--link Admin to UC17--><g class="link" data-entity-1="ent0003" data-entity-2="ent0021" data-link-type="dependency" data-source-line="64" id="lnk45"><path d="M109.34,1342.71 C126.47,1325.05 147.75,1306.21 170.3,1293.58 C301.7,1219.96 472.1551,1187.9504 571.0451,1174.5704" fill="none" id="Admin-to-UC17" style="stroke:#181818;stroke-width:1;"/><polygon fill="#181818" points="576,1173.9,566.5449,1171.1428,571.0451,1174.5704,567.6176,1179.0706,576,1173.9" style="stroke:#181818;stroke-width:1;stroke-linejoin:miter;stroke-miterlimit:10;"/></g><!--link Admin to UC18--><g class="link" data-entity-1="ent0003" data-entity-2="ent0022" data-link-type="dependency" data-source-line="65" id="lnk46"><path d="M85.08,1342.32 C130.32,1203.76 260.0378,806.503 293.8678,702.913" fill="none" id="Admin-to-UC18" style="stroke:#181818;stroke-width:1;"/><polygon fill="#181818" points="295.42,698.16,288.8237,705.4736,293.8678,702.913,296.4284,707.9571,295.42,698.16" style="stroke:#181818;stroke-width:1;stroke-linejoin:miter;stroke-miterlimit:10;"/></g><!--link Admin to UC19--><g class="link" data-entity-1="ent0003" data-entity-2="ent0023" data-link-type="dependency" data-source-line="66" id="lnk47"><path d="M118.53,1365.83 C134.74,1358.6 153.05,1351.12 170.3,1345.58 C317.07,1298.46 359.31,1307.95 509.59,1273.58 C538.79,1266.9 566.3784,1260.1892 592.9384,1253.5692" fill="none" id="Admin-to-UC19" style="stroke:#181818;stroke-width:1;"/><polygon fill="#181818" points="597.79,1252.36,588.0898,1250.6554,592.9384,1253.5692,590.0246,1258.4179,597.79,1252.36" style="stroke:#181818;stroke-width:1;stroke-linejoin:miter;stroke-miterlimit:10;"/></g><!--link Admin to UC20--><g class="link" data-entity-1="ent0003" data-entity-2="ent0024" data-link-type="dependency" data-source-line="67" id="lnk48"><path d="M118.41,1386.6 C199.85,1381.17 368.52,1368.02 509.59,1344.58 C538.42,1339.79 565.2739,1333.8308 591.4539,1327.4108" fill="none" id="Admin-to-UC20" style="stroke:#181818;stroke-width:1;"/><polygon fill="#181818" points="596.31,1326.22,586.6163,1324.4786,591.4539,1327.4108,588.5217,1332.2484,596.31,1326.22" style="stroke:#181818;stroke-width:1;stroke-linejoin:miter;stroke-miterlimit:10;"/></g><!--link Admin to UC21--><g class="link" data-entity-1="ent0003" data-entity-2="ent0025" data-link-type="dependency" data-source-line="68" id="lnk49"><path d="M118.58,1406.16 C132.24,1410.04 147.21,1413.62 161.3,1415.58 C314.69,1436.92 355.97,1424.24 509.59,1404.58 C533.15,1401.56 553.9091,1398.7287 576.9391,1395.4787" fill="none" id="Admin-to-UC21" style="stroke:#181818;stroke-width:1;"/><polygon fill="#181818" points="581.89,1394.78,572.4194,1392.0769,576.9391,1395.4787,573.5372,1399.9984,581.89,1394.78" style="stroke:#181818;stroke-width:1;stroke-linejoin:miter;stroke-miterlimit:10;"/></g><!--link UC05 to UC06--><g class="link" data-entity-1="ent0009" data-entity-2="ent0010" data-link-type="dependency" data-source-line="71" id="lnk50"><path d="M756.18,373.58 C802.57,373.58 852.15,373.58 897.61,373.58" fill="none" id="UC05-to-UC06" style="stroke:#181818;stroke-width:1;stroke-dasharray:7,7;"/><polygon fill="#181818" points="902.61,373.58,893.61,369.58,897.61,373.58,893.61,377.58,902.61,373.58" style="stroke:#181818;stroke-width:1;stroke-linejoin:miter;stroke-miterlimit:10;"/><text fill="#000000" font-family="sans-serif" font-size="13" lengthAdjust="spacing" textLength="63.0068" x="797.83" y="369.6469">&#171;include&#187;</text></g><!--reverse link UC13 to UC14--><g class="link" data-entity-1="ent0017" data-entity-2="ent0018" data-link-type="dependency" data-source-line="72" id="lnk51"><path d="M726.2712,1107.32 C741.9712,1113.11 753.34,1118.91 766.83,1128.58 C784.32,1141.12 777.47,1157.2 796.83,1166.58 C835.17,1185.16 882.69,1185.27 921.82,1180.34" fill="none" id="UC13-backto-UC14" style="stroke:#181818;stroke-width:1;stroke-dasharray:7,7;"/><polygon fill="#181818" points="721.58,1105.59,728.64,1112.457,726.2712,1107.32,731.4081,1104.9512,721.58,1105.59" style="stroke:#181818;stroke-width:1;stroke-linejoin:miter;stroke-miterlimit:10;"/><text fill="#000000" font-family="sans-serif" font-size="13" lengthAdjust="spacing" textLength="61.1851" x="798.83" y="1162.6469">&#171;extend&#187;</text></g><!--link UC18 to UC17--><g class="link" data-entity-1="ent0022" data-entity-2="ent0021" data-link-type="dependency" data-source-line="73" id="lnk52"><path d="M311.12,698.45 C329.77,774.52 396.33,1006.32 539.59,1128.58 C552.89,1139.94 565.0315,1146.2643 581.6515,1151.7443" fill="none" id="UC18-to-UC17" style="stroke:#181818;stroke-width:1;stroke-dasharray:7,7;"/><polygon fill="#181818" points="586.4,1153.31,579.1052,1146.6929,581.6515,1151.7443,576.6001,1154.2906,586.4,1153.31" style="stroke:#181818;stroke-width:1;stroke-linejoin:miter;stroke-miterlimit:10;"/><text fill="#000000" font-family="sans-serif" font-size="13" lengthAdjust="spacing" textLength="63.0068" x="445.59" y="1020.6469">&#171;include&#187;</text></g><!--link UC04 to UC02--><g class="link" data-entity-1="ent0008" data-entity-2="ent0006" data-link-type="dependency" data-source-line="75" id="lnk53"><path d="M710.07,873.33 C777.17,894.66 883.6949,928.5154 946.1749,948.3754" fill="none" id="UC04-to-UC02" style="stroke:#181818;stroke-width:1;stroke-dasharray:7,7;"/><polygon fill="#181818" points="950.94,949.89,943.5746,943.3516,946.1749,948.3754,941.1512,950.9757,950.94,949.89" style="stroke:#181818;stroke-width:1;stroke-linejoin:miter;stroke-miterlimit:10;"/><text fill="#000000" font-family="sans-serif" font-size="13" lengthAdjust="spacing" textLength="63.0068" x="797.83" y="899.6469">&#171;include&#187;</text></g><!--link UC05 to UC02--><g class="link" data-entity-1="ent0009" data-entity-2="ent0006" data-link-type="dependency" data-source-line="76" id="lnk54"><path d="M718.58,391.46 C766.2,408.21 828.36,438.23 861.83,487.58 C967.17,642.88 990.8697,874.593 995.6997,941.443" fill="none" id="UC05-to-UC02" style="stroke:#181818;stroke-width:1;stroke-dasharray:7,7;"/><polygon fill="#181818" points="996.06,946.43,999.401,937.1651,995.6997,941.443,991.4218,937.7417,996.06,946.43" style="stroke:#181818;stroke-width:1;stroke-linejoin:miter;stroke-miterlimit:10;"/><text fill="#000000" font-family="sans-serif" font-size="13" lengthAdjust="spacing" textLength="63.0068" x="797.83" y="427.6469">&#171;include&#187;</text></g><!--link UC07 to UC02--><g class="link" data-entity-1="ent0011" data-entity-2="ent0006" data-link-type="dependency" data-source-line="77" id="lnk55"><path d="M717.28,472.66 C733.9,478.58 751.48,485.9 766.83,494.58 C814.39,521.46 830.63,527.74 861.83,572.58 C949.62,698.76 984.3175,882.1816 993.6775,941.2516" fill="none" id="UC07-to-UC02" style="stroke:#181818;stroke-width:1;stroke-dasharray:7,7;"/><polygon fill="#181818" points="994.46,946.19,997.0022,936.6749,993.6775,941.2516,989.1008,937.9269,994.46,946.19" style="stroke:#181818;stroke-width:1;stroke-linejoin:miter;stroke-miterlimit:10;"/><text fill="#000000" font-family="sans-serif" font-size="13" lengthAdjust="spacing" textLength="63.0068" x="797.83" y="508.6469">&#171;include&#187;</text></g><!--link UC08 to UC02--><g class="link" data-entity-1="ent0012" data-entity-2="ent0006" data-link-type="dependency" data-source-line="78" id="lnk56"><path d="M720.08,558.23 C735.83,564.22 752.28,571.39 766.83,579.58 C813.71,605.96 828.98,611.99 861.83,654.58 C936.44,751.29 977.8626,890.6659 991.2526,941.3359" fill="none" id="UC08-to-UC02" style="stroke:#181818;stroke-width:1;stroke-dasharray:7,7;"/><polygon fill="#181818" points="992.53,946.17,994.0978,936.4467,991.2526,941.3359,986.3634,938.4906,992.53,946.17" style="stroke:#181818;stroke-width:1;stroke-linejoin:miter;stroke-miterlimit:10;"/><text fill="#000000" font-family="sans-serif" font-size="13" lengthAdjust="spacing" textLength="63.0068" x="797.83" y="593.6469">&#171;include&#187;</text></g><!--link UC09 to UC02--><g class="link" data-entity-1="ent0013" data-entity-2="ent0006" data-link-type="dependency" data-source-line="79" id="lnk57"><path d="M716.49,639.41 C733.29,645.51 751.15,652.97 766.83,661.58 C813.51,687.21 826.57,694.68 861.83,734.58 C923.19,804.01 969.2507,900.7659 987.3507,941.7659" fill="none" id="UC09-to-UC02" style="stroke:#181818;stroke-width:1;stroke-dasharray:7,7;"/><polygon fill="#181818" points="989.37,946.34,989.3945,936.4912,987.3507,941.7659,982.076,939.7221,989.37,946.34" style="stroke:#181818;stroke-width:1;stroke-linejoin:miter;stroke-miterlimit:10;"/><text fill="#000000" font-family="sans-serif" font-size="13" lengthAdjust="spacing" textLength="63.0068" x="797.83" y="675.6469">&#171;include&#187;</text></g><!--link UC10 to UC02--><g class="link" data-entity-1="ent0014" data-entity-2="ent0006" data-link-type="dependency" data-source-line="80" id="lnk58"><path d="M752.02,943.85 C806.86,948.49 869.1278,953.759 919.3078,957.999" fill="none" id="UC10-to-UC02" style="stroke:#181818;stroke-width:1;stroke-dasharray:7,7;"/><polygon fill="#181818" points="924.29,958.42,915.6587,953.6764,919.3078,957.999,914.9852,961.648,924.29,958.42" style="stroke:#181818;stroke-width:1;stroke-linejoin:miter;stroke-miterlimit:10;"/><text fill="#000000" font-family="sans-serif" font-size="13" lengthAdjust="spacing" textLength="63.0068" x="797.83" y="944.6469">&#171;include&#187;</text></g><!--link UC11 to UC02--><g class="link" data-entity-1="ent0015" data-entity-2="ent0006" data-link-type="dependency" data-source-line="81" id="lnk59"><path d="M721.55,1003.15 C782.03,994.69 865.3483,983.0229 925.5883,974.5929" fill="none" id="UC11-to-UC02" style="stroke:#181818;stroke-width:1;stroke-dasharray:7,7;"/><polygon fill="#181818" points="930.54,973.9,921.0725,971.1859,925.5883,974.5929,922.1812,979.1087,930.54,973.9" style="stroke:#181818;stroke-width:1;stroke-linejoin:miter;stroke-miterlimit:10;"/><text fill="#000000" font-family="sans-serif" font-size="13" lengthAdjust="spacing" textLength="63.0068" x="797.83" y="980.6469">&#171;include&#187;</text></g><!--link UC12 to UC02--><g class="link" data-entity-1="ent0016" data-entity-2="ent0006" data-link-type="dependency" data-source-line="82" id="lnk60"><path d="M711.58,713.9 C729.78,719.82 749.63,727.4 766.83,736.58 C867.84,790.5 950.91,898.6898 981.92,942.4698" fill="none" id="UC12-to-UC02" style="stroke:#181818;stroke-width:1;stroke-dasharray:7,7;"/><polygon fill="#181818" points="984.81,946.55,982.8721,936.8937,981.92,942.4698,976.3438,941.5177,984.81,946.55" style="stroke:#181818;stroke-width:1;stroke-linejoin:miter;stroke-miterlimit:10;"/><text fill="#000000" font-family="sans-serif" font-size="13" lengthAdjust="spacing" textLength="63.0068" x="797.83" y="755.6469">&#171;include&#187;</text></g><!--link UC13 to UC02--><g class="link" data-entity-1="ent0017" data-entity-2="ent0006" data-link-type="dependency" data-source-line="83" id="lnk61"><path d="M710.79,1069.52 C752.63,1055.29 810.95,1035.17 861.83,1016.58 C894.1,1004.79 925.7725,992.6087 952.6625,982.1087" fill="none" id="UC13-to-UC02" style="stroke:#181818;stroke-width:1;stroke-dasharray:7,7;"/><polygon fill="#181818" points="957.32,980.29,947.4815,979.8376,952.6625,982.1087,950.3914,987.2896,957.32,980.29" style="stroke:#181818;stroke-width:1;stroke-linejoin:miter;stroke-miterlimit:10;"/><text fill="#000000" font-family="sans-serif" font-size="13" lengthAdjust="spacing" textLength="63.0068" x="797.83" y="1012.6469">&#171;include&#187;</text></g><!--link UC15 to UC02--><g class="link" data-entity-1="ent0019" data-entity-2="ent0006" data-link-type="dependency" data-source-line="84" id="lnk62"><path d="M714,794.95 C731.38,801.05 750.16,808.4 766.83,816.58 C847.05,855.95 929.6389,914.3383 969.9889,944.1583" fill="none" id="UC15-to-UC02" style="stroke:#181818;stroke-width:1;stroke-dasharray:7,7;"/><polygon fill="#181818" points="974.01,947.13,969.1494,938.5641,969.9889,944.1583,964.3947,944.9978,974.01,947.13" style="stroke:#181818;stroke-width:1;stroke-linejoin:miter;stroke-miterlimit:10;"/><text fill="#000000" font-family="sans-serif" font-size="13" lengthAdjust="spacing" textLength="63.0068" x="797.83" y="830.6469">&#171;include&#187;</text></g><!--link UC16 to UC02--><g class="link" data-entity-1="ent0020" data-entity-2="ent0006" data-link-type="dependency" data-source-line="85" id="lnk63"><path d="M736.84,1452.93 C780.67,1445.42 831.58,1428.62 861.83,1391.58 C899.88,1344.99 871.24,1179.09 891.83,1122.58 C912.38,1066.21 953.6627,1013.9061 977.7127,986.1961" fill="none" id="UC16-to-UC02" style="stroke:#181818;stroke-width:1;stroke-dasharray:7,7;"/><polygon fill="#181818" points="980.99,982.42,972.0699,986.5951,977.7127,986.1961,978.1117,991.8389,980.99,982.42" style="stroke:#181818;stroke-width:1;stroke-linejoin:miter;stroke-miterlimit:10;"/><text fill="#000000" font-family="sans-serif" font-size="13" lengthAdjust="spacing" textLength="63.0068" x="797.83" y="1387.6469">&#171;include&#187;</text></g><!--link UC17 to UC02--><g class="link" data-entity-1="ent0021" data-entity-2="ent0006" data-link-type="dependency" data-source-line="86" id="lnk64"><path d="M709.54,1150.74 C728.18,1144.87 748.81,1137.4 766.83,1128.58 C851.71,1087.04 935.3905,1018.5135 973.5605,985.4535" fill="none" id="UC17-to-UC02" style="stroke:#181818;stroke-width:1;stroke-dasharray:7,7;"/><polygon fill="#181818" points="977.34,982.18,967.9182,985.0487,973.5605,985.4535,973.1558,991.0958,977.34,982.18" style="stroke:#181818;stroke-width:1;stroke-linejoin:miter;stroke-miterlimit:10;"/><text fill="#000000" font-family="sans-serif" font-size="13" lengthAdjust="spacing" textLength="63.0068" x="797.83" y="1069.6469">&#171;include&#187;</text></g><!--link UC19 to UC02--><g class="link" data-entity-1="ent0023" data-entity-2="ent0006" data-link-type="dependency" data-source-line="87" id="lnk65"><path d="M729.03,1245.36 C772.32,1245.26 825.29,1237.73 861.83,1207.58 C892.73,1182.08 873.92,1158.41 891.83,1122.58 C918.81,1068.62 957.9903,1015.0322 979.8803,986.5922" fill="none" id="UC19-to-UC02" style="stroke:#181818;stroke-width:1;stroke-dasharray:7,7;"/><polygon fill="#181818" points="982.93,982.63,974.2708,987.3223,979.8803,986.5922,980.6103,992.2018,982.93,982.63" style="stroke:#181818;stroke-width:1;stroke-linejoin:miter;stroke-miterlimit:10;"/><text fill="#000000" font-family="sans-serif" font-size="13" lengthAdjust="spacing" textLength="63.0068" x="797.83" y="1203.6469">&#171;include&#187;</text></g><!--link UC20 to UC02--><g class="link" data-entity-1="ent0024" data-entity-2="ent0006" data-link-type="dependency" data-source-line="88" id="lnk66"><path d="M738.29,1312 C780.78,1307.71 829.96,1295.12 861.83,1262.58 C906.36,1217.12 867.08,1181.2 891.83,1122.58 C915.3,1067 955.8462,1013.9953 978.8862,986.0953" fill="none" id="UC20-to-UC02" style="stroke:#181818;stroke-width:1;stroke-dasharray:7,7;"/><polygon fill="#181818" points="982.07,982.24,973.255,986.6326,978.8862,986.0953,979.4235,991.7266,982.07,982.24" style="stroke:#181818;stroke-width:1;stroke-linejoin:miter;stroke-miterlimit:10;"/><text fill="#000000" font-family="sans-serif" font-size="13" lengthAdjust="spacing" textLength="63.0068" x="797.83" y="1258.6469">&#171;include&#187;</text></g><!--link UC21 to UC02--><g class="link" data-entity-1="ent0025" data-entity-2="ent0006" data-link-type="dependency" data-source-line="89" id="lnk67"><path d="M736.36,1381.84 C779.9,1375.91 830.69,1361.07 861.83,1325.58 C921.99,1257.03 859.08,1207.7 891.83,1122.58 C913.38,1066.58 954.2766,1014.1553 977.9966,986.3253" fill="none" id="UC21-to-UC02" style="stroke:#181818;stroke-width:1;stroke-dasharray:7,7;"/><polygon fill="#181818" points="981.24,982.52,972.3577,986.7749,977.9966,986.3253,978.4462,991.9643,981.24,982.52" style="stroke:#181818;stroke-width:1;stroke-linejoin:miter;stroke-miterlimit:10;"/><text fill="#000000" font-family="sans-serif" font-size="13" lengthAdjust="spacing" textLength="63.0068" x="797.83" y="1321.6469">&#171;include&#187;</text></g><?plantuml-src VLJDRjGm4BxdAKQzK0xPhhF_LLMfMY4kbP2Aw8cBIQQxfacyifrIG3mCue0u8vvWNunn4cTZTpUtp3VVZB_vIuuF1em49JPR0vbGc1eXoqW_YdB75IzWnzD7li7tvckEODsytEJO8_3KIDMu-HVKii0egZ4uMukCP_jVycDvNkcAAo5Vdm7NKEDSEjgROgTGSrZB70dWHCS6QkYjtz5liaAKGXl5Cwc8owtTC6jN57KoAVVwNMcjC_WUHG2LnfHhmjSamAPGiSOwzCDwpFg4cyfWQKJA5PpVoerxWMX9dtQ7QRL3oWCQoortd4cVSo-e-5ny8n82PiBG1yKyYDpHfrRRAuZZ65pFhE49Li8-8dEHKeBzRql945BRi-xPcLT1YSyK8WeQNwdXd9lz7vXrPSpxt5lg9t6fUrlozbxvXze5BBpagInsdDYaoN1JQSXu86RfoPVb4ofDT0e43ks07NTrQ83RXg3-UrI1Bk0x9P_i7DiiREmhnBhJNiiSavqklYcYo-bD-yQuGPuecas2ejEy4ghbrAMd-x-Ps7H2fgUR925jTy6HPuSkrPl-eaU7HQEkR3z9hZ8NE_TNWsYQg-EJPlwawouhkA3h_ppGKc_SRr5XcTgDfSFV_wJBxvAlZlFQXN2qP7oSLd23T0cYux7eHnJLFQ6cQ2s9rHHpwPrI7BK_7JAkcsCFW2G49Y4m3O5P22n2O1a2grDYUsiVHmUZrHe0IGXCGc0Q07GR0H0cPM5I5YQr-tTSVBUDSUG-MvrzatRGCnU-kVJDbMVIFdWcwwJSOUv-2CAU6_qKBm2VwU-TDOhie60qgWNDuHAkhbhUzNLaguIhqQW-nThNH3QkPHl65a6OpJbrEPCNEG_l7V4j1dpB0T_gj8-D1tnim9SC-2O3le7ws7p0Dr0x6wWl6QWlELNVVm00?></g></svg>