<?xml version="1.0" encoding="us-ascii" standalone="no"?><svg xmlns="http://www.w3.org/2000/svg" xmlns:xlink="http://www.w3.org/1999/xlink" contentStyleType="text/css" height="1073px" preserveAspectRatio="none" style="width:1915px;height:1073px;background:#FFFFFF;" version="1.1" viewBox="0 0 1915 1073" width="1915px" zoomAndPan="magnify"><defs/><g><!--cluster Camada de Servico <<service>>--><g id="cluster_Camada de Servico &lt;&lt;service&gt;&gt;"><path d="M829.5,181 L1038.5,181 A3.75,3.75 0 0 1 1041,183.5 L1048,204.6094 L1630.5,204.6094 A2.5,2.5 0 0 1 1633,207.1094 L1633,537.5 A2.5,2.5 0 0 1 1630.5,540 L829.5,540 A2.5,2.5 0 0 1 827,537.5 L827,183.5 A2.5,2.5 0 0 1 829.5,181 " fill="none" style="stroke:#000000;stroke-width:1.5;"/><line style="stroke:#000000;stroke-width:1.5;" x1="827" x2="1048" y1="204.6094" y2="204.6094"/><text fill="#000000" font-family="sans-serif" font-size="14" font-weight="bold" lengthAdjust="spacing" textLength="208" x="831" y="197.5332">Camada de Servico &#171;service&#187;</text></g><!--cluster Seguranca--><g id="cluster_Seguranca"><path d="M1659.5,444 L1735.5,444 A3.75,3.75 0 0 1 1738,446.5 L1745,467.6094 L1905.5,467.6094 A2.5,2.5 0 0 1 1908,470.1094 L1908,817.5 A2.5,2.5 0 0 1 1905.5,820 L1659.5,820 A2.5,2.5 0 0 1 1657,817.5 L1657,446.5 A2.5,2.5 0 0 1 1659.5,444 " fill="none" style="stroke:#000000;stroke-width:1.5;"/><line style="stroke:#000000;stroke-width:1.5;" x1="1657" x2="1745" y1="467.6094" y2="467.6094"/><text fill="#000000" font-family="sans-serif" font-size="14" font-weight="bold" lengthAdjust="spacing" textLength="75" x="1661" y="460.5332">Seguranca</text></g><!--class SolicitacaoService--><g id="elem_SolicitacaoService"><rect codeLine="106" fill="#F1F1F1" height="43.6094" id="SolicitacaoService" rx="2.5" ry="2.5" style="stroke:#181818;stroke-width:0.5;" width="121" x="1495.5" y="217"/><text fill="#000000" font-family="sans-serif" font-size="14" lengthAdjust="spacing" textLength="115" x="1498.5" y="236.5332">SolicitacaoService</text><line style="stroke:#181818;stroke-width:0.5;" x1="1496.5" x2="1615.5" y1="244.6094" y2="244.6094"/><line style="stroke:#181818;stroke-width:0.5;" x1="1496.5" x2="1615.5" y1="252.6094" y2="252.6094"/></g><!--class ColetaService--><g id="elem_ColetaService"><rect codeLine="107" fill="#F1F1F1" height="43.6094" id="ColetaService" rx="2.5" ry="2.5" style="stroke:#181818;stroke-width:0.5;" width="94" x="1209" y="217"/><text fill="#000000" font-family="sans-serif" font-size="14" lengthAdjust="spacing" textLength="88" x="1212" y="236.5332">ColetaService</text><line style="stroke:#181818;stroke-width:0.5;" x1="1210" x2="1302" y1="244.6094" y2="244.6094"/><line style="stroke:#181818;stroke-width:0.5;" x1="1210" x2="1302" y1="252.6094" y2="252.6094"/></g><!--class AvaliacaoService--><g id="elem_AvaliacaoService"><rect codeLine="108" fill="#F1F1F1" height="43.6094" id="AvaliacaoService" rx="2.5" ry="2.5" style="stroke:#181818;stroke-width:0.5;" width="114" x="1060" y="217"/><text fill="#000000" font-family="sans-serif" font-size="14" lengthAdjust="spacing" textLength="108" x="1063" y="236.5332">AvaliacaoService</text><line style="stroke:#181818;stroke-width:0.5;" x1="1061" x2="1173" y1="244.6094" y2="244.6094"/><line style="stroke:#181818;stroke-width:0.5;" x1="1061" x2="1173" y1="252.6094" y2="252.6094"/></g><!--class ConversaSolicitacaoService--><g id="elem_ConversaSolicitacaoService"><rect codeLine="109" fill="#F1F1F1" height="43.6094" id="ConversaSolicitacaoService" rx="2.5" ry="2.5" style="stroke:#181818;stroke-width:0.5;" width="182" x="843" y="217"/><text fill="#000000" font-family="sans-serif" font-size="14" lengthAdjust="spacing" textLength="176" x="846" y="236.5332">ConversaSolicitacaoService</text><line style="stroke:#181818;stroke-width:0.5;" x1="844" x2="1024" y1="244.6094" y2="244.6094"/><line style="stroke:#181818;stroke-width:0.5;" x1="844" x2="1024" y1="252.6094" y2="252.6094"/></g><!--class MensagemService--><g id="elem_MensagemService"><rect codeLine="110" fill="#F1F1F1" height="43.6094" id="MensagemService" rx="2.5" ry="2.5" style="stroke:#181818;stroke-width:0.5;" width="122" x="1338" y="217"/><text fill="#000000" font-family="sans-serif" font-size="14" lengthAdjust="spacing" textLength="116" x="1341" y="236.5332">MensagemService</text><line style="stroke:#181818;stroke-width:0.5;" x1="1339" x2="1459" y1="244.6094" y2="244.6094"/><line style="stroke:#181818;stroke-width:0.5;" x1="1339" x2="1459" y1="252.6094" y2="252.6094"/></g><!--class NotificacaoService--><g id="elem_NotificacaoService"><rect codeLine="111" fill="#F1F1F1" height="43.6094" id="NotificacaoService" rx="2.5" ry="2.5" style="stroke:#181818;stroke-width:0.5;" width="122" x="1265" y="480"/><text fill="#000000" font-family="sans-serif" font-size="14" lengthAdjust="spacing" textLength="116" x="1268" y="499.5332">NotificacaoService</text><line style="stroke:#181818;stroke-width:0.5;" x1="1266" x2="1386" y1="507.6094" y2="507.6094"/><line style="stroke:#181818;stroke-width:0.5;" x1="1266" x2="1386" y1="515.6094" y2="515.6094"/></g><!--class RouteGuard--><g id="elem_RouteGuard"><rect codeLine="114" fill="#F1F1F1" height="43.6094" id="RouteGuard" rx="2.5" ry="2.5" style="stroke:#181818;stroke-width:0.5;" width="84" x="1808" y="480"/><text fill="#000000" font-family="sans-serif" font-size="14" lengthAdjust="spacing" textLength="78" x="1811" y="499.5332">RouteGuard</text><line style="stroke:#181818;stroke-width:0.5;" x1="1809" x2="1891" y1="507.6094" y2="507.6094"/><line style="stroke:#181818;stroke-width:0.5;" x1="1809" x2="1891" y1="515.6094" y2="515.6094"/></g><!--class MobileAuth--><g id="elem_MobileAuth"><rect codeLine="115" fill="#F1F1F1" height="43.6094" id="MobileAuth" rx="2.5" ry="2.5" style="stroke:#181818;stroke-width:0.5;" width="76" x="1812" y="760"/><text fill="#000000" font-family="sans-serif" font-size="14" lengthAdjust="spacing" textLength="70" x="1815" y="779.5332">MobileAuth</text><line style="stroke:#181818;stroke-width:0.5;" x1="1813" x2="1887" y1="787.6094" y2="787.6094"/><line style="stroke:#181818;stroke-width:0.5;" x1="1813" x2="1887" y1="795.6094" y2="795.6094"/></g><!--class PrivacyMapper--><g id="elem_PrivacyMapper"><rect codeLine="116" fill="#F1F1F1" height="43.6094" id="PrivacyMapper" rx="2.5" ry="2.5" style="stroke:#181818;stroke-width:0.5;" width="100" x="1673" y="480"/><text fill="#000000" font-family="sans-serif" font-size="14" lengthAdjust="spacing" textLength="94" x="1676" y="499.5332">PrivacyMapper</text><line style="stroke:#181818;stroke-width:0.5;" x1="1674" x2="1772" y1="507.6094" y2="507.6094"/><line style="stroke:#181818;stroke-width:0.5;" x1="1674" x2="1772" y1="515.6094" y2="515.6094"/></g><!--class Role--><g id="elem_Role"><rect codeLine="5" fill="#F1F1F1" height="78.8281" id="Role" rx="2.5" ry="2.5" style="stroke:#181818;stroke-width:0.5;" width="100" x="294" y="7"/><text fill="#000000" font-family="sans-serif" font-size="14" lengthAdjust="spacing" textLength="29" x="329.5" y="26.5332">Role</text><line style="stroke:#181818;stroke-width:0.5;" x1="295" x2="393" y1="34.6094" y2="34.6094"/><text fill="#000000" font-family="sans-serif" font-size="14" lengthAdjust="spacing" textLength="42" x="300" y="53.1426">+id: Int</text><text fill="#000000" font-family="sans-serif" font-size="14" lengthAdjust="spacing" textLength="88" x="300" y="70.752">+nome: String</text><line style="stroke:#181818;stroke-width:0.5;" x1="295" x2="393" y1="77.8281" y2="77.8281"/></g><!--class User--><g id="elem_User"><rect codeLine="9" fill="#F1F1F1" height="184.4844" id="User" rx="2.5" ry="2.5" style="stroke:#181818;stroke-width:0.5;" width="161" x="263.5" y="147"/><text fill="#000000" font-family="sans-serif" font-size="14" lengthAdjust="spacing" textLength="29" x="329.5" y="166.5332">User</text><line style="stroke:#181818;stroke-width:0.5;" x1="264.5" x2="423.5" y1="174.6094" y2="174.6094"/><text fill="#000000" font-family="sans-serif" font-size="14" lengthAdjust="spacing" textLength="42" x="269.5" y="193.1426">+id: Int</text><text fill="#000000" font-family="sans-serif" font-size="14" lengthAdjust="spacing" textLength="88" x="269.5" y="210.752">+nome: String</text><text fill="#000000" font-family="sans-serif" font-size="14" lengthAdjust="spacing" textLength="149" x="269.5" y="228.3613">+email: String &#171;unique&#187;</text><text fill="#000000" font-family="sans-serif" font-size="14" lengthAdjust="spacing" textLength="124" x="269.5" y="245.9707">+senhaHash: String</text><text fill="#000000" font-family="sans-serif" font-size="14" lengthAdjust="spacing" textLength="147" x="269.5" y="263.5801">+status: String = "ativo"</text><text fill="#000000" font-family="sans-serif" font-size="14" lengthAdjust="spacing" textLength="66" x="269.5" y="281.1895">+roleId: Int</text><text fill="#000000" font-family="sans-serif" font-size="14" lengthAdjust="spacing" textLength="133" x="269.5" y="298.7988">+resetToken: String?</text><text fill="#000000" font-family="sans-serif" font-size="14" lengthAdjust="spacing" textLength="138" x="269.5" y="316.4082">+createdAt: DateTime</text><line style="stroke:#181818;stroke-width:0.5;" x1="264.5" x2="423.5" y1="323.4844" y2="323.4844"/></g><!--class Company--><g id="elem_Company"><rect codeLine="19" fill="#F1F1F1" height="114.0469" id="Company" rx="2.5" ry="2.5" style="stroke:#181818;stroke-width:0.5;" width="154" x="432" y="445"/><text fill="#000000" font-family="sans-serif" font-size="14" lengthAdjust="spacing" textLength="60" x="479" y="464.5332">Company</text><line style="stroke:#181818;stroke-width:0.5;" x1="433" x2="585" y1="472.6094" y2="472.6094"/><text fill="#000000" font-family="sans-serif" font-size="14" lengthAdjust="spacing" textLength="42" x="438" y="491.1426">+id: Int</text><text fill="#000000" font-family="sans-serif" font-size="14" lengthAdjust="spacing" textLength="133" x="438" y="508.752">+userId: Int &#171;unique&#187;</text><text fill="#000000" font-family="sans-serif" font-size="14" lengthAdjust="spacing" textLength="142" x="438" y="526.3613">+cnpj: String &#171;unique&#187;</text><text fill="#000000" font-family="sans-serif" font-size="14" lengthAdjust="spacing" textLength="122" x="438" y="543.9707">+descricao: String?</text><line style="stroke:#181818;stroke-width:0.5;" x1="433" x2="585" y1="551.0469" y2="551.0469"/></g><!--class MaterialTipo--><g id="elem_MaterialTipo"><rect codeLine="25" fill="#F1F1F1" height="78.8281" id="MaterialTipo" rx="2.5" ry="2.5" style="stroke:#181818;stroke-width:0.5;" width="100" x="666" y="199.5"/><text fill="#000000" font-family="sans-serif" font-size="14" lengthAdjust="spacing" textLength="78" x="677" y="219.0332">MaterialTipo</text><line style="stroke:#181818;stroke-width:0.5;" x1="667" x2="765" y1="227.1094" y2="227.1094"/><text fill="#000000" font-family="sans-serif" font-size="14" lengthAdjust="spacing" textLength="42" x="672" y="245.6426">+id: Int</text><text fill="#000000" font-family="sans-serif" font-size="14" lengthAdjust="spacing" textLength="88" x="672" y="263.252">+nome: String</text><line style="stroke:#181818;stroke-width:0.5;" x1="667" x2="765" y1="270.3281" y2="270.3281"/></g><!--class SolicitacaoColeta--><g id="elem_SolicitacaoColeta"><rect codeLine="29" fill="#F1F1F1" height="219.7031" id="SolicitacaoColeta" rx="2.5" ry="2.5" style="stroke:#181818;stroke-width:0.5;" width="189" x="621.5" y="392"/><text fill="#000000" font-family="sans-serif" font-size="14" lengthAdjust="spacing" textLength="109" x="661.5" y="411.5332">SolicitacaoColeta</text><line style="stroke:#181818;stroke-width:0.5;" x1="622.5" x2="809.5" y1="419.6094" y2="419.6094"/><text fill="#000000" font-family="sans-serif" font-size="14" lengthAdjust="spacing" textLength="42" x="627.5" y="438.1426">+id: Int</text><text fill="#000000" font-family="sans-serif" font-size="14" lengthAdjust="spacing" textLength="83" x="627.5" y="455.752">+titulo: String</text><text fill="#000000" font-family="sans-serif" font-size="14" lengthAdjust="spacing" textLength="114" x="627.5" y="473.3613">+descricao: String</text><text fill="#000000" font-family="sans-serif" font-size="14" lengthAdjust="spacing" textLength="124" x="627.5" y="490.9707">+quantidade: String</text><text fill="#000000" font-family="sans-serif" font-size="14" lengthAdjust="spacing" textLength="113" x="627.5" y="508.5801">+endereco: String</text><text fill="#000000" font-family="sans-serif" font-size="14" lengthAdjust="spacing" textLength="177" x="627.5" y="526.1895">+status: String = "pendente"</text><text fill="#000000" font-family="sans-serif" font-size="14" lengthAdjust="spacing" textLength="174" x="627.5" y="543.7988">+aprovado: Boolean = false</text><text fill="#000000" font-family="sans-serif" font-size="14" lengthAdjust="spacing" textLength="70" x="627.5" y="561.4082">+userId: Int</text><text fill="#000000" font-family="sans-serif" font-size="14" lengthAdjust="spacing" textLength="92" x="627.5" y="579.0176">+materialId: Int</text><text fill="#000000" font-family="sans-serif" font-size="14" lengthAdjust="spacing" textLength="138" x="627.5" y="596.627">+createdAt: DateTime</text><line style="stroke:#181818;stroke-width:0.5;" x1="622.5" x2="809.5" y1="603.7031" y2="603.7031"/></g><!--class SolicitacaoImagem--><g id="elem_SolicitacaoImagem"><rect codeLine="41" fill="#F1F1F1" height="78.8281" id="SolicitacaoImagem" rx="2.5" ry="2.5" style="stroke:#181818;stroke-width:0.5;" width="123" x="637.5" y="742.5"/><text fill="#000000" font-family="sans-serif" font-size="14" lengthAdjust="spacing" textLength="117" x="640.5" y="762.0332">SolicitacaoImagem</text><line style="stroke:#181818;stroke-width:0.5;" x1="638.5" x2="759.5" y1="770.1094" y2="770.1094"/><text fill="#000000" font-family="sans-serif" font-size="14" lengthAdjust="spacing" textLength="42" x="643.5" y="788.6426">+id: Int</text><text fill="#000000" font-family="sans-serif" font-size="14" lengthAdjust="spacing" textLength="69" x="643.5" y="806.252">+url: String</text><line style="stroke:#181818;stroke-width:0.5;" x1="638.5" x2="759.5" y1="813.3281" y2="813.3281"/></g><!--class Coleta--><g id="elem_Coleta"><rect codeLine="45" fill="#F1F1F1" height="184.4844" id="Coleta" rx="2.5" ry="2.5" style="stroke:#181818;stroke-width:0.5;" width="221" x="795.5" y="690"/><text fill="#000000" font-family="sans-serif" font-size="14" lengthAdjust="spacing" textLength="41" x="885.5" y="709.5332">Coleta</text><line style="stroke:#181818;stroke-width:0.5;" x1="796.5" x2="1015.5" y1="717.6094" y2="717.6094"/><text fill="#000000" font-family="sans-serif" font-size="14" lengthAdjust="spacing" textLength="42" x="801.5" y="736.1426">+id: Int</text><text fill="#000000" font-family="sans-serif" font-size="14" lengthAdjust="spacing" textLength="171" x="801.5" y="753.752">+solicitacaoId: Int &#171;unique&#187;</text><text fill="#000000" font-family="sans-serif" font-size="14" lengthAdjust="spacing" textLength="99" x="801.5" y="771.3613">+companyId: Int</text><text fill="#000000" font-family="sans-serif" font-size="14" lengthAdjust="spacing" textLength="155" x="801.5" y="788.9707">+status: String = "aceita"</text><text fill="#000000" font-family="sans-serif" font-size="14" lengthAdjust="spacing" textLength="183" x="801.5" y="806.5801">+codigoConfirmacao: String?</text><text fill="#000000" font-family="sans-serif" font-size="14" lengthAdjust="spacing" textLength="144" x="801.5" y="824.1895">+dataAceite: DateTime</text><text fill="#000000" font-family="sans-serif" font-size="14" lengthAdjust="spacing" textLength="209" x="801.5" y="841.7988">+dataPrevisaoColeta: DateTime?</text><text fill="#000000" font-family="sans-serif" font-size="14" lengthAdjust="spacing" textLength="180" x="801.5" y="859.4082">+dataConclusao: DateTime?</text><line style="stroke:#181818;stroke-width:0.5;" x1="796.5" x2="1015.5" y1="866.4844" y2="866.4844"/></g><!--class Avaliacao--><g id="elem_Avaliacao"><rect codeLine="55" fill="#F1F1F1" height="131.6563" id="Avaliacao" rx="2.5" ry="2.5" style="stroke:#181818;stroke-width:0.5;" width="155" x="312.5" y="935"/><text fill="#000000" font-family="sans-serif" font-size="14" lengthAdjust="spacing" textLength="61" x="359.5" y="954.5332">Avaliacao</text><line style="stroke:#181818;stroke-width:0.5;" x1="313.5" x2="466.5" y1="962.6094" y2="962.6094"/><text fill="#000000" font-family="sans-serif" font-size="14" lengthAdjust="spacing" textLength="42" x="318.5" y="981.1426">+id: Int</text><text fill="#000000" font-family="sans-serif" font-size="14" lengthAdjust="spacing" textLength="143" x="318.5" y="998.752">+coletaId: Int &#171;unique&#187;</text><text fill="#000000" font-family="sans-serif" font-size="14" lengthAdjust="spacing" textLength="75" x="318.5" y="1016.3613">+autorId: Int</text><text fill="#000000" font-family="sans-serif" font-size="14" lengthAdjust="spacing" textLength="59" x="318.5" y="1033.9707">+nota: Int</text><text fill="#000000" font-family="sans-serif" font-size="14" lengthAdjust="spacing" textLength="131" x="318.5" y="1051.5801">+comentario: String?</text><line style="stroke:#181818;stroke-width:0.5;" x1="313.5" x2="466.5" y1="1058.6563" y2="1058.6563"/></g><!--class Mensagem--><g id="elem_Mensagem"><rect codeLine="62" fill="#F1F1F1" height="114.0469" id="Mensagem" rx="2.5" ry="2.5" style="stroke:#181818;stroke-width:0.5;" width="134" x="1044" y="944"/><text fill="#000000" font-family="sans-serif" font-size="14" lengthAdjust="spacing" textLength="69" x="1076.5" y="963.5332">Mensagem</text><line style="stroke:#181818;stroke-width:0.5;" x1="1045" x2="1177" y1="971.6094" y2="971.6094"/><text fill="#000000" font-family="sans-serif" font-size="14" lengthAdjust="spacing" textLength="42" x="1050" y="990.1426">+id: Int</text><text fill="#000000" font-family="sans-serif" font-size="14" lengthAdjust="spacing" textLength="80" x="1050" y="1007.752">+coletaId: Int</text><text fill="#000000" font-family="sans-serif" font-size="14" lengthAdjust="spacing" textLength="106" x="1050" y="1025.3613">+remetenteId: Int</text><text fill="#000000" font-family="sans-serif" font-size="14" lengthAdjust="spacing" textLength="122" x="1050" y="1042.9707">+mensagem: String</text><line style="stroke:#181818;stroke-width:0.5;" x1="1045" x2="1177" y1="1050.0469" y2="1050.0469"/></g><!--class ConversaSolicitacao--><g id="elem_ConversaSolicitacao"><rect codeLine="68" fill="#F1F1F1" height="114.0469" id="ConversaSolicitacao" rx="2.5" ry="2.5" style="stroke:#181818;stroke-width:0.5;" width="170" x="432" y="725"/><text fill="#000000" font-family="sans-serif" font-size="14" lengthAdjust="spacing" textLength="129" x="452.5" y="744.5332">ConversaSolicitacao</text><line style="stroke:#181818;stroke-width:0.5;" x1="433" x2="601" y1="752.6094" y2="752.6094"/><text fill="#000000" font-family="sans-serif" font-size="14" lengthAdjust="spacing" textLength="42" x="438" y="771.1426">+id: Int</text><text fill="#000000" font-family="sans-serif" font-size="14" lengthAdjust="spacing" textLength="108" x="438" y="788.752">+solicitacaoId: Int</text><text fill="#000000" font-family="sans-serif" font-size="14" lengthAdjust="spacing" textLength="99" x="438" y="806.3613">+companyId: Int</text><text fill="#000000" font-family="sans-serif" font-size="14" lengthAdjust="spacing" textLength="158" x="438" y="823.9707">+status: String = "aberta"</text><line style="stroke:#181818;stroke-width:0.5;" x1="433" x2="601" y1="831.0469" y2="831.0469"/></g><!--class MensagemPreAceite--><g id="elem_MensagemPreAceite"><rect codeLine="74" fill="#F1F1F1" height="114.0469" id="MensagemPreAceite" rx="2.5" ry="2.5" style="stroke:#181818;stroke-width:0.5;" width="136" x="141" y="944"/><text fill="#000000" font-family="sans-serif" font-size="14" lengthAdjust="spacing" textLength="130" x="144" y="963.5332">MensagemPreAceite</text><line style="stroke:#181818;stroke-width:0.5;" x1="142" x2="276" y1="971.6094" y2="971.6094"/><text fill="#000000" font-family="sans-serif" font-size="14" lengthAdjust="spacing" textLength="42" x="147" y="990.1426">+id: Int</text><text fill="#000000" font-family="sans-serif" font-size="14" lengthAdjust="spacing" textLength="100" x="147" y="1007.752">+conversaId: Int</text><text fill="#000000" font-family="sans-serif" font-size="14" lengthAdjust="spacing" textLength="106" x="147" y="1025.3613">+remetenteId: Int</text><text fill="#000000" font-family="sans-serif" font-size="14" lengthAdjust="spacing" textLength="122" x="147" y="1042.9707">+mensagem: String</text><line style="stroke:#181818;stroke-width:0.5;" x1="142" x2="276" y1="1050.0469" y2="1050.0469"/></g><!--class Notificacao--><g id="elem_Notificacao"><rect codeLine="80" fill="#F1F1F1" height="131.6563" id="Notificacao" rx="2.5" ry="2.5" style="stroke:#181818;stroke-width:0.5;" width="148" x="7" y="436"/><text fill="#000000" font-family="sans-serif" font-size="14" lengthAdjust="spacing" textLength="69" x="46.5" y="455.5332">Notificacao</text><line style="stroke:#181818;stroke-width:0.5;" x1="8" x2="154" y1="463.6094" y2="463.6094"/><text fill="#000000" font-family="sans-serif" font-size="14" lengthAdjust="spacing" textLength="42" x="13" y="482.1426">+id: Int</text><text fill="#000000" font-family="sans-serif" font-size="14" lengthAdjust="spacing" textLength="70" x="13" y="499.752">+userId: Int</text><text fill="#000000" font-family="sans-serif" font-size="14" lengthAdjust="spacing" textLength="76" x="13" y="517.3613">+tipo: String</text><text fill="#000000" font-family="sans-serif" font-size="14" lengthAdjust="spacing" textLength="83" x="13" y="534.9707">+titulo: String</text><text fill="#000000" font-family="sans-serif" font-size="14" lengthAdjust="spacing" textLength="136" x="13" y="552.5801">+lida: Boolean = false</text><line style="stroke:#181818;stroke-width:0.5;" x1="8" x2="154" y1="559.6563" y2="559.6563"/></g><!--link Role to User--><g id="link_Role_User"><path codeLine="88" d="M344,86.05 C344,103.66 344,125.34 344,146.75 " fill="none" id="Role-User" style="stroke:#181818;stroke-width:1.0;"/><text fill="#000000" font-family="sans-serif" font-size="13" lengthAdjust="spacing" textLength="7" x="336.4203" y="107.4639">1</text><text fill="#000000" font-family="sans-serif" font-size="13" lengthAdjust="spacing" textLength="20" x="323.2031" y="136.2512">0..*</text></g><!--link User to Company--><g id="link_User_Company"><path codeLine="89" d="M401.71,331.29 C425.59,369.06 452.53,411.68 473.44,444.75 " fill="none" id="User-Company" style="stroke:#181818;stroke-width:1.0;"/><text fill="#000000" font-family="sans-serif" font-size="13" lengthAdjust="spacing" textLength="7" x="399.1993" y="353.0849">1</text><text fill="#000000" font-family="sans-serif" font-size="13" lengthAdjust="spacing" textLength="22" x="445.7655" y="434.3113">0..1</text></g><!--link User to SolicitacaoColeta--><g id="link_User_SolicitacaoColeta"><path codeLine="90" d="M424.72,280.95 C477.46,309.22 546.72,349.3 603,392 C609.08,396.61 615.18,401.52 621.23,406.6 " fill="none" id="User-SolicitacaoColeta" style="stroke:#181818;stroke-width:1.0;"/><text fill="#000000" font-family="sans-serif" font-size="13" lengthAdjust="spacing" textLength="7" x="432.484" y="281.5688">1</text><text fill="#000000" font-family="sans-serif" font-size="13" lengthAdjust="spacing" textLength="20" x="593.536" y="396.5255">0..*</text></g><!--link MaterialTipo to SolicitacaoColeta--><g id="link_MaterialTipo_SolicitacaoColeta"><path codeLine="91" d="M716,278.51 C716,308.43 716,351.48 716,391.75 " fill="none" id="MaterialTipo-SolicitacaoColeta" style="stroke:#181818;stroke-width:1.0;"/><text fill="#000000" font-family="sans-serif" font-size="13" lengthAdjust="spacing" textLength="7" x="708.4203" y="299.9173">1</text><text fill="#000000" font-family="sans-serif" font-size="13" lengthAdjust="spacing" textLength="20" x="695.3281" y="381.322">0..*</text></g><!--reverse link SolicitacaoColeta to SolicitacaoImagem--><g id="link_SolicitacaoColeta_SolicitacaoImagem"><path codeLine="92" d="M708.5972,624.0576 C705.7872,669.9876 703.43,708.53 701.37,742.24 " fill="none" id="SolicitacaoColeta-backto-SolicitacaoImagem" style="stroke:#181818;stroke-width:1.0;"/><polygon fill="#181818" points="709.33,612.08,704.9711,617.8245,708.5972,624.0576,712.9561,618.3131,709.33,612.08" style="stroke:#181818;stroke-width:1.0;"/><text fill="#000000" font-family="sans-serif" font-size="13" lengthAdjust="spacing" textLength="7" x="701.6785" y="633.1604">1</text><text fill="#000000" font-family="sans-serif" font-size="13" lengthAdjust="spacing" textLength="20" x="680.0586" y="731.5714">0..*</text></g><!--link SolicitacaoColeta to Coleta--><g id="link_SolicitacaoColeta_Coleta"><path codeLine="93" d="M790.55,612.08 C808.12,637.78 826.67,664.92 843.64,689.75 " fill="none" id="SolicitacaoColeta-Coleta" style="stroke:#181818;stroke-width:1.0;"/><text fill="#000000" font-family="sans-serif" font-size="13" lengthAdjust="spacing" textLength="7" x="788.1016" y="633.1604">1</text><text fill="#000000" font-family="sans-serif" font-size="13" lengthAdjust="spacing" textLength="22" x="815.7941" y="679.2512">0..1</text></g><!--link Company to Coleta--><g id="link_Company_Coleta"><path codeLine="94" d="M549.84,559.01 C565.3,577.55 584.03,597.21 604,612 C672.09,662.45 704.44,647.91 778,690 C783.68,693.25 789.42,696.69 795.16,700.26 " fill="none" id="Company-Coleta" style="stroke:#181818;stroke-width:1.0;"/><text fill="#000000" font-family="sans-serif" font-size="13" lengthAdjust="spacing" textLength="7" x="547.3908" y="580.4468">1</text><text fill="#000000" font-family="sans-serif" font-size="13" lengthAdjust="spacing" textLength="20" x="767.4187" y="692.0019">0..*</text></g><!--link Coleta to Avaliacao--><g id="link_Coleta_Avaliacao"><path codeLine="95" d="M795.2,864.72 C789.48,868 783.72,871.12 778,874 C675.82,925.39 548.14,962.09 467.81,982.18 " fill="none" id="Coleta-Avaliacao" style="stroke:#181818;stroke-width:1.0;"/><text fill="#000000" font-family="sans-serif" font-size="13" lengthAdjust="spacing" textLength="7" x="780.5205" y="867.2309">1</text><text fill="#000000" font-family="sans-serif" font-size="13" lengthAdjust="spacing" textLength="22" x="475.4421" y="977.4002">0..1</text></g><!--link User to Avaliacao--><g id="link_User_Avaliacao"><path codeLine="96" d="M324.89,331.04 C309.55,416.17 292.46,546.82 305,660 C315.73,756.88 328.59,779.63 353,874 C358.14,893.86 364.24,915.34 369.99,934.83 " fill="none" id="User-Avaliacao" style="stroke:#181818;stroke-width:1.0;"/><text fill="#000000" font-family="sans-serif" font-size="13" lengthAdjust="spacing" textLength="29" x="306" y="656.4951">autor</text><text fill="#000000" font-family="sans-serif" font-size="13" lengthAdjust="spacing" textLength="7" x="315.947" y="353.1266">1</text><text fill="#000000" font-family="sans-serif" font-size="13" lengthAdjust="spacing" textLength="20" x="346.7077" y="924.2508">0..*</text></g><!--reverse link Coleta to Mensagem--><g id="link_Coleta_Mensagem"><path codeLine="97" d="M1000.2885,882.8051 C1022.6385,906.4751 1037.82,922.54 1057.92,943.81 " fill="none" id="Coleta-backto-Mensagem" style="stroke:#181818;stroke-width:1.0;"/><polygon fill="#181818" points="992.05,874.08,993.2609,881.1887,1000.2885,882.8051,999.0776,875.6964,992.05,874.08" style="stroke:#181818;stroke-width:1.0;"/><text fill="#000000" font-family="sans-serif" font-size="13" lengthAdjust="spacing" textLength="7" x="991.8862" y="895.8575">1</text><text fill="#000000" font-family="sans-serif" font-size="13" lengthAdjust="spacing" textLength="20" x="1029.8379" y="932.9722">0..*</text></g><!--link User to Mensagem--><g id="link_User_Mensagem"><path codeLine="98" d="M348.1,331.13 C356.44,497.07 377.68,835.09 414,874 C499.01,965.07 886.1,990.91 1043.82,997.73 " fill="none" id="User-Mensagem" style="stroke:#181818;stroke-width:1.0;"/><text fill="#000000" font-family="sans-serif" font-size="13" lengthAdjust="spacing" textLength="58" x="373" y="656.4951">remetente</text><text fill="#000000" font-family="sans-serif" font-size="13" lengthAdjust="spacing" textLength="7" x="341.1497" y="352.9116">1</text><text fill="#000000" font-family="sans-serif" font-size="13" lengthAdjust="spacing" textLength="20" x="1015.8608" y="994.0786">0..*</text></g><!--link SolicitacaoColeta to ConversaSolicitacao--><g id="link_SolicitacaoColeta_ConversaSolicitacao"><path codeLine="99" d="M637.92,612.08 C610.26,650.71 580.29,692.59 557.1,724.98 " fill="none" id="SolicitacaoColeta-ConversaSolicitacao" style="stroke:#181818;stroke-width:1.0;"/><text fill="#000000" font-family="sans-serif" font-size="13" lengthAdjust="spacing" textLength="7" x="625.6938" y="633.1604">1</text><text fill="#000000" font-family="sans-serif" font-size="13" lengthAdjust="spacing" textLength="20" x="540.9566" y="714.1639">0..*</text></g><!--link Company to ConversaSolicitacao--><g id="link_Company_ConversaSolicitacao"><path codeLine="100" d="M510.62,559.26 C512.01,607.49 514,676.62 515.38,724.83 " fill="none" id="Company-ConversaSolicitacao" style="stroke:#181818;stroke-width:1.0;"/><text fill="#000000" font-family="sans-serif" font-size="13" lengthAdjust="spacing" textLength="7" x="503.3909" y="580.7272">1</text><text fill="#000000" font-family="sans-serif" font-size="13" lengthAdjust="spacing" textLength="20" x="493.8912" y="713.9947">0..*</text></g><!--reverse link ConversaSolicitacao to MensagemPreAceite--><g id="link_ConversaSolicitacao_MensagemPreAceite"><path codeLine="101" d="M423.1406,845.8337 C381.3206,874.1237 340.12,902.53 295,935 C289.23,939.15 283.27,943.51 277.32,947.91 " fill="none" id="ConversaSolicitacao-backto-MensagemPreAceite" style="stroke:#181818;stroke-width:1.0;"/><polygon fill="#181818" points="433.08,839.11,425.8691,839.1587,423.1406,845.8337,430.3515,845.785,433.08,839.11" style="stroke:#181818;stroke-width:1.0;"/><text fill="#000000" font-family="sans-serif" font-size="13" lengthAdjust="spacing" textLength="7" x="417.0648" y="859.3353">1</text><text fill="#000000" font-family="sans-serif" font-size="13" lengthAdjust="spacing" textLength="20" x="285.0296" y="939.4066">0..*</text></g><!--link User to MensagemPreAceite--><g id="link_User_MensagemPreAceite"><path codeLine="102" d="M311.77,331.17 C305.18,351.1 298.57,372.17 293,392 C262.17,501.71 253,529.31 236,642 C220.01,748.01 213.32,873.17 210.65,943.9 " fill="none" id="User-MensagemPreAceite" style="stroke:#181818;stroke-width:1.0;"/><text fill="#000000" font-family="sans-serif" font-size="13" lengthAdjust="spacing" textLength="58" x="237" y="656.4951">remetente</text><text fill="#000000" font-family="sans-serif" font-size="13" lengthAdjust="spacing" textLength="7" x="301.8111" y="352.9549">1</text><text fill="#000000" font-family="sans-serif" font-size="13" lengthAdjust="spacing" textLength="20" x="189.5802" y="933.0737">0..*</text></g><!--link User to Notificacao--><g id="link_User_Notificacao"><path codeLine="103" d="M263.44,292.75 C236.12,312.51 206.37,336.22 182,361 C159.93,383.44 138.98,411.02 121.93,435.75 " fill="none" id="User-Notificacao" style="stroke:#181818;stroke-width:1.0;"/><text fill="#000000" font-family="sans-serif" font-size="13" lengthAdjust="spacing" textLength="7" x="248.428" y="294.5993">1</text><text fill="#000000" font-family="sans-serif" font-size="13" lengthAdjust="spacing" textLength="20" x="105.313" y="425.162">0..*</text></g><!--link SolicitacaoService to SolicitacaoColeta--><g id="link_SolicitacaoService_SolicitacaoColeta"><path codeLine="119" d="M1544.52,261.13 C1531.51,282.78 1508.12,315.4 1478,331 C1219.94,464.63 1090.55,269.57 827,392 C821.49,394.56 821.1926,394.3535 815.9226,397.6135 " fill="none" id="SolicitacaoService-to-SolicitacaoColeta" style="stroke:#181818;stroke-width:1.0;stroke-dasharray:7.0,7.0;"/><polygon fill="#181818" points="810.82,400.77,820.5782,399.4371,815.0722,398.1396,816.3696,392.6336,810.82,400.77" style="stroke:#181818;stroke-width:1.0;"/></g><!--link ColetaService to Coleta--><g id="link_ColetaService_Coleta"><path codeLine="120" d="M1242.28,261.21 C1196.72,331.63 1051.859,555.5423 968.199,684.8623 " fill="none" id="ColetaService-to-Coleta" style="stroke:#181818;stroke-width:1.0;stroke-dasharray:7.0,7.0;"/><polygon fill="#181818" points="964.94,689.9,973.187,684.5161,967.6559,685.7019,966.47,680.1707,964.94,689.9" style="stroke:#181818;stroke-width:1.0;"/></g><!--link ColetaService to NotificacaoService--><g id="link_ColetaService_NotificacaoService"><path codeLine="121" d="M1261.73,261.36 C1274.89,310.42 1305.5956,424.9248 1318.7356,473.9148 " fill="none" id="ColetaService-to-NotificacaoService" style="stroke:#181818;stroke-width:1.0;stroke-dasharray:7.0,7.0;"/><polygon fill="#181818" points="1320.29,479.71,1321.8219,469.981,1318.9947,474.8807,1314.095,472.0535,1320.29,479.71" style="stroke:#181818;stroke-width:1.0;"/></g><!--link AvaliacaoService to Avaliacao--><g id="link_AvaliacaoService_Avaliacao"><path codeLine="122" d="M1117.4,261.3 C1118.82,361.26 1119.58,782.85 1034,874 C957.68,955.29 627.5276,985.5439 473.5276,995.4739 " fill="none" id="AvaliacaoService-to-Avaliacao" style="stroke:#181818;stroke-width:1.0;stroke-dasharray:7.0,7.0;"/><polygon fill="#181818" points="467.54,995.86,476.7787,999.2726,472.5296,995.5383,476.264,991.2892,467.54,995.86" style="stroke:#181818;stroke-width:1.0;"/></g><!--link ConversaSolicitacaoService to ConversaSolicitacao--><g id="link_ConversaSolicitacaoService_ConversaSolicitacao"><path codeLine="123" d="M934.23,261.23 C933.73,323.54 923.82,508.07 828,612 C761.08,684.59 704.62,639.14 620,690 C603.74,699.77 592.1811,708.317 577.7111,720.877 " fill="none" id="ConversaSolicitacaoService-to-ConversaSolicitacao" style="stroke:#181818;stroke-width:1.0;stroke-dasharray:7.0,7.0;"/><polygon fill="#181818" points="573.18,724.81,582.5987,721.9312,576.9559,721.5325,577.3547,715.8897,573.18,724.81" style="stroke:#181818;stroke-width:1.0;"/></g><!--link MensagemService to Mensagem--><g id="link_MensagemService_Mensagem"><path codeLine="124" d="M1382.58,261.1 C1367.4,280.13 1343.8,308.48 1321,331 C1290.92,360.71 1270.03,355.91 1248,392 C1137.9,572.31 1116.2718,825.2541 1112.1018,938.0041 " fill="none" id="MensagemService-to-Mensagem" style="stroke:#181818;stroke-width:1.0;stroke-dasharray:7.0,7.0;"/><polygon fill="#181818" points="1111.88,944,1116.2099,935.154,1112.0648,939.0034,1108.2154,934.8583,1111.88,944" style="stroke:#181818;stroke-width:1.0;"/></g><!--link RouteGuard to MobileAuth--><g id="link_RouteGuard_MobileAuth"><path codeLine="125" d="M1850,524.35 C1850,576.23 1850,702.4 1850,753.96 " fill="none" id="RouteGuard-to-MobileAuth" style="stroke:#181818;stroke-width:1.0;stroke-dasharray:7.0,7.0;"/><polygon fill="#181818" points="1850,759.96,1854,750.96,1850,754.96,1846,750.96,1850,759.96" style="stroke:#181818;stroke-width:1.0;"/></g><!--link SolicitacaoService to PrivacyMapper--><g id="link_SolicitacaoService_PrivacyMapper"><path codeLine="126" d="M1569.67,261.36 C1601.06,310.42 1674.7959,425.6662 1706.1459,474.6562 " fill="none" id="SolicitacaoService-to-PrivacyMapper" style="stroke:#181818;stroke-width:1.0;stroke-dasharray:7.0,7.0;"/><polygon fill="#181818" points="1709.38,479.71,1707.8981,469.9733,1706.685,475.4985,1701.1597,474.2853,1709.38,479.71" style="stroke:#181818;stroke-width:1.0;"/></g><!--SRC=[dLRDJjmm4BxdAQnSse9OqUkAKcsNgjq3BMBX0GPds7L9x60xAz6AT-yulqxiR55loVn_yysC_8vT2TXfA81boDOv68E6dR6lwvyIkGNslb0Pvigm6oqCMPqoW_eWk38V4lCaP0dapBXpN5chnKDbSSELt8hVoCwJlQ2mN6YUOvBKLknMvSZ-98oTYcp9DjAwJwaANB8j1P2xvBMrlATKnotf7miGUITW5nUL5CyLNbuwdK6vX-zWzhw3iM0hqtjyOYbOSL2fqscgRJFaqcZGtgadb9tvPoVc6i5Yjh9BTaKVTwB0lkQrAagGBq7P5M5f8q-AvBByDLD_XePhmK4DwRiyrvHO2yZlHAdUrisjoWKN5YZScc0IjrCtAsoLAxzNGG5E-5o1j2A3RCo3p50ZLyTRNJepQR7kDfHQ7I0Zbo-AAW995e-G6vmqpFqMBLvFT8m63-ocW1qM8I4w3reqqnVZ1OjJs93krHOPCeuK8ctCCx4Z4kIZq0MCw7Kz1mihPumUhbP-e_4WJ4VWeEyTAIZFA-D23heEtke0kN3v0eIyZXS71vLLFXDIkSozOq5qWXQn4KLfegqVPMlsh43hni8dlFMEa2GFg0ru5B-1iJVJz83QqJG5GPrlI8cWQUhvNpm_b1MFj6Cn79CbiBJi_dw52vlJNeRhz9eazTLDFwRix8obvul5ILgVrwI-iPwSljeJ5gZ89RWXoUWE_SiuF47EuoJgqgpjZ8jVR1svExlZ2dfbnB5VXXZEOLEMh9x_95vlDnsn6FtuBra_3yVXr1K7mpsBBMOPhiPCnVqy7ojz67eVGyJ1c-4aAO4_aJTBr_IioEg7nRPvCz1bQLuFT5hIUjY3QzrOOgzgkZILzlo4va47fYOTkAdSmz2fNWSiMznL6YG7l-vRHQ-TRnNeR8Yk7aIEgyhkUn6zd0x0NwwXB6dXQ1V3ujXYSHdPbn7uscPM4Qb-sgJQRXZx-LQrcSBvchIkjkjNO6X68nyQCPDXr9U_]--></g></svg>