<?xml version="1.0" encoding="us-ascii" standalone="no"?><svg xmlns="http://www.w3.org/2000/svg" xmlns:xlink="http://www.w3.org/1999/xlink" contentStyleType="text/css" height="692px" preserveAspectRatio="none" style="width:948px;height:692px;background:#FFFFFF;" version="1.1" viewBox="0 0 948 692" width="948px" zoomAndPan="magnify"><defs/><g><!--cluster Clientes--><g id="cluster_Clientes"><path d="M93.2147,6 L152.2147,6 A3.75,3.75 0 0 1 154.7147,8.5 L161.7147,29.6094 L460.2147,29.6094 A2.5,2.5 0 0 1 462.7147,32.1094 L462.7147,93.5 A2.5,2.5 0 0 1 460.2147,96 L93.2147,96 A2.5,2.5 0 0 1 90.7147,93.5 L90.7147,8.5 A2.5,2.5 0 0 1 93.2147,6 " fill="none" style="stroke:#000000;stroke-width:1.5;"/><line style="stroke:#000000;stroke-width:1.5;" x1="90.7147" x2="161.7147" y1="29.6094" y2="29.6094"/><text fill="#000000" font-family="sans-serif" font-size="14" font-weight="bold" lengthAdjust="spacing" textLength="58" x="94.7147" y="22.5332">Clientes</text></g><!--cluster Next.js App (monolito)--><g id="cluster_Next.js App (monolito)"><path d="M125.2147,146 L280.2147,146 A3.75,3.75 0 0 1 282.7147,148.5 L289.7147,169.6094 L651.2147,169.6094 A2.5,2.5 0 0 1 653.7147,172.1094 L653.7147,579.5 A2.5,2.5 0 0 1 651.2147,582 L125.2147,582 A2.5,2.5 0 0 1 122.7147,579.5 L122.7147,148.5 A2.5,2.5 0 0 1 125.2147,146 " fill="none" style="stroke:#000000;stroke-width:1.5;"/><line style="stroke:#000000;stroke-width:1.5;" x1="122.7147" x2="289.7147" y1="169.6094" y2="169.6094"/><text fill="#000000" font-family="sans-serif" font-size="14" font-weight="bold" lengthAdjust="spacing" textLength="154" x="126.7147" y="162.5332">Next.js App (monolito)</text></g><!--cluster packages/shared--><g id="cluster_packages/shared"><path d="M680.2147,492 L801.2147,492 A3.75,3.75 0 0 1 803.7147,494.5 L810.7147,515.6094 L939.2147,515.6094 A2.5,2.5 0 0 1 941.7147,518.1094 L941.7147,579.5 A2.5,2.5 0 0 1 939.2147,582 L680.2147,582 A2.5,2.5 0 0 1 677.7147,579.5 L677.7147,494.5 A2.5,2.5 0 0 1 680.2147,492 " fill="none" style="stroke:#000000;stroke-width:1.5;"/><line style="stroke:#000000;stroke-width:1.5;" x1="677.7147" x2="810.7147" y1="515.6094" y2="515.6094"/><text fill="#000000" font-family="sans-serif" font-size="14" font-weight="bold" lengthAdjust="spacing" textLength="120" x="681.7147" y="508.5332">packages/shared</text></g><!--entity WEB--><g id="elem_WEB"><rect fill="#F1F1F1" height="37.6094" rx="2.5" ry="2.5" style="stroke:#181818;stroke-width:0.5;" width="169" x="107.2147" y="42"/><text fill="#000000" font-family="sans-serif" font-size="14" lengthAdjust="spacing" textLength="149" x="117.2147" y="66.5332">Web (Next.js SSR/CSR)</text></g><!--entity MOB--><g id="elem_MOB"><rect fill="#F1F1F1" height="37.6094" rx="2.5" ry="2.5" style="stroke:#181818;stroke-width:0.5;" width="135" x="311.2147" y="42"/><text fill="#000000" font-family="sans-serif" font-size="14" lengthAdjust="spacing" textLength="115" x="321.2147" y="66.5332">App Mobile (Expo)</text></g><!--entity MW--><g id="elem_MW"><rect fill="#F1F1F1" height="55.2188" rx="2.5" ry="2.5" style="stroke:#181818;stroke-width:0.5;" width="114" x="489.7147" y="182"/><text fill="#000000" font-family="sans-serif" font-size="14" lengthAdjust="spacing" textLength="71" x="499.7147" y="206.5332">Middleware</text><text fill="#000000" font-family="sans-serif" font-size="14" lengthAdjust="spacing" textLength="94" x="499.7147" y="224.1426">(auth + CORS)</text></g><!--entity API--><g id="elem_API"><rect fill="#F1F1F1" height="37.6094" rx="2.5" ry="2.5" style="stroke:#181818;stroke-width:0.5;" width="159" x="467.2147" y="298"/><text fill="#000000" font-family="sans-serif" font-size="14" lengthAdjust="spacing" textLength="139" x="477.2147" y="322.5332">Route Handlers /api/**</text></g><!--entity SVC--><g id="elem_SVC"><rect fill="#F1F1F1" height="37.6094" rx="2.5" ry="2.5" style="stroke:#181818;stroke-width:0.5;" width="151" x="270.2147" y="402"/><text fill="#000000" font-family="sans-serif" font-size="14" lengthAdjust="spacing" textLength="131" x="280.2147" y="426.5332">Camada de Servicos</text></g><!--entity SEC--><g id="elem_SEC"><rect fill="#F1F1F1" height="37.6094" rx="2.5" ry="2.5" style="stroke:#181818;stroke-width:0.5;" width="181" x="456.2147" y="402"/><text fill="#000000" font-family="sans-serif" font-size="14" lengthAdjust="spacing" textLength="161" x="466.2147" y="426.5332">route-guard / mobile-auth</text></g><!--entity PRIV--><g id="elem_PRIV"><rect fill="#F1F1F1" height="37.6094" rx="2.5" ry="2.5" style="stroke:#181818;stroke-width:0.5;" width="117" x="287.2147" y="528"/><text fill="#000000" font-family="sans-serif" font-size="14" lengthAdjust="spacing" textLength="97" x="297.2147" y="552.5332">privacy mapper</text></g><!--entity ORM--><g id="elem_ORM"><rect fill="#F1F1F1" height="37.6094" rx="2.5" ry="2.5" style="stroke:#181818;stroke-width:0.5;" width="103" x="144.2147" y="528"/><text fill="#000000" font-family="sans-serif" font-size="14" lengthAdjust="spacing" textLength="83" x="154.2147" y="552.5332">Prisma Client</text></g><!--entity SSE--><g id="elem_SSE"><rect fill="#F1F1F1" height="37.6094" rx="2.5" ry="2.5" style="stroke:#181818;stroke-width:0.5;" width="96" x="138.7147" y="402"/><text fill="#000000" font-family="sans-serif" font-size="14" lengthAdjust="spacing" textLength="76" x="148.7147" y="426.5332">SSE Stream</text></g><!--entity SHARED--><g id="elem_SHARED"><rect fill="#F1F1F1" height="37.6094" rx="2.5" ry="2.5" style="stroke:#181818;stroke-width:0.5;" width="232" x="693.7147" y="528"/><text fill="#000000" font-family="sans-serif" font-size="14" lengthAdjust="spacing" textLength="212" x="703.7147" y="552.5332">Zod schemas + status + contracts</text></g><!--entity DB--><g id="elem_DB"><path d="M147.2147,639 C147.2147,629 195.7147,629 195.7147,629 C195.7147,629 244.2147,629 244.2147,639 L244.2147,665.6094 C244.2147,675.6094 195.7147,675.6094 195.7147,675.6094 C195.7147,675.6094 147.2147,675.6094 147.2147,665.6094 L147.2147,639 " fill="#F1F1F1" style="stroke:#181818;stroke-width:0.5;"/><path d="M147.2147,639 C147.2147,649 195.7147,649 195.7147,649 C195.7147,649 244.2147,649 244.2147,639 " fill="none" style="stroke:#181818;stroke-width:0.5;"/><text fill="#000000" font-family="sans-serif" font-size="14" lengthAdjust="spacing" textLength="77" x="157.2147" y="667.5332">PostgreSQL</text></g><!--entity CL--><g id="elem_CL"><path d="M17.6788,195.6817 C19.5544,188.7796 26.1246,188.5353 30.4053,192.9854 C33.9894,184.8389 39.2643,184.1375 44.973,190.9108 C48.3041,183.8398 54.3048,184.011 58.3452,190.1953 C63.2434,183.3903 68.2456,183.0401 73.2679,190.0613 C78.3195,185.285 83.608,185.7299 85.6986,193.0933 C90.7833,186.6341 95.4731,187.9693 99.0736,194.6087 C107.8004,195.5658 111.1702,202.0493 107.0235,209.7607 C113.3049,218.0886 109.2767,223.5206 100.4112,225.4748 C97.8218,232.8576 90.5825,235.5885 85.3299,228.1924 C82.8978,234.4768 77.2466,236.1674 73.0013,229.9856 C69.8504,236.6231 63.7452,239.301 58.3314,232.4461 C53.9562,239.0928 49.6061,237.8662 45.7508,231.9265 C39.8034,238.8356 34.5365,236.4022 31.0565,229.3328 C25.325,234.7568 20.3997,233.5196 18.3714,225.7676 C9.9349,224.3078 6.6826,218.9525 10.8762,211.0573 C6,203.3142 7.9483,196.9623 17.6788,195.6817 " fill="#F1F1F1" style="stroke:#181818;stroke-width:0.5;"/><text fill="#000000" font-family="sans-serif" font-size="14" lengthAdjust="spacing" textLength="68" x="23.7147" y="215.0332">Cloudinary</text></g><!--entity CEP--><g id="elem_CEP"><path d="M751.8189,406.2887 C754.0086,396.7898 761.9986,394.8961 768.0183,402.7036 C772.3677,393.5265 779.2739,392.801 784.8321,401.5711 C789.4409,396.4361 795.9067,395.4948 798.6242,403.5488 C805.6665,395.8565 811.5282,398.0703 815.0369,407.0313 C824.2704,406.9408 828.6406,411.8851 824.4687,420.9068 C828.0753,429.9745 826.2135,437.5136 814.5573,437.4208 C812.2986,445.1383 805.157,446.7655 799.4803,441.3424 C796.3753,449.8491 789.8805,450.1713 783.8193,444.6405 C778.0376,451.4704 771.0467,448.11 768.9048,440.8009 C762.7991,446.894 755.5989,445.1839 752.7551,437.0882 C742.8926,437.2716 739.6444,430.9915 744.4949,422.7177 C739.9464,414.5484 740.5049,407.3867 751.8189,406.2887 " fill="#F1F1F1" style="stroke:#181818;stroke-width:0.5;"/><text fill="#000000" font-family="sans-serif" font-size="14" lengthAdjust="spacing" textLength="48" x="758.7147" y="426.5332">ViaCEP</text></g><!--link WEB to MW--><g id="link_WEB_MW"><path d="M230.7947,80.16 C249.5247,88.32 272.4547,97.55 293.7147,104 C367.0347,126.24 393.6747,104.79 462.7147,138 C485.0147,148.73 502.0317,162.5586 517.6017,177.6886 " fill="none" id="WEB-to-MW" style="stroke:#181818;stroke-width:1.0;"/><polygon fill="#181818" points="521.9047,181.87,518.2378,172.7292,518.3189,178.3855,512.6626,178.4666,521.9047,181.87" style="stroke:#181818;stroke-width:1.0;"/></g><!--link WEB to CL--><g id="link_WEB_CL"><path d="M133.1847,80.09 C116.5747,87.67 99.7547,98.05 87.7147,112 C69.8347,132.72 63.42,158.0756 60.5,179.3656 " fill="none" id="WEB-to-CL" style="stroke:#181818;stroke-width:1.0;stroke-dasharray:7.0,7.0;"/><polygon fill="#181818" points="59.6847,185.31,64.8705,176.937,60.3641,180.3564,56.9447,175.8499,59.6847,185.31" style="stroke:#181818;stroke-width:1.0;"/><text fill="#000000" font-family="sans-serif" font-size="13" lengthAdjust="spacing" textLength="74" x="88.7147" y="126.4951">upload direto</text></g><!--link MOB to API--><g id="link_MOB_API"><path d="M375.3747,80.23 C370.1747,114.27 363.8847,188.41 396.7147,237 C416.6547,266.51 445.6672,283.5837 476.6172,295.6937 " fill="none" id="MOB-to-API" style="stroke:#181818;stroke-width:1.0;"/><polygon fill="#181818" points="482.2047,297.88,475.281,290.8756,477.5485,296.0581,472.3659,298.3256,482.2047,297.88" style="stroke:#181818;stroke-width:1.0;"/><text fill="#000000" font-family="sans-serif" font-size="13" lengthAdjust="spacing" textLength="74" x="397.7147" y="214.9951">Bearer token</text></g><!--link MW to API--><g id="link_MW_API"><path d="M546.7147,237.12 C546.7147,256.05 546.7147,274.97 546.7147,291.69 " fill="none" id="MW-to-API" style="stroke:#181818;stroke-width:1.0;"/><polygon fill="#181818" points="546.7147,297.69,550.7147,288.69,546.7147,292.69,542.7147,288.69,546.7147,297.69" style="stroke:#181818;stroke-width:1.0;"/></g><!--link API to SEC--><g id="link_API_SEC"><path d="M546.7147,336.24 C546.7147,354.8 546.7147,377.41 546.7147,395.92 " fill="none" id="API-to-SEC" style="stroke:#181818;stroke-width:1.0;"/><polygon fill="#181818" points="546.7147,401.92,550.7147,392.92,546.7147,396.92,542.7147,392.92,546.7147,401.92" style="stroke:#181818;stroke-width:1.0;"/></g><!--link API to SVC--><g id="link_API_SVC"><path d="M511.2447,336 C474.7247,354.53 423.4954,380.5352 386.8554,399.1252 " fill="none" id="API-to-SVC" style="stroke:#181818;stroke-width:1.0;"/><polygon fill="#181818" points="381.5047,401.84,391.3406,401.335,385.9636,399.5777,387.7209,394.2007,381.5047,401.84" style="stroke:#181818;stroke-width:1.0;"/></g><!--link SVC to PRIV--><g id="link_SVC_PRIV"><path d="M345.7147,440.03 C345.7147,463.54 345.7147,498.43 345.7147,521.95 " fill="none" id="SVC-to-PRIV" style="stroke:#181818;stroke-width:1.0;"/><polygon fill="#181818" points="345.7147,527.95,349.7147,518.95,345.7147,522.95,341.7147,518.95,345.7147,527.95" style="stroke:#181818;stroke-width:1.0;"/></g><!--link SVC to ORM--><g id="link_SVC_ORM"><path d="M323.3747,440.1 C308.1947,452.42 287.6947,469.14 269.7147,484 C252.0147,498.63 236.6551,511.4962 221.9351,523.8862 " fill="none" id="SVC-to-ORM" style="stroke:#181818;stroke-width:1.0;"/><polygon fill="#181818" points="217.3447,527.75,226.8061,525.0146,221.17,524.5302,221.6544,518.8941,217.3447,527.75" style="stroke:#181818;stroke-width:1.0;"/></g><!--link ORM to DB--><g id="link_ORM_DB"><path d="M195.7147,566.03 C195.7147,583.52 195.7147,604.11 195.7147,622.99 " fill="none" id="ORM-to-DB" style="stroke:#181818;stroke-width:1.0;"/><polygon fill="#181818" points="195.7147,628.99,199.7147,619.99,195.7147,623.99,191.7147,619.99,195.7147,628.99" style="stroke:#181818;stroke-width:1.0;"/></g><!--link API to CEP--><g id="link_API_CEP"><path d="M626.2847,333.3 C655.7147,340.78 688.7047,351.4 716.7147,366 C732.2047,374.07 742.9681,382.1739 754.8981,392.8739 " fill="none" id="API-to-CEP" style="stroke:#181818;stroke-width:1.0;"/><polygon fill="#181818" points="759.3647,396.88,755.3355,387.893,755.6425,393.5416,749.994,393.8486,759.3647,396.88" style="stroke:#181818;stroke-width:1.0;"/></g><!--link WEB to SSE--><g id="link_WEB_SSE"><path d="M191.4647,80.25 C190.6047,141.66 187.9088,334.4306 187.0488,395.7906 " fill="none" id="WEB-to-SSE" style="stroke:#181818;stroke-width:1.0;"/><polygon fill="#181818" points="186.9647,401.79,191.0904,392.8469,187.0348,396.7905,183.0912,392.7348,186.9647,401.79" style="stroke:#181818;stroke-width:1.0;"/></g><!--link SSE to ORM--><g id="link_SSE_ORM"><path d="M188.0247,440.03 C189.7347,463.54 192.2596,498.4458 193.9696,521.9658 " fill="none" id="SSE-to-ORM" style="stroke:#181818;stroke-width:1.0;"/><polygon fill="#181818" points="194.4047,527.95,197.7416,518.6836,194.0421,522.9632,189.7626,519.2637,194.4047,527.95" style="stroke:#181818;stroke-width:1.0;"/></g><!--link API to SHARED--><g id="link_API_SHARED"><path d="M573.6547,336.2 C595.9747,351.63 628.2047,374.74 654.7147,397 C707.3047,441.17 760.2073,494.5034 788.1373,523.4334 " fill="none" id="API-to-SHARED" style="stroke:#181818;stroke-width:1.0;stroke-dasharray:7.0,7.0;"/><polygon fill="#181818" points="792.3047,527.75,788.9314,518.4969,788.8319,524.1528,783.1759,524.0534,792.3047,527.75" style="stroke:#181818;stroke-width:1.0;"/></g><!--link SVC to SHARED--><g id="link_SVC_SHARED"><path d="M416.6947,440.04 C424.1147,441.78 431.5547,443.47 438.7147,445 C533.6747,465.33 560.3547,457.27 653.7147,484 C694.6247,495.71 734.1168,511.8045 765.2268,525.5545 " fill="none" id="SVC-to-SHARED" style="stroke:#181818;stroke-width:1.0;stroke-dasharray:7.0,7.0;"/><polygon fill="#181818" points="770.7147,527.98,764.0999,520.6831,766.1415,525.9587,760.8659,528.0003,770.7147,527.98" style="stroke:#181818;stroke-width:1.0;"/></g><!--link MOB to SHARED--><g id="link_MOB_SHARED"><path d="M446.3847,67.74 C582.1147,81.13 874.7147,120.23 874.7147,208.5 C874.7147,208.5 874.7147,208.5 874.7147,422 C874.7147,463.56 849.5787,500.3398 830.3187,523.2198 " fill="none" id="MOB-to-SHARED" style="stroke:#181818;stroke-width:1.0;stroke-dasharray:7.0,7.0;"/><polygon fill="#181818" points="826.4547,527.81,835.3108,523.5007,829.6747,523.9848,829.1905,518.3487,826.4547,527.81" style="stroke:#181818;stroke-width:1.0;"/></g><!--SRC=[LP7DZfim58NtVeghR9gP4M7VnKW9GPgHXePYAP7wixZ15d43jcMRwKHLtxs-1jhf0d7D-NmuFlu0UuMTmm51I2ZCO8sMEaWF6PJ5GSis8FDNfIr62De5uE7MIt0awwwNZ5bihzX9M1MzIWOh-CK0lfxa6TQVv5lO_F30UPCNlBdx3kZXLEu8s5eBbJchQBSktwoPnEgmOx_VkIuEHAy7eqslWhcR_r4f8Nhv4vtyfjSuXWiyG75e-6nr8gOnOv3mX3gIpaEELkNtzmdOriz45B44aMhWqhsgrlYaycD1ggFzMJUY4v33a09dzAy9AXDadNh5zWO3MYjTKkhc-KXIxPIF9K_j9ENGL2HmNW8FJk8mEV7oluFFWy_z9PvFp2V-OWJuzYA7kEC1VC0mqj0Q7HosOKx-j6tAFRa937X67-rguqFd9F_yiY9alsDjRqP1rnPVIgEx9Q5uMOIZmgAifuzbpLYyDiYoHwgLnitcCSBm4KRR6nGWb9F1i7X_YOhTHcqdOtO7mLobPjLfKHYfD5DzV-VOTtpIdCfR5jHNVD8SSoyyXLeoKNdKvu8JGm7d9iZftP8o_bl-0G00]--></g></svg>