<?xml version="1.0" encoding="us-ascii" standalone="no"?><svg xmlns="http://www.w3.org/2000/svg" xmlns:xlink="http://www.w3.org/1999/xlink" contentStyleType="text/css" height="448px" preserveAspectRatio="none" style="width:860px;height:448px;background:#FFFFFF;" version="1.1" viewBox="0 0 860 448" width="860px" zoomAndPan="magnify"><defs/><g><!--cluster Dispositivo do usuario--><g id="cluster_Dispositivo do usuario"><polygon fill="none" points="142.7147,16,152.7147,6,489.7147,6,489.7147,94,479.7147,104,142.7147,104,142.7147,16" style="stroke:#181818;stroke-width:1.0;"/><line style="stroke:#181818;stroke-width:1.0;" x1="479.7147" x2="489.7147" y1="16" y2="6"/><line style="stroke:#181818;stroke-width:1.0;" x1="142.7147" x2="479.7147" y1="16" y2="16"/><line style="stroke:#181818;stroke-width:1.0;" x1="479.7147" x2="479.7147" y1="16" y2="104"/><text fill="#000000" font-family="sans-serif" font-size="14" font-weight="bold" lengthAdjust="spacing" textLength="158" x="233.2147" y="33.5332">Dispositivo do usuario</text></g><!--cluster Vercel [inferido]--><g id="cluster_Vercel [inferido]"><polygon fill="none" points="161.7147,164,171.7147,154,505.7147,154,505.7147,421,495.7147,431,161.7147,431,161.7147,164" style="stroke:#181818;stroke-width:1.0;"/><line style="stroke:#181818;stroke-width:1.0;" x1="495.7147" x2="505.7147" y1="164" y2="154"/><line style="stroke:#181818;stroke-width:1.0;" x1="161.7147" x2="495.7147" y1="164" y2="164"/><line style="stroke:#181818;stroke-width:1.0;" x1="495.7147" x2="495.7147" y1="164" y2="431"/><text fill="#000000" font-family="sans-serif" font-size="14" font-weight="bold" lengthAdjust="spacing" textLength="114" x="272.7147" y="181.5332">Vercel [inferido]</text></g><!--cluster Postgres gerenciado\n(Neon) [inferido]--><g id="cluster_Postgres gerenciado\n(Neon) [inferido]"><polygon fill="none" points="620.7147,313.5,630.7147,303.5,843.7147,303.5,843.7147,415.5,833.7147,425.5,620.7147,425.5,620.7147,313.5" style="stroke:#181818;stroke-width:1.0;"/><line style="stroke:#181818;stroke-width:1.0;" x1="833.7147" x2="843.7147" y1="313.5" y2="303.5"/><line style="stroke:#181818;stroke-width:1.0;" x1="620.7147" x2="833.7147" y1="313.5" y2="313.5"/><line style="stroke:#181818;stroke-width:1.0;" x1="833.7147" x2="833.7147" y1="313.5" y2="425.5"/><text fill="#000000" font-family="sans-serif" font-size="14" font-weight="bold" lengthAdjust="spacing" textLength="147" x="654.7147" y="331.0332">Postgres gerenciado</text><text fill="#000000" font-family="sans-serif" font-size="14" font-weight="bold" lengthAdjust="spacing" textLength="116" x="670.2147" y="348.6426">(Neon) [inferido]</text></g><!--entity B--><g id="elem_B"><rect fill="#F1F1F1" height="40.6094" rx="2.5" ry="2.5" style="stroke:#181818;stroke-width:0.5;" width="99" x="159.2147" y="47"/><polygon fill="#F1F1F1" points="241.2147,52,241.2147,66,253.2147,66,253.2147,58,247.2147,52,241.2147,52" style="stroke:#181818;stroke-width:0.5;"/><line style="stroke:#181818;stroke-width:0.5;" x1="247.2147" x2="247.2147" y1="52" y2="58"/><line style="stroke:#181818;stroke-width:0.5;" x1="253.2147" x2="247.2147" y1="58" y2="58"/><text fill="#000000" font-family="sans-serif" font-size="14" lengthAdjust="spacing" textLength="69" x="169.2147" y="74.5332">Navegador</text></g><!--entity A--><g id="elem_A"><rect fill="#F1F1F1" height="40.6094" rx="2.5" ry="2.5" style="stroke:#181818;stroke-width:0.5;" width="180" x="293.7147" y="47"/><polygon fill="#F1F1F1" points="456.7147,52,456.7147,66,468.7147,66,468.7147,58,462.7147,52,456.7147,52" style="stroke:#181818;stroke-width:0.5;"/><line style="stroke:#181818;stroke-width:0.5;" x1="462.7147" x2="462.7147" y1="52" y2="58"/><line style="stroke:#181818;stroke-width:0.5;" x1="468.7147" x2="462.7147" y1="58" y2="58"/><text fill="#000000" font-family="sans-serif" font-size="14" lengthAdjust="spacing" textLength="150" x="303.7147" y="74.5332">App Expo (iOS/Android)</text></g><!--entity NX--><g id="elem_NX"><rect fill="#F1F1F1" height="40.6094" rx="2.5" ry="2.5" style="stroke:#181818;stroke-width:0.5;" width="270" x="219.7147" y="195"/><polygon fill="#F1F1F1" points="472.7147,200,472.7147,214,484.7147,214,484.7147,206,478.7147,200,472.7147,200" style="stroke:#181818;stroke-width:0.5;"/><line style="stroke:#181818;stroke-width:0.5;" x1="478.7147" x2="478.7147" y1="200" y2="206"/><line style="stroke:#181818;stroke-width:0.5;" x1="484.7147" x2="478.7147" y1="206" y2="206"/><text fill="#000000" font-family="sans-serif" font-size="14" lengthAdjust="spacing" textLength="240" x="229.7147" y="222.5332">Next.js (SSR + Route Handlers + SSE)</text></g><!--entity ENV--><g id="elem_ENV"><rect fill="#F1F1F1" height="58.2188" rx="2.5" ry="2.5" style="stroke:#181818;stroke-width:0.5;" width="311" x="178.2147" y="357"/><polygon fill="#F1F1F1" points="472.2147,362,472.2147,376,484.2147,376,484.2147,368,478.2147,362,472.2147,362" style="stroke:#181818;stroke-width:0.5;"/><line style="stroke:#181818;stroke-width:0.5;" x1="478.2147" x2="478.2147" y1="362" y2="368"/><line style="stroke:#181818;stroke-width:0.5;" x1="484.2147" x2="478.2147" y1="368" y2="368"/><text fill="#000000" font-family="sans-serif" font-size="14" lengthAdjust="spacing" textLength="140" x="188.2147" y="384.5332">Variaveis de ambiente</text><text fill="#000000" font-family="sans-serif" font-size="14" lengthAdjust="spacing" textLength="281" x="188.2147" y="402.1426">(NEXTAUTH_SECRET, DATABASE_URL, ...)</text></g><!--entity DB--><g id="elem_DB"><path d="M638.2147,372.5 C638.2147,362.5 686.7147,362.5 686.7147,362.5 C686.7147,362.5 735.2147,362.5 735.2147,372.5 L735.2147,399.1094 C735.2147,409.1094 686.7147,409.1094 686.7147,409.1094 C686.7147,409.1094 638.2147,409.1094 638.2147,399.1094 L638.2147,372.5 " fill="#F1F1F1" style="stroke:#181818;stroke-width:0.5;"/><path d="M638.2147,372.5 C638.2147,382.5 686.7147,382.5 686.7147,382.5 C686.7147,382.5 735.2147,382.5 735.2147,372.5 " fill="none" style="stroke:#181818;stroke-width:0.5;"/><text fill="#000000" font-family="sans-serif" font-size="14" lengthAdjust="spacing" textLength="77" x="648.2147" y="401.0332">PostgreSQL</text></g><!--entity CL--><g id="elem_CL"><path d="M17.6788,201.6817 C19.5544,194.7796 26.1246,194.5353 30.4053,198.9854 C33.9894,190.8389 39.2643,190.1375 44.973,196.9108 C48.3041,189.8398 54.3048,190.011 58.3452,196.1953 C63.2434,189.3903 68.2456,189.0401 73.2679,196.0613 C78.3195,191.285 83.608,191.7299 85.6986,199.0933 C90.7833,192.6341 95.4731,193.9693 99.0736,200.6087 C107.8004,201.5658 111.1702,208.0493 107.0235,215.7607 C113.3049,224.0886 109.2767,229.5206 100.4112,231.4748 C97.8218,238.8576 90.5825,241.5885 85.3299,234.1924 C82.8978,240.4768 77.2466,242.1674 73.0013,235.9856 C69.8504,242.6231 63.7452,245.301 58.3314,238.4461 C53.9562,245.0928 49.6061,243.8662 45.7508,237.9265 C39.8034,244.8356 34.5365,242.4022 31.0565,235.3328 C25.325,240.7568 20.3997,239.5196 18.3714,231.7676 C9.9349,230.3078 6.6826,224.9525 10.8762,217.0573 C6,209.3142 7.9483,202.9623 17.6788,201.6817 " fill="#F1F1F1" style="stroke:#181818;stroke-width:0.5;"/><text fill="#000000" font-family="sans-serif" font-size="14" lengthAdjust="spacing" textLength="68" x="23.7147" y="221.0332">Cloudinary</text></g><!--entity CEP--><g id="elem_CEP"><path d="M532.8189,371.2887 C535.0086,361.7898 542.9986,359.8961 549.0183,367.7036 C553.3677,358.5265 560.2739,357.801 565.8321,366.5711 C570.4409,361.4361 576.9067,360.4948 579.6242,368.5488 C586.6665,360.8565 592.5282,363.0703 596.0369,372.0313 C605.2704,371.9408 609.6406,376.8851 605.4687,385.9068 C609.0753,394.9745 607.2135,402.5136 595.5573,402.4208 C593.2986,410.1383 586.157,411.7655 580.4803,406.3424 C577.3753,414.8491 570.8805,415.1713 564.8193,409.6405 C559.0376,416.4704 552.0467,413.11 549.9048,405.8009 C543.7991,411.894 536.5989,410.1839 533.7551,402.0882 C523.8926,402.2716 520.6444,395.9915 525.4949,387.7177 C520.9464,379.5484 521.5049,372.3867 532.8189,371.2887 " fill="#F1F1F1" style="stroke:#181818;stroke-width:0.5;"/><text fill="#000000" font-family="sans-serif" font-size="14" lengthAdjust="spacing" textLength="48" x="539.7147" y="391.5332">ViaCEP</text></g><!--link B to NX--><g id="link_B_NX"><path d="M228.4047,88.19 C256.2747,116.06 302.6821,162.4674 330.6321,190.4174 " fill="none" id="B-to-NX" style="stroke:#181818;stroke-width:1.0;"/><polygon fill="#181818" points="334.8747,194.66,331.3392,185.4676,331.3392,191.1245,325.6823,191.1245,334.8747,194.66" style="stroke:#181818;stroke-width:1.0;"/><text fill="#000000" font-family="sans-serif" font-size="13" lengthAdjust="spacing" textLength="80" x="277.7147" y="134.4951">HTTPS / SSE</text></g><!--link A to NX--><g id="link_A_NX"><path d="M379.8047,88.19 C374.2647,116.06 365.3733,160.8249 359.8233,188.7749 " fill="none" id="A-to-NX" style="stroke:#181818;stroke-width:1.0;"/><polygon fill="#181818" points="358.6547,194.66,364.331,186.6114,359.6285,189.7558,356.4842,185.0533,358.6547,194.66" style="stroke:#181818;stroke-width:1.0;"/><text fill="#000000" font-family="sans-serif" font-size="13" lengthAdjust="spacing" textLength="121" x="372.7147" y="134.4951">HTTPS (Bearer JWT)</text></g><!--link B to CL--><g id="link_B_CL"><path d="M158.9447,80.57 C135.8347,88.41 109.5847,100.85 91.7147,120 C73.2747,139.76 65.8018,164.3411 61.9018,185.3111 " fill="none" id="B-to-CL" style="stroke:#181818;stroke-width:1.0;"/><polygon fill="#181818" points="60.8047,191.21,66.3829,183.0931,61.7189,186.2943,58.5177,181.6303,60.8047,191.21" style="stroke:#181818;stroke-width:1.0;"/><text fill="#000000" font-family="sans-serif" font-size="13" lengthAdjust="spacing" textLength="162" x="92.7147" y="134.4951">upload de imagens (HTTPS)</text></g><!--link NX to DB--><g id="link_NX_DB"><path d="M484.0447,236.07 C530.3847,247.73 580.9447,266.23 620.7147,295.5 C644.8147,313.24 660.9862,337.0788 672.3162,357.2488 " fill="none" id="NX-to-DB" style="stroke:#181818;stroke-width:1.0;"/><polygon fill="#181818" points="675.2547,362.48,674.3344,352.6742,672.806,358.1207,667.3595,356.5922,675.2547,362.48" style="stroke:#181818;stroke-width:1.0;"/><text fill="#000000" font-family="sans-serif" font-size="13" lengthAdjust="spacing" textLength="180" x="608.7147" y="283.9951">Prisma (TLS, sslmode=require)</text></g><!--link NX to CEP--><g id="link_NX_CEP"><path d="M407.4247,236.09 C438.4947,249.48 477.1747,269.5 505.7147,295.5 C526.3847,314.33 540.1114,336.7387 550.1414,356.3387 " fill="none" id="NX-to-CEP" style="stroke:#181818;stroke-width:1.0;"/><polygon fill="#181818" points="552.8747,361.68,552.3356,351.8459,550.597,357.229,545.2139,355.4903,552.8747,361.68" style="stroke:#181818;stroke-width:1.0;"/><text fill="#000000" font-family="sans-serif" font-size="13" lengthAdjust="spacing" textLength="41" x="495.7147" y="283.9951">HTTPS</text></g><!--link NX to ENV--><g id="link_NX_ENV"><path d="M352.2647,236.16 C348.5547,265.94 342.2253,316.6659 337.9753,350.8359 " fill="none" id="NX-to-ENV" style="stroke:#181818;stroke-width:1.0;stroke-dasharray:7.0,7.0;"/><polygon fill="#181818" points="337.2347,356.79,342.315,348.3525,337.8518,351.8282,334.3761,347.3651,337.2347,356.79" style="stroke:#181818;stroke-width:1.0;"/></g><!--SRC=[PL9TRvmm47pdLwnu2RHtt7khHkB3rQL27CNacYgDeWti8JTWKnjEYQB-znhk8qhpPk_kpCwCzW8IWOt63g4cIAXlrJCiWSKRITM00BS9ozFDJxZAlhBYAjdSEHV0gOD4LO-aTwAbrPvqHMtm0QG2JRtw34BkI8jQGKyjWXcmUWGlewSX-6tW8-HQ6BlGFfGP6aq6CbBI_kDMZRMGg9zzHoeho4s4wPKHWzWhi7oZ6L4BvSAB0u1w43ki1d0pt5E3jT8ke87eJI_iUs1FlG9FRFWgbBLMelRdmT3vUropdIt0xKdutRiDH_4UvuKLMgXn85YZh5lIaoNEsO4pktc3srgvLfmmKxpOFGYI0_sINiPkol2wNDzp5XUiN40Ibc4KSdP_NQGB28BWGCUoxLdaEQs6DCbAMCCJautEVwUynW4VqBoY-FTq9amYorTDEOFx6lVSYjDJOoimPlcXo7B7YM2vlBJMu1EiopBdi9eCE-7_PIyYrAJXsu_IFuBYr7P7UrPOJn683XkIDiSPu3iMF4qbaPqwdeLNfdm1nhITTVr5qvzHQ3fFMZsdTLCf22wdZFu1]--></g></svg>