<?xml version="1.0" encoding="us-ascii" standalone="no"?><svg xmlns="http://www.w3.org/2000/svg" xmlns:xlink="http://www.w3.org/1999/xlink" contentStyleType="text/css" height="531px" preserveAspectRatio="none" style="width:466px;height:531px;background:#FFFFFF;" version="1.1" viewBox="0 0 466 531" width="466px" zoomAndPan="magnify"><defs/><g><ellipse cx="300" cy="16" fill="#222222" rx="10" ry="10" style="stroke:#222222;stroke-width:1.0;"/><g id="pendente"><rect fill="#F1F1F1" height="50" rx="12.5" ry="12.5" style="stroke:#181818;stroke-width:0.5;" width="80" x="260" y="104"/><line style="stroke:#181818;stroke-width:0.5;" x1="260" x2="340" y1="131.6094" y2="131.6094"/><text fill="#000000" font-family="sans-serif" font-size="14" lengthAdjust="spacing" textLength="60" x="270" y="123.5332">pendente</text></g><g id="aprovada"><rect fill="#F1F1F1" height="50" rx="12.5" ry="12.5" style="stroke:#181818;stroke-width:0.5;" width="80" x="7" y="232"/><line style="stroke:#181818;stroke-width:0.5;" x1="7" x2="87" y1="259.6094" y2="259.6094"/><text fill="#000000" font-family="sans-serif" font-size="14" lengthAdjust="spacing" textLength="60" x="17" y="251.5332">aprovada</text></g><g id="rejeitada"><rect fill="#F1F1F1" height="50" rx="12.5" ry="12.5" style="stroke:#181818;stroke-width:0.5;" width="75" x="382.5" y="312"/><line style="stroke:#181818;stroke-width:0.5;" x1="382.5" x2="457.5" y1="339.6094" y2="339.6094"/><text fill="#000000" font-family="sans-serif" font-size="14" lengthAdjust="spacing" textLength="55" x="392.5" y="331.5332">rejeitada</text></g><g id="cancelada"><rect fill="#F1F1F1" height="50" rx="12.5" ry="12.5" style="stroke:#181818;stroke-width:0.5;" width="85" x="194.5" y="392"/><line style="stroke:#181818;stroke-width:0.5;" x1="194.5" x2="279.5" y1="419.6094" y2="419.6094"/><text fill="#000000" font-family="sans-serif" font-size="14" lengthAdjust="spacing" textLength="65" x="204.5" y="411.5332">cancelada</text></g><ellipse cx="237" cy="514" fill="none" rx="11" ry="11" style="stroke:#222222;stroke-width:1.0;"/><ellipse cx="237" cy="514" fill="#222222" rx="6" ry="6" style="stroke:#222222;stroke-width:1.0;"/><!--link *start* to pendente--><g id="link_*start*_pendente"><path d="M300,26.08 C300,42.86 300,73.22 300,97.65 " fill="none" id="*start*-to-pendente" style="stroke:#181818;stroke-width:1.0;"/><polygon fill="#181818" points="300,103.65,304,94.65,300,98.65,296,94.65,300,103.65" style="stroke:#181818;stroke-width:1.0;"/><text fill="#000000" font-family="sans-serif" font-size="13" lengthAdjust="spacing" textLength="35" x="301" y="70.4951">criada</text></g><!--link pendente to aprovada--><g id="link_pendente_aprovada"><path d="M259.91,149.97 C212.68,173.49 140.0209,209.6753 92.6909,233.2453 " fill="none" id="pendente-to-aprovada" style="stroke:#181818;stroke-width:1.0;"/><polygon fill="#181818" points="87.32,235.92,97.1594,235.4886,91.7957,233.6911,93.5932,228.3274,87.32,235.92" style="stroke:#181818;stroke-width:1.0;"/><text fill="#000000" font-family="sans-serif" font-size="13" lengthAdjust="spacing" textLength="76" x="190" y="198.4951">admin aprova</text></g><!--link pendente to rejeitada--><g id="link_pendente_rejeitada"><path d="M334.25,154.05 C357.83,172.55 387.73,200.27 404,232 C416.92,257.2 419.9316,284.0114 420.4016,305.9714 " fill="none" id="pendente-to-rejeitada" style="stroke:#181818;stroke-width:1.0;"/><polygon fill="#181818" points="420.53,311.97,424.3365,302.8865,420.423,306.9711,416.3383,303.0577,420.53,311.97" style="stroke:#181818;stroke-width:1.0;"/><text fill="#000000" font-family="sans-serif" font-size="13" lengthAdjust="spacing" textLength="74" x="384" y="198.4951">admin rejeita</text></g><!--link pendente to cancelada--><g id="link_pendente_cancelada"><path d="M299.38,154.19 C297.78,205.71 292.59,324.59 278,362 C273.81,372.75 270.5734,378.499 263.5334,387.279 " fill="none" id="pendente-to-cancelada" style="stroke:#181818;stroke-width:1.0;"/><polygon fill="#181818" points="259.78,391.96,268.5308,387.4407,262.9078,388.0591,262.2894,382.4362,259.78,391.96" style="stroke:#181818;stroke-width:1.0;"/><text fill="#000000" font-family="sans-serif" font-size="13" lengthAdjust="spacing" textLength="94" x="297" y="262.4951">cidadao cancela</text></g><!--link aprovada to cancelada--><g id="link_aprovada_cancelada"><path d="M38.43,282.06 C31.94,304.98 26.75,339.26 44,362 C62.08,385.84 137.063,401.0872 188.213,409.1372 " fill="none" id="aprovada-to-cancelada" style="stroke:#181818;stroke-width:1.0;"/><polygon fill="#181818" points="194.14,410.07,185.8713,404.7194,189.2008,409.2927,184.6276,412.6222,194.14,410.07" style="stroke:#181818;stroke-width:1.0;"/><text fill="#000000" font-family="sans-serif" font-size="13" lengthAdjust="spacing" textLength="228" x="45" y="342.4951">cidadao cancela (sem coleta avancada)</text></g><!--link aprovada to *end*--><g id="link_aprovada_*end*"><path d="M34.85,282.11 C30.88,291.24 26.98,301.87 25,312 C13.25,372 24.45,401.22 70,442 C118.59,485.5 191.9142,503.8553 220.4542,509.7553 " fill="none" id="aprovada-to-*end*" style="stroke:#181818;stroke-width:1.0;"/><polygon fill="#181818" points="226.33,510.97,218.3261,505.2308,221.4335,509.9578,216.7066,513.0652,226.33,510.97" style="stroke:#181818;stroke-width:1.0;"/><text fill="#000000" font-family="sans-serif" font-size="13" lengthAdjust="spacing" textLength="105" x="71" y="422.4951">aceite gera Coleta</text></g><!--link rejeitada to *end*--><g id="link_rejeitada_*end*"><path d="M394.55,362.33 C352.32,402.72 274.2366,477.3935 248.9166,501.6035 " fill="none" id="rejeitada-to-*end*" style="stroke:#181818;stroke-width:1.0;"/><polygon fill="#181818" points="244.58,505.75,253.8493,502.4213,248.1939,502.2946,248.3206,496.6391,244.58,505.75" style="stroke:#181818;stroke-width:1.0;"/></g><!--link cancelada to *end*--><g id="link_cancelada_*end*"><path d="M237,442.46 C237,462.04 237,482.49 237,496.8 " fill="none" id="cancelada-to-*end*" style="stroke:#181818;stroke-width:1.0;"/><polygon fill="#181818" points="237,502.8,241,493.8,237,497.8,233,493.8,237,502.8" style="stroke:#181818;stroke-width:1.0;"/></g><!--SRC=[XOyz3i8m38NtdE9j_4Yv00CBuWICYC5oB1IK9bKIzVou9RHaOek-zpdss-5QAhbKO75BmREln9GkAKWbSpy-OEqPeqGdiGfEuEp9aLd97DEOqwHKOtA3ZmtqKfQNwES_LYEznXHPmaTZx_IHlioiU_w8s1SPm4i7qAHGqqC_FbVJGrWl43mb4rhdxSwccMrJ8sy0]--></g></svg>