<?xml version="1.0" encoding="us-ascii" standalone="no"?><svg xmlns="http://www.w3.org/2000/svg" xmlns:xlink="http://www.w3.org/1999/xlink" contentStyleType="text/css" height="643px" preserveAspectRatio="none" style="width:513px;height:643px;background:#FFFFFF;" version="1.1" viewBox="0 0 513 643" width="513px" zoomAndPan="magnify"><defs/><g><ellipse cx="282.5" cy="16" fill="#222222" rx="10" ry="10" style="stroke:#222222;stroke-width:1.0;"/><g id="aceita"><rect fill="#F1F1F1" height="50" rx="12.5" ry="12.5" style="stroke:#181818;stroke-width:0.5;" width="58" x="253.5" y="104"/><line style="stroke:#181818;stroke-width:0.5;" x1="253.5" x2="311.5" y1="131.6094" y2="131.6094"/><text fill="#000000" font-family="sans-serif" font-size="14" lengthAdjust="spacing" textLength="38" x="263.5" y="123.5332">aceita</text></g><g id="a_caminho"><rect fill="#F1F1F1" height="50" rx="12.5" ry="12.5" style="stroke:#181818;stroke-width:0.5;" width="89" x="156" y="232"/><line style="stroke:#181818;stroke-width:0.5;" x1="156" x2="245" y1="259.6094" y2="259.6094"/><text fill="#000000" font-family="sans-serif" font-size="14" lengthAdjust="spacing" textLength="69" x="166" y="251.5332">a_caminho</text></g><g id="em_coleta"><rect fill="#F1F1F1" height="50" rx="12.5" ry="12.5" style="stroke:#181818;stroke-width:0.5;" width="85" x="7" y="360"/><line style="stroke:#181818;stroke-width:0.5;" x1="7" x2="92" y1="387.6094" y2="387.6094"/><text fill="#000000" font-family="sans-serif" font-size="14" lengthAdjust="spacing" textLength="65" x="17" y="379.5332">em_coleta</text></g><g id="concluida"><rect fill="#F1F1F1" height="50" rx="12.5" ry="12.5" style="stroke:#181818;stroke-width:0.5;" width="80" x="159.5" y="504"/><line style="stroke:#181818;stroke-width:0.5;" x1="159.5" x2="239.5" y1="531.6094" y2="531.6094"/><text fill="#000000" font-family="sans-serif" font-size="14" lengthAdjust="spacing" textLength="60" x="169.5" y="523.5332">concluida</text></g><g id="cancelada"><rect fill="#F1F1F1" height="50" rx="12.5" ry="12.5" style="stroke:#181818;stroke-width:0.5;" width="85" x="321" y="360"/><line style="stroke:#181818;stroke-width:0.5;" x1="321" x2="406" y1="387.6094" y2="387.6094"/><text fill="#000000" font-family="sans-serif" font-size="14" lengthAdjust="spacing" textLength="65" x="331" y="379.5332">cancelada</text></g><ellipse cx="275.5" cy="626" fill="none" rx="11" ry="11" style="stroke:#222222;stroke-width:1.0;"/><ellipse cx="275.5" cy="626" fill="#222222" rx="6" ry="6" style="stroke:#222222;stroke-width:1.0;"/><g id="elem_GMN17"><path d="M127,363.5 L127,381 L92.12,385 L127,389 L127,406.2031 A0,0 0 0 0 127,406.2031 L286,406.2031 A0,0 0 0 0 286,406.2031 L286,373.5 L276,363.5 L127,363.5 A0,0 0 0 0 127,363.5 " fill="#FEFFDD" style="stroke:#181818;stroke-width:0.5;"/><path d="M276,363.5 L276,373.5 L286,373.5 L276,363.5 " fill="#FEFFDD" style="stroke:#181818;stroke-width:0.5;"/><text fill="#000000" font-family="sans-serif" font-size="13" lengthAdjust="spacing" textLength="135" x="133" y="381.9951">a partir daqui o cidadao</text><text fill="#000000" font-family="sans-serif" font-size="13" lengthAdjust="spacing" textLength="138" x="133" y="398.3467">nao pode mais cancelar</text></g><!--link *start* to aceita--><g id="link_*start*_aceita"><path d="M282.5,26.08 C282.5,42.86 282.5,73.22 282.5,97.65 " fill="none" id="*start*-to-aceita" style="stroke:#181818;stroke-width:1.0;"/><polygon fill="#181818" points="282.5,103.65,286.5,94.65,282.5,98.65,278.5,94.65,282.5,103.65" style="stroke:#181818;stroke-width:1.0;"/><text fill="#000000" font-family="sans-serif" font-size="13" lengthAdjust="spacing" textLength="89" x="283.5" y="70.4951">empresa aceita</text></g><!--link aceita to a_caminho--><g id="link_aceita_a_caminho"><path d="M259.88,154.01 C251.97,163.03 243.36,173.63 236.5,184 C226.47,199.15 219.8417,212.0218 213.2817,226.3918 " fill="none" id="aceita-to-a_caminho" style="stroke:#181818;stroke-width:1.0;"/><polygon fill="#181818" points="210.79,231.85,218.1663,225.3239,212.8664,227.3015,210.8888,222.0016,210.79,231.85" style="stroke:#181818;stroke-width:1.0;"/><text fill="#000000" font-family="sans-serif" font-size="13" lengthAdjust="spacing" textLength="99" x="237.5" y="198.4951">empresa atualiza</text></g><!--link a_caminho to em_coleta--><g id="link_a_caminho_em_coleta"><path d="M155.71,262.39 C122.84,268.13 79.99,281.39 56.5,312 C46.18,325.45 44.4069,338.7529 45.4069,353.9829 " fill="none" id="a_caminho-to-em_coleta" style="stroke:#181818;stroke-width:1.0;"/><polygon fill="#181818" points="45.8,359.97,49.2017,350.7273,45.4724,354.9807,41.2189,351.2514,45.8,359.97" style="stroke:#181818;stroke-width:1.0;"/><text fill="#000000" font-family="sans-serif" font-size="13" lengthAdjust="spacing" textLength="99" x="57.5" y="326.4951">empresa atualiza</text></g><!--link em_coleta to concluida--><g id="link_em_coleta_concluida"><path d="M74.95,410.09 C102.53,436.2 141.9423,473.5157 169.5723,499.6657 " fill="none" id="em_coleta-to-concluida" style="stroke:#181818;stroke-width:1.0;"/><polygon fill="#181818" points="173.93,503.79,170.1429,494.6984,170.2985,500.3531,164.6438,500.5087,173.93,503.79" style="stroke:#181818;stroke-width:1.0;"/><text fill="#000000" font-family="sans-serif" font-size="13" lengthAdjust="spacing" textLength="94" x="160.5" y="454.4951">empresa finaliza</text><text fill="#000000" font-family="sans-serif" font-size="13" lengthAdjust="spacing" textLength="128" x="143.5" y="470.8467">(grava dataConclusao)</text></g><!--link aceita to cancelada--><g id="link_aceita_cancelada"><path d="M311.75,149.62 C322.94,158.71 334.65,170.5 341.5,184 C370.82,241.78 369.6765,314.859 366.5565,354.019 " fill="none" id="aceita-to-cancelada" style="stroke:#181818;stroke-width:1.0;"/><polygon fill="#181818" points="366.08,360,370.7822,351.3461,366.4771,355.0158,362.8074,350.7107,366.08,360" style="stroke:#181818;stroke-width:1.0;"/><text fill="#000000" font-family="sans-serif" font-size="13" lengthAdjust="spacing" textLength="138" x="367.5" y="262.4951">cancelamento permitido</text></g><!--link a_caminho to cancelada--><g id="link_a_caminho_cancelada"><path d="M192.3,282.02 C188.7,297.24 187.31,316.53 197.5,330 C227.03,369.05 257.15,344.22 303.5,360 C309.13,361.92 309.3969,361.9239 315.1669,364.1339 " fill="none" id="a_caminho-to-cancelada" style="stroke:#181818;stroke-width:1.0;"/><polygon fill="#181818" points="320.77,366.28,313.7961,359.3255,316.1008,364.4916,310.9347,366.7963,320.77,366.28" style="stroke:#181818;stroke-width:1.0;"/><text fill="#000000" font-family="sans-serif" font-size="13" lengthAdjust="spacing" textLength="138" x="198.5" y="326.4951">cancelamento permitido</text></g><!--link concluida to *end*--><g id="link_concluida_*end*"><path d="M219.07,554.46 C235.43,574.92 254.0631,598.1938 265.0731,611.9638 " fill="none" id="concluida-to-*end*" style="stroke:#181818;stroke-width:1.0;"/><polygon fill="#181818" points="268.82,616.65,266.3238,607.1227,265.6976,612.7448,260.0755,612.1186,268.82,616.65" style="stroke:#181818;stroke-width:1.0;"/></g><!--link cancelada to *end*--><g id="link_cancelada_*end*"><path d="M354.58,410.23 C335.61,461.74 294.0526,574.6093 281.2026,609.5193 " fill="none" id="cancelada-to-*end*" style="stroke:#181818;stroke-width:1.0;"/><polygon fill="#181818" points="279.13,615.15,285.9927,608.0857,280.8572,610.4578,278.4851,605.3223,279.13,615.15" style="stroke:#181818;stroke-width:1.0;"/></g><!--SRC=[ZP0zRiCm38Ltdu9RVm1Ve4ENeAT8Yk11OX825kbAT8UUlhBWr6wG8Hln-3toaK_qKHpH2lMqiu4TtVxra_h-dH1O7FH6dCRC1OlGBNf3ZW59z69RoYSCybEvl-QCSZg6DlyUkZPdD9Y6OPAuHK-Y3JteypdZ6nJXs3Mmm5wseG8qy81cN-h4waOZvoGkqMwYFM1O8ys6-g5kDLqLDMVAShuusUdVlQ0HsINNq5-Ja56eaoBie8gwnI9JWfJhylmB]--></g></svg>