<?xml version="1.0" encoding="us-ascii" standalone="no"?><svg xmlns="http://www.w3.org/2000/svg" xmlns:xlink="http://www.w3.org/1999/xlink" contentStyleType="text/css" height="371px" preserveAspectRatio="none" style="width:298px;height:371px;background:#FFFFFF;" version="1.1" viewBox="0 0 298 371" width="298px" zoomAndPan="magnify"><defs/><g><ellipse cx="110" cy="16" fill="#222222" rx="10" ry="10" style="stroke:#222222;stroke-width:1.0;"/><g id="aberta"><rect fill="#F1F1F1" height="50" rx="12.5" ry="12.5" style="stroke:#181818;stroke-width:0.5;" width="61" x="79.5" y="104"/><line style="stroke:#181818;stroke-width:0.5;" x1="79.5" x2="140.5" y1="131.6094" y2="131.6094"/><text fill="#000000" font-family="sans-serif" font-size="14" lengthAdjust="spacing" textLength="41" x="89.5" y="123.5332">aberta</text></g><g id="convertida"><rect fill="#F1F1F1" height="50" rx="12.5" ry="12.5" style="stroke:#181818;stroke-width:0.5;" width="86" x="7" y="232"/><line style="stroke:#181818;stroke-width:0.5;" x1="7" x2="93" y1="259.6094" y2="259.6094"/><text fill="#000000" font-family="sans-serif" font-size="14" lengthAdjust="spacing" textLength="66" x="17" y="251.5332">convertida</text></g><g id="encerrada"><rect fill="#F1F1F1" height="50" rx="12.5" ry="12.5" style="stroke:#181818;stroke-width:0.5;" width="85" x="142.5" y="232"/><line style="stroke:#181818;stroke-width:0.5;" x1="142.5" x2="227.5" y1="259.6094" y2="259.6094"/><text fill="#000000" font-family="sans-serif" font-size="14" lengthAdjust="spacing" textLength="65" x="152.5" y="251.5332">encerrada</text></g><ellipse cx="110" cy="354" fill="none" rx="11" ry="11" style="stroke:#222222;stroke-width:1.0;"/><ellipse cx="110" cy="354" fill="#222222" rx="6" ry="6" style="stroke:#222222;stroke-width:1.0;"/><!--link *start* to aberta--><g id="link_*start*_aberta"><path d="M110,26.08 C110,42.86 110,73.22 110,97.65 " fill="none" id="*start*-to-aberta" style="stroke:#181818;stroke-width:1.0;"/><polygon fill="#181818" points="110,103.65,114,94.65,110,98.65,106,94.65,110,103.65" style="stroke:#181818;stroke-width:1.0;"/><text fill="#000000" font-family="sans-serif" font-size="13" lengthAdjust="spacing" textLength="154" x="111" y="70.4951">empresa inicia negociacao</text></g><!--link aberta to convertida--><g id="link_aberta_convertida"><path d="M79.29,139.01 C57.94,147.06 31.07,161.18 18,184 C9.23,199.31 13.9197,212.614 24.1997,226.864 " fill="none" id="aberta-to-convertida" style="stroke:#181818;stroke-width:1.0;"/><polygon fill="#181818" points="27.71,231.73,25.6885,222.0908,24.7847,227.675,19.2005,226.7713,27.71,231.73" style="stroke:#181818;stroke-width:1.0;"/><text fill="#000000" font-family="sans-serif" font-size="13" lengthAdjust="spacing" textLength="137" x="19" y="198.4951">empresa vence o aceite</text></g><!--link aberta to encerrada--><g id="link_aberta_encerrada"><path d="M137.15,154.2 C145.7,162.91 154.58,173.27 161,184 C169.86,198.81 174.4154,211.5169 178.2354,226.0569 " fill="none" id="aberta-to-encerrada" style="stroke:#181818;stroke-width:1.0;"/><polygon fill="#181818" points="179.76,231.86,181.3418,222.139,178.4895,227.0241,173.6044,224.1718,179.76,231.86" style="stroke:#181818;stroke-width:1.0;"/><text fill="#000000" font-family="sans-serif" font-size="13" lengthAdjust="spacing" textLength="120" x="170" y="198.4951">outra empresa vence</text></g><!--link convertida to *end*--><g id="link_convertida_*end*"><path d="M65.45,282.46 C78.23,302.7 92.4465,325.2068 101.2365,339.1268 " fill="none" id="convertida-to-*end*" style="stroke:#181818;stroke-width:1.0;"/><polygon fill="#181818" points="104.44,344.2,103.0168,334.4545,101.7704,339.9723,96.2526,338.7259,104.44,344.2" style="stroke:#181818;stroke-width:1.0;"/></g><!--link encerrada to *end*--><g id="link_encerrada_*end*"><path d="M165.69,282.46 C149.54,302.92 131.1776,326.1705 120.3076,339.9405 " fill="none" id="encerrada-to-*end*" style="stroke:#181818;stroke-width:1.0;"/><polygon fill="#181818" points="116.59,344.65,125.3061,340.0642,119.688,340.7254,119.0268,335.1074,116.59,344.65" style="stroke:#181818;stroke-width:1.0;"/></g><!--SRC=[LOux3W8n34Jxd68wFb8kG463E04beXYo5aI263bcpq-ohCHIMPfvR-GLZjKvQ4N4GSieLddIHqxPcQXOfpiTBvF89Dbb4yxR2sBSWrSn9tQGPwihaKkpY28tRRV9OKOwdQPjpyFI6AKaWU8xlSHxOSQ9rhSR_vsmcEju-odyb3dv0000]--></g></svg>