<?xml version="1.0" encoding="us-ascii" standalone="no"?><svg xmlns="http://www.w3.org/2000/svg" xmlns:xlink="http://www.w3.org/1999/xlink" contentStyleType="text/css" height="489px" preserveAspectRatio="none" style="width:1330px;height:489px;background:#FFFFFF;" version="1.1" viewBox="0 0 1330 489" width="1330px" zoomAndPan="magnify"><defs/><g><!--cluster src--><g id="cluster_src"><path d="M202.01,6 L225.01,6 A3.75,3.75 0 0 1 227.51,8.5 L234.51,29.6094 L1321.01,29.6094 A2.5,2.5 0 0 1 1323.51,32.1094 L1323.51,423.5 A2.5,2.5 0 0 1 1321.01,426 L202.01,426 A2.5,2.5 0 0 1 199.51,423.5 L199.51,8.5 A2.5,2.5 0 0 1 202.01,6 " fill="none" style="stroke:#000000;stroke-width:1.5;"/><line style="stroke:#000000;stroke-width:1.5;" x1="199.51" x2="234.51" y1="29.6094" y2="29.6094"/><text fill="#000000" font-family="sans-serif" font-size="14" font-weight="bold" lengthAdjust="spacing" textLength="22" x="203.51" y="22.5332">src</text></g><!--cluster app--><g id="cluster_app"><path d="M322.01,58 L349.01,58 A3.75,3.75 0 0 1 351.51,60.5 L358.51,81.6094 L740.01,81.6094 A2.5,2.5 0 0 1 742.51,84.1094 L742.51,290.5 A2.5,2.5 0 0 1 740.01,293 L322.01,293 A2.5,2.5 0 0 1 319.51,290.5 L319.51,60.5 A2.5,2.5 0 0 1 322.01,58 " fill="none" style="stroke:#000000;stroke-width:1.5;"/><line style="stroke:#000000;stroke-width:1.5;" x1="319.51" x2="358.51" y1="81.6094" y2="81.6094"/><text fill="#000000" font-family="sans-serif" font-size="14" font-weight="bold" lengthAdjust="spacing" textLength="26" x="323.51" y="74.5332">app</text></g><!--cluster components--><g id="cluster_components"><path d="M937.01,184 L1025.01,184 A3.75,3.75 0 0 1 1027.51,186.5 L1034.51,207.6094 L1289.01,207.6094 A2.5,2.5 0 0 1 1291.51,210.1094 L1291.51,391.5 A2.5,2.5 0 0 1 1289.01,394 L937.01,394 A2.5,2.5 0 0 1 934.51,391.5 L934.51,186.5 A2.5,2.5 0 0 1 937.01,184 " fill="none" style="stroke:#000000;stroke-width:1.5;"/><line style="stroke:#000000;stroke-width:1.5;" x1="934.51" x2="1034.51" y1="207.6094" y2="207.6094"/><text fill="#000000" font-family="sans-serif" font-size="14" font-weight="bold" lengthAdjust="spacing" textLength="87" x="938.51" y="200.5332">components</text></g><!--entity services--><g id="elem_services"><path d="M769.51,228 L843.51,228 A3.75,3.75 0 0 1 846.01,230.5 L853.01,251.6094 L867.51,251.6094 A2.5,2.5 0 0 1 870.01,254.1094 L870.01,266.1094 A2.5,2.5 0 0 1 867.51,268.6094 L769.51,268.6094 A2.5,2.5 0 0 1 767.01,266.1094 L767.01,230.5 A2.5,2.5 0 0 1 769.51,228 " fill="#F1F1F1" style="stroke:#181818;stroke-width:0.5;"/><line style="stroke:#181818;stroke-width:0.5;" x1="767.01" x2="853.01" y1="251.6094" y2="251.6094"/><text fill="#000000" font-family="sans-serif" font-size="14" font-weight="bold" lengthAdjust="spacing" textLength="61" x="777.01" y="245.5332">services</text></g><!--entity lib--><g id="elem_lib"><path d="M791.51,329 L821.51,329 A3.75,3.75 0 0 1 824.01,331.5 L831.01,352.6094 L845.51,352.6094 A2.5,2.5 0 0 1 848.01,355.1094 L848.01,367.1094 A2.5,2.5 0 0 1 845.51,369.6094 L791.51,369.6094 A2.5,2.5 0 0 1 789.01,367.1094 L789.01,331.5 A2.5,2.5 0 0 1 791.51,329 " fill="#F1F1F1" style="stroke:#181818;stroke-width:0.5;"/><line style="stroke:#181818;stroke-width:0.5;" x1="789.01" x2="831.01" y1="352.6094" y2="352.6094"/><text fill="#000000" font-family="sans-serif" font-size="14" font-weight="bold" lengthAdjust="spacing" textLength="17" x="799.01" y="346.5332">lib</text></g><!--entity types--><g id="elem_types"><path d="M218.01,110.5 L269.01,110.5 A3.75,3.75 0 0 1 271.51,113 L278.51,134.1094 L293.01,134.1094 A2.5,2.5 0 0 1 295.51,136.6094 L295.51,148.6094 A2.5,2.5 0 0 1 293.01,151.1094 L218.01,151.1094 A2.5,2.5 0 0 1 215.51,148.6094 L215.51,113 A2.5,2.5 0 0 1 218.01,110.5 " fill="#F1F1F1" style="stroke:#181818;stroke-width:0.5;"/><line style="stroke:#181818;stroke-width:0.5;" x1="215.51" x2="278.51" y1="134.1094" y2="134.1094"/><text fill="#000000" font-family="sans-serif" font-size="14" font-weight="bold" lengthAdjust="spacing" textLength="38" x="225.51" y="128.0332">types</text></g><!--entity (auth)--><g id="elem_(auth)"><path d="M346.51,102 L400.51,102 A3.75,3.75 0 0 1 403.01,104.5 L410.01,125.6094 L424.51,125.6094 A2.5,2.5 0 0 1 427.01,128.1094 L427.01,157.7188 A2.5,2.5 0 0 1 424.51,160.2188 L346.51,160.2188 A2.5,2.5 0 0 1 344.01,157.7188 L344.01,104.5 A2.5,2.5 0 0 1 346.51,102 " fill="#F1F1F1" style="stroke:#181818;stroke-width:0.5;"/><line style="stroke:#181818;stroke-width:0.5;" x1="344.01" x2="410.01" y1="125.6094" y2="125.6094"/><text fill="#000000" font-family="sans-serif" font-size="14" font-weight="bold" lengthAdjust="spacing" textLength="41" x="354.01" y="119.5332">(auth)</text><text fill="#000000" font-family="sans-serif" font-size="14" lengthAdjust="spacing" textLength="28" x="354.01" y="147.1426">auth</text></g><!--entity admin--><g id="elem_admin"><path d="M465.01,110.5 L520.01,110.5 A3.75,3.75 0 0 1 522.51,113 L529.51,134.1094 L544.01,134.1094 A2.5,2.5 0 0 1 546.51,136.6094 L546.51,148.6094 A2.5,2.5 0 0 1 544.01,151.1094 L465.01,151.1094 A2.5,2.5 0 0 1 462.51,148.6094 L462.51,113 A2.5,2.5 0 0 1 465.01,110.5 " fill="#F1F1F1" style="stroke:#181818;stroke-width:0.5;"/><line style="stroke:#181818;stroke-width:0.5;" x1="462.51" x2="529.51" y1="134.1094" y2="134.1094"/><text fill="#000000" font-family="sans-serif" font-size="14" font-weight="bold" lengthAdjust="spacing" textLength="42" x="472.51" y="128.0332">admin</text></g><!--entity dashboard--><g id="elem_dashboard"><path d="M584.51,110.5 L672.51,110.5 A3.75,3.75 0 0 1 675.01,113 L682.01,134.1094 L696.51,134.1094 A2.5,2.5 0 0 1 699.01,136.6094 L699.01,148.6094 A2.5,2.5 0 0 1 696.51,151.1094 L584.51,151.1094 A2.5,2.5 0 0 1 582.01,148.6094 L582.01,113 A2.5,2.5 0 0 1 584.51,110.5 " fill="#F1F1F1" style="stroke:#181818;stroke-width:0.5;"/><line style="stroke:#181818;stroke-width:0.5;" x1="582.01" x2="682.01" y1="134.1094" y2="134.1094"/><text fill="#000000" font-family="sans-serif" font-size="14" font-weight="bold" lengthAdjust="spacing" textLength="75" x="592.01" y="128.0332">dashboard</text></g><!--entity empresa--><g id="elem_empresa"><path d="M346.51,228 L420.51,228 A3.75,3.75 0 0 1 423.01,230.5 L430.01,251.6094 L444.51,251.6094 A2.5,2.5 0 0 1 447.01,254.1094 L447.01,266.1094 A2.5,2.5 0 0 1 444.51,268.6094 L346.51,268.6094 A2.5,2.5 0 0 1 344.01,266.1094 L344.01,230.5 A2.5,2.5 0 0 1 346.51,228 " fill="#F1F1F1" style="stroke:#181818;stroke-width:0.5;"/><line style="stroke:#181818;stroke-width:0.5;" x1="344.01" x2="430.01" y1="251.6094" y2="251.6094"/><text fill="#000000" font-family="sans-serif" font-size="14" font-weight="bold" lengthAdjust="spacing" textLength="61" x="354.01" y="245.5332">empresa</text></g><!--entity me--><g id="elem_me"><path d="M484.51,228 L518.51,228 A3.75,3.75 0 0 1 521.01,230.5 L528.01,251.6094 L542.51,251.6094 A2.5,2.5 0 0 1 545.01,254.1094 L545.01,266.1094 A2.5,2.5 0 0 1 542.51,268.6094 L484.51,268.6094 A2.5,2.5 0 0 1 482.01,266.1094 L482.01,230.5 A2.5,2.5 0 0 1 484.51,228 " fill="#F1F1F1" style="stroke:#181818;stroke-width:0.5;"/><line style="stroke:#181818;stroke-width:0.5;" x1="482.01" x2="528.01" y1="251.6094" y2="251.6094"/><text fill="#000000" font-family="sans-serif" font-size="14" font-weight="bold" lengthAdjust="spacing" textLength="21" x="492.01" y="245.5332">me</text></g><!--entity api--><g id="elem_api"><path d="M582.51,228 L616.51,228 A3.75,3.75 0 0 1 619.01,230.5 L626.01,251.6094 L640.51,251.6094 A2.5,2.5 0 0 1 643.01,254.1094 L643.01,266.1094 A2.5,2.5 0 0 1 640.51,268.6094 L582.51,268.6094 A2.5,2.5 0 0 1 580.01,266.1094 L580.01,230.5 A2.5,2.5 0 0 1 582.51,228 " fill="#F1F1F1" style="stroke:#181818;stroke-width:0.5;"/><line style="stroke:#181818;stroke-width:0.5;" x1="580.01" x2="626.01" y1="251.6094" y2="251.6094"/><text fill="#000000" font-family="sans-serif" font-size="14" font-weight="bold" lengthAdjust="spacing" textLength="21" x="590.01" y="245.5332">api</text></g><!--entity cards--><g id="elem_cards"><path d="M980.51,228 L1032.51,228 A3.75,3.75 0 0 1 1035.01,230.5 L1042.01,251.6094 L1056.51,251.6094 A2.5,2.5 0 0 1 1059.01,254.1094 L1059.01,266.1094 A2.5,2.5 0 0 1 1056.51,268.6094 L980.51,268.6094 A2.5,2.5 0 0 1 978.01,266.1094 L978.01,230.5 A2.5,2.5 0 0 1 980.51,228 " fill="#F1F1F1" style="stroke:#181818;stroke-width:0.5;"/><line style="stroke:#181818;stroke-width:0.5;" x1="978.01" x2="1042.01" y1="251.6094" y2="251.6094"/><text fill="#000000" font-family="sans-serif" font-size="14" font-weight="bold" lengthAdjust="spacing" textLength="39" x="988.01" y="245.5332">cards</text></g><!--entity forms--><g id="elem_forms"><path d="M1097.01,228 L1150.01,228 A3.75,3.75 0 0 1 1152.51,230.5 L1159.51,251.6094 L1174.01,251.6094 A2.5,2.5 0 0 1 1176.51,254.1094 L1176.51,266.1094 A2.5,2.5 0 0 1 1174.01,268.6094 L1097.01,268.6094 A2.5,2.5 0 0 1 1094.51,266.1094 L1094.51,230.5 A2.5,2.5 0 0 1 1097.01,228 " fill="#F1F1F1" style="stroke:#181818;stroke-width:0.5;"/><line style="stroke:#181818;stroke-width:0.5;" x1="1094.51" x2="1159.51" y1="251.6094" y2="251.6094"/><text fill="#000000" font-family="sans-serif" font-size="14" font-weight="bold" lengthAdjust="spacing" textLength="40" x="1104.51" y="245.5332">forms</text></g><!--entity ui--><g id="elem_ui"><path d="M1214.51,228 L1240.51,228 A3.75,3.75 0 0 1 1243.01,230.5 L1250.01,251.6094 L1264.51,251.6094 A2.5,2.5 0 0 1 1267.01,254.1094 L1267.01,266.1094 A2.5,2.5 0 0 1 1264.51,268.6094 L1214.51,268.6094 A2.5,2.5 0 0 1 1212.01,266.1094 L1212.01,230.5 A2.5,2.5 0 0 1 1214.51,228 " fill="#F1F1F1" style="stroke:#181818;stroke-width:0.5;"/><line style="stroke:#181818;stroke-width:0.5;" x1="1212.01" x2="1250.01" y1="251.6094" y2="251.6094"/><text fill="#000000" font-family="sans-serif" font-size="14" font-weight="bold" lengthAdjust="spacing" textLength="13" x="1222.01" y="245.5332">ui</text></g><!--entity messages--><g id="elem_messages"><path d="M980.51,329 L1064.51,329 A3.75,3.75 0 0 1 1067.01,331.5 L1074.01,352.6094 L1088.51,352.6094 A2.5,2.5 0 0 1 1091.01,355.1094 L1091.01,367.1094 A2.5,2.5 0 0 1 1088.51,369.6094 L980.51,369.6094 A2.5,2.5 0 0 1 978.01,367.1094 L978.01,331.5 A2.5,2.5 0 0 1 980.51,329 " fill="#F1F1F1" style="stroke:#181818;stroke-width:0.5;"/><line style="stroke:#181818;stroke-width:0.5;" x1="978.01" x2="1074.01" y1="352.6094" y2="352.6094"/><text fill="#000000" font-family="sans-serif" font-size="14" font-weight="bold" lengthAdjust="spacing" textLength="71" x="988.01" y="346.5332">messages</text></g><!--entity filters--><g id="elem_filters"><path d="M1128.51,329 L1182.51,329 A3.75,3.75 0 0 1 1185.01,331.5 L1192.01,352.6094 L1206.51,352.6094 A2.5,2.5 0 0 1 1209.01,355.1094 L1209.01,367.1094 A2.5,2.5 0 0 1 1206.51,369.6094 L1128.51,369.6094 A2.5,2.5 0 0 1 1126.01,367.1094 L1126.01,331.5 A2.5,2.5 0 0 1 1128.51,329 " fill="#F1F1F1" style="stroke:#181818;stroke-width:0.5;"/><line style="stroke:#181818;stroke-width:0.5;" x1="1126.01" x2="1192.01" y1="352.6094" y2="352.6094"/><text fill="#000000" font-family="sans-serif" font-size="14" font-weight="bold" lengthAdjust="spacing" textLength="41" x="1136.01" y="346.5332">filters</text></g><!--entity packages/shared--><g id="elem_packages/shared"><path d="M41.01,442 L174.01,442 A3.75,3.75 0 0 1 176.51,444.5 L183.51,465.6094 L198.01,465.6094 A2.5,2.5 0 0 1 200.51,468.1094 L200.51,480.1094 A2.5,2.5 0 0 1 198.01,482.6094 L41.01,482.6094 A2.5,2.5 0 0 1 38.51,480.1094 L38.51,444.5 A2.5,2.5 0 0 1 41.01,442 " fill="#F1F1F1" style="stroke:#181818;stroke-width:0.5;"/><line style="stroke:#181818;stroke-width:0.5;" x1="38.51" x2="183.51" y1="465.6094" y2="465.6094"/><text fill="#000000" font-family="sans-serif" font-size="14" font-weight="bold" lengthAdjust="spacing" textLength="120" x="48.51" y="459.5332">packages/shared</text></g><!--entity prisma--><g id="elem_prisma"><path d="M776.51,442 L836.51,442 A3.75,3.75 0 0 1 839.01,444.5 L846.01,465.6094 L860.51,465.6094 A2.5,2.5 0 0 1 863.01,468.1094 L863.01,480.1094 A2.5,2.5 0 0 1 860.51,482.6094 L776.51,482.6094 A2.5,2.5 0 0 1 774.01,480.1094 L774.01,444.5 A2.5,2.5 0 0 1 776.51,442 " fill="#F1F1F1" style="stroke:#181818;stroke-width:0.5;"/><line style="stroke:#181818;stroke-width:0.5;" x1="774.01" x2="846.01" y1="465.6094" y2="465.6094"/><text fill="#000000" font-family="sans-serif" font-size="14" font-weight="bold" lengthAdjust="spacing" textLength="47" x="784.01" y="459.5332">prisma</text></g><!--entity apps/mobile--><g id="elem_apps/mobile"><path d="M58.51,329 L156.51,329 A3.75,3.75 0 0 1 159.01,331.5 L166.01,352.6094 L180.51,352.6094 A2.5,2.5 0 0 1 183.01,355.1094 L183.01,367.1094 A2.5,2.5 0 0 1 180.51,369.6094 L58.51,369.6094 A2.5,2.5 0 0 1 56.01,367.1094 L56.01,331.5 A2.5,2.5 0 0 1 58.51,329 " fill="#F1F1F1" style="stroke:#181818;stroke-width:0.5;"/><line style="stroke:#181818;stroke-width:0.5;" x1="56.01" x2="166.01" y1="352.6094" y2="352.6094"/><text fill="#000000" font-family="sans-serif" font-size="14" font-weight="bold" lengthAdjust="spacing" textLength="85" x="66.01" y="346.5332">apps/mobile</text></g><!--link app to services--><g id="link_app_services"><path d="M742.7301,143.3001 C742.8041,143.4019 742.8786,143.5043 742.9534,143.6072 C747.7444,150.195 754.2013,159.0738 761.3325,168.88 C775.595,188.4925 789.0264,206.9623 800.7514,223.0873 " fill="none" id="app-to-services" style="stroke:#181818;stroke-width:1.0;stroke-dasharray:7.0,7.0;"/><polygon fill="#181818" points="804.28,227.94,802.2223,218.3085,801.3395,223.896,795.752,223.0133,804.28,227.94" style="stroke:#181818;stroke-width:1.0;"/></g><!--link services to lib--><g id="link_services_lib"><path d="M818.51,269.06 C818.51,286.42 818.51,305.64 818.51,322.98 " fill="none" id="services-to-lib" style="stroke:#181818;stroke-width:1.0;stroke-dasharray:7.0,7.0;"/><polygon fill="#181818" points="818.51,328.98,822.51,319.98,818.51,323.98,814.51,319.98,818.51,328.98" style="stroke:#181818;stroke-width:1.0;"/></g><!--link app to components--><g id="link_app_components"><path d="M742.7334,132.1455 C743.0413,132.1526 743.3569,132.1601 743.6802,132.1679 C748.8529,132.2932 755.9882,132.5073 764.4964,132.8691 C781.5128,133.5925 804.0206,134.9063 827.3013,137.28 C873.8625,142.0275 923.515,151.015 938.51,168 C941.345,171.2113 943.552,174.8105 945.2416,178.6566 C945.664,179.6182 946.054,180.5951 946.4135,181.5853 C946.5932,182.0804 946.7653,182.5788 946.9299,183.0803 C947.0122,183.331 945.307,177.8544 945.3856,178.1066 " fill="none" id="app-to-components" style="stroke:#181818;stroke-width:1.0;stroke-dasharray:7.0,7.0;"/><polygon fill="#181818" points="947.1713,183.8347,948.3115,174.052,945.6832,179.0612,940.674,176.433,947.1713,183.8347" style="stroke:#181818;stroke-width:1.0;"/></g><!--link app to lib--><g id="link_app_lib"><path d="M742.5856,132.6191 C742.7163,132.6299 742.8485,132.6409 742.9821,132.652 C743.5164,132.6965 744.073,132.7434 744.651,132.7927 C745.8069,132.8914 747.0486,132.9999 748.3688,133.1185 C751.0092,133.3556 753.9641,133.6331 757.1773,133.9533 C770.0303,135.2341 787.0169,137.1981 804.5463,139.9962 C839.605,145.5925 876.835,154.525 887.51,168 C926.42,217.13 918.94,254.79 887.51,309 C878.99,323.69 868.2649,331.0637 853.6649,337.1737 " fill="none" id="app-to-lib" style="stroke:#181818;stroke-width:1.0;stroke-dasharray:7.0,7.0;"/><polygon fill="#181818" points="848.13,339.49,857.9765,339.7055,852.7424,337.5597,854.8881,332.3256,848.13,339.49" style="stroke:#181818;stroke-width:1.0;"/></g><!--link lib to prisma--><g id="link_lib_prisma"><path d="M818.51,370.09 C818.51,390.25 818.51,415.5 818.51,435.73 " fill="none" id="lib-to-prisma" style="stroke:#181818;stroke-width:1.0;stroke-dasharray:7.0,7.0;"/><polygon fill="#181818" points="818.51,441.73,822.51,432.73,818.51,436.73,814.51,432.73,818.51,441.73" style="stroke:#181818;stroke-width:1.0;"/></g><!--link services to packages/shared--><g id="link_services_packages/shared"><path d="M793.04,269.04 C773.13,283.07 744.12,300.88 715.51,309 C679.31,319.28 64.72,302 38.51,329 C6,362.48 11.33,396.07 38.51,434 C40.59,436.9 38.474,435.5281 41.124,437.8581 " fill="none" id="services-to-packages/shared" style="stroke:#181818;stroke-width:1.0;stroke-dasharray:7.0,7.0;"/><polygon fill="#181818" points="45.63,441.82,41.5123,432.8732,41.875,438.5185,36.2298,438.8812,45.63,441.82" style="stroke:#181818;stroke-width:1.0;"/></g><!--link lib to packages/shared--><g id="link_lib_packages/shared"><path d="M788.92,355.2 C688.1,371.21 361.5858,423.0591 206.4658,447.6891 " fill="none" id="lib-to-packages/shared" style="stroke:#181818;stroke-width:1.0;stroke-dasharray:7.0,7.0;"/><polygon fill="#181818" points="200.54,448.63,210.0559,451.1692,205.4781,447.8459,208.8014,443.2681,200.54,448.63" style="stroke:#181818;stroke-width:1.0;"/></g><!--link apps/mobile to packages/shared--><g id="link_apps/mobile_packages/shared"><path d="M119.51,370.09 C119.51,390.25 119.51,415.5 119.51,435.73 " fill="none" id="apps/mobile-to-packages/shared" style="stroke:#181818;stroke-width:1.0;stroke-dasharray:7.0,7.0;"/><polygon fill="#181818" points="119.51,441.73,123.51,432.73,119.51,436.73,115.51,432.73,119.51,441.73" style="stroke:#181818;stroke-width:1.0;"/></g><!--SRC=[RP1BRiCm34JtEWMHJTj5unjqqtQT0Za1BJ4s4Ui3KIcG5hbxvJZ-gWi1rEEGGymJV30s4Is28VX2xHC9L7283Jh-GOqUZ0Vj3JSUNk7p_U189rHoPXSm3q90VSQ6ZkdQ4PnyPoWgzO2mawXtyAi09e8X36J1dl6IsfVT6gAnx3RCeBIrnsWsd6o89BYXbhOh0_Vajhn7Unky8vUaE4jd8zciEFbej-p2XR58BefPxX95AKuGYj-i1_a4EwvN_tGDlU8sP_ief98M8-L8vavaiRW0ENIfhA-vov6e_8Fz_Wr6NpKMTvgD9yKSpeJwTdxtUl1PZvTdZUgoixhhVyqV]--></g></svg>