<?xml version="1.0" encoding="us-ascii" standalone="no"?><svg xmlns="http://www.w3.org/2000/svg" xmlns:xlink="http://www.w3.org/1999/xlink" contentStyleType="text/css" height="681px" preserveAspectRatio="none" style="width:1121px;height:681px;background:#FFFFFF;" version="1.1" viewBox="0 0 1121 681" width="1121px" zoomAndPan="magnify"><defs/><g><text fill="#000000" font-family="sans-serif" font-size="14" font-weight="bold" lengthAdjust="spacing" textLength="234" x="444.75" y="29.5332">SEQ-13 - Avaliar Coleta Concluida</text><rect fill="none" height="246.6484" style="stroke:#000000;stroke-width:1.5;" width="1104.5" x="10" y="335.6797"/><line style="stroke:#181818;stroke-width:0.5;stroke-dasharray:5.0,5.0;" x1="49" x2="49" y1="121.2188" y2="599.3281"/><line style="stroke:#181818;stroke-width:0.5;stroke-dasharray:5.0,5.0;" x1="307.5" x2="307.5" y1="121.2188" y2="599.3281"/><line style="stroke:#181818;stroke-width:0.5;stroke-dasharray:5.0,5.0;" x1="524.5" x2="524.5" y1="121.2188" y2="599.3281"/><line style="stroke:#181818;stroke-width:0.5;stroke-dasharray:5.0,5.0;" x1="698.5" x2="698.5" y1="121.2188" y2="599.3281"/><line style="stroke:#181818;stroke-width:0.5;stroke-dasharray:5.0,5.0;" x1="934.5" x2="934.5" y1="121.2188" y2="599.3281"/><line style="stroke:#181818;stroke-width:0.5;stroke-dasharray:5.0,5.0;" x1="1062.5" x2="1062.5" y1="121.2188" y2="599.3281"/><text fill="#000000" font-family="sans-serif" font-size="14" lengthAdjust="spacing" textLength="53" x="20" y="118.1426">Cidadao</text><ellipse cx="49.5" cy="52.1094" fill="#E2E2F0" rx="8" ry="8" style="stroke:#181818;stroke-width:0.5;"/><path d="M49.5,60.1094 L49.5,87.1094 M36.5,68.1094 L62.5,68.1094 M49.5,87.1094 L36.5,102.1094 M49.5,87.1094 L62.5,102.1094 " fill="none" style="stroke:#181818;stroke-width:0.5;"/><text fill="#000000" font-family="sans-serif" font-size="14" lengthAdjust="spacing" textLength="53" x="20" y="612.8613">Cidadao</text><ellipse cx="49.5" cy="624.4375" fill="#E2E2F0" rx="8" ry="8" style="stroke:#181818;stroke-width:0.5;"/><path d="M49.5,632.4375 L49.5,659.4375 M36.5,640.4375 L62.5,640.4375 M49.5,659.4375 L36.5,674.4375 M49.5,659.4375 L62.5,674.4375 " fill="none" style="stroke:#181818;stroke-width:0.5;"/><rect fill="#E2E2F0" height="31.6094" rx="2.5" ry="2.5" style="stroke:#181818;stroke-width:0.5;" width="150" x="232.5" y="88.6094"/><text fill="#000000" font-family="sans-serif" font-size="14" lengthAdjust="spacing" textLength="136" x="239.5" y="110.1426">POST /api/avaliacoes</text><rect fill="#E2E2F0" height="31.6094" rx="2.5" ry="2.5" style="stroke:#181818;stroke-width:0.5;" width="150" x="232.5" y="598.3281"/><text fill="#000000" font-family="sans-serif" font-size="14" lengthAdjust="spacing" textLength="136" x="239.5" y="619.8613">POST /api/avaliacoes</text><rect fill="#E2E2F0" height="31.6094" rx="2.5" ry="2.5" style="stroke:#181818;stroke-width:0.5;" width="206" x="421.5" y="88.6094"/><text fill="#000000" font-family="sans-serif" font-size="14" lengthAdjust="spacing" textLength="192" x="428.5" y="110.1426">avaliacaoCreateSchema (Zod)</text><rect fill="#E2E2F0" height="31.6094" rx="2.5" ry="2.5" style="stroke:#181818;stroke-width:0.5;" width="206" x="421.5" y="598.3281"/><text fill="#000000" font-family="sans-serif" font-size="14" lengthAdjust="spacing" textLength="192" x="428.5" y="619.8613">avaliacaoCreateSchema (Zod)</text><rect fill="#E2E2F0" height="49.2188" rx="2.5" ry="2.5" style="stroke:#181818;stroke-width:0.5;" width="123" x="637.5" y="71"/><text fill="#000000" font-family="sans-serif" font-size="14" lengthAdjust="spacing" textLength="109" x="644.5" y="92.5332">avaliacao.service</text><text fill="#000000" font-family="sans-serif" font-size="14" lengthAdjust="spacing" textLength="89" x="654.5" y="110.1426">criarAvaliacao</text><rect fill="#E2E2F0" height="49.2188" rx="2.5" ry="2.5" style="stroke:#181818;stroke-width:0.5;" width="123" x="637.5" y="598.3281"/><text fill="#000000" font-family="sans-serif" font-size="14" lengthAdjust="spacing" textLength="109" x="644.5" y="619.8613">avaliacao.service</text><text fill="#000000" font-family="sans-serif" font-size="14" lengthAdjust="spacing" textLength="89" x="654.5" y="637.4707">criarAvaliacao</text><rect fill="#E2E2F0" height="31.6094" rx="2.5" ry="2.5" style="stroke:#181818;stroke-width:0.5;" width="131" x="869.5" y="88.6094"/><text fill="#000000" font-family="sans-serif" font-size="14" lengthAdjust="spacing" textLength="117" x="876.5" y="110.1426">notificacao.service</text><rect fill="#E2E2F0" height="31.6094" rx="2.5" ry="2.5" style="stroke:#181818;stroke-width:0.5;" width="131" x="869.5" y="598.3281"/><text fill="#000000" font-family="sans-serif" font-size="14" lengthAdjust="spacing" textLength="117" x="876.5" y="619.8613">notificacao.service</text><text fill="#000000" font-family="sans-serif" font-size="14" lengthAdjust="spacing" textLength="77" x="1021.5" y="118.1426">PostgreSQL</text><path d="M1045,67.6094 C1045,57.6094 1063,57.6094 1063,57.6094 C1063,57.6094 1081,57.6094 1081,67.6094 L1081,93.6094 C1081,103.6094 1063,103.6094 1063,103.6094 C1063,103.6094 1045,103.6094 1045,93.6094 L1045,67.6094 " fill="#E2E2F0" style="stroke:#181818;stroke-width:1.5;"/><path d="M1045,67.6094 C1045,77.6094 1063,77.6094 1063,77.6094 C1063,77.6094 1081,77.6094 1081,67.6094 " fill="none" style="stroke:#181818;stroke-width:1.5;"/><text fill="#000000" font-family="sans-serif" font-size="14" lengthAdjust="spacing" textLength="77" x="1021.5" y="612.8613">PostgreSQL</text><path d="M1045,625.9375 C1045,615.9375 1063,615.9375 1063,615.9375 C1063,615.9375 1081,615.9375 1081,625.9375 L1081,651.9375 C1081,661.9375 1063,661.9375 1063,661.9375 C1063,661.9375 1045,661.9375 1045,651.9375 L1045,625.9375 " fill="#E2E2F0" style="stroke:#181818;stroke-width:1.5;"/><path d="M1045,625.9375 C1045,635.9375 1063,635.9375 1063,635.9375 C1063,635.9375 1081,635.9375 1081,625.9375 " fill="none" style="stroke:#181818;stroke-width:1.5;"/><polygon fill="#181818" points="295.5,149.5703,305.5,153.5703,295.5,157.5703,299.5,153.5703" style="stroke:#181818;stroke-width:1.0;"/><line style="stroke:#181818;stroke-width:1.0;" x1="49.5" x2="301.5" y1="153.5703" y2="153.5703"/><text fill="#000000" font-family="sans-serif" font-size="13" lengthAdjust="spacing" textLength="234" x="56.5" y="148.7139">POST {coletaId, nota (1-5), comentario?}</text><polygon fill="#181818" points="512.5,179.9219,522.5,183.9219,512.5,187.9219,516.5,183.9219" style="stroke:#181818;stroke-width:1.0;"/><line style="stroke:#181818;stroke-width:1.0;" x1="307.5" x2="518.5" y1="183.9219" y2="183.9219"/><text fill="#000000" font-family="sans-serif" font-size="13" lengthAdjust="spacing" textLength="193" x="314.5" y="179.0654">valida nota e comentario (&lt;= 500)</text><polygon fill="#181818" points="687,210.2734,697,214.2734,687,218.2734,691,214.2734" style="stroke:#181818;stroke-width:1.0;"/><line style="stroke:#181818;stroke-width:1.0;" x1="307.5" x2="693" y1="214.2734" y2="214.2734"/><text fill="#000000" font-family="sans-serif" font-size="13" lengthAdjust="spacing" textLength="285" x="314.5" y="209.417">criarAvaliacao(coletaId, autorId, nota, comentario)</text><polygon fill="#181818" points="1051,240.625,1061,244.625,1051,248.625,1055,244.625" style="stroke:#181818;stroke-width:1.0;"/><line style="stroke:#181818;stroke-width:1.0;" x1="699" x2="1057" y1="244.625" y2="244.625"/><text fill="#000000" font-family="sans-serif" font-size="13" lengthAdjust="spacing" textLength="246" x="706" y="239.7686">findUnique coleta (+ solicitacao, company)</text><line style="stroke:#181818;stroke-width:1.0;" x1="699" x2="741" y1="307.6797" y2="307.6797"/><line style="stroke:#181818;stroke-width:1.0;" x1="741" x2="741" y1="307.6797" y2="320.6797"/><line style="stroke:#181818;stroke-width:1.0;" x1="700" x2="741" y1="320.6797" y2="320.6797"/><polygon fill="#181818" points="710,316.6797,700,320.6797,710,324.6797,706,320.6797" style="stroke:#181818;stroke-width:1.0;"/><text fill="#000000" font-family="sans-serif" font-size="13" lengthAdjust="spacing" textLength="98" x="706" y="270.1201">autorId == dono?</text><text fill="#000000" font-family="sans-serif" font-size="13" lengthAdjust="spacing" textLength="122" x="706" y="286.4717">status == concluida?</text><text fill="#000000" font-family="sans-serif" font-size="13" lengthAdjust="spacing" textLength="126" x="706" y="302.8232">sem avaliacao previa?</text><path d="M10,335.6797 L71,335.6797 L71,344.0313 L61,354.0313 L10,354.0313 L10,335.6797 " fill="#EEEEEE" style="stroke:#000000;stroke-width:1.5;"/><rect fill="none" height="246.6484" style="stroke:#000000;stroke-width:1.5;" width="1104.5" x="10" y="335.6797"/><text fill="#000000" font-family="sans-serif" font-size="13" font-weight="bold" lengthAdjust="spacing" textLength="16" x="25" y="350.1748">alt</text><text fill="#000000" font-family="sans-serif" font-size="11" font-weight="bold" lengthAdjust="spacing" textLength="79" x="86" y="349.0986">[regra violada]</text><polygon fill="#181818" points="318.5,372.3828,308.5,376.3828,318.5,380.3828,314.5,376.3828" style="stroke:#181818;stroke-width:1.0;"/><line style="stroke:#181818;stroke-width:1.0;stroke-dasharray:2.0,2.0;" x1="312.5" x2="698" y1="376.3828" y2="376.3828"/><text fill="#000000" font-family="sans-serif" font-size="13" lengthAdjust="spacing" textLength="31" x="324.5" y="371.5264">throw</text><polygon fill="#181818" points="60.5,402.7344,50.5,406.7344,60.5,410.7344,56.5,406.7344" style="stroke:#181818;stroke-width:1.0;"/><line style="stroke:#181818;stroke-width:1.0;stroke-dasharray:2.0,2.0;" x1="54.5" x2="306.5" y1="406.7344" y2="406.7344"/><text fill="#000000" font-family="sans-serif" font-size="13" lengthAdjust="spacing" textLength="21" x="66.5" y="401.8779">400</text><line style="stroke:#000000;stroke-width:1.0;stroke-dasharray:2.0,2.0;" x1="10" x2="1114.5" y1="415.7344" y2="415.7344"/><text fill="#000000" font-family="sans-serif" font-size="11" font-weight="bold" lengthAdjust="spacing" textLength="22" x="15" y="427.1533">[ok]</text><polygon fill="#181818" points="1051,448.9219,1061,452.9219,1051,456.9219,1055,452.9219" style="stroke:#181818;stroke-width:1.0;"/><line style="stroke:#181818;stroke-width:1.0;" x1="699" x2="1057" y1="452.9219" y2="452.9219"/><text fill="#000000" font-family="sans-serif" font-size="13" lengthAdjust="spacing" textLength="95" x="706" y="448.0654">create Avaliacao</text><polygon fill="#181818" points="923,479.2734,933,483.2734,923,487.2734,927,483.2734" style="stroke:#181818;stroke-width:1.0;"/><line style="stroke:#181818;stroke-width:1.0;" x1="699" x2="929" y1="483.2734" y2="483.2734"/><text fill="#000000" font-family="sans-serif" font-size="13" lengthAdjust="spacing" textLength="212" x="706" y="478.417">notificarAvaliacaoRecebida(empresa)</text><polygon fill="#181818" points="1051,509.625,1061,513.625,1051,517.625,1055,513.625" style="stroke:#181818;stroke-width:1.0;"/><line style="stroke:#181818;stroke-width:1.0;" x1="935" x2="1057" y1="513.625" y2="513.625"/><text fill="#000000" font-family="sans-serif" font-size="13" lengthAdjust="spacing" textLength="104" x="942" y="508.7686">create Notificacao</text><polygon fill="#181818" points="318.5,539.9766,308.5,543.9766,318.5,547.9766,314.5,543.9766" style="stroke:#181818;stroke-width:1.0;"/><line style="stroke:#181818;stroke-width:1.0;stroke-dasharray:2.0,2.0;" x1="312.5" x2="698" y1="543.9766" y2="543.9766"/><text fill="#000000" font-family="sans-serif" font-size="13" lengthAdjust="spacing" textLength="53" x="324.5" y="539.1201">avaliacao</text><polygon fill="#181818" points="60.5,570.3281,50.5,574.3281,60.5,578.3281,56.5,574.3281" style="stroke:#181818;stroke-width:1.0;"/><line style="stroke:#181818;stroke-width:1.0;stroke-dasharray:2.0,2.0;" x1="54.5" x2="306.5" y1="574.3281" y2="574.3281"/><text fill="#000000" font-family="sans-serif" font-size="13" lengthAdjust="spacing" textLength="21" x="66.5" y="569.4717">201</text><!--SRC=[TLBBJiCm4BpxArQS4a4WvN51b8gs791GAGGuLBqizj9Qf7QntIA4-7Ss9kaBSKgqEpCxE-kWGqbGNDzdhHF8u6g9fKO7FLjIGFuOMIwqGe4oM2xphq8hvkY2bdgE9i3UyAvuX2ESwoECR6d9xm5wk1vk0-issfuZ35J8ASqGaf5LQSIF_e4VUd9BBMbif6DpLqqzaehdtZRDsA1VjTmaHk10A0puWfvWQ7sOE2hkRwj6loj4lHXab-mQpY7kz2LZ2ZVg05YKdRQoi_G0f9sH2UYqxNmBHZDdn9JAbS9V96s08BbemrcUfpMM3JDwUvDaFGaN77GpSdDOAYec2_Ixp7_LHZqP_RweHiLR9VlWRSanX4enCZcGpnNjTsuj3-qsA6jiPsnymB3mLK4srwwgD8FL0M3kQAcn8x0Cu6ZY49RQbfoOWAYRDRc5gRCVNAnMvLeJwpcSvhcWahEtRmsdtaJ6nm2hBDRj0NURQwwpUY19BwoRq8njUKoPCDXL6wmVmQv5t1Zqn-PntX9ar0y0]--></g></svg>