<?xml version="1.0" encoding="us-ascii" standalone="no"?><svg xmlns="http://www.w3.org/2000/svg" xmlns:xlink="http://www.w3.org/1999/xlink" contentStyleType="text/css" height="857px" preserveAspectRatio="none" style="width:855px;height:857px;background:#FFFFFF;" version="1.1" viewBox="0 0 855 857" width="855px" zoomAndPan="magnify"><defs/><g><text fill="#000000" font-family="sans-serif" font-size="14" font-weight="bold" lengthAdjust="spacing" textLength="407" x="220" y="29.5332">SEQ-02 - Autenticacao Mobile (login + refresh, JWT HS256)</text><rect fill="none" height="125.2422" style="stroke:#000000;stroke-width:1.5;" width="646.5" x="10" y="633.4922"/><line style="stroke:#181818;stroke-width:0.5;stroke-dasharray:5.0,5.0;" x1="58" x2="58" y1="121.2188" y2="775.7344"/><line style="stroke:#181818;stroke-width:0.5;stroke-dasharray:5.0,5.0;" x1="262" x2="262" y1="121.2188" y2="775.7344"/><line style="stroke:#181818;stroke-width:0.5;stroke-dasharray:5.0,5.0;" x1="427" x2="427" y1="121.2188" y2="775.7344"/><line style="stroke:#181818;stroke-width:0.5;stroke-dasharray:5.0,5.0;" x1="602.5" x2="602.5" y1="121.2188" y2="775.7344"/><line style="stroke:#181818;stroke-width:0.5;stroke-dasharray:5.0,5.0;" x1="801" x2="801" y1="121.2188" y2="775.7344"/><text fill="#000000" font-family="sans-serif" font-size="14" lengthAdjust="spacing" textLength="70" x="20" y="118.1426">App Mobile</text><ellipse cx="58" cy="52.1094" fill="#E2E2F0" rx="8" ry="8" style="stroke:#181818;stroke-width:0.5;"/><path d="M58,60.1094 L58,87.1094 M45,68.1094 L71,68.1094 M58,87.1094 L45,102.1094 M58,87.1094 L71,102.1094 " fill="none" style="stroke:#181818;stroke-width:0.5;"/><text fill="#000000" font-family="sans-serif" font-size="14" lengthAdjust="spacing" textLength="70" x="20" y="789.2676">App Mobile</text><ellipse cx="58" cy="800.8438" fill="#E2E2F0" rx="8" ry="8" style="stroke:#181818;stroke-width:0.5;"/><path d="M58,808.8438 L58,835.8438 M45,816.8438 L71,816.8438 M58,835.8438 L45,850.8438 M58,835.8438 L71,850.8438 " fill="none" style="stroke:#181818;stroke-width:0.5;"/><rect fill="#E2E2F0" height="31.6094" rx="2.5" ry="2.5" style="stroke:#181818;stroke-width:0.5;" width="148" x="188" y="88.6094"/><text fill="#000000" font-family="sans-serif" font-size="14" lengthAdjust="spacing" textLength="134" x="195" y="110.1426">/api/auth/mobile/login</text><rect fill="#E2E2F0" height="31.6094" rx="2.5" ry="2.5" style="stroke:#181818;stroke-width:0.5;" width="148" x="188" y="774.7344"/><text fill="#000000" font-family="sans-serif" font-size="14" lengthAdjust="spacing" textLength="134" x="195" y="796.2676">/api/auth/mobile/login</text><rect fill="#E2E2F0" height="31.6094" rx="2.5" ry="2.5" style="stroke:#181818;stroke-width:0.5;" width="163" x="346" y="88.6094"/><text fill="#000000" font-family="sans-serif" font-size="14" lengthAdjust="spacing" textLength="149" x="353" y="110.1426">/api/auth/mobile/refresh</text><rect fill="#E2E2F0" height="31.6094" rx="2.5" ry="2.5" style="stroke:#181818;stroke-width:0.5;" width="163" x="346" y="774.7344"/><text fill="#000000" font-family="sans-serif" font-size="14" lengthAdjust="spacing" textLength="149" x="353" y="796.2676">/api/auth/mobile/refresh</text><rect fill="#E2E2F0" height="31.6094" rx="2.5" ry="2.5" style="stroke:#181818;stroke-width:0.5;" width="88" x="558.5" y="88.6094"/><text fill="#000000" font-family="sans-serif" font-size="14" lengthAdjust="spacing" textLength="74" x="565.5" y="110.1426">mobile-auth</text><rect fill="#E2E2F0" height="31.6094" rx="2.5" ry="2.5" style="stroke:#181818;stroke-width:0.5;" width="88" x="558.5" y="774.7344"/><text fill="#000000" font-family="sans-serif" font-size="14" lengthAdjust="spacing" textLength="74" x="565.5" y="796.2676">mobile-auth</text><text fill="#000000" font-family="sans-serif" font-size="14" lengthAdjust="spacing" textLength="77" x="760" y="118.1426">PostgreSQL</text><path d="M783.5,67.6094 C783.5,57.6094 801.5,57.6094 801.5,57.6094 C801.5,57.6094 819.5,57.6094 819.5,67.6094 L819.5,93.6094 C819.5,103.6094 801.5,103.6094 801.5,103.6094 C801.5,103.6094 783.5,103.6094 783.5,93.6094 L783.5,67.6094 " fill="#E2E2F0" style="stroke:#181818;stroke-width:1.5;"/><path d="M783.5,67.6094 C783.5,77.6094 801.5,77.6094 801.5,77.6094 C801.5,77.6094 819.5,77.6094 819.5,67.6094 " fill="none" style="stroke:#181818;stroke-width:1.5;"/><text fill="#000000" font-family="sans-serif" font-size="14" lengthAdjust="spacing" textLength="77" x="760" y="789.2676">PostgreSQL</text><path d="M783.5,802.3438 C783.5,792.3438 801.5,792.3438 801.5,792.3438 C801.5,792.3438 819.5,792.3438 819.5,802.3438 L819.5,828.3438 C819.5,838.3438 801.5,838.3438 801.5,838.3438 C801.5,838.3438 783.5,838.3438 783.5,828.3438 L783.5,802.3438 " fill="#E2E2F0" style="stroke:#181818;stroke-width:1.5;"/><path d="M783.5,802.3438 C783.5,812.3438 801.5,812.3438 801.5,812.3438 C801.5,812.3438 819.5,812.3438 819.5,802.3438 " fill="none" style="stroke:#181818;stroke-width:1.5;"/><rect fill="#EEEEEE" height="3" style="stroke:#EEEEEE;stroke-width:1.0;" width="848" x="0" y="152.3945"/><line style="stroke:#000000;stroke-width:1.0;" x1="0" x2="848" y1="152.3945" y2="152.3945"/><line style="stroke:#000000;stroke-width:1.0;" x1="0" x2="848" y1="155.3945" y2="155.3945"/><rect fill="#EEEEEE" height="24.3516" style="stroke:#000000;stroke-width:2.0;" width="54" x="397" y="141.2188"/><text fill="#000000" font-family="sans-serif" font-size="13" font-weight="bold" lengthAdjust="spacing" textLength="36" x="403" y="158.7139">Login</text><polygon fill="#181818" points="250,193.9219,260,197.9219,250,201.9219,254,197.9219" style="stroke:#181818;stroke-width:1.0;"/><line style="stroke:#181818;stroke-width:1.0;" x1="58" x2="256" y1="197.9219" y2="197.9219"/><text fill="#000000" font-family="sans-serif" font-size="13" lengthAdjust="spacing" textLength="121" x="65" y="193.0654">POST {email, senha}</text><polygon fill="#181818" points="590.5,224.2734,600.5,228.2734,590.5,232.2734,594.5,228.2734" style="stroke:#181818;stroke-width:1.0;"/><line style="stroke:#181818;stroke-width:1.0;" x1="262" x2="596.5" y1="228.2734" y2="228.2734"/><text fill="#000000" font-family="sans-serif" font-size="13" lengthAdjust="spacing" textLength="179" x="269" y="223.417">authenticateUserByCredentials</text><polygon fill="#181818" points="789.5,254.625,799.5,258.625,789.5,262.625,793.5,258.625" style="stroke:#181818;stroke-width:1.0;"/><line style="stroke:#181818;stroke-width:1.0;" x1="602.5" x2="795.5" y1="258.625" y2="258.625"/><text fill="#000000" font-family="sans-serif" font-size="13" lengthAdjust="spacing" textLength="128" x="609.5" y="253.7686">findUnique(email)+role</text><polygon fill="#181818" points="613.5,284.9766,603.5,288.9766,613.5,292.9766,609.5,288.9766" style="stroke:#181818;stroke-width:1.0;"/><line style="stroke:#181818;stroke-width:1.0;stroke-dasharray:2.0,2.0;" x1="607.5" x2="800.5" y1="288.9766" y2="288.9766"/><text fill="#000000" font-family="sans-serif" font-size="13" lengthAdjust="spacing" textLength="175" x="619.5" y="284.1201">user (status ativo? bcrypt ok?)</text><line style="stroke:#181818;stroke-width:1.0;" x1="602.5" x2="644.5" y1="335.6797" y2="335.6797"/><line style="stroke:#181818;stroke-width:1.0;" x1="644.5" x2="644.5" y1="335.6797" y2="348.6797"/><line style="stroke:#181818;stroke-width:1.0;" x1="603.5" x2="644.5" y1="348.6797" y2="348.6797"/><polygon fill="#181818" points="613.5,344.6797,603.5,348.6797,613.5,352.6797,609.5,348.6797" style="stroke:#181818;stroke-width:1.0;"/><text fill="#000000" font-family="sans-serif" font-size="13" lengthAdjust="spacing" textLength="151" x="609.5" y="314.4717">createMobileAuthTokens()</text><text fill="#000000" font-family="sans-serif" font-size="13" lengthAdjust="spacing" textLength="161" x="609.5" y="330.8232">access 15min + refresh 30d</text><polygon fill="#181818" points="273,375.0313,263,379.0313,273,383.0313,269,379.0313" style="stroke:#181818;stroke-width:1.0;"/><line style="stroke:#181818;stroke-width:1.0;stroke-dasharray:2.0,2.0;" x1="267" x2="601.5" y1="379.0313" y2="379.0313"/><text fill="#000000" font-family="sans-serif" font-size="13" lengthAdjust="spacing" textLength="200" x="279" y="374.1748">{accessToken, refreshToken, user}</text><polygon fill="#181818" points="69,405.3828,59,409.3828,69,413.3828,65,409.3828" style="stroke:#181818;stroke-width:1.0;"/><line style="stroke:#181818;stroke-width:1.0;stroke-dasharray:2.0,2.0;" x1="63" x2="261" y1="409.3828" y2="409.3828"/><text fill="#000000" font-family="sans-serif" font-size="13" lengthAdjust="spacing" textLength="148" x="75" y="404.5264">200 MobileAuthResponse</text><line style="stroke:#181818;stroke-width:1.0;" x1="58" x2="100" y1="439.7344" y2="439.7344"/><line style="stroke:#181818;stroke-width:1.0;" x1="100" x2="100" y1="439.7344" y2="452.7344"/><line style="stroke:#181818;stroke-width:1.0;" x1="59" x2="100" y1="452.7344" y2="452.7344"/><polygon fill="#181818" points="69,448.7344,59,452.7344,69,456.7344,65,452.7344" style="stroke:#181818;stroke-width:1.0;"/><text fill="#000000" font-family="sans-serif" font-size="13" lengthAdjust="spacing" textLength="190" x="65" y="434.8779">expo-secure-store guarda tokens</text><rect fill="#EEEEEE" height="3" style="stroke:#EEEEEE;stroke-width:1.0;" width="848" x="0" y="481.9102"/><line style="stroke:#000000;stroke-width:1.0;" x1="0" x2="848" y1="481.9102" y2="481.9102"/><line style="stroke:#000000;stroke-width:1.0;" x1="0" x2="848" y1="484.9102" y2="484.9102"/><rect fill="#EEEEEE" height="24.3516" style="stroke:#000000;stroke-width:2.0;" width="204" x="322" y="470.7344"/><text fill="#000000" font-family="sans-serif" font-size="13" font-weight="bold" lengthAdjust="spacing" textLength="186" x="328" y="488.2295">Renovacao (access expirado)</text><polygon fill="#181818" points="415.5,523.4375,425.5,527.4375,415.5,531.4375,419.5,527.4375" style="stroke:#181818;stroke-width:1.0;"/><line style="stroke:#181818;stroke-width:1.0;" x1="58" x2="421.5" y1="527.4375" y2="527.4375"/><text fill="#000000" font-family="sans-serif" font-size="13" lengthAdjust="spacing" textLength="121" x="65" y="522.5811">POST {refreshToken}</text><polygon fill="#181818" points="590.5,553.7891,600.5,557.7891,590.5,561.7891,594.5,557.7891" style="stroke:#181818;stroke-width:1.0;"/><line style="stroke:#181818;stroke-width:1.0;" x1="427.5" x2="596.5" y1="557.7891" y2="557.7891"/><text fill="#000000" font-family="sans-serif" font-size="13" lengthAdjust="spacing" textLength="149" x="434.5" y="552.9326">verifyMobileToken(refresh)</text><polygon fill="#181818" points="438.5,584.1406,428.5,588.1406,438.5,592.1406,434.5,588.1406" style="stroke:#181818;stroke-width:1.0;"/><line style="stroke:#181818;stroke-width:1.0;stroke-dasharray:2.0,2.0;" x1="432.5" x2="601.5" y1="588.1406" y2="588.1406"/><text fill="#000000" font-family="sans-serif" font-size="13" lengthAdjust="spacing" textLength="67" x="444.5" y="583.2842">payload (id)</text><polygon fill="#181818" points="789.5,614.4922,799.5,618.4922,789.5,622.4922,793.5,618.4922" style="stroke:#181818;stroke-width:1.0;"/><line style="stroke:#181818;stroke-width:1.0;" x1="427.5" x2="795.5" y1="618.4922" y2="618.4922"/><text fill="#000000" font-family="sans-serif" font-size="13" lengthAdjust="spacing" textLength="107" x="434.5" y="613.6357">findUnique(id)+role</text><path d="M10,633.4922 L71,633.4922 L71,641.8438 L61,651.8438 L10,651.8438 L10,633.4922 " fill="#EEEEEE" style="stroke:#000000;stroke-width:1.5;"/><rect fill="none" height="125.2422" style="stroke:#000000;stroke-width:1.5;" width="646.5" x="10" y="633.4922"/><text fill="#000000" font-family="sans-serif" font-size="13" font-weight="bold" lengthAdjust="spacing" textLength="16" x="25" y="647.9873">alt</text><text fill="#000000" font-family="sans-serif" font-size="11" font-weight="bold" lengthAdjust="spacing" textLength="150" x="86" y="646.9111">[usuario ativo e nao-admin]</text><polygon fill="#181818" points="590.5,670.1953,600.5,674.1953,590.5,678.1953,594.5,674.1953" style="stroke:#181818;stroke-width:1.0;"/><line style="stroke:#181818;stroke-width:1.0;" x1="427.5" x2="596.5" y1="674.1953" y2="674.1953"/><text fill="#000000" font-family="sans-serif" font-size="13" lengthAdjust="spacing" textLength="151" x="434.5" y="669.3389">createMobileAuthTokens()</text><polygon fill="#181818" points="69,700.5469,59,704.5469,69,708.5469,65,704.5469" style="stroke:#181818;stroke-width:1.0;"/><line style="stroke:#181818;stroke-width:1.0;stroke-dasharray:2.0,2.0;" x1="63" x2="426.5" y1="704.5469" y2="704.5469"/><text fill="#000000" font-family="sans-serif" font-size="13" lengthAdjust="spacing" textLength="101" x="75" y="699.6904">200 novos tokens</text><line style="stroke:#000000;stroke-width:1.0;stroke-dasharray:2.0,2.0;" x1="10" x2="656.5" y1="713.5469" y2="713.5469"/><text fill="#000000" font-family="sans-serif" font-size="11" font-weight="bold" lengthAdjust="spacing" textLength="87" x="15" y="724.9658">[admin / inativo]</text><polygon fill="#181818" points="69,746.7344,59,750.7344,69,754.7344,65,750.7344" style="stroke:#181818;stroke-width:1.0;"/><line style="stroke:#181818;stroke-width:1.0;stroke-dasharray:2.0,2.0;" x1="63" x2="426.5" y1="750.7344" y2="750.7344"/><text fill="#000000" font-family="sans-serif" font-size="13" lengthAdjust="spacing" textLength="46" x="75" y="745.8779">401/403</text><!--SRC=[XP9FRzim3CNl-XH4JZOQmsxQxb0WAv8rMpSaQvi_s6KNncOIeOxaINAmeEXt7otRgLjisD7cxpsIZtBIvGIBoMEK3222KUb8EPbYYXfcUYsv6EHwAnMSWQ6D8RlhmxSVIxXR3Au-X09JfmtqHaNHu3r02pDHe64RMQ1oq8kna36MRXVlFHDxHqzExxzy_VuVkkdh-Vdaytook7khgBceqdXej18PEboZ9NZGrcqDBHwdLULsBCHm25E_qN0ePX1zh6U0QtYuNopXcVOeypvOKZjy4NMDeT6AYQf3dO-ZbIKpFduob5L_CBU24GPlnmnkfCfMIlugAV1-uPdHEGckHQrNoNe8h4DNMa0d3_e6rgav5WxqqqtOk7aqDSGDwtpvGhkbVY9bW_2dmZGbQ-7yQj-z45macTTtbdkkKI_jjs3pLOroMfKrC-O7IGAl7UTa2wqirO5LTVfTwCXIMXgABBy1Wcs99aDmVZWVyvoKFlYd53I3iaeQp7Hu2hyvw2d-xcGlegssIHp8oCsndiiZGSE7xRwlVWKUSuqP138BkqRl3yJb-ZgOEuw2jv2wFWWGADGHPfok07W_pB_EqaKxQN8MshRnKCvlqnj335BvTd_HNIRdyMLo8KXbVm00]--></g></svg>