<?xml version="1.0" encoding="us-ascii" standalone="no"?><svg xmlns="http://www.w3.org/2000/svg" xmlns:xlink="http://www.w3.org/1999/xlink" contentStyleType="text/css" height="950px" preserveAspectRatio="none" style="width:738px;height:950px;background:#FFFFFF;" version="1.1" viewBox="0 0 738 950" width="738px" zoomAndPan="magnify"><defs/><g><text fill="#000000" font-family="sans-serif" font-size="14" font-weight="bold" lengthAdjust="spacing" textLength="336" x="197.25" y="29.5332">SEQ-04 - Recuperacao de Senha (forgot + reset)</text><rect fill="none" height="217.6484" style="stroke:#000000;stroke-width:1.5;" width="711.5" x="10" y="243.2734"/><rect fill="none" height="168.5938" style="stroke:#000000;stroke-width:1.5;" width="711.5" x="10" y="683.0313"/><line style="stroke:#181818;stroke-width:0.5;stroke-dasharray:5.0,5.0;" x1="50" x2="50" y1="121.2188" y2="868.625"/><line style="stroke:#181818;stroke-width:0.5;stroke-dasharray:5.0,5.0;" x1="285" x2="285" y1="121.2188" y2="868.625"/><line style="stroke:#181818;stroke-width:0.5;stroke-dasharray:5.0,5.0;" x1="445.5" x2="445.5" y1="121.2188" y2="868.625"/><line style="stroke:#181818;stroke-width:0.5;stroke-dasharray:5.0,5.0;" x1="669.5" x2="669.5" y1="121.2188" y2="868.625"/><text fill="#000000" font-family="sans-serif" font-size="14" lengthAdjust="spacing" textLength="54" x="20" y="118.1426">Visitante</text><ellipse cx="50" cy="52.1094" fill="#E2E2F0" rx="8" ry="8" style="stroke:#181818;stroke-width:0.5;"/><path d="M50,60.1094 L50,87.1094 M37,68.1094 L63,68.1094 M50,87.1094 L37,102.1094 M50,87.1094 L63,102.1094 " fill="none" style="stroke:#181818;stroke-width:0.5;"/><text fill="#000000" font-family="sans-serif" font-size="14" lengthAdjust="spacing" textLength="54" x="20" y="882.1582">Visitante</text><ellipse cx="50" cy="893.7344" fill="#E2E2F0" rx="8" ry="8" style="stroke:#181818;stroke-width:0.5;"/><path d="M50,901.7344 L50,928.7344 M37,909.7344 L63,909.7344 M50,928.7344 L37,943.7344 M50,928.7344 L63,943.7344 " fill="none" style="stroke:#181818;stroke-width:0.5;"/><rect fill="#E2E2F0" height="31.6094" rx="2.5" ry="2.5" style="stroke:#181818;stroke-width:0.5;" width="120" x="225" y="88.6094"/><text fill="#000000" font-family="sans-serif" font-size="14" lengthAdjust="spacing" textLength="106" x="232" y="110.1426">/forgot-password</text><rect fill="#E2E2F0" height="31.6094" rx="2.5" ry="2.5" style="stroke:#181818;stroke-width:0.5;" width="120" x="225" y="867.625"/><text fill="#000000" font-family="sans-serif" font-size="14" lengthAdjust="spacing" textLength="106" x="232" y="889.1582">/forgot-password</text><rect fill="#E2E2F0" height="31.6094" rx="2.5" ry="2.5" style="stroke:#181818;stroke-width:0.5;" width="115" x="388.5" y="88.6094"/><text fill="#000000" font-family="sans-serif" font-size="14" lengthAdjust="spacing" textLength="101" x="395.5" y="110.1426">/reset-password</text><rect fill="#E2E2F0" height="31.6094" rx="2.5" ry="2.5" style="stroke:#181818;stroke-width:0.5;" width="115" x="388.5" y="867.625"/><text fill="#000000" font-family="sans-serif" font-size="14" lengthAdjust="spacing" textLength="101" x="395.5" y="889.1582">/reset-password</text><text fill="#000000" font-family="sans-serif" font-size="14" lengthAdjust="spacing" textLength="77" x="628.5" y="118.1426">PostgreSQL</text><path d="M652,67.6094 C652,57.6094 670,57.6094 670,57.6094 C670,57.6094 688,57.6094 688,67.6094 L688,93.6094 C688,103.6094 670,103.6094 670,103.6094 C670,103.6094 652,103.6094 652,93.6094 L652,67.6094 " fill="#E2E2F0" style="stroke:#181818;stroke-width:1.5;"/><path d="M652,67.6094 C652,77.6094 670,77.6094 670,77.6094 C670,77.6094 688,77.6094 688,67.6094 " fill="none" style="stroke:#181818;stroke-width:1.5;"/><text fill="#000000" font-family="sans-serif" font-size="14" lengthAdjust="spacing" textLength="77" x="628.5" y="882.1582">PostgreSQL</text><path d="M652,895.2344 C652,885.2344 670,885.2344 670,885.2344 C670,885.2344 688,885.2344 688,895.2344 L688,921.2344 C688,931.2344 670,931.2344 670,931.2344 C670,931.2344 652,931.2344 652,921.2344 L652,895.2344 " fill="#E2E2F0" style="stroke:#181818;stroke-width:1.5;"/><path d="M652,895.2344 C652,905.2344 670,905.2344 670,905.2344 C670,905.2344 688,905.2344 688,895.2344 " fill="none" style="stroke:#181818;stroke-width:1.5;"/><rect fill="#EEEEEE" height="3" style="stroke:#EEEEEE;stroke-width:1.0;" width="731.5" x="0" y="152.3945"/><line style="stroke:#000000;stroke-width:1.0;" x1="0" x2="731.5" y1="152.3945" y2="152.3945"/><line style="stroke:#000000;stroke-width:1.0;" x1="0" x2="731.5" y1="155.3945" y2="155.3945"/><rect fill="#EEEEEE" height="24.3516" style="stroke:#000000;stroke-width:2.0;" width="98" x="316.75" y="141.2188"/><text fill="#000000" font-family="sans-serif" font-size="13" font-weight="bold" lengthAdjust="spacing" textLength="80" x="322.75" y="158.7139">Solicitar link</text><polygon fill="#181818" points="273,193.9219,283,197.9219,273,201.9219,277,197.9219" style="stroke:#181818;stroke-width:1.0;"/><line style="stroke:#181818;stroke-width:1.0;" x1="50" x2="279" y1="197.9219" y2="197.9219"/><text fill="#000000" font-family="sans-serif" font-size="13" lengthAdjust="spacing" textLength="78" x="57" y="193.0654">POST {email}</text><polygon fill="#181818" points="658,224.2734,668,228.2734,658,232.2734,662,228.2734" style="stroke:#181818;stroke-width:1.0;"/><line style="stroke:#181818;stroke-width:1.0;" x1="285" x2="664" y1="228.2734" y2="228.2734"/><text fill="#000000" font-family="sans-serif" font-size="13" lengthAdjust="spacing" textLength="99" x="292" y="223.417">findUnique(email)</text><path d="M10,243.2734 L71,243.2734 L71,251.625 L61,261.625 L10,261.625 L10,243.2734 " fill="#EEEEEE" style="stroke:#000000;stroke-width:1.5;"/><rect fill="none" height="217.6484" style="stroke:#000000;stroke-width:1.5;" width="711.5" x="10" y="243.2734"/><text fill="#000000" font-family="sans-serif" font-size="13" font-weight="bold" lengthAdjust="spacing" textLength="16" x="25" y="257.7686">alt</text><text fill="#000000" font-family="sans-serif" font-size="11" font-weight="bold" lengthAdjust="spacing" textLength="87" x="86" y="256.6924">[usuario existe]</text><line style="stroke:#181818;stroke-width:1.0;" x1="285" x2="327" y1="316.6797" y2="316.6797"/><line style="stroke:#181818;stroke-width:1.0;" x1="327" x2="327" y1="316.6797" y2="329.6797"/><line style="stroke:#181818;stroke-width:1.0;" x1="286" x2="327" y1="329.6797" y2="329.6797"/><polygon fill="#181818" points="296,325.6797,286,329.6797,296,333.6797,292,329.6797" style="stroke:#181818;stroke-width:1.0;"/><text fill="#000000" font-family="sans-serif" font-size="13" lengthAdjust="spacing" textLength="147" x="292" y="279.1201">token = randomBytes(32)</text><text fill="#000000" font-family="sans-serif" font-size="13" lengthAdjust="spacing" textLength="126" x="292" y="295.4717">hash = sha256(token)</text><text fill="#000000" font-family="sans-serif" font-size="13" lengthAdjust="spacing" textLength="113" x="292" y="311.8232">expiry = agora + 1h</text><polygon fill="#181818" points="658,356.0313,668,360.0313,658,364.0313,662,360.0313" style="stroke:#181818;stroke-width:1.0;"/><line style="stroke:#181818;stroke-width:1.0;" x1="285" x2="664" y1="360.0313" y2="360.0313"/><text fill="#000000" font-family="sans-serif" font-size="13" lengthAdjust="spacing" textLength="260" x="292" y="355.1748">update {resetToken: hash, resetTokenExpiry}</text><polygon fill="#181818" points="61,386.3828,51,390.3828,61,394.3828,57,390.3828" style="stroke:#181818;stroke-width:1.0;"/><line style="stroke:#181818;stroke-width:1.0;stroke-dasharray:2.0,2.0;" x1="55" x2="284" y1="390.3828" y2="390.3828"/><text fill="#000000" font-family="sans-serif" font-size="13" lengthAdjust="spacing" textLength="211" x="67" y="385.5264">200 {mensagem generica, resetLink}</text><line style="stroke:#000000;stroke-width:1.0;stroke-dasharray:2.0,2.0;" x1="10" x2="721.5" y1="399.3828" y2="399.3828"/><text fill="#000000" font-family="sans-serif" font-size="11" font-weight="bold" lengthAdjust="spacing" textLength="65" x="15" y="410.8018">[nao existe]</text><polygon fill="#181818" points="61,448.9219,51,452.9219,61,456.9219,57,452.9219" style="stroke:#181818;stroke-width:1.0;"/><line style="stroke:#181818;stroke-width:1.0;stroke-dasharray:2.0,2.0;" x1="55" x2="284" y1="452.9219" y2="452.9219"/><text fill="#000000" font-family="sans-serif" font-size="13" lengthAdjust="spacing" textLength="142" x="67" y="431.7139">200 mensagem generica</text><text fill="#000000" font-family="sans-serif" font-size="13" lengthAdjust="spacing" textLength="104" x="67" y="448.0654">(anti-enumeracao)</text><rect fill="#EEEEEE" height="3" style="stroke:#EEEEEE;stroke-width:1.0;" width="731.5" x="0" y="489.0977"/><line style="stroke:#000000;stroke-width:1.0;" x1="0" x2="731.5" y1="489.0977" y2="489.0977"/><line style="stroke:#000000;stroke-width:1.0;" x1="0" x2="731.5" y1="492.0977" y2="492.0977"/><rect fill="#EEEEEE" height="24.3516" style="stroke:#000000;stroke-width:2.0;" width="118" x="306.75" y="477.9219"/><text fill="#000000" font-family="sans-serif" font-size="13" font-weight="bold" lengthAdjust="spacing" textLength="100" x="312.75" y="495.417">Redefinir senha</text><polygon fill="#181818" points="434,530.625,444,534.625,434,538.625,438,534.625" style="stroke:#181818;stroke-width:1.0;"/><line style="stroke:#181818;stroke-width:1.0;" x1="50" x2="440" y1="534.625" y2="534.625"/><text fill="#000000" font-family="sans-serif" font-size="13" lengthAdjust="spacing" textLength="189" x="57" y="529.7686">POST {token, email, novaSenha}</text><line style="stroke:#181818;stroke-width:1.0;" x1="446" x2="488" y1="564.9766" y2="564.9766"/><line style="stroke:#181818;stroke-width:1.0;" x1="488" x2="488" y1="564.9766" y2="577.9766"/><line style="stroke:#181818;stroke-width:1.0;" x1="447" x2="488" y1="577.9766" y2="577.9766"/><polygon fill="#181818" points="457,573.9766,447,577.9766,457,581.9766,453,577.9766" style="stroke:#181818;stroke-width:1.0;"/><text fill="#000000" font-family="sans-serif" font-size="13" lengthAdjust="spacing" textLength="121" x="453" y="560.1201">valida forca da senha</text><polygon fill="#181818" points="658,604.3281,668,608.3281,658,612.3281,662,608.3281" style="stroke:#181818;stroke-width:1.0;"/><line style="stroke:#181818;stroke-width:1.0;" x1="446" x2="664" y1="608.3281" y2="608.3281"/><text fill="#000000" font-family="sans-serif" font-size="13" lengthAdjust="spacing" textLength="99" x="453" y="603.4717">findUnique(email)</text><line style="stroke:#181818;stroke-width:1.0;" x1="446" x2="488" y1="655.0313" y2="655.0313"/><line style="stroke:#181818;stroke-width:1.0;" x1="488" x2="488" y1="655.0313" y2="668.0313"/><line style="stroke:#181818;stroke-width:1.0;" x1="447" x2="488" y1="668.0313" y2="668.0313"/><polygon fill="#181818" points="457,664.0313,447,668.0313,457,672.0313,453,668.0313" style="stroke:#181818;stroke-width:1.0;"/><text fill="#000000" font-family="sans-serif" font-size="13" lengthAdjust="spacing" textLength="181" x="453" y="633.8232">sha256(token) == resetToken ?</text><text fill="#000000" font-family="sans-serif" font-size="13" lengthAdjust="spacing" textLength="82" x="453" y="650.1748">expiry valido ?</text><path d="M10,683.0313 L71,683.0313 L71,691.3828 L61,701.3828 L10,701.3828 L10,683.0313 " fill="#EEEEEE" style="stroke:#000000;stroke-width:1.5;"/><rect fill="none" height="168.5938" style="stroke:#000000;stroke-width:1.5;" width="711.5" x="10" y="683.0313"/><text fill="#000000" font-family="sans-serif" font-size="13" font-weight="bold" lengthAdjust="spacing" textLength="16" x="25" y="697.5264">alt</text><text fill="#000000" font-family="sans-serif" font-size="11" font-weight="bold" lengthAdjust="spacing" textLength="159" x="86" y="696.4502">[token valido e nao expirado]</text><line style="stroke:#181818;stroke-width:1.0;" x1="446" x2="488" y1="723.7344" y2="723.7344"/><line style="stroke:#181818;stroke-width:1.0;" x1="488" x2="488" y1="723.7344" y2="736.7344"/><line style="stroke:#181818;stroke-width:1.0;" x1="447" x2="488" y1="736.7344" y2="736.7344"/><polygon fill="#181818" points="457,732.7344,447,736.7344,457,740.7344,453,736.7344" style="stroke:#181818;stroke-width:1.0;"/><text fill="#000000" font-family="sans-serif" font-size="13" lengthAdjust="spacing" textLength="161" x="453" y="718.8779">bcrypt.hash(novaSenha, 12)</text><polygon fill="#181818" points="658,763.0859,668,767.0859,658,771.0859,662,767.0859" style="stroke:#181818;stroke-width:1.0;"/><line style="stroke:#181818;stroke-width:1.0;" x1="446" x2="664" y1="767.0859" y2="767.0859"/><text fill="#000000" font-family="sans-serif" font-size="13" lengthAdjust="spacing" textLength="200" x="453" y="762.2295">update senha + limpa token/expiry</text><polygon fill="#181818" points="61,793.4375,51,797.4375,61,801.4375,57,797.4375" style="stroke:#181818;stroke-width:1.0;"/><line style="stroke:#181818;stroke-width:1.0;stroke-dasharray:2.0,2.0;" x1="55" x2="445" y1="797.4375" y2="797.4375"/><text fill="#000000" font-family="sans-serif" font-size="13" lengthAdjust="spacing" textLength="135" x="67" y="792.5811">200 "Senha atualizada"</text><line style="stroke:#000000;stroke-width:1.0;stroke-dasharray:2.0,2.0;" x1="10" x2="721.5" y1="806.4375" y2="806.4375"/><text fill="#000000" font-family="sans-serif" font-size="11" font-weight="bold" lengthAdjust="spacing" textLength="101" x="15" y="817.8564">[invalido/expirado]</text><polygon fill="#181818" points="61,839.625,51,843.625,61,847.625,57,843.625" style="stroke:#181818;stroke-width:1.0;"/><line style="stroke:#181818;stroke-width:1.0;stroke-dasharray:2.0,2.0;" x1="55" x2="445" y1="843.625" y2="843.625"/><text fill="#000000" font-family="sans-serif" font-size="13" lengthAdjust="spacing" textLength="47" x="67" y="838.7686">400 erro</text><!--SRC=[TLF1Rjim3BthAuYS73HUqgph8O1N86XtAZ3NwNRgXRLPHwWjUPBSDGloxwCbpqdTxXO_FJwIxp5EkefWStCNBouWXepojY63EMee62UrHOYUj2crWpCmPCbD1UPE6_WfhNIe78a6ZPEvRFW39lF0ZXkqzhSsnGJGmhTqHF9ARpbPAWfq-8YM8DNMbOOsTxVTo_LQY2I1ZQvOmA61IgfdI18nZ03nL-u1AqY_R-vXJpNAwY0OOVnwpVYJLCKF9N-r5Fb7Ng9oqDeMZTH0hzBo7W2XmYiv_KmA4Z2e2bslTuviz7avVM17x9PnkyNbbyl8qnYbrqQQ7UDOQeFirVbsqFCJj0rlHx3tczztLIlef6PmH6wyoA4lvChZWYjOBXQmhqbPBAc6aXGPcMDVVikE70HLx9t2qK8VwBoJUL0HFykOL5k7_AU2LE5zpwWWzayQiFuUniPdH-Ez6pFm5iz0wHVq9tGGMJemNx2I1GAVIOx0FxneJ_XFLYVLRspdKKxSWwiX1jz3mvLFEIJPG__yOHeMcXqwqNxCpQvndxfKec7s6PmlfmFlDChWnXbVOzrWw38F_Nlw1yPFmbyANSlZ_C429o4qgS9yyz5a8uaBbY1ZT9VDNm00]--></g></svg>