<?xml version="1.0" encoding="us-ascii" standalone="no"?><svg xmlns="http://www.w3.org/2000/svg" xmlns:xlink="http://www.w3.org/1999/xlink" contentStyleType="text/css" height="682px" preserveAspectRatio="none" style="width:759px;height:682px;background:#FFFFFF;" version="1.1" viewBox="0 0 759 682" width="759px" zoomAndPan="magnify"><defs/><g><text fill="#000000" font-family="sans-serif" font-size="14" font-weight="bold" lengthAdjust="spacing" textLength="365" x="198.5" y="29.5332">SEQ-08 - Cancelar Solicitacao (pelo proprio cidadao)</text><rect fill="none" height="384.2188" style="stroke:#000000;stroke-width:1.5;" width="743" x="10" y="198.9219"/><rect fill="none" height="321.5156" style="stroke:#000000;stroke-width:1.5;" width="723" x="20" y="254.625"/><rect fill="none" height="48.7031" style="stroke:#000000;stroke-width:1.5;" width="372.5" x="360.5" y="429.3828"/><line style="stroke:#181818;stroke-width:0.5;stroke-dasharray:5.0,5.0;" x1="59" x2="59" y1="121.2188" y2="600.1406"/><line style="stroke:#181818;stroke-width:0.5;stroke-dasharray:5.0,5.0;" x1="240" x2="240" y1="121.2188" y2="600.1406"/><line style="stroke:#181818;stroke-width:0.5;stroke-dasharray:5.0,5.0;" x1="438.5" x2="438.5" y1="121.2188" y2="600.1406"/><line style="stroke:#181818;stroke-width:0.5;stroke-dasharray:5.0,5.0;" x1="681" x2="681" y1="121.2188" y2="600.1406"/><text fill="#000000" font-family="sans-serif" font-size="14" lengthAdjust="spacing" textLength="53" x="30" y="118.1426">Cidadao</text><ellipse cx="59.5" cy="52.1094" fill="#E2E2F0" rx="8" ry="8" style="stroke:#181818;stroke-width:0.5;"/><path d="M59.5,60.1094 L59.5,87.1094 M46.5,68.1094 L72.5,68.1094 M59.5,87.1094 L46.5,102.1094 M59.5,87.1094 L72.5,102.1094 " fill="none" style="stroke:#181818;stroke-width:0.5;"/><text fill="#000000" font-family="sans-serif" font-size="14" lengthAdjust="spacing" textLength="53" x="30" y="613.6738">Cidadao</text><ellipse cx="59.5" cy="625.25" fill="#E2E2F0" rx="8" ry="8" style="stroke:#181818;stroke-width:0.5;"/><path d="M59.5,633.25 L59.5,660.25 M46.5,641.25 L72.5,641.25 M59.5,660.25 L46.5,675.25 M59.5,660.25 L72.5,675.25 " fill="none" style="stroke:#181818;stroke-width:0.5;"/><rect fill="#E2E2F0" height="31.6094" rx="2.5" ry="2.5" style="stroke:#181818;stroke-width:0.5;" width="187" x="147" y="88.6094"/><text fill="#000000" font-family="sans-serif" font-size="14" lengthAdjust="spacing" textLength="173" x="154" y="110.1426">PATCH /api/solicitacoes/[id]</text><rect fill="#E2E2F0" height="31.6094" rx="2.5" ry="2.5" style="stroke:#181818;stroke-width:0.5;" width="187" x="147" y="599.1406"/><text fill="#000000" font-family="sans-serif" font-size="14" lengthAdjust="spacing" textLength="173" x="154" y="620.6738">PATCH /api/solicitacoes/[id]</text><rect fill="#E2E2F0" height="49.2188" rx="2.5" ry="2.5" style="stroke:#181818;stroke-width:0.5;" width="136" x="370.5" y="71"/><text fill="#000000" font-family="sans-serif" font-size="14" lengthAdjust="spacing" textLength="115" x="381" y="92.5332">solicitacao.service</text><text fill="#000000" font-family="sans-serif" font-size="14" lengthAdjust="spacing" textLength="122" x="377.5" y="110.1426">cancelarSolicitacao</text><rect fill="#E2E2F0" height="49.2188" rx="2.5" ry="2.5" style="stroke:#181818;stroke-width:0.5;" width="136" x="370.5" y="599.1406"/><text fill="#000000" font-family="sans-serif" font-size="14" lengthAdjust="spacing" textLength="115" x="381" y="620.6738">solicitacao.service</text><text fill="#000000" font-family="sans-serif" font-size="14" lengthAdjust="spacing" textLength="122" x="377.5" y="638.2832">cancelarSolicitacao</text><text fill="#000000" font-family="sans-serif" font-size="14" lengthAdjust="spacing" textLength="77" x="640" y="118.1426">PostgreSQL</text><path d="M663.5,67.6094 C663.5,57.6094 681.5,57.6094 681.5,57.6094 C681.5,57.6094 699.5,57.6094 699.5,67.6094 L699.5,93.6094 C699.5,103.6094 681.5,103.6094 681.5,103.6094 C681.5,103.6094 663.5,103.6094 663.5,93.6094 L663.5,67.6094 " fill="#E2E2F0" style="stroke:#181818;stroke-width:1.5;"/><path d="M663.5,67.6094 C663.5,77.6094 681.5,77.6094 681.5,77.6094 C681.5,77.6094 699.5,77.6094 699.5,67.6094 " fill="none" style="stroke:#181818;stroke-width:1.5;"/><text fill="#000000" font-family="sans-serif" font-size="14" lengthAdjust="spacing" textLength="77" x="640" y="613.6738">PostgreSQL</text><path d="M663.5,626.75 C663.5,616.75 681.5,616.75 681.5,616.75 C681.5,616.75 699.5,616.75 699.5,626.75 L699.5,652.75 C699.5,662.75 681.5,662.75 681.5,662.75 C681.5,662.75 663.5,662.75 663.5,652.75 L663.5,626.75 " fill="#E2E2F0" style="stroke:#181818;stroke-width:1.5;"/><path d="M663.5,626.75 C663.5,636.75 681.5,636.75 681.5,636.75 C681.5,636.75 699.5,636.75 699.5,626.75 " fill="none" style="stroke:#181818;stroke-width:1.5;"/><polygon fill="#181818" points="228.5,149.5703,238.5,153.5703,228.5,157.5703,232.5,153.5703" style="stroke:#181818;stroke-width:1.0;"/><line style="stroke:#181818;stroke-width:1.0;" x1="59.5" x2="234.5" y1="153.5703" y2="153.5703"/><text fill="#000000" font-family="sans-serif" font-size="13" lengthAdjust="spacing" textLength="157" x="66.5" y="148.7139">PATCH {action: "cancelar"}</text><polygon fill="#181818" points="426.5,179.9219,436.5,183.9219,426.5,187.9219,430.5,183.9219" style="stroke:#181818;stroke-width:1.0;"/><line style="stroke:#181818;stroke-width:1.0;" x1="240.5" x2="432.5" y1="183.9219" y2="183.9219"/><text fill="#000000" font-family="sans-serif" font-size="13" lengthAdjust="spacing" textLength="174" x="247.5" y="179.0654">cancelarSolicitacao(id, userId)</text><path d="M10,198.9219 L121,198.9219 L121,207.2734 L111,217.2734 L10,217.2734 L10,198.9219 " fill="#EEEEEE" style="stroke:#000000;stroke-width:1.5;"/><rect fill="none" height="384.2188" style="stroke:#000000;stroke-width:1.5;" width="743" x="10" y="198.9219"/><text fill="#000000" font-family="sans-serif" font-size="13" font-weight="bold" lengthAdjust="spacing" textLength="66" x="25" y="213.417">Transacao</text><polygon fill="#181818" points="669.5,235.625,679.5,239.625,669.5,243.625,673.5,239.625" style="stroke:#181818;stroke-width:1.0;"/><line style="stroke:#181818;stroke-width:1.0;" x1="438.5" x2="675.5" y1="239.625" y2="239.625"/><text fill="#000000" font-family="sans-serif" font-size="13" lengthAdjust="spacing" textLength="191" x="445.5" y="234.7686">findFirst(id, userId) include coleta</text><path d="M20,254.625 L81,254.625 L81,262.9766 L71,272.9766 L20,272.9766 L20,254.625 " fill="#EEEEEE" style="stroke:#000000;stroke-width:1.5;"/><rect fill="none" height="321.5156" style="stroke:#000000;stroke-width:1.5;" width="723" x="20" y="254.625"/><text fill="#000000" font-family="sans-serif" font-size="13" font-weight="bold" lengthAdjust="spacing" textLength="16" x="35" y="269.1201">alt</text><text fill="#000000" font-family="sans-serif" font-size="11" font-weight="bold" lengthAdjust="spacing" textLength="190" x="96" y="268.0439">[nao encontrada / sem permissao]</text><polygon fill="#181818" points="251.5,291.3281,241.5,295.3281,251.5,299.3281,247.5,295.3281" style="stroke:#181818;stroke-width:1.0;"/><line style="stroke:#181818;stroke-width:1.0;stroke-dasharray:2.0,2.0;" x1="245.5" x2="437.5" y1="295.3281" y2="295.3281"/><text fill="#000000" font-family="sans-serif" font-size="13" lengthAdjust="spacing" textLength="31" x="257.5" y="290.4717">throw</text><polygon fill="#181818" points="70.5,321.6797,60.5,325.6797,70.5,329.6797,66.5,325.6797" style="stroke:#181818;stroke-width:1.0;"/><line style="stroke:#181818;stroke-width:1.0;stroke-dasharray:2.0,2.0;" x1="64.5" x2="239.5" y1="325.6797" y2="325.6797"/><text fill="#000000" font-family="sans-serif" font-size="13" lengthAdjust="spacing" textLength="21" x="76.5" y="320.8232">400</text><line style="stroke:#000000;stroke-width:1.0;stroke-dasharray:2.0,2.0;" x1="20" x2="743" y1="334.6797" y2="334.6797"/><line style="stroke:#181818;stroke-width:1.0;" x1="438.5" x2="480.5" y1="358.0313" y2="358.0313"/><line style="stroke:#181818;stroke-width:1.0;" x1="480.5" x2="480.5" y1="358.0313" y2="371.0313"/><line style="stroke:#181818;stroke-width:1.0;" x1="439.5" x2="480.5" y1="371.0313" y2="371.0313"/><polygon fill="#181818" points="449.5,367.0313,439.5,371.0313,449.5,375.0313,445.5,371.0313" style="stroke:#181818;stroke-width:1.0;"/><text fill="#000000" font-family="sans-serif" font-size="13" lengthAdjust="spacing" textLength="201" x="445.5" y="353.1748">status rejeitada/cancelada? -&gt; erro</text><line style="stroke:#181818;stroke-width:1.0;" x1="438.5" x2="480.5" y1="401.3828" y2="401.3828"/><line style="stroke:#181818;stroke-width:1.0;" x1="480.5" x2="480.5" y1="401.3828" y2="414.3828"/><line style="stroke:#181818;stroke-width:1.0;" x1="439.5" x2="480.5" y1="414.3828" y2="414.3828"/><polygon fill="#181818" points="449.5,410.3828,439.5,414.3828,449.5,418.3828,445.5,414.3828" style="stroke:#181818;stroke-width:1.0;"/><text fill="#000000" font-family="sans-serif" font-size="13" lengthAdjust="spacing" textLength="229" x="445.5" y="396.5264">coleta em em_coleta/concluida? -&gt; erro</text><path d="M360.5,429.3828 L421.5,429.3828 L421.5,437.7344 L411.5,447.7344 L360.5,447.7344 L360.5,429.3828 " fill="#EEEEEE" style="stroke:#000000;stroke-width:1.5;"/><rect fill="none" height="48.7031" style="stroke:#000000;stroke-width:1.5;" width="372.5" x="360.5" y="429.3828"/><text fill="#000000" font-family="sans-serif" font-size="13" font-weight="bold" lengthAdjust="spacing" textLength="16" x="375.5" y="443.8779">alt</text><text fill="#000000" font-family="sans-serif" font-size="11" font-weight="bold" lengthAdjust="spacing" textLength="159" x="436.5" y="442.8018">[coleta em aceita/a_caminho]</text><polygon fill="#181818" points="669.5,466.0859,679.5,470.0859,669.5,474.0859,673.5,470.0859" style="stroke:#181818;stroke-width:1.0;"/><line style="stroke:#181818;stroke-width:1.0;" x1="438.5" x2="675.5" y1="470.0859" y2="470.0859"/><text fill="#000000" font-family="sans-serif" font-size="13" lengthAdjust="spacing" textLength="159" x="445.5" y="465.2295">update Coleta -&gt; cancelada</text><polygon fill="#181818" points="669.5,503.4375,679.5,507.4375,669.5,511.4375,673.5,507.4375" style="stroke:#181818;stroke-width:1.0;"/><line style="stroke:#181818;stroke-width:1.0;" x1="438.5" x2="675.5" y1="507.4375" y2="507.4375"/><text fill="#000000" font-family="sans-serif" font-size="13" lengthAdjust="spacing" textLength="186" x="445.5" y="502.5811">update Solicitacao -&gt; cancelada</text><polygon fill="#181818" points="251.5,533.7891,241.5,537.7891,251.5,541.7891,247.5,537.7891" style="stroke:#181818;stroke-width:1.0;"/><line style="stroke:#181818;stroke-width:1.0;stroke-dasharray:2.0,2.0;" x1="245.5" x2="437.5" y1="537.7891" y2="537.7891"/><text fill="#000000" font-family="sans-serif" font-size="13" lengthAdjust="spacing" textLength="174" x="257.5" y="532.9326">{solicitacao, coletaCancelada}</text><polygon fill="#181818" points="70.5,564.1406,60.5,568.1406,70.5,572.1406,66.5,568.1406" style="stroke:#181818;stroke-width:1.0;"/><line style="stroke:#181818;stroke-width:1.0;stroke-dasharray:2.0,2.0;" x1="64.5" x2="239.5" y1="568.1406" y2="568.1406"/><text fill="#000000" font-family="sans-serif" font-size="13" lengthAdjust="spacing" textLength="21" x="76.5" y="563.2842">200</text><!--SRC=[TP9DJm8n443l_HKJJf20Ium7mq4Z2qOJ3v0bNjIGiHsXPccRjgi7mdztzaj0yB27TkRDl9bjr34doARpmV0Q1f2YaPIZXypcMkg84Yrq7UKMdBVEQmjIArHeUm9bj1xI-YWS-iY4GnEXCxjRf0-GeDD9Q0jP2icBLcyTm03JsJ4Gzkqk0lalBUdLo4RcmAM2i-TKA8puZe5WPaDSUShcJsLeCXQYCOB13RU14TGoMzRLreoWqvRjx0J7EOlhSTgPRbsj-b2mpwFgYPMtXOE5HnFAc82AOtmoPlf36tMlVOY736WZyq8HI9jJH4OmZs3OZOoq9dhsX0G2RS2Ht-WGghfDvTO_hhtzhgvBNRvj1np1rN380Se3xR5sdX0n5W4yVH9Fep1f1bHuMoQHz_OKgaM1XMYph0y9c_8K-YzNZh9FHrbsIN0fSQFDkauvNb7X-ASHf3N3jxz2LJ8P9Vv13X_Z2NUqg-t1G-etUccRlZk_nCjwYToUlny0]--></g></svg>