<?xml version="1.0" encoding="us-ascii" standalone="no"?><svg xmlns="http://www.w3.org/2000/svg" xmlns:xlink="http://www.w3.org/1999/xlink" contentStyleType="text/css" height="772px" preserveAspectRatio="none" style="width:1356px;height:772px;background:#FFFFFF;" version="1.1" viewBox="0 0 1356 772" width="1356px" zoomAndPan="magnify"><defs/><g><text fill="#000000" font-family="sans-serif" font-size="14" font-weight="bold" lengthAdjust="spacing" textLength="357" x="500.5" y="29.5332">SEQ-05 - Criar Solicitacao (com upload de imagens)</text><rect fill="none" height="306.3516" style="stroke:#000000;stroke-width:1.5;" width="1229.5" x="119.5" y="367.0313"/><line style="stroke:#181818;stroke-width:0.5;stroke-dasharray:5.0,5.0;" x1="34" x2="34" y1="121.2188" y2="690.3828"/><line style="stroke:#181818;stroke-width:0.5;stroke-dasharray:5.0,5.0;" x1="205.5" x2="205.5" y1="121.2188" y2="690.3828"/><line style="stroke:#181818;stroke-width:0.5;stroke-dasharray:5.0,5.0;" x1="371.5" x2="371.5" y1="121.2188" y2="690.3828"/><line style="stroke:#181818;stroke-width:0.5;stroke-dasharray:5.0,5.0;" x1="500.5" x2="500.5" y1="121.2188" y2="690.3828"/><line style="stroke:#181818;stroke-width:0.5;stroke-dasharray:5.0,5.0;" x1="669" x2="669" y1="121.2188" y2="690.3828"/><line style="stroke:#181818;stroke-width:0.5;stroke-dasharray:5.0,5.0;" x1="830" x2="830" y1="121.2188" y2="690.3828"/><line style="stroke:#181818;stroke-width:0.5;stroke-dasharray:5.0,5.0;" x1="1010" x2="1010" y1="121.2188" y2="690.3828"/><line style="stroke:#181818;stroke-width:0.5;stroke-dasharray:5.0,5.0;" x1="1297" x2="1297" y1="121.2188" y2="690.3828"/><text fill="#000000" font-family="sans-serif" font-size="14" lengthAdjust="spacing" textLength="53" x="5" y="118.1426">Cidadao</text><ellipse cx="34.5" cy="52.1094" fill="#E2E2F0" rx="8" ry="8" style="stroke:#181818;stroke-width:0.5;"/><path d="M34.5,60.1094 L34.5,87.1094 M21.5,68.1094 L47.5,68.1094 M34.5,87.1094 L21.5,102.1094 M34.5,87.1094 L47.5,102.1094 " fill="none" style="stroke:#181818;stroke-width:0.5;"/><text fill="#000000" font-family="sans-serif" font-size="14" lengthAdjust="spacing" textLength="53" x="5" y="703.916">Cidadao</text><ellipse cx="34.5" cy="715.4922" fill="#E2E2F0" rx="8" ry="8" style="stroke:#181818;stroke-width:0.5;"/><path d="M34.5,723.4922 L34.5,750.4922 M21.5,731.4922 L47.5,731.4922 M34.5,750.4922 L21.5,765.4922 M34.5,750.4922 L47.5,765.4922 " fill="none" style="stroke:#181818;stroke-width:0.5;"/><rect fill="#E2E2F0" height="31.6094" rx="2.5" ry="2.5" style="stroke:#181818;stroke-width:0.5;" width="152" x="129.5" y="88.6094"/><text fill="#000000" font-family="sans-serif" font-size="14" lengthAdjust="spacing" textLength="138" x="136.5" y="110.1426">Form nova solicitacao</text><rect fill="#E2E2F0" height="31.6094" rx="2.5" ry="2.5" style="stroke:#181818;stroke-width:0.5;" width="152" x="129.5" y="689.3828"/><text fill="#000000" font-family="sans-serif" font-size="14" lengthAdjust="spacing" textLength="138" x="136.5" y="710.916">Form nova solicitacao</text><rect fill="#E2E2F0" height="31.6094" rx="2.5" ry="2.5" style="stroke:#181818;stroke-width:0.5;" width="82" x="330.5" y="88.6094"/><text fill="#000000" font-family="sans-serif" font-size="14" lengthAdjust="spacing" textLength="68" x="337.5" y="110.1426">Cloudinary</text><rect fill="#E2E2F0" height="31.6094" rx="2.5" ry="2.5" style="stroke:#181818;stroke-width:0.5;" width="82" x="330.5" y="689.3828"/><text fill="#000000" font-family="sans-serif" font-size="14" lengthAdjust="spacing" textLength="68" x="337.5" y="710.916">Cloudinary</text><rect fill="#E2E2F0" height="31.6094" rx="2.5" ry="2.5" style="stroke:#181818;stroke-width:0.5;" width="156" x="422.5" y="88.6094"/><text fill="#000000" font-family="sans-serif" font-size="14" lengthAdjust="spacing" textLength="142" x="429.5" y="110.1426">POST /api/solicitacoes</text><rect fill="#E2E2F0" height="31.6094" rx="2.5" ry="2.5" style="stroke:#181818;stroke-width:0.5;" width="156" x="422.5" y="689.3828"/><text fill="#000000" font-family="sans-serif" font-size="14" lengthAdjust="spacing" textLength="142" x="429.5" y="710.916">POST /api/solicitacoes</text><rect fill="#E2E2F0" height="31.6094" rx="2.5" ry="2.5" style="stroke:#181818;stroke-width:0.5;" width="89" x="625" y="88.6094"/><text fill="#000000" font-family="sans-serif" font-size="14" lengthAdjust="spacing" textLength="75" x="632" y="110.1426">route-guard</text><rect fill="#E2E2F0" height="31.6094" rx="2.5" ry="2.5" style="stroke:#181818;stroke-width:0.5;" width="89" x="625" y="689.3828"/><text fill="#000000" font-family="sans-serif" font-size="14" lengthAdjust="spacing" textLength="75" x="632" y="710.916">route-guard</text><rect fill="#E2E2F0" height="31.6094" rx="2.5" ry="2.5" style="stroke:#181818;stroke-width:0.5;" width="212" x="724" y="88.6094"/><text fill="#000000" font-family="sans-serif" font-size="14" lengthAdjust="spacing" textLength="198" x="731" y="110.1426">solicitacaoCreateSchema (Zod)</text><rect fill="#E2E2F0" height="31.6094" rx="2.5" ry="2.5" style="stroke:#181818;stroke-width:0.5;" width="212" x="724" y="689.3828"/><text fill="#000000" font-family="sans-serif" font-size="14" lengthAdjust="spacing" textLength="198" x="731" y="710.916">solicitacaoCreateSchema (Zod)</text><rect fill="#E2E2F0" height="49.2188" rx="2.5" ry="2.5" style="stroke:#181818;stroke-width:0.5;" width="129" x="946" y="71"/><text fill="#000000" font-family="sans-serif" font-size="14" lengthAdjust="spacing" textLength="115" x="953" y="92.5332">solicitacao.service</text><text fill="#000000" font-family="sans-serif" font-size="14" lengthAdjust="spacing" textLength="96" x="962.5" y="110.1426">criarSolicitacao</text><rect fill="#E2E2F0" height="49.2188" rx="2.5" ry="2.5" style="stroke:#181818;stroke-width:0.5;" width="129" x="946" y="689.3828"/><text fill="#000000" font-family="sans-serif" font-size="14" lengthAdjust="spacing" textLength="115" x="953" y="710.916">solicitacao.service</text><text fill="#000000" font-family="sans-serif" font-size="14" lengthAdjust="spacing" textLength="96" x="962.5" y="728.5254">criarSolicitacao</text><text fill="#000000" font-family="sans-serif" font-size="14" lengthAdjust="spacing" textLength="77" x="1256" y="118.1426">PostgreSQL</text><path d="M1279.5,67.6094 C1279.5,57.6094 1297.5,57.6094 1297.5,57.6094 C1297.5,57.6094 1315.5,57.6094 1315.5,67.6094 L1315.5,93.6094 C1315.5,103.6094 1297.5,103.6094 1297.5,103.6094 C1297.5,103.6094 1279.5,103.6094 1279.5,93.6094 L1279.5,67.6094 " fill="#E2E2F0" style="stroke:#181818;stroke-width:1.5;"/><path d="M1279.5,67.6094 C1279.5,77.6094 1297.5,77.6094 1297.5,77.6094 C1297.5,77.6094 1315.5,77.6094 1315.5,67.6094 " fill="none" style="stroke:#181818;stroke-width:1.5;"/><text fill="#000000" font-family="sans-serif" font-size="14" lengthAdjust="spacing" textLength="77" x="1256" y="703.916">PostgreSQL</text><path d="M1279.5,716.9922 C1279.5,706.9922 1297.5,706.9922 1297.5,706.9922 C1297.5,706.9922 1315.5,706.9922 1315.5,716.9922 L1315.5,742.9922 C1315.5,752.9922 1297.5,752.9922 1297.5,752.9922 C1297.5,752.9922 1279.5,752.9922 1279.5,742.9922 L1279.5,716.9922 " fill="#E2E2F0" style="stroke:#181818;stroke-width:1.5;"/><path d="M1279.5,716.9922 C1279.5,726.9922 1297.5,726.9922 1297.5,726.9922 C1297.5,726.9922 1315.5,726.9922 1315.5,716.9922 " fill="none" style="stroke:#181818;stroke-width:1.5;"/><polygon fill="#181818" points="193.5,149.5703,203.5,153.5703,193.5,157.5703,197.5,153.5703" style="stroke:#181818;stroke-width:1.0;"/><line style="stroke:#181818;stroke-width:1.0;" x1="34.5" x2="199.5" y1="153.5703" y2="153.5703"/><text fill="#000000" font-family="sans-serif" font-size="13" lengthAdjust="spacing" textLength="147" x="41.5" y="148.7139">seleciona imagens (&lt;= 5)</text><polygon fill="#181818" points="359.5,179.9219,369.5,183.9219,359.5,187.9219,363.5,183.9219" style="stroke:#181818;stroke-width:1.0;"/><line style="stroke:#181818;stroke-width:1.0;" x1="205.5" x2="365.5" y1="183.9219" y2="183.9219"/><text fill="#000000" font-family="sans-serif" font-size="13" lengthAdjust="spacing" textLength="142" x="212.5" y="179.0654">upload (unsigned preset)</text><polygon fill="#181818" points="216.5,210.2734,206.5,214.2734,216.5,218.2734,212.5,214.2734" style="stroke:#181818;stroke-width:1.0;"/><line style="stroke:#181818;stroke-width:1.0;stroke-dasharray:2.0,2.0;" x1="210.5" x2="370.5" y1="214.2734" y2="214.2734"/><text fill="#000000" font-family="sans-serif" font-size="13" lengthAdjust="spacing" textLength="82" x="222.5" y="209.417">URLs seguras</text><polygon fill="#181818" points="488.5,256.9766,498.5,260.9766,488.5,264.9766,492.5,260.9766" style="stroke:#181818;stroke-width:1.0;"/><line style="stroke:#181818;stroke-width:1.0;" x1="205.5" x2="494.5" y1="260.9766" y2="260.9766"/><text fill="#000000" font-family="sans-serif" font-size="13" lengthAdjust="spacing" textLength="210" x="212.5" y="239.7686">POST {titulo, descricao, quantidade,</text><text fill="#000000" font-family="sans-serif" font-size="13" lengthAdjust="spacing" textLength="186" x="212.5" y="256.1201">endereco, materialId, imagens[]}</text><polygon fill="#181818" points="657.5,287.3281,667.5,291.3281,657.5,295.3281,661.5,291.3281" style="stroke:#181818;stroke-width:1.0;"/><line style="stroke:#181818;stroke-width:1.0;" x1="500.5" x2="663.5" y1="291.3281" y2="291.3281"/><text fill="#000000" font-family="sans-serif" font-size="13" lengthAdjust="spacing" textLength="145" x="507.5" y="286.4717">autorizarRota(["usuario"])</text><polygon fill="#181818" points="511.5,317.6797,501.5,321.6797,511.5,325.6797,507.5,321.6797" style="stroke:#181818;stroke-width:1.0;"/><line style="stroke:#181818;stroke-width:1.0;stroke-dasharray:2.0,2.0;" x1="505.5" x2="668.5" y1="321.6797" y2="321.6797"/><text fill="#000000" font-family="sans-serif" font-size="13" lengthAdjust="spacing" textLength="68" x="517.5" y="316.8232">session OK</text><polygon fill="#181818" points="818,348.0313,828,352.0313,818,356.0313,822,352.0313" style="stroke:#181818;stroke-width:1.0;"/><line style="stroke:#181818;stroke-width:1.0;" x1="500.5" x2="824" y1="352.0313" y2="352.0313"/><text fill="#000000" font-family="sans-serif" font-size="13" lengthAdjust="spacing" textLength="94" x="507.5" y="347.1748">safeParse(body)</text><path d="M119.5,367.0313 L180.5,367.0313 L180.5,375.3828 L170.5,385.3828 L119.5,385.3828 L119.5,367.0313 " fill="#EEEEEE" style="stroke:#000000;stroke-width:1.5;"/><rect fill="none" height="306.3516" style="stroke:#000000;stroke-width:1.5;" width="1229.5" x="119.5" y="367.0313"/><text fill="#000000" font-family="sans-serif" font-size="13" font-weight="bold" lengthAdjust="spacing" textLength="16" x="134.5" y="381.5264">alt</text><text fill="#000000" font-family="sans-serif" font-size="11" font-weight="bold" lengthAdjust="spacing" textLength="50" x="195.5" y="380.4502">[invalido]</text><polygon fill="#181818" points="511.5,403.7344,501.5,407.7344,511.5,411.7344,507.5,407.7344" style="stroke:#181818;stroke-width:1.0;"/><line style="stroke:#181818;stroke-width:1.0;stroke-dasharray:2.0,2.0;" x1="505.5" x2="829" y1="407.7344" y2="407.7344"/><text fill="#000000" font-family="sans-serif" font-size="13" lengthAdjust="spacing" textLength="94" x="517.5" y="402.8779">erros por campo</text><polygon fill="#181818" points="216.5,434.0859,206.5,438.0859,216.5,442.0859,212.5,438.0859" style="stroke:#181818;stroke-width:1.0;"/><line style="stroke:#181818;stroke-width:1.0;stroke-dasharray:2.0,2.0;" x1="210.5" x2="499.5" y1="438.0859" y2="438.0859"/><text fill="#000000" font-family="sans-serif" font-size="13" lengthAdjust="spacing" textLength="110" x="222.5" y="433.2295">400 {error, resumo}</text><line style="stroke:#000000;stroke-width:1.0;stroke-dasharray:2.0,2.0;" x1="119.5" x2="1349" y1="447.0859" y2="447.0859"/><text fill="#000000" font-family="sans-serif" font-size="11" font-weight="bold" lengthAdjust="spacing" textLength="40" x="124.5" y="458.5049">[valido]</text><polygon fill="#181818" points="998.5,480.2734,1008.5,484.2734,998.5,488.2734,1002.5,484.2734" style="stroke:#181818;stroke-width:1.0;"/><line style="stroke:#181818;stroke-width:1.0;" x1="500.5" x2="1004.5" y1="484.2734" y2="484.2734"/><text fill="#000000" font-family="sans-serif" font-size="13" lengthAdjust="spacing" textLength="165" x="507.5" y="479.417">criarSolicitacao(userId, data)</text><line style="stroke:#181818;stroke-width:1.0;" x1="1010.5" x2="1052.5" y1="514.625" y2="514.625"/><line style="stroke:#181818;stroke-width:1.0;" x1="1052.5" x2="1052.5" y1="514.625" y2="527.625"/><line style="stroke:#181818;stroke-width:1.0;" x1="1011.5" x2="1052.5" y1="527.625" y2="527.625"/><polygon fill="#181818" points="1021.5,523.625,1011.5,527.625,1021.5,531.625,1017.5,527.625" style="stroke:#181818;stroke-width:1.0;"/><text fill="#000000" font-family="sans-serif" font-size="13" lengthAdjust="spacing" textLength="216" x="1017.5" y="509.7686">normaliza/deduplica imagens (max 5)</text><polygon fill="#181818" points="1285.5,570.3281,1295.5,574.3281,1285.5,578.3281,1289.5,574.3281" style="stroke:#181818;stroke-width:1.0;"/><line style="stroke:#181818;stroke-width:1.0;" x1="1010.5" x2="1291.5" y1="574.3281" y2="574.3281"/><text fill="#000000" font-family="sans-serif" font-size="13" lengthAdjust="spacing" textLength="263" x="1017.5" y="553.1201">create Solicitacao (pendente, aprovado=false)</text><text fill="#000000" font-family="sans-serif" font-size="13" lengthAdjust="spacing" textLength="152" x="1017.5" y="569.4717">+ imagens (nested create)</text><polygon fill="#181818" points="1021.5,600.6797,1011.5,604.6797,1021.5,608.6797,1017.5,604.6797" style="stroke:#181818;stroke-width:1.0;"/><line style="stroke:#181818;stroke-width:1.0;stroke-dasharray:2.0,2.0;" x1="1015.5" x2="1296.5" y1="604.6797" y2="604.6797"/><text fill="#000000" font-family="sans-serif" font-size="13" lengthAdjust="spacing" textLength="62" x="1027.5" y="599.8232">solicitacao</text><polygon fill="#181818" points="511.5,631.0313,501.5,635.0313,511.5,639.0313,507.5,635.0313" style="stroke:#181818;stroke-width:1.0;"/><line style="stroke:#181818;stroke-width:1.0;stroke-dasharray:2.0,2.0;" x1="505.5" x2="1009.5" y1="635.0313" y2="635.0313"/><text fill="#000000" font-family="sans-serif" font-size="13" lengthAdjust="spacing" textLength="62" x="517.5" y="630.1748">solicitacao</text><polygon fill="#181818" points="216.5,661.3828,206.5,665.3828,216.5,669.3828,212.5,665.3828" style="stroke:#181818;stroke-width:1.0;"/><line style="stroke:#181818;stroke-width:1.0;stroke-dasharray:2.0,2.0;" x1="210.5" x2="499.5" y1="665.3828" y2="665.3828"/><text fill="#000000" font-family="sans-serif" font-size="13" lengthAdjust="spacing" textLength="21" x="222.5" y="660.5264">201</text><!--SRC=[TLDDJzj04BtlhnZbPAjsarRbKfKUC2b2ZKI8ImyX70RlaAvaxxhx4HKG_vrP4pinKg_xthoPUM_MAryJbFFhV7O2EHHMeONIrAfI7Yiqa5IcWT3M1YL80jNWbhHB1LRUM2YKH8b6j6WzbxIeFKn-6Dk0DZi4Tn2Q03gukHmpYze4gJJQnmuk5cDuULN-WYcsQZe86N8TTRuSKwq9dl9jG2ixV7KnneycAIoXfxBwGmr2iZOoxIhM_otuwCZkL4KRNKLxodTBbRyB8T7ZFJg2fN5-QwcyNaJe_4o8lKMGV-VruIiuggbIHcFl9IJVJk4a5OmofrWmP-zt4hHJMqqIMakEV2eOpNkXczN2iTesM7JxulcItplNdhtoeJOPP-PuQfurWx-1DulJKBRHf2LPglYvOJTuh_fIPlr8jtSlWhLOSNN1YXWuQ_M4TcKy9hUJuDXdPIPtgM0yxnixSeuNWwkV- -9rVCG7Mg9rbDmR-SXtKtjGUeUraaO0KuPoijOuQFcgAcpQ24QLVjilinayHuhDWCq8ZNaHLBFZWzHRJqw3sU-3IW9d61UCGQLCZhI1hVbWMUK9fv8aUyzs7S9fy5zCPoWvF-lqumsDFqeRBTMUCi3MylLBS_g0F66wqHyESfgSvq3V1A8iw-N394TNrtSSt1r1nzPyddqItFiL]--></g></svg>