<?xml version="1.0" encoding="us-ascii" standalone="no"?><svg xmlns="http://www.w3.org/2000/svg" xmlns:xlink="http://www.w3.org/1999/xlink" contentStyleType="text/css" height="549px" preserveAspectRatio="none" style="width:996px;height:549px;background:#FFFFFF;" version="1.1" viewBox="0 0 996 549" width="996px" zoomAndPan="magnify"><defs/><g><text fill="#000000" font-family="sans-serif" font-size="14" font-weight="bold" lengthAdjust="spacing" textLength="335" x="329" y="29.5332">SEQ-07 - Moderar Solicitacao (aprovar / rejeitar)</text><line style="stroke:#181818;stroke-width:0.5;stroke-dasharray:5.0,5.0;" x1="51" x2="51" y1="121.2188" y2="467.0859"/><line style="stroke:#181818;stroke-width:0.5;stroke-dasharray:5.0,5.0;" x1="241" x2="241" y1="121.2188" y2="467.0859"/><line style="stroke:#181818;stroke-width:0.5;stroke-dasharray:5.0,5.0;" x1="410" x2="410" y1="121.2188" y2="467.0859"/><line style="stroke:#181818;stroke-width:0.5;stroke-dasharray:5.0,5.0;" x1="552" x2="552" y1="121.2188" y2="467.0859"/><line style="stroke:#181818;stroke-width:0.5;stroke-dasharray:5.0,5.0;" x1="741" x2="741" y1="121.2188" y2="467.0859"/><line style="stroke:#181818;stroke-width:0.5;stroke-dasharray:5.0,5.0;" x1="938" x2="938" y1="121.2188" y2="467.0859"/><text fill="#000000" font-family="sans-serif" font-size="14" lengthAdjust="spacing" textLength="87" x="5" y="118.1426">Administrador</text><ellipse cx="51.5" cy="52.1094" fill="#E2E2F0" rx="8" ry="8" style="stroke:#181818;stroke-width:0.5;"/><path d="M51.5,60.1094 L51.5,87.1094 M38.5,68.1094 L64.5,68.1094 M51.5,87.1094 L38.5,102.1094 M51.5,87.1094 L64.5,102.1094 " fill="none" style="stroke:#181818;stroke-width:0.5;"/><text fill="#000000" font-family="sans-serif" font-size="14" lengthAdjust="spacing" textLength="87" x="5" y="480.6191">Administrador</text><ellipse cx="51.5" cy="492.1953" fill="#E2E2F0" rx="8" ry="8" style="stroke:#181818;stroke-width:0.5;"/><path d="M51.5,500.1953 L51.5,527.1953 M38.5,508.1953 L64.5,508.1953 M51.5,527.1953 L38.5,542.1953 M51.5,527.1953 L64.5,542.1953 " fill="none" style="stroke:#181818;stroke-width:0.5;"/><rect fill="#E2E2F0" height="31.6094" rx="2.5" ry="2.5" style="stroke:#181818;stroke-width:0.5;" width="229" x="127" y="88.6094"/><text fill="#000000" font-family="sans-serif" font-size="14" lengthAdjust="spacing" textLength="215" x="134" y="110.1426">PATCH /api/admin/solicitacoes/[id]</text><rect fill="#E2E2F0" height="31.6094" rx="2.5" ry="2.5" style="stroke:#181818;stroke-width:0.5;" width="229" x="127" y="466.0859"/><text fill="#000000" font-family="sans-serif" font-size="14" lengthAdjust="spacing" textLength="215" x="134" y="487.6191">PATCH /api/admin/solicitacoes/[id]</text><rect fill="#E2E2F0" height="31.6094" rx="2.5" ry="2.5" style="stroke:#181818;stroke-width:0.5;" width="89" x="366" y="88.6094"/><text fill="#000000" font-family="sans-serif" font-size="14" lengthAdjust="spacing" textLength="75" x="373" y="110.1426">route-guard</text><rect fill="#E2E2F0" height="31.6094" rx="2.5" ry="2.5" style="stroke:#181818;stroke-width:0.5;" width="89" x="366" y="466.0859"/><text fill="#000000" font-family="sans-serif" font-size="14" lengthAdjust="spacing" textLength="75" x="373" y="487.6191">route-guard</text><rect fill="#E2E2F0" height="49.2188" rx="2.5" ry="2.5" style="stroke:#181818;stroke-width:0.5;" width="175" x="465" y="71"/><text fill="#000000" font-family="sans-serif" font-size="14" lengthAdjust="spacing" textLength="115" x="495" y="92.5332">solicitacao.service</text><text fill="#000000" font-family="sans-serif" font-size="14" lengthAdjust="spacing" textLength="161" x="472" y="110.1426">atualizarStatusSolicitacao</text><rect fill="#E2E2F0" height="49.2188" rx="2.5" ry="2.5" style="stroke:#181818;stroke-width:0.5;" width="175" x="465" y="466.0859"/><text fill="#000000" font-family="sans-serif" font-size="14" lengthAdjust="spacing" textLength="115" x="495" y="487.6191">solicitacao.service</text><text fill="#000000" font-family="sans-serif" font-size="14" lengthAdjust="spacing" textLength="161" x="472" y="505.2285">atualizarStatusSolicitacao</text><rect fill="#E2E2F0" height="31.6094" rx="2.5" ry="2.5" style="stroke:#181818;stroke-width:0.5;" width="131" x="676" y="88.6094"/><text fill="#000000" font-family="sans-serif" font-size="14" lengthAdjust="spacing" textLength="117" x="683" y="110.1426">notificacao.service</text><rect fill="#E2E2F0" height="31.6094" rx="2.5" ry="2.5" style="stroke:#181818;stroke-width:0.5;" width="131" x="676" y="466.0859"/><text fill="#000000" font-family="sans-serif" font-size="14" lengthAdjust="spacing" textLength="117" x="683" y="487.6191">notificacao.service</text><text fill="#000000" font-family="sans-serif" font-size="14" lengthAdjust="spacing" textLength="77" x="897" y="118.1426">PostgreSQL</text><path d="M920.5,67.6094 C920.5,57.6094 938.5,57.6094 938.5,57.6094 C938.5,57.6094 956.5,57.6094 956.5,67.6094 L956.5,93.6094 C956.5,103.6094 938.5,103.6094 938.5,103.6094 C938.5,103.6094 920.5,103.6094 920.5,93.6094 L920.5,67.6094 " fill="#E2E2F0" style="stroke:#181818;stroke-width:1.5;"/><path d="M920.5,67.6094 C920.5,77.6094 938.5,77.6094 938.5,77.6094 C938.5,77.6094 956.5,77.6094 956.5,67.6094 " fill="none" style="stroke:#181818;stroke-width:1.5;"/><text fill="#000000" font-family="sans-serif" font-size="14" lengthAdjust="spacing" textLength="77" x="897" y="480.6191">PostgreSQL</text><path d="M920.5,493.6953 C920.5,483.6953 938.5,483.6953 938.5,483.6953 C938.5,483.6953 956.5,483.6953 956.5,493.6953 L956.5,519.6953 C956.5,529.6953 938.5,529.6953 938.5,529.6953 C938.5,529.6953 920.5,529.6953 920.5,519.6953 L920.5,493.6953 " fill="#E2E2F0" style="stroke:#181818;stroke-width:1.5;"/><path d="M920.5,493.6953 C920.5,503.6953 938.5,503.6953 938.5,503.6953 C938.5,503.6953 956.5,503.6953 956.5,493.6953 " fill="none" style="stroke:#181818;stroke-width:1.5;"/><polygon fill="#181818" points="229.5,149.5703,239.5,153.5703,229.5,157.5703,233.5,153.5703" style="stroke:#181818;stroke-width:1.0;"/><line style="stroke:#181818;stroke-width:1.0;" x1="51.5" x2="235.5" y1="153.5703" y2="153.5703"/><text fill="#000000" font-family="sans-serif" font-size="13" lengthAdjust="spacing" textLength="166" x="58.5" y="148.7139">PATCH {aprovado: true|false}</text><polygon fill="#181818" points="398.5,179.9219,408.5,183.9219,398.5,187.9219,402.5,183.9219" style="stroke:#181818;stroke-width:1.0;"/><line style="stroke:#181818;stroke-width:1.0;" x1="241.5" x2="404.5" y1="183.9219" y2="183.9219"/><text fill="#000000" font-family="sans-serif" font-size="13" lengthAdjust="spacing" textLength="138" x="248.5" y="179.0654">autorizarRota(["admin"])</text><polygon fill="#181818" points="252.5,210.2734,242.5,214.2734,252.5,218.2734,248.5,214.2734" style="stroke:#181818;stroke-width:1.0;"/><line style="stroke:#181818;stroke-width:1.0;stroke-dasharray:2.0,2.0;" x1="246.5" x2="409.5" y1="214.2734" y2="214.2734"/><text fill="#000000" font-family="sans-serif" font-size="13" lengthAdjust="spacing" textLength="68" x="258.5" y="209.417">session OK</text><polygon fill="#181818" points="540.5,240.625,550.5,244.625,540.5,248.625,544.5,244.625" style="stroke:#181818;stroke-width:1.0;"/><line style="stroke:#181818;stroke-width:1.0;" x1="241.5" x2="546.5" y1="244.625" y2="244.625"/><text fill="#000000" font-family="sans-serif" font-size="13" lengthAdjust="spacing" textLength="228" x="248.5" y="239.7686">atualizarStatusSolicitacao(id, aprovado)</text><polygon fill="#181818" points="926.5,270.9766,936.5,274.9766,926.5,278.9766,930.5,274.9766" style="stroke:#181818;stroke-width:1.0;"/><line style="stroke:#181818;stroke-width:1.0;" x1="552.5" x2="932.5" y1="274.9766" y2="274.9766"/><text fill="#000000" font-family="sans-serif" font-size="13" lengthAdjust="spacing" textLength="206" x="559.5" y="270.1201">update status = aprovada | rejeitada</text><polygon fill="#181818" points="729.5,301.3281,739.5,305.3281,729.5,309.3281,733.5,305.3281" style="stroke:#181818;stroke-width:1.0;"/><line style="stroke:#181818;stroke-width:1.0;" x1="552.5" x2="735.5" y1="305.3281" y2="305.3281"/><text fill="#000000" font-family="sans-serif" font-size="13" lengthAdjust="spacing" textLength="165" x="559.5" y="300.4717">notificarSolicitacaoAvaliada()</text><polygon fill="#181818" points="926.5,331.6797,936.5,335.6797,926.5,339.6797,930.5,335.6797" style="stroke:#181818;stroke-width:1.0;"/><line style="stroke:#181818;stroke-width:1.0;" x1="741.5" x2="932.5" y1="335.6797" y2="335.6797"/><text fill="#000000" font-family="sans-serif" font-size="13" lengthAdjust="spacing" textLength="173" x="748.5" y="330.8232">create Notificacao (best-effort)</text><polygon fill="#181818" points="252.5,362.0313,242.5,366.0313,252.5,370.0313,248.5,366.0313" style="stroke:#181818;stroke-width:1.0;"/><line style="stroke:#181818;stroke-width:1.0;stroke-dasharray:2.0,2.0;" x1="246.5" x2="551.5" y1="366.0313" y2="366.0313"/><text fill="#000000" font-family="sans-serif" font-size="13" lengthAdjust="spacing" textLength="62" x="258.5" y="361.1748">solicitacao</text><polygon fill="#181818" points="62.5,392.3828,52.5,396.3828,62.5,400.3828,58.5,396.3828" style="stroke:#181818;stroke-width:1.0;"/><line style="stroke:#181818;stroke-width:1.0;stroke-dasharray:2.0,2.0;" x1="56.5" x2="240.5" y1="396.3828" y2="396.3828"/><text fill="#000000" font-family="sans-serif" font-size="13" lengthAdjust="spacing" textLength="21" x="68.5" y="391.5264">200</text><path d="M690,409.3828 L690,451.3828 L989,451.3828 L989,419.3828 L979,409.3828 L690,409.3828 " fill="#FEFFDD" style="stroke:#181818;stroke-width:0.5;"/><path d="M979,409.3828 L979,419.3828 L989,419.3828 L979,409.3828 " fill="#FEFFDD" style="stroke:#181818;stroke-width:0.5;"/><text fill="#000000" font-family="sans-serif" font-size="13" lengthAdjust="spacing" textLength="158" x="752" y="427.8779">falha ao notificar e logada e</text><text fill="#000000" font-family="sans-serif" font-size="13" lengthAdjust="spacing" textLength="166" x="752" y="444.2295">engolida (nao quebra o fluxo)</text><!--SRC=[TL5DRzD04BtlhnZbP4irZhWWHG8f_L2H09F65PVImyGx3ekCnyoE8mJblpDswoG-S5lDlFVclRSQj24eR-wovHl8u1Dx4XGekGbLKAoG8S5E-63378I-aqqbTLWf2wpzZz26g8AUnNKeQgmEMuN5Pdr_zHvox4AE0ogFaoHJp1-2Vrm0HhZPp6d2lLAsxr7ykD_UplVnPEnL93c4Yhwsg3qsuJTAgVQCP-P7ZVBBrLoaPGrrgCv5Hc3XF2hkC19iEEfUgBpxE2okBvsRPONidLc75Jp7_FDSaUSLgFJqL6CJwQypXE6sjuR3tleQB6vPCNbOZ9qi7bDdssmIYnHZu1O-VtYXclE1-zzuIV0NCDrEtG0trlMbaVhEiX34aG9l9nJ2q_IB7YT2OVYf4pcJNn_ihk6Ir1L7uKfe42vE7KAoewWPrJMBlhWuHZgfZPbiFYzo1Q-NIsVN2VX00iN5UCKQ_8PWsaTVGD3mVaXWFqxjteJjdRI6-TdJJX0OwgR_nUa_]--></g></svg>