<?xml version="1.0" encoding="us-ascii" standalone="no"?><svg xmlns="http://www.w3.org/2000/svg" xmlns:xlink="http://www.w3.org/1999/xlink" contentStyleType="text/css" height="709px" preserveAspectRatio="none" style="width:1177px;height:709px;background:#FFFFFF;" version="1.1" viewBox="0 0 1177 709" width="1177px" zoomAndPan="magnify"><defs/><g><text fill="#000000" font-family="sans-serif" font-size="14" font-weight="bold" lengthAdjust="spacing" textLength="357" x="411.25" y="29.5332">SEQ-09 - Negociar (chat pre-aceite, por solicitacao)</text><rect fill="none" height="277" style="stroke:#000000;stroke-width:1.5;" width="1160.5" x="10" y="333.3281"/><line style="stroke:#181818;stroke-width:0.5;stroke-dasharray:5.0,5.0;" x1="51" x2="51" y1="121.2188" y2="627.3281"/><line style="stroke:#181818;stroke-width:0.5;stroke-dasharray:5.0,5.0;" x1="121" x2="121" y1="121.2188" y2="627.3281"/><line style="stroke:#181818;stroke-width:0.5;stroke-dasharray:5.0,5.0;" x1="344.5" x2="344.5" y1="121.2188" y2="627.3281"/><line style="stroke:#181818;stroke-width:0.5;stroke-dasharray:5.0,5.0;" x1="755" x2="755" y1="121.2188" y2="627.3281"/><line style="stroke:#181818;stroke-width:0.5;stroke-dasharray:5.0,5.0;" x1="990.5" x2="990.5" y1="121.2188" y2="627.3281"/><line style="stroke:#181818;stroke-width:0.5;stroke-dasharray:5.0,5.0;" x1="1118.5" x2="1118.5" y1="121.2188" y2="627.3281"/><text fill="#000000" font-family="sans-serif" font-size="14" lengthAdjust="spacing" textLength="56" x="20" y="118.1426">Empresa</text><ellipse cx="51" cy="52.1094" fill="#E2E2F0" rx="8" ry="8" style="stroke:#181818;stroke-width:0.5;"/><path d="M51,60.1094 L51,87.1094 M38,68.1094 L64,68.1094 M51,87.1094 L38,102.1094 M51,87.1094 L64,102.1094 " fill="none" style="stroke:#181818;stroke-width:0.5;"/><text fill="#000000" font-family="sans-serif" font-size="14" lengthAdjust="spacing" textLength="56" x="20" y="640.8613">Empresa</text><ellipse cx="51" cy="652.4375" fill="#E2E2F0" rx="8" ry="8" style="stroke:#181818;stroke-width:0.5;"/><path d="M51,660.4375 L51,687.4375 M38,668.4375 L64,668.4375 M51,687.4375 L38,702.4375 M51,687.4375 L64,702.4375 " fill="none" style="stroke:#181818;stroke-width:0.5;"/><text fill="#000000" font-family="sans-serif" font-size="14" lengthAdjust="spacing" textLength="53" x="92" y="118.1426">Cidadao</text><ellipse cx="121.5" cy="52.1094" fill="#E2E2F0" rx="8" ry="8" style="stroke:#181818;stroke-width:0.5;"/><path d="M121.5,60.1094 L121.5,87.1094 M108.5,68.1094 L134.5,68.1094 M121.5,87.1094 L108.5,102.1094 M121.5,87.1094 L134.5,102.1094 " fill="none" style="stroke:#181818;stroke-width:0.5;"/><text fill="#000000" font-family="sans-serif" font-size="14" lengthAdjust="spacing" textLength="53" x="92" y="640.8613">Cidadao</text><ellipse cx="121.5" cy="652.4375" fill="#E2E2F0" rx="8" ry="8" style="stroke:#181818;stroke-width:0.5;"/><path d="M121.5,660.4375 L121.5,687.4375 M108.5,668.4375 L134.5,668.4375 M121.5,687.4375 L108.5,702.4375 M121.5,687.4375 L134.5,702.4375 " fill="none" style="stroke:#181818;stroke-width:0.5;"/><rect fill="#E2E2F0" height="31.6094" rx="2.5" ry="2.5" style="stroke:#181818;stroke-width:0.5;" width="319" x="185.5" y="88.6094"/><text fill="#000000" font-family="sans-serif" font-size="14" lengthAdjust="spacing" textLength="305" x="192.5" y="110.1426">POST /api/conversas-solicitacao/[id]/mensagens</text><rect fill="#E2E2F0" height="31.6094" rx="2.5" ry="2.5" style="stroke:#181818;stroke-width:0.5;" width="319" x="185.5" y="626.3281"/><text fill="#000000" font-family="sans-serif" font-size="14" lengthAdjust="spacing" textLength="305" x="192.5" y="647.8613">POST /api/conversas-solicitacao/[id]/mensagens</text><rect fill="#E2E2F0" height="31.6094" rx="2.5" ry="2.5" style="stroke:#181818;stroke-width:0.5;" width="192" x="659" y="88.6094"/><text fill="#000000" font-family="sans-serif" font-size="14" lengthAdjust="spacing" textLength="178" x="666" y="110.1426">conversa-solicitacao.service</text><rect fill="#E2E2F0" height="31.6094" rx="2.5" ry="2.5" style="stroke:#181818;stroke-width:0.5;" width="192" x="659" y="626.3281"/><text fill="#000000" font-family="sans-serif" font-size="14" lengthAdjust="spacing" textLength="178" x="666" y="647.8613">conversa-solicitacao.service</text><rect fill="#E2E2F0" height="31.6094" rx="2.5" ry="2.5" style="stroke:#181818;stroke-width:0.5;" width="131" x="925.5" y="88.6094"/><text fill="#000000" font-family="sans-serif" font-size="14" lengthAdjust="spacing" textLength="117" x="932.5" y="110.1426">notificacao.service</text><rect fill="#E2E2F0" height="31.6094" rx="2.5" ry="2.5" style="stroke:#181818;stroke-width:0.5;" width="131" x="925.5" y="626.3281"/><text fill="#000000" font-family="sans-serif" font-size="14" lengthAdjust="spacing" textLength="117" x="932.5" y="647.8613">notificacao.service</text><text fill="#000000" font-family="sans-serif" font-size="14" lengthAdjust="spacing" textLength="77" x="1077.5" y="118.1426">PostgreSQL</text><path d="M1101,67.6094 C1101,57.6094 1119,57.6094 1119,57.6094 C1119,57.6094 1137,57.6094 1137,67.6094 L1137,93.6094 C1137,103.6094 1119,103.6094 1119,103.6094 C1119,103.6094 1101,103.6094 1101,93.6094 L1101,67.6094 " fill="#E2E2F0" style="stroke:#181818;stroke-width:1.5;"/><path d="M1101,67.6094 C1101,77.6094 1119,77.6094 1119,77.6094 C1119,77.6094 1137,77.6094 1137,67.6094 " fill="none" style="stroke:#181818;stroke-width:1.5;"/><text fill="#000000" font-family="sans-serif" font-size="14" lengthAdjust="spacing" textLength="77" x="1077.5" y="640.8613">PostgreSQL</text><path d="M1101,653.9375 C1101,643.9375 1119,643.9375 1119,643.9375 C1119,643.9375 1137,643.9375 1137,653.9375 L1137,679.9375 C1137,689.9375 1119,689.9375 1119,689.9375 C1119,689.9375 1101,689.9375 1101,679.9375 L1101,653.9375 " fill="#E2E2F0" style="stroke:#181818;stroke-width:1.5;"/><path d="M1101,653.9375 C1101,663.9375 1119,663.9375 1119,663.9375 C1119,663.9375 1137,663.9375 1137,653.9375 " fill="none" style="stroke:#181818;stroke-width:1.5;"/><polygon fill="#181818" points="333,149.5703,343,153.5703,333,157.5703,337,153.5703" style="stroke:#181818;stroke-width:1.0;"/><line style="stroke:#181818;stroke-width:1.0;" x1="51" x2="339" y1="153.5703" y2="153.5703"/><text fill="#000000" font-family="sans-serif" font-size="13" lengthAdjust="spacing" textLength="270" x="58" y="148.7139">abre conversa (obterOuCriarConversaEmpresa)</text><polygon fill="#181818" points="743,179.9219,753,183.9219,743,187.9219,747,183.9219" style="stroke:#181818;stroke-width:1.0;"/><line style="stroke:#181818;stroke-width:1.0;" x1="345" x2="749" y1="183.9219" y2="183.9219"/><text fill="#000000" font-family="sans-serif" font-size="13" lengthAdjust="spacing" textLength="245" x="352" y="179.0654">upsert ConversaSolicitacao (status aberta)</text><polygon fill="#181818" points="1107,210.2734,1117,214.2734,1107,218.2734,1111,214.2734" style="stroke:#181818;stroke-width:1.0;"/><line style="stroke:#181818;stroke-width:1.0;" x1="755" x2="1113" y1="214.2734" y2="214.2734"/><text fill="#000000" font-family="sans-serif" font-size="13" lengthAdjust="spacing" textLength="134" x="762" y="209.417">create/update conversa</text><polygon fill="#181818" points="743,240.625,753,244.625,743,248.625,747,244.625" style="stroke:#181818;stroke-width:1.0;"/><line style="stroke:#181818;stroke-width:1.0;" x1="345" x2="749" y1="244.625" y2="244.625"/><text fill="#000000" font-family="sans-serif" font-size="13" lengthAdjust="spacing" textLength="386" x="352" y="239.7686">enviarMensagemConversaSolicitacao(conversaId, remetente, texto)</text><line style="stroke:#181818;stroke-width:1.0;" x1="755" x2="797" y1="274.9766" y2="274.9766"/><line style="stroke:#181818;stroke-width:1.0;" x1="797" x2="797" y1="274.9766" y2="287.9766"/><line style="stroke:#181818;stroke-width:1.0;" x1="756" x2="797" y1="287.9766" y2="287.9766"/><polygon fill="#181818" points="766,283.9766,756,287.9766,766,291.9766,762,287.9766" style="stroke:#181818;stroke-width:1.0;"/><text fill="#000000" font-family="sans-serif" font-size="13" lengthAdjust="spacing" textLength="145" x="762" y="270.1201">normaliza msg (&lt;= 1000)</text><polygon fill="#181818" points="1107,314.3281,1117,318.3281,1107,322.3281,1111,318.3281" style="stroke:#181818;stroke-width:1.0;"/><line style="stroke:#181818;stroke-width:1.0;" x1="755" x2="1113" y1="318.3281" y2="318.3281"/><text fill="#000000" font-family="sans-serif" font-size="13" lengthAdjust="spacing" textLength="266" x="762" y="313.4717">buscarConversaAutorizada(conversaId, userId)</text><path d="M10,333.3281 L71,333.3281 L71,341.6797 L61,351.6797 L10,351.6797 L10,333.3281 " fill="#EEEEEE" style="stroke:#000000;stroke-width:1.5;"/><rect fill="none" height="277" style="stroke:#000000;stroke-width:1.5;" width="1160.5" x="10" y="333.3281"/><text fill="#000000" font-family="sans-serif" font-size="13" font-weight="bold" lengthAdjust="spacing" textLength="16" x="25" y="347.8232">alt</text><text fill="#000000" font-family="sans-serif" font-size="11" font-weight="bold" lengthAdjust="spacing" textLength="270" x="86" y="346.7471">[sem permissao / conversa nao aberta / ja aceita]</text><polygon fill="#181818" points="356,370.0313,346,374.0313,356,378.0313,352,374.0313" style="stroke:#181818;stroke-width:1.0;"/><line style="stroke:#181818;stroke-width:1.0;stroke-dasharray:2.0,2.0;" x1="350" x2="754" y1="374.0313" y2="374.0313"/><text fill="#000000" font-family="sans-serif" font-size="13" lengthAdjust="spacing" textLength="31" x="362" y="369.1748">throw</text><polygon fill="#181818" points="62,400.3828,52,404.3828,62,408.3828,58,404.3828" style="stroke:#181818;stroke-width:1.0;"/><line style="stroke:#181818;stroke-width:1.0;stroke-dasharray:2.0,2.0;" x1="56" x2="344" y1="404.3828" y2="404.3828"/><text fill="#000000" font-family="sans-serif" font-size="13" lengthAdjust="spacing" textLength="21" x="68" y="399.5264">400</text><line style="stroke:#000000;stroke-width:1.0;stroke-dasharray:2.0,2.0;" x1="10" x2="1170.5" y1="413.3828" y2="413.3828"/><text fill="#000000" font-family="sans-serif" font-size="11" font-weight="bold" lengthAdjust="spacing" textLength="22" x="15" y="424.8018">[ok]</text><polygon fill="#181818" points="1107,446.5703,1117,450.5703,1107,454.5703,1111,450.5703" style="stroke:#181818;stroke-width:1.0;"/><line style="stroke:#181818;stroke-width:1.0;" x1="755" x2="1113" y1="450.5703" y2="450.5703"/><text fill="#000000" font-family="sans-serif" font-size="13" lengthAdjust="spacing" textLength="161" x="762" y="445.7139">create MensagemPreAceite</text><polygon fill="#181818" points="979,476.9219,989,480.9219,979,484.9219,983,480.9219" style="stroke:#181818;stroke-width:1.0;"/><line style="stroke:#181818;stroke-width:1.0;" x1="755" x2="985" y1="480.9219" y2="480.9219"/><text fill="#000000" font-family="sans-serif" font-size="13" lengthAdjust="spacing" textLength="212" x="762" y="476.0654">notificarNovaMensagem(destinatario)</text><polygon fill="#181818" points="1107,507.2734,1117,511.2734,1107,515.2734,1111,511.2734" style="stroke:#181818;stroke-width:1.0;"/><line style="stroke:#181818;stroke-width:1.0;" x1="991" x2="1113" y1="511.2734" y2="511.2734"/><text fill="#000000" font-family="sans-serif" font-size="13" lengthAdjust="spacing" textLength="104" x="998" y="506.417">create Notificacao</text><polygon fill="#181818" points="356,537.625,346,541.625,356,545.625,352,541.625" style="stroke:#181818;stroke-width:1.0;"/><line style="stroke:#181818;stroke-width:1.0;stroke-dasharray:2.0,2.0;" x1="350" x2="754" y1="541.625" y2="541.625"/><text fill="#000000" font-family="sans-serif" font-size="13" lengthAdjust="spacing" textLength="64" x="362" y="536.7686">mensagem</text><polygon fill="#181818" points="62,567.9766,52,571.9766,62,575.9766,58,571.9766" style="stroke:#181818;stroke-width:1.0;"/><line style="stroke:#181818;stroke-width:1.0;stroke-dasharray:2.0,2.0;" x1="56" x2="344" y1="571.9766" y2="571.9766"/><text fill="#000000" font-family="sans-serif" font-size="13" lengthAdjust="spacing" textLength="21" x="68" y="567.1201">201</text><polygon fill="#181818" points="132.5,598.3281,122.5,602.3281,132.5,606.3281,128.5,602.3281" style="stroke:#181818;stroke-width:1.0;"/><line style="stroke:#181818;stroke-width:1.0;stroke-dasharray:2.0,2.0;" x1="126.5" x2="990" y1="602.3281" y2="602.3281"/><text fill="#000000" font-family="sans-serif" font-size="13" lengthAdjust="spacing" textLength="152" x="138.5" y="597.4717">(via SSE) nova mensagem</text><!--SRC=[RLDBJzmm4BxdLumuPIL2GiMbgAq4onwGQ5YKgfUgXrbxkhZ4TcHFGjLVtych8S0bKYRVQnvXmpL1jNl8Ye-GGKb7hmm6IDKZCZI1CbHac4wXyG6YhuqoZ0hz9a75KjfP0KMSthP6eqQVD1XOa0qwXfFzVVKDScnChhphA4ICsGkb_8VHFtDBBk9H7YU04NRxjSHCVCaxYnGwesWWLD-tQuRpR7uPzGPO9XeP3nW9zZxoCL3rSDT_kBbEagaPoBv80hW4F0I2sHjIVs0Az-qso8IsKtMYR18X24ro2Azjn99XnbHBQ4WZ8xTHf0KXj9uWl9jheQb0o9ItZKHSV5VAv3en_peEoxvZaCwqMtqAWImnkNvzJ7_O_xSRnPmF5clp5y768wIVFiDvKHJhJ8SsggNRgrQsB0IDAvzMshtLSX8rGoGB3GLhOfHsysLyJbx7hgNw6s4uB4nW29FD8-V7u9-bs3VTrwQDNC95KIHKozhyqynPZGtceUm3NGqtky3AeTdn84BfEvongQR8nib512FJ0K6-KYsNEteTTJfP-rxQ3yNvg2RLwQUGQYhBWwhQRIHDXui0EVqF]--></g></svg>