<?xml version="1.0" encoding="us-ascii" standalone="no"?><svg xmlns="http://www.w3.org/2000/svg" xmlns:xlink="http://www.w3.org/1999/xlink" contentStyleType="text/css" height="635px" preserveAspectRatio="none" style="width:1146px;height:635px;background:#FFFFFF;" version="1.1" viewBox="0 0 1146 635" width="1146px" zoomAndPan="magnify"><defs/><g><text fill="#000000" font-family="sans-serif" font-size="14" font-weight="bold" lengthAdjust="spacing" textLength="338" x="405" y="29.5332">SEQ-12 - Conversar na Coleta (chat operacional)</text><rect fill="none" height="277" style="stroke:#000000;stroke-width:1.5;" width="1129" x="10" y="259.625"/><line style="stroke:#181818;stroke-width:0.5;stroke-dasharray:5.0,5.0;" x1="89" x2="89" y1="121.2188" y2="553.625"/><line style="stroke:#181818;stroke-width:0.5;stroke-dasharray:5.0,5.0;" x1="277" x2="277" y1="121.2188" y2="553.625"/><line style="stroke:#181818;stroke-width:0.5;stroke-dasharray:5.0,5.0;" x1="564.5" x2="564.5" y1="121.2188" y2="553.625"/><line style="stroke:#181818;stroke-width:0.5;stroke-dasharray:5.0,5.0;" x1="808" x2="808" y1="121.2188" y2="553.625"/><line style="stroke:#181818;stroke-width:0.5;stroke-dasharray:5.0,5.0;" x1="959" x2="959" y1="121.2188" y2="553.625"/><line style="stroke:#181818;stroke-width:0.5;stroke-dasharray:5.0,5.0;" x1="1087" x2="1087" y1="121.2188" y2="553.625"/><text fill="#000000" font-family="sans-serif" font-size="14" lengthAdjust="spacing" textLength="133" x="20" y="118.1426">Cidadao ou Empresa</text><ellipse cx="89.5" cy="52.1094" fill="#E2E2F0" rx="8" ry="8" style="stroke:#181818;stroke-width:0.5;"/><path d="M89.5,60.1094 L89.5,87.1094 M76.5,68.1094 L102.5,68.1094 M89.5,87.1094 L76.5,102.1094 M89.5,87.1094 L102.5,102.1094 " fill="none" style="stroke:#181818;stroke-width:0.5;"/><text fill="#000000" font-family="sans-serif" font-size="14" lengthAdjust="spacing" textLength="133" x="20" y="567.1582">Cidadao ou Empresa</text><ellipse cx="89.5" cy="578.7344" fill="#E2E2F0" rx="8" ry="8" style="stroke:#181818;stroke-width:0.5;"/><path d="M89.5,586.7344 L89.5,613.7344 M76.5,594.7344 L102.5,594.7344 M89.5,613.7344 L76.5,628.7344 M89.5,613.7344 L102.5,628.7344 " fill="none" style="stroke:#181818;stroke-width:0.5;"/><rect fill="#E2E2F0" height="31.6094" rx="2.5" ry="2.5" style="stroke:#181818;stroke-width:0.5;" width="217" x="169" y="88.6094"/><text fill="#000000" font-family="sans-serif" font-size="14" lengthAdjust="spacing" textLength="203" x="176" y="110.1426">POST /api/mensagens/[coletaId]</text><rect fill="#E2E2F0" height="31.6094" rx="2.5" ry="2.5" style="stroke:#181818;stroke-width:0.5;" width="217" x="169" y="552.625"/><text fill="#000000" font-family="sans-serif" font-size="14" lengthAdjust="spacing" textLength="203" x="176" y="574.1582">POST /api/mensagens/[coletaId]</text><rect fill="#E2E2F0" height="49.2188" rx="2.5" ry="2.5" style="stroke:#181818;stroke-width:0.5;" width="132" x="498.5" y="71"/><text fill="#000000" font-family="sans-serif" font-size="14" lengthAdjust="spacing" textLength="118" x="505.5" y="92.5332">mensagem.service</text><text fill="#000000" font-family="sans-serif" font-size="14" lengthAdjust="spacing" textLength="108" x="510.5" y="110.1426">enviarMensagem</text><rect fill="#E2E2F0" height="49.2188" rx="2.5" ry="2.5" style="stroke:#181818;stroke-width:0.5;" width="132" x="498.5" y="552.625"/><text fill="#000000" font-family="sans-serif" font-size="14" lengthAdjust="spacing" textLength="118" x="505.5" y="574.1582">mensagem.service</text><text fill="#000000" font-family="sans-serif" font-size="14" lengthAdjust="spacing" textLength="108" x="510.5" y="591.7676">enviarMensagem</text><rect fill="#E2E2F0" height="31.6094" rx="2.5" ry="2.5" style="stroke:#181818;stroke-width:0.5;" width="151" x="733" y="88.6094"/><text fill="#000000" font-family="sans-serif" font-size="14" lengthAdjust="spacing" textLength="137" x="740" y="110.1426">verificarAcessoColeta</text><rect fill="#E2E2F0" height="31.6094" rx="2.5" ry="2.5" style="stroke:#181818;stroke-width:0.5;" width="151" x="733" y="552.625"/><text fill="#000000" font-family="sans-serif" font-size="14" lengthAdjust="spacing" textLength="137" x="740" y="574.1582">verificarAcessoColeta</text><rect fill="#E2E2F0" height="31.6094" rx="2.5" ry="2.5" style="stroke:#181818;stroke-width:0.5;" width="131" x="894" y="88.6094"/><text fill="#000000" font-family="sans-serif" font-size="14" lengthAdjust="spacing" textLength="117" x="901" y="110.1426">notificacao.service</text><rect fill="#E2E2F0" height="31.6094" rx="2.5" ry="2.5" style="stroke:#181818;stroke-width:0.5;" width="131" x="894" y="552.625"/><text fill="#000000" font-family="sans-serif" font-size="14" lengthAdjust="spacing" textLength="117" x="901" y="574.1582">notificacao.service</text><text fill="#000000" font-family="sans-serif" font-size="14" lengthAdjust="spacing" textLength="77" x="1046" y="118.1426">PostgreSQL</text><path d="M1069.5,67.6094 C1069.5,57.6094 1087.5,57.6094 1087.5,57.6094 C1087.5,57.6094 1105.5,57.6094 1105.5,67.6094 L1105.5,93.6094 C1105.5,103.6094 1087.5,103.6094 1087.5,103.6094 C1087.5,103.6094 1069.5,103.6094 1069.5,93.6094 L1069.5,67.6094 " fill="#E2E2F0" style="stroke:#181818;stroke-width:1.5;"/><path d="M1069.5,67.6094 C1069.5,77.6094 1087.5,77.6094 1087.5,77.6094 C1087.5,77.6094 1105.5,77.6094 1105.5,67.6094 " fill="none" style="stroke:#181818;stroke-width:1.5;"/><text fill="#000000" font-family="sans-serif" font-size="14" lengthAdjust="spacing" textLength="77" x="1046" y="567.1582">PostgreSQL</text><path d="M1069.5,580.2344 C1069.5,570.2344 1087.5,570.2344 1087.5,570.2344 C1087.5,570.2344 1105.5,570.2344 1105.5,580.2344 L1105.5,606.2344 C1105.5,616.2344 1087.5,616.2344 1087.5,616.2344 C1087.5,616.2344 1069.5,616.2344 1069.5,606.2344 L1069.5,580.2344 " fill="#E2E2F0" style="stroke:#181818;stroke-width:1.5;"/><path d="M1069.5,580.2344 C1069.5,590.2344 1087.5,590.2344 1087.5,590.2344 C1087.5,590.2344 1105.5,590.2344 1105.5,580.2344 " fill="none" style="stroke:#181818;stroke-width:1.5;"/><polygon fill="#181818" points="265.5,149.5703,275.5,153.5703,265.5,157.5703,269.5,153.5703" style="stroke:#181818;stroke-width:1.0;"/><line style="stroke:#181818;stroke-width:1.0;" x1="89.5" x2="271.5" y1="153.5703" y2="153.5703"/><text fill="#000000" font-family="sans-serif" font-size="13" lengthAdjust="spacing" textLength="111" x="96.5" y="148.7139">POST {mensagem}</text><polygon fill="#181818" points="552.5,179.9219,562.5,183.9219,552.5,187.9219,556.5,183.9219" style="stroke:#181818;stroke-width:1.0;"/><line style="stroke:#181818;stroke-width:1.0;" x1="277.5" x2="558.5" y1="183.9219" y2="183.9219"/><text fill="#000000" font-family="sans-serif" font-size="13" lengthAdjust="spacing" textLength="263" x="284.5" y="179.0654">enviarMensagem(coletaId, remetenteId, texto)</text><polygon fill="#181818" points="796.5,210.2734,806.5,214.2734,796.5,218.2734,800.5,214.2734" style="stroke:#181818;stroke-width:1.0;"/><line style="stroke:#181818;stroke-width:1.0;" x1="564.5" x2="802.5" y1="214.2734" y2="214.2734"/><text fill="#000000" font-family="sans-serif" font-size="13" lengthAdjust="spacing" textLength="220" x="571.5" y="209.417">verificarAcessoColeta(coletaId, userId)</text><polygon fill="#181818" points="1075.5,240.625,1085.5,244.625,1075.5,248.625,1079.5,244.625" style="stroke:#181818;stroke-width:1.0;"/><line style="stroke:#181818;stroke-width:1.0;" x1="808.5" x2="1081.5" y1="244.625" y2="244.625"/><text fill="#000000" font-family="sans-serif" font-size="13" lengthAdjust="spacing" textLength="240" x="815.5" y="239.7686">coleta + dono solicitacao + user empresa</text><path d="M10,259.625 L71,259.625 L71,267.9766 L61,277.9766 L10,277.9766 L10,259.625 " fill="#EEEEEE" style="stroke:#000000;stroke-width:1.5;"/><rect fill="none" height="277" style="stroke:#000000;stroke-width:1.5;" width="1129" x="10" y="259.625"/><text fill="#000000" font-family="sans-serif" font-size="13" font-weight="bold" lengthAdjust="spacing" textLength="16" x="25" y="274.1201">alt</text><text fill="#000000" font-family="sans-serif" font-size="11" font-weight="bold" lengthAdjust="spacing" textLength="150" x="86" y="273.0439">[nao e dono nem empresa]</text><polygon fill="#181818" points="575.5,296.3281,565.5,300.3281,575.5,304.3281,571.5,300.3281" style="stroke:#181818;stroke-width:1.0;"/><line style="stroke:#181818;stroke-width:1.0;stroke-dasharray:2.0,2.0;" x1="569.5" x2="807.5" y1="300.3281" y2="300.3281"/><text fill="#000000" font-family="sans-serif" font-size="13" lengthAdjust="spacing" textLength="20" x="581.5" y="295.4717">null</text><polygon fill="#181818" points="288.5,326.6797,278.5,330.6797,288.5,334.6797,284.5,330.6797" style="stroke:#181818;stroke-width:1.0;"/><line style="stroke:#181818;stroke-width:1.0;stroke-dasharray:2.0,2.0;" x1="282.5" x2="563.5" y1="330.6797" y2="330.6797"/><text fill="#000000" font-family="sans-serif" font-size="13" lengthAdjust="spacing" textLength="134" x="294.5" y="325.8232">throw "sem permissao"</text><polygon fill="#181818" points="100.5,357.0313,90.5,361.0313,100.5,365.0313,96.5,361.0313" style="stroke:#181818;stroke-width:1.0;"/><line style="stroke:#181818;stroke-width:1.0;stroke-dasharray:2.0,2.0;" x1="94.5" x2="276.5" y1="361.0313" y2="361.0313"/><text fill="#000000" font-family="sans-serif" font-size="13" lengthAdjust="spacing" textLength="21" x="106.5" y="356.1748">400</text><line style="stroke:#000000;stroke-width:1.0;stroke-dasharray:2.0,2.0;" x1="10" x2="1139" y1="370.0313" y2="370.0313"/><text fill="#000000" font-family="sans-serif" font-size="11" font-weight="bold" lengthAdjust="spacing" textLength="66" x="15" y="381.4502">[autorizado]</text><polygon fill="#181818" points="1075.5,403.2188,1085.5,407.2188,1075.5,411.2188,1079.5,407.2188" style="stroke:#181818;stroke-width:1.0;"/><line style="stroke:#181818;stroke-width:1.0;" x1="564.5" x2="1081.5" y1="407.2188" y2="407.2188"/><text fill="#000000" font-family="sans-serif" font-size="13" lengthAdjust="spacing" textLength="104" x="571.5" y="402.3623">create Mensagem</text><polygon fill="#181818" points="947.5,433.5703,957.5,437.5703,947.5,441.5703,951.5,437.5703" style="stroke:#181818;stroke-width:1.0;"/><line style="stroke:#181818;stroke-width:1.0;" x1="564.5" x2="953.5" y1="437.5703" y2="437.5703"/><text fill="#000000" font-family="sans-serif" font-size="13" lengthAdjust="spacing" textLength="256" x="571.5" y="432.7139">notificarNovaMensagem(o outro participante)</text><polygon fill="#181818" points="1075.5,463.9219,1085.5,467.9219,1075.5,471.9219,1079.5,467.9219" style="stroke:#181818;stroke-width:1.0;"/><line style="stroke:#181818;stroke-width:1.0;" x1="959.5" x2="1081.5" y1="467.9219" y2="467.9219"/><text fill="#000000" font-family="sans-serif" font-size="13" lengthAdjust="spacing" textLength="104" x="966.5" y="463.0654">create Notificacao</text><polygon fill="#181818" points="288.5,494.2734,278.5,498.2734,288.5,502.2734,284.5,498.2734" style="stroke:#181818;stroke-width:1.0;"/><line style="stroke:#181818;stroke-width:1.0;stroke-dasharray:2.0,2.0;" x1="282.5" x2="563.5" y1="498.2734" y2="498.2734"/><text fill="#000000" font-family="sans-serif" font-size="13" lengthAdjust="spacing" textLength="64" x="294.5" y="493.417">mensagem</text><polygon fill="#181818" points="100.5,524.625,90.5,528.625,100.5,532.625,96.5,528.625" style="stroke:#181818;stroke-width:1.0;"/><line style="stroke:#181818;stroke-width:1.0;stroke-dasharray:2.0,2.0;" x1="94.5" x2="276.5" y1="528.625" y2="528.625"/><text fill="#000000" font-family="sans-serif" font-size="13" lengthAdjust="spacing" textLength="21" x="106.5" y="523.7686">201</text><!--SRC=[RLB1JiCm3BtdAwoUDi7OG9mu8B6n0nAKmH0Nu61I0v7Qk4gyWK3yEqwthjl49LBiz-ptR8kJac0-lHiSdy009koN5286yAYVaWIXPpzGW6iAQ1rxBFi6hN20Uwf8o0i1HiWchi026NW1qweE534pDGPnrjNe1RBPxVm1XbYxOKK-uhi-moVRzBWgNh9KP3hRfQo1rL6ai7IMdZtvfSDmiuutfFdZP9Ub3joRinWkBCN8AniDz6Ao1_Ki3TGYjpqQO6uA57p5I33ZAE-1vdVNAN4vDgRpFJXNoN06ZRMVLkslqQ2cL9ZcTXNtMiE74DeowIFq9TmtYQ9CrQdCVtri5LYeugkYRn9QIPTZvQooS005UuR8fLgLP4z32G-qset1KdJ73BH2UgesAMZw3pOE_A8iDTXeQntBH-1FoABIz30g5oDofg3aN37TYCxWT3GoLEeaSQ5NuxwnuBPQApeGAhITKPVDK_VrYaBEIzoCCTsP18QjRL9VYVb-qRpRyBw7gkltZ-oJqR4XN_m1]--></g></svg>