<?xml version="1.0" encoding="us-ascii" standalone="no"?><svg xmlns="http://www.w3.org/2000/svg" xmlns:xlink="http://www.w3.org/1999/xlink" contentStyleType="text/css" height="596px" preserveAspectRatio="none" style="width:799px;height:596px;background:#FFFFFF;" version="1.1" viewBox="0 0 799 596" width="799px" zoomAndPan="magnify"><defs/><g><text fill="#000000" font-family="sans-serif" font-size="14" font-weight="bold" lengthAdjust="spacing" textLength="413" x="194.75" y="29.5332">SEQ-14 - Notificacoes em Tempo Real (Server-Sent Events)</text><rect fill="none" height="215.4609" style="stroke:#000000;stroke-width:1.5;" width="748.5" x="45" y="229.2734"/><rect fill="none" height="122.4063" style="stroke:#000000;stroke-width:1.5;" width="627.5" x="55" y="315.3281"/><line style="stroke:#181818;stroke-width:0.5;stroke-dasharray:5.0,5.0;" x1="30" x2="30" y1="121.2188" y2="514.4375"/><line style="stroke:#181818;stroke-width:0.5;stroke-dasharray:5.0,5.0;" x1="118" x2="118" y1="121.2188" y2="514.4375"/><line style="stroke:#181818;stroke-width:0.5;stroke-dasharray:5.0,5.0;" x1="354" x2="354" y1="121.2188" y2="514.4375"/><line style="stroke:#181818;stroke-width:0.5;stroke-dasharray:5.0,5.0;" x1="606.5" x2="606.5" y1="121.2188" y2="514.4375"/><line style="stroke:#181818;stroke-width:0.5;stroke-dasharray:5.0,5.0;" x1="741.5" x2="741.5" y1="121.2188" y2="514.4375"/><text fill="#000000" font-family="sans-serif" font-size="14" lengthAdjust="spacing" textLength="44" x="5" y="118.1426">Cliente</text><ellipse cx="30" cy="52.1094" fill="#E2E2F0" rx="8" ry="8" style="stroke:#181818;stroke-width:0.5;"/><path d="M30,60.1094 L30,87.1094 M17,68.1094 L43,68.1094 M30,87.1094 L17,102.1094 M30,87.1094 L43,102.1094 " fill="none" style="stroke:#181818;stroke-width:0.5;"/><text fill="#000000" font-family="sans-serif" font-size="14" lengthAdjust="spacing" textLength="44" x="5" y="527.9707">Cliente</text><ellipse cx="30" cy="539.5469" fill="#E2E2F0" rx="8" ry="8" style="stroke:#181818;stroke-width:0.5;"/><path d="M30,547.5469 L30,574.5469 M17,555.5469 L43,555.5469 M30,574.5469 L17,589.5469 M30,574.5469 L43,589.5469 " fill="none" style="stroke:#181818;stroke-width:0.5;"/><rect fill="#E2E2F0" height="49.2188" rx="2.5" ry="2.5" style="stroke:#181818;stroke-width:0.5;" width="106" x="65" y="71"/><text fill="#000000" font-family="sans-serif" font-size="14" lengthAdjust="spacing" textLength="92" x="72" y="92.5332">NotificationBell</text><text fill="#000000" font-family="sans-serif" font-size="14" lengthAdjust="spacing" textLength="91" x="72.5" y="110.1426">(EventSource)</text><rect fill="#E2E2F0" height="49.2188" rx="2.5" ry="2.5" style="stroke:#181818;stroke-width:0.5;" width="106" x="65" y="513.4375"/><text fill="#000000" font-family="sans-serif" font-size="14" lengthAdjust="spacing" textLength="92" x="72" y="534.9707">NotificationBell</text><text fill="#000000" font-family="sans-serif" font-size="14" lengthAdjust="spacing" textLength="91" x="72.5" y="552.5801">(EventSource)</text><rect fill="#E2E2F0" height="31.6094" rx="2.5" ry="2.5" style="stroke:#181818;stroke-width:0.5;" width="196" x="256" y="88.6094"/><text fill="#000000" font-family="sans-serif" font-size="14" lengthAdjust="spacing" textLength="182" x="263" y="110.1426">GET /api/notificacoes/stream</text><rect fill="#E2E2F0" height="31.6094" rx="2.5" ry="2.5" style="stroke:#181818;stroke-width:0.5;" width="196" x="256" y="513.4375"/><text fill="#000000" font-family="sans-serif" font-size="14" lengthAdjust="spacing" textLength="182" x="263" y="534.9707">GET /api/notificacoes/stream</text><rect fill="#E2E2F0" height="31.6094" rx="2.5" ry="2.5" style="stroke:#181818;stroke-width:0.5;" width="131" x="541.5" y="88.6094"/><text fill="#000000" font-family="sans-serif" font-size="14" lengthAdjust="spacing" textLength="117" x="548.5" y="110.1426">notificacao.service</text><rect fill="#E2E2F0" height="31.6094" rx="2.5" ry="2.5" style="stroke:#181818;stroke-width:0.5;" width="131" x="541.5" y="513.4375"/><text fill="#000000" font-family="sans-serif" font-size="14" lengthAdjust="spacing" textLength="117" x="548.5" y="534.9707">notificacao.service</text><text fill="#000000" font-family="sans-serif" font-size="14" lengthAdjust="spacing" textLength="77" x="700.5" y="118.1426">PostgreSQL</text><path d="M724,67.6094 C724,57.6094 742,57.6094 742,57.6094 C742,57.6094 760,57.6094 760,67.6094 L760,93.6094 C760,103.6094 742,103.6094 742,103.6094 C742,103.6094 724,103.6094 724,93.6094 L724,67.6094 " fill="#E2E2F0" style="stroke:#181818;stroke-width:1.5;"/><path d="M724,67.6094 C724,77.6094 742,77.6094 742,77.6094 C742,77.6094 760,77.6094 760,67.6094 " fill="none" style="stroke:#181818;stroke-width:1.5;"/><text fill="#000000" font-family="sans-serif" font-size="14" lengthAdjust="spacing" textLength="77" x="700.5" y="527.9707">PostgreSQL</text><path d="M724,541.0469 C724,531.0469 742,531.0469 742,531.0469 C742,531.0469 760,531.0469 760,541.0469 L760,567.0469 C760,577.0469 742,577.0469 742,577.0469 C742,577.0469 724,577.0469 724,567.0469 L724,541.0469 " fill="#E2E2F0" style="stroke:#181818;stroke-width:1.5;"/><path d="M724,541.0469 C724,551.0469 742,551.0469 742,551.0469 C742,551.0469 760,551.0469 760,541.0469 " fill="none" style="stroke:#181818;stroke-width:1.5;"/><polygon fill="#181818" points="342,149.5703,352,153.5703,342,157.5703,346,153.5703" style="stroke:#181818;stroke-width:1.0;"/><line style="stroke:#181818;stroke-width:1.0;" x1="118" x2="348" y1="153.5703" y2="153.5703"/><text fill="#000000" font-family="sans-serif" font-size="13" lengthAdjust="spacing" textLength="187" x="125" y="148.7139">EventSource (cookie de sessao)</text><polygon fill="#181818" points="595,179.9219,605,183.9219,595,187.9219,599,183.9219" style="stroke:#181818;stroke-width:1.0;"/><line style="stroke:#181818;stroke-width:1.0;" x1="354" x2="601" y1="183.9219" y2="183.9219"/><text fill="#000000" font-family="sans-serif" font-size="13" lengthAdjust="spacing" textLength="152" x="361" y="179.0654">ultimaNotificacaoId(userId)</text><polygon fill="#181818" points="129,210.2734,119,214.2734,129,218.2734,125,214.2734" style="stroke:#181818;stroke-width:1.0;"/><line style="stroke:#181818;stroke-width:1.0;stroke-dasharray:2.0,2.0;" x1="123" x2="353" y1="214.2734" y2="214.2734"/><text fill="#000000" font-family="sans-serif" font-size="13" lengthAdjust="spacing" textLength="158" x="135" y="209.417">event: init {naoLidas, lastId}</text><path d="M45,229.2734 L118,229.2734 L118,237.625 L108,247.625 L45,247.625 L45,229.2734 " fill="#EEEEEE" style="stroke:#000000;stroke-width:1.5;"/><rect fill="none" height="215.4609" style="stroke:#000000;stroke-width:1.5;" width="748.5" x="45" y="229.2734"/><text fill="#000000" font-family="sans-serif" font-size="13" font-weight="bold" lengthAdjust="spacing" textLength="28" x="60" y="243.7686">loop</text><text fill="#000000" font-family="sans-serif" font-size="11" font-weight="bold" lengthAdjust="spacing" textLength="180" x="133" y="242.6924">[a cada 4s (ate maxDuration 60s)]</text><polygon fill="#181818" points="595,265.9766,605,269.9766,595,273.9766,599,269.9766" style="stroke:#181818;stroke-width:1.0;"/><line style="stroke:#181818;stroke-width:1.0;" x1="354" x2="601" y1="269.9766" y2="269.9766"/><text fill="#000000" font-family="sans-serif" font-size="13" lengthAdjust="spacing" textLength="229" x="361" y="265.1201">buscarNotificacoesDesde(userId, lastId)</text><polygon fill="#181818" points="730,296.3281,740,300.3281,730,304.3281,734,300.3281" style="stroke:#181818;stroke-width:1.0;"/><line style="stroke:#181818;stroke-width:1.0;" x1="607" x2="736" y1="300.3281" y2="300.3281"/><text fill="#000000" font-family="sans-serif" font-size="13" lengthAdjust="spacing" textLength="111" x="614" y="295.4717">SELECT id &gt; lastId</text><path d="M55,315.3281 L116,315.3281 L116,323.6797 L106,333.6797 L55,333.6797 L55,315.3281 " fill="#EEEEEE" style="stroke:#000000;stroke-width:1.5;"/><rect fill="none" height="122.4063" style="stroke:#000000;stroke-width:1.5;" width="627.5" x="55" y="315.3281"/><text fill="#000000" font-family="sans-serif" font-size="13" font-weight="bold" lengthAdjust="spacing" textLength="16" x="70" y="329.8232">alt</text><text fill="#000000" font-family="sans-serif" font-size="11" font-weight="bold" lengthAdjust="spacing" textLength="57" x="131" y="328.7471">[ha novas]</text><polygon fill="#181818" points="365,352.0313,355,356.0313,365,360.0313,361,356.0313" style="stroke:#181818;stroke-width:1.0;"/><line style="stroke:#181818;stroke-width:1.0;stroke-dasharray:2.0,2.0;" x1="359" x2="606" y1="356.0313" y2="356.0313"/><text fill="#000000" font-family="sans-serif" font-size="13" lengthAdjust="spacing" textLength="33" x="371" y="351.1748">novas</text><polygon fill="#181818" points="129,382.3828,119,386.3828,129,390.3828,125,386.3828" style="stroke:#181818;stroke-width:1.0;"/><line style="stroke:#181818;stroke-width:1.0;stroke-dasharray:2.0,2.0;" x1="123" x2="353" y1="386.3828" y2="386.3828"/><text fill="#000000" font-family="sans-serif" font-size="13" lengthAdjust="spacing" textLength="212" x="135" y="381.5264">event: notificacoes {novas, naoLidas}</text><line style="stroke:#181818;stroke-width:1.0;" x1="118" x2="160" y1="416.7344" y2="416.7344"/><line style="stroke:#181818;stroke-width:1.0;" x1="160" x2="160" y1="416.7344" y2="429.7344"/><line style="stroke:#181818;stroke-width:1.0;" x1="119" x2="160" y1="429.7344" y2="429.7344"/><polygon fill="#181818" points="129,425.7344,119,429.7344,129,433.7344,125,429.7344" style="stroke:#181818;stroke-width:1.0;"/><text fill="#000000" font-family="sans-serif" font-size="13" lengthAdjust="spacing" textLength="120" x="125" y="411.8779">atualiza badge / lista</text><path d="M45,456.7344 L45,498.7344 L427,498.7344 L427,466.7344 L417,456.7344 L45,456.7344 " fill="#FEFFDD" style="stroke:#181818;stroke-width:0.5;"/><path d="M417,456.7344 L417,466.7344 L427,466.7344 L417,456.7344 " fill="#FEFFDD" style="stroke:#181818;stroke-width:0.5;"/><text fill="#000000" font-family="sans-serif" font-size="13" lengthAdjust="spacing" textLength="235" x="109.5" y="475.2295">heartbeat a cada 25s; ao expirar (60s), o</text><text fill="#000000" font-family="sans-serif" font-size="13" lengthAdjust="spacing" textLength="244" x="109.5" y="491.5811">EventSource reconecta com Last-Event-ID</text><!--SRC=[RP91Qzj048Nl-XMFd6ImwhQaFRYGWsrH12OabTDJBkFTQR9qfH6xAnDQyjyxKgn4WHuaMEtttioyKNB9C-hojlXqYGBNajmlPyW8Ht230pUTu0UJHrvpE74eQcuJofE-uo8ZaoHWwvqUEUie96TSHqfSJ5R9IRjXx-_RV5JLqWV3YmjGn5trNlEzF615dLkripvMCGMcPXIKD-y5hnp9XwZzESCZL__SPfOI7IaoRYIcXy3rxNwuscsoxAv2SQLcM6FM4t8ZyjinB2DoZ2IBJ1abrKxHtYVNqFLRoShclLQjx0kde1glmOFb6gvr2NzRahsp59Vm55DbdpClqe5Wo18k8t9AZ8QUTdqOiyBNZneiCAzyxAEXC5_EZgFbS_N9Ub0DlCfs6rNLvRxS7k0ihiw40kGJ7Wcjd2ZgyQoOqdZx_9-1valHmGPqYMc-vr7r4kmeejIJTty8Hx8FZ1MyYucKujPcmwDs3D5VIldbMFsHTRT7fZJ5y_bB_0OIy5Fd0WNaGpPBo7qxNrjW8osRf29fiDT9Y_6wg7R_0000]--></g></svg>