<?xml version="1.0" encoding="us-ascii" standalone="no"?><svg xmlns="http://www.w3.org/2000/svg" xmlns:xlink="http://www.w3.org/1999/xlink" contentStyleType="text/css" height="778px" preserveAspectRatio="none" style="width:938px;height:778px;background:#FFFFFF;" version="1.1" viewBox="0 0 938 778" width="938px" zoomAndPan="magnify"><defs/><g><text fill="#000000" font-family="sans-serif" font-size="14" font-weight="bold" lengthAdjust="spacing" textLength="279" x="330.75" y="29.5332">SEQ-03 - Cadastro de Usuario / Empresa</text><rect fill="none" height="449.7578" style="stroke:#000000;stroke-width:1.5;" width="717.5" x="214" y="229.2734"/><rect fill="none" height="310.5156" style="stroke:#000000;stroke-width:1.5;" width="697.5" x="224" y="361.5156"/><rect fill="none" height="141.7578" style="stroke:#000000;stroke-width:1.5;" width="457" x="454.5" y="492.9219"/><rect fill="none" height="79.0547" style="stroke:#000000;stroke-width:1.5;" width="437" x="464.5" y="548.625"/><line style="stroke:#181818;stroke-width:0.5;stroke-dasharray:5.0,5.0;" x1="35" x2="35" y1="121.2188" y2="696.0313"/><line style="stroke:#181818;stroke-width:0.5;stroke-dasharray:5.0,5.0;" x1="283" x2="283" y1="121.2188" y2="696.0313"/><line style="stroke:#181818;stroke-width:0.5;stroke-dasharray:5.0,5.0;" x1="555.5" x2="555.5" y1="121.2188" y2="696.0313"/><line style="stroke:#181818;stroke-width:0.5;stroke-dasharray:5.0,5.0;" x1="722.5" x2="722.5" y1="121.2188" y2="696.0313"/><line style="stroke:#181818;stroke-width:0.5;stroke-dasharray:5.0,5.0;" x1="849.5" x2="849.5" y1="121.2188" y2="696.0313"/><text fill="#000000" font-family="sans-serif" font-size="14" lengthAdjust="spacing" textLength="54" x="5" y="118.1426">Visitante</text><ellipse cx="35" cy="52.1094" fill="#E2E2F0" rx="8" ry="8" style="stroke:#181818;stroke-width:0.5;"/><path d="M35,60.1094 L35,87.1094 M22,68.1094 L48,68.1094 M35,87.1094 L22,102.1094 M35,87.1094 L48,102.1094 " fill="none" style="stroke:#181818;stroke-width:0.5;"/><text fill="#000000" font-family="sans-serif" font-size="14" lengthAdjust="spacing" textLength="54" x="5" y="709.5645">Visitante</text><ellipse cx="35" cy="721.1406" fill="#E2E2F0" rx="8" ry="8" style="stroke:#181818;stroke-width:0.5;"/><path d="M35,729.1406 L35,756.1406 M22,737.1406 L48,737.1406 M35,756.1406 L22,771.1406 M35,756.1406 L48,771.1406 " fill="none" style="stroke:#181818;stroke-width:0.5;"/><rect fill="#E2E2F0" height="31.6094" rx="2.5" ry="2.5" style="stroke:#181818;stroke-width:0.5;" width="98" x="234" y="88.6094"/><text fill="#000000" font-family="sans-serif" font-size="14" lengthAdjust="spacing" textLength="84" x="241" y="110.1426">Tela /register</text><rect fill="#E2E2F0" height="31.6094" rx="2.5" ry="2.5" style="stroke:#181818;stroke-width:0.5;" width="98" x="234" y="695.0313"/><text fill="#000000" font-family="sans-serif" font-size="14" lengthAdjust="spacing" textLength="84" x="241" y="716.5645">Tela /register</text><rect fill="#E2E2F0" height="31.6094" rx="2.5" ry="2.5" style="stroke:#181818;stroke-width:0.5;" width="163" x="474.5" y="88.6094"/><text fill="#000000" font-family="sans-serif" font-size="14" lengthAdjust="spacing" textLength="149" x="481.5" y="110.1426">POST /api/auth/register</text><rect fill="#E2E2F0" height="31.6094" rx="2.5" ry="2.5" style="stroke:#181818;stroke-width:0.5;" width="163" x="474.5" y="695.0313"/><text fill="#000000" font-family="sans-serif" font-size="14" lengthAdjust="spacing" textLength="149" x="481.5" y="716.5645">POST /api/auth/register</text><rect fill="#E2E2F0" height="31.6094" rx="2.5" ry="2.5" style="stroke:#181818;stroke-width:0.5;" width="151" x="647.5" y="88.6094"/><text fill="#000000" font-family="sans-serif" font-size="14" lengthAdjust="spacing" textLength="137" x="654.5" y="110.1426">registerSchema (Zod)</text><rect fill="#E2E2F0" height="31.6094" rx="2.5" ry="2.5" style="stroke:#181818;stroke-width:0.5;" width="151" x="647.5" y="695.0313"/><text fill="#000000" font-family="sans-serif" font-size="14" lengthAdjust="spacing" textLength="137" x="654.5" y="716.5645">registerSchema (Zod)</text><text fill="#000000" font-family="sans-serif" font-size="14" lengthAdjust="spacing" textLength="77" x="808.5" y="118.1426">PostgreSQL</text><path d="M832,67.6094 C832,57.6094 850,57.6094 850,57.6094 C850,57.6094 868,57.6094 868,67.6094 L868,93.6094 C868,103.6094 850,103.6094 850,103.6094 C850,103.6094 832,103.6094 832,93.6094 L832,67.6094 " fill="#E2E2F0" style="stroke:#181818;stroke-width:1.5;"/><path d="M832,67.6094 C832,77.6094 850,77.6094 850,77.6094 C850,77.6094 868,77.6094 868,67.6094 " fill="none" style="stroke:#181818;stroke-width:1.5;"/><text fill="#000000" font-family="sans-serif" font-size="14" lengthAdjust="spacing" textLength="77" x="808.5" y="709.5645">PostgreSQL</text><path d="M832,722.6406 C832,712.6406 850,712.6406 850,712.6406 C850,712.6406 868,712.6406 868,722.6406 L868,748.6406 C868,758.6406 850,758.6406 850,758.6406 C850,758.6406 832,758.6406 832,748.6406 L832,722.6406 " fill="#E2E2F0" style="stroke:#181818;stroke-width:1.5;"/><path d="M832,722.6406 C832,732.6406 850,732.6406 850,732.6406 C850,732.6406 868,732.6406 868,722.6406 " fill="none" style="stroke:#181818;stroke-width:1.5;"/><polygon fill="#181818" points="271,149.5703,281,153.5703,271,157.5703,275,153.5703" style="stroke:#181818;stroke-width:1.0;"/><line style="stroke:#181818;stroke-width:1.0;" x1="35" x2="277" y1="153.5703" y2="153.5703"/><text fill="#000000" font-family="sans-serif" font-size="13" lengthAdjust="spacing" textLength="224" x="42" y="148.7139">preenche dados (tipo usuario|empresa)</text><polygon fill="#181818" points="544,179.9219,554,183.9219,544,187.9219,548,183.9219" style="stroke:#181818;stroke-width:1.0;"/><line style="stroke:#181818;stroke-width:1.0;" x1="283" x2="550" y1="183.9219" y2="183.9219"/><text fill="#000000" font-family="sans-serif" font-size="13" lengthAdjust="spacing" textLength="249" x="290" y="179.0654">POST {nome, email, senha, tipo, cnpj?, ...}</text><polygon fill="#181818" points="711,210.2734,721,214.2734,711,218.2734,715,214.2734" style="stroke:#181818;stroke-width:1.0;"/><line style="stroke:#181818;stroke-width:1.0;" x1="556" x2="717" y1="214.2734" y2="214.2734"/><text fill="#000000" font-family="sans-serif" font-size="13" lengthAdjust="spacing" textLength="94" x="563" y="209.417">safeParse(body)</text><path d="M214,229.2734 L275,229.2734 L275,237.625 L265,247.625 L214,247.625 L214,229.2734 " fill="#EEEEEE" style="stroke:#000000;stroke-width:1.5;"/><rect fill="none" height="449.7578" style="stroke:#000000;stroke-width:1.5;" width="717.5" x="214" y="229.2734"/><text fill="#000000" font-family="sans-serif" font-size="13" font-weight="bold" lengthAdjust="spacing" textLength="16" x="229" y="243.7686">alt</text><text fill="#000000" font-family="sans-serif" font-size="11" font-weight="bold" lengthAdjust="spacing" textLength="50" x="290" y="242.6924">[invalido]</text><polygon fill="#181818" points="567,265.9766,557,269.9766,567,273.9766,563,269.9766" style="stroke:#181818;stroke-width:1.0;"/><line style="stroke:#181818;stroke-width:1.0;stroke-dasharray:2.0,2.0;" x1="561" x2="722" y1="269.9766" y2="269.9766"/><text fill="#000000" font-family="sans-serif" font-size="13" lengthAdjust="spacing" textLength="58" x="573" y="265.1201">fieldErrors</text><polygon fill="#181818" points="294,296.3281,284,300.3281,294,304.3281,290,300.3281" style="stroke:#181818;stroke-width:1.0;"/><line style="stroke:#181818;stroke-width:1.0;stroke-dasharray:2.0,2.0;" x1="288" x2="555" y1="300.3281" y2="300.3281"/><text fill="#000000" font-family="sans-serif" font-size="13" lengthAdjust="spacing" textLength="21" x="300" y="295.4717">400</text><line style="stroke:#000000;stroke-width:1.0;stroke-dasharray:2.0,2.0;" x1="214" x2="931.5" y1="309.3281" y2="309.3281"/><text fill="#000000" font-family="sans-serif" font-size="11" font-weight="bold" lengthAdjust="spacing" textLength="40" x="219" y="320.7471">[valido]</text><polygon fill="#181818" points="838,342.5156,848,346.5156,838,350.5156,842,346.5156" style="stroke:#181818;stroke-width:1.0;"/><line style="stroke:#181818;stroke-width:1.0;" x1="556" x2="844" y1="346.5156" y2="346.5156"/><text fill="#000000" font-family="sans-serif" font-size="13" lengthAdjust="spacing" textLength="99" x="563" y="341.6592">findUnique(email)</text><path d="M224,361.5156 L285,361.5156 L285,369.8672 L275,379.8672 L224,379.8672 L224,361.5156 " fill="#EEEEEE" style="stroke:#000000;stroke-width:1.5;"/><rect fill="none" height="310.5156" style="stroke:#000000;stroke-width:1.5;" width="697.5" x="224" y="361.5156"/><text fill="#000000" font-family="sans-serif" font-size="13" font-weight="bold" lengthAdjust="spacing" textLength="16" x="239" y="376.0107">alt</text><text fill="#000000" font-family="sans-serif" font-size="11" font-weight="bold" lengthAdjust="spacing" textLength="87" x="300" y="374.9346">[email ja existe]</text><polygon fill="#181818" points="294,398.2188,284,402.2188,294,406.2188,290,402.2188" style="stroke:#181818;stroke-width:1.0;"/><line style="stroke:#181818;stroke-width:1.0;stroke-dasharray:2.0,2.0;" x1="288" x2="555" y1="402.2188" y2="402.2188"/><text fill="#000000" font-family="sans-serif" font-size="13" lengthAdjust="spacing" textLength="150" x="300" y="397.3623">409 "Email ja cadastrado"</text><line style="stroke:#000000;stroke-width:1.0;stroke-dasharray:2.0,2.0;" x1="224" x2="921.5" y1="411.2188" y2="411.2188"/><polygon fill="#181818" points="838,430.5703,848,434.5703,838,438.5703,842,434.5703" style="stroke:#181818;stroke-width:1.0;"/><line style="stroke:#181818;stroke-width:1.0;" x1="556" x2="844" y1="434.5703" y2="434.5703"/><text fill="#000000" font-family="sans-serif" font-size="13" lengthAdjust="spacing" textLength="148" x="563" y="429.7139">role.findFirst(nome = tipo)</text><line style="stroke:#181818;stroke-width:1.0;" x1="556" x2="598" y1="464.9219" y2="464.9219"/><line style="stroke:#181818;stroke-width:1.0;" x1="598" x2="598" y1="464.9219" y2="477.9219"/><line style="stroke:#181818;stroke-width:1.0;" x1="557" x2="598" y1="477.9219" y2="477.9219"/><polygon fill="#181818" points="567,473.9219,557,477.9219,567,481.9219,563,477.9219" style="stroke:#181818;stroke-width:1.0;"/><text fill="#000000" font-family="sans-serif" font-size="13" lengthAdjust="spacing" textLength="133" x="563" y="460.0654">bcrypt.hash(senha, 12)</text><path d="M454.5,492.9219 L565.5,492.9219 L565.5,501.2734 L555.5,511.2734 L454.5,511.2734 L454.5,492.9219 " fill="#EEEEEE" style="stroke:#000000;stroke-width:1.5;"/><rect fill="none" height="141.7578" style="stroke:#000000;stroke-width:1.5;" width="457" x="454.5" y="492.9219"/><text fill="#000000" font-family="sans-serif" font-size="13" font-weight="bold" lengthAdjust="spacing" textLength="66" x="469.5" y="507.417">Transacao</text><polygon fill="#181818" points="838,529.625,848,533.625,838,537.625,842,533.625" style="stroke:#181818;stroke-width:1.0;"/><line style="stroke:#181818;stroke-width:1.0;" x1="556" x2="844" y1="533.625" y2="533.625"/><text fill="#000000" font-family="sans-serif" font-size="13" lengthAdjust="spacing" textLength="67" x="563" y="528.7686">create User</text><path d="M464.5,548.625 L525.5,548.625 L525.5,556.9766 L515.5,566.9766 L464.5,566.9766 L464.5,548.625 " fill="#EEEEEE" style="stroke:#000000;stroke-width:1.5;"/><rect fill="none" height="79.0547" style="stroke:#000000;stroke-width:1.5;" width="437" x="464.5" y="548.625"/><text fill="#000000" font-family="sans-serif" font-size="13" font-weight="bold" lengthAdjust="spacing" textLength="16" x="479.5" y="563.1201">alt</text><text fill="#000000" font-family="sans-serif" font-size="11" font-weight="bold" lengthAdjust="spacing" textLength="97" x="540.5" y="562.0439">[tipo == empresa]</text><polygon fill="#181818" points="838,585.3281,848,589.3281,838,593.3281,842,589.3281" style="stroke:#181818;stroke-width:1.0;"/><line style="stroke:#181818;stroke-width:1.0;" x1="556" x2="844" y1="589.3281" y2="589.3281"/><text fill="#000000" font-family="sans-serif" font-size="13" lengthAdjust="spacing" textLength="176" x="563" y="584.4717">valida CNPJ (obrigatorio/unico)</text><polygon fill="#181818" points="838,615.6797,848,619.6797,838,623.6797,842,619.6797" style="stroke:#181818;stroke-width:1.0;"/><line style="stroke:#181818;stroke-width:1.0;" x1="556" x2="844" y1="619.6797" y2="619.6797"/><text fill="#000000" font-family="sans-serif" font-size="13" lengthAdjust="spacing" textLength="95" x="563" y="614.8232">create Company</text><polygon fill="#181818" points="294,660.0313,284,664.0313,294,668.0313,290,664.0313" style="stroke:#181818;stroke-width:1.0;"/><line style="stroke:#181818;stroke-width:1.0;stroke-dasharray:2.0,2.0;" x1="288" x2="555" y1="664.0313" y2="664.0313"/><text fill="#000000" font-family="sans-serif" font-size="13" lengthAdjust="spacing" textLength="104" x="300" y="659.1748">201 {message, id}</text><!--SRC=[RLB1Zfim4BtxAqOvWKGWk-sbbR8hRPPAhQgMLP8USflWMV0AR6gRgj5s_xs38L6eUa38Vk_DUpCUhtn3iCsVbgjti8GDIdJU6f04UzUZLGOooDlEaaE1fJSMVYYdF6fFeaFhLQawFi1YHmr2PgbIpfDT03hOVvvJYk_R7MJOgGnxNy-vUJ7ddi5jMLEB41sCZ0Fn82HwFA8ZA8ppbQNjqzS1U7mGuf8DbdTi3n-1avFc6Y1H6WUHLvs1Vcpj3usDnOAfBCWB5eIGhzgqb00xgoO1Hxh610Pf0gNkNkuJIDFqJR20PGTMENoc0gsZw6ZaAHROU53w5pPA6W5CMPxhFojgP6wjiOw1eS8vwllLIb33VLraO_t7Xo3JSg_LpvwYa2fcU3091tX1eD_3lFZstw8VO96VIUNulZoA1JC7iujWyh6ceNGm-wIiyz4m1rY7rkChQkZaMDfJvzCQNHrD8xgv7LcLDNq7EulQOOactCriIaleXnqZEu53C-5nrckOtcL2Pi8m6uJDj-8BHEPeLOMybCfalLRbbF7_NXlJycgT9WPfAQx_rpExNTt0QqlEOSLBeEIR67dy_GK0]--></g></svg>