<?xml version="1.0" encoding="us-ascii" standalone="no"?><svg xmlns="http://www.w3.org/2000/svg" xmlns:xlink="http://www.w3.org/1999/xlink" contentStyleType="text/css" height="607px" preserveAspectRatio="none" style="width:1224px;height:607px;background:#FFFFFF;" version="1.1" viewBox="0 0 1224 607" width="1224px" zoomAndPan="magnify"><defs/><g><text fill="#000000" font-family="sans-serif" font-size="14" font-weight="bold" lengthAdjust="spacing" textLength="243" x="491.5" y="29.5332">SEQ-11 - Atualizar / Concluir Coleta</text><rect fill="none" height="249.1641" style="stroke:#000000;stroke-width:1.5;" width="1207" x="10" y="259.625"/><line style="stroke:#181818;stroke-width:0.5;stroke-dasharray:5.0,5.0;" x1="51" x2="51" y1="121.2188" y2="525.7891"/><line style="stroke:#181818;stroke-width:0.5;stroke-dasharray:5.0,5.0;" x1="291" x2="291" y1="121.2188" y2="525.7891"/><line style="stroke:#181818;stroke-width:0.5;stroke-dasharray:5.0,5.0;" x1="682.5" x2="682.5" y1="121.2188" y2="525.7891"/><line style="stroke:#181818;stroke-width:0.5;stroke-dasharray:5.0,5.0;" x1="857.5" x2="857.5" y1="121.2188" y2="525.7891"/><line style="stroke:#181818;stroke-width:0.5;stroke-dasharray:5.0,5.0;" x1="1037" x2="1037" y1="121.2188" y2="525.7891"/><line style="stroke:#181818;stroke-width:0.5;stroke-dasharray:5.0,5.0;" x1="1165" x2="1165" y1="121.2188" y2="525.7891"/><text fill="#000000" font-family="sans-serif" font-size="14" lengthAdjust="spacing" textLength="56" x="20" y="118.1426">Empresa</text><ellipse cx="51" cy="52.1094" fill="#E2E2F0" rx="8" ry="8" style="stroke:#181818;stroke-width:0.5;"/><path d="M51,60.1094 L51,87.1094 M38,68.1094 L64,68.1094 M51,87.1094 L38,102.1094 M51,87.1094 L64,102.1094 " fill="none" style="stroke:#181818;stroke-width:0.5;"/><text fill="#000000" font-family="sans-serif" font-size="14" lengthAdjust="spacing" textLength="56" x="20" y="539.3223">Empresa</text><ellipse cx="51" cy="550.8984" fill="#E2E2F0" rx="8" ry="8" style="stroke:#181818;stroke-width:0.5;"/><path d="M51,558.8984 L51,585.8984 M38,566.8984 L64,566.8984 M51,585.8984 L38,600.8984 M51,585.8984 L64,600.8984 " fill="none" style="stroke:#181818;stroke-width:0.5;"/><rect fill="#E2E2F0" height="31.6094" rx="2.5" ry="2.5" style="stroke:#181818;stroke-width:0.5;" width="218" x="182" y="88.6094"/><text fill="#000000" font-family="sans-serif" font-size="14" lengthAdjust="spacing" textLength="204" x="189" y="110.1426">PATCH /api/empresa/coletas/[id]</text><rect fill="#E2E2F0" height="31.6094" rx="2.5" ry="2.5" style="stroke:#181818;stroke-width:0.5;" width="218" x="182" y="524.7891"/><text fill="#000000" font-family="sans-serif" font-size="14" lengthAdjust="spacing" textLength="204" x="189" y="546.3223">PATCH /api/empresa/coletas/[id]</text><rect fill="#E2E2F0" height="31.6094" rx="2.5" ry="2.5" style="stroke:#181818;stroke-width:0.5;" width="181" x="592.5" y="88.6094"/><text fill="#000000" font-family="sans-serif" font-size="14" lengthAdjust="spacing" textLength="167" x="599.5" y="110.1426">coletaStatusSchema (Zod)</text><rect fill="#E2E2F0" height="31.6094" rx="2.5" ry="2.5" style="stroke:#181818;stroke-width:0.5;" width="181" x="592.5" y="524.7891"/><text fill="#000000" font-family="sans-serif" font-size="14" lengthAdjust="spacing" textLength="167" x="599.5" y="546.3223">coletaStatusSchema (Zod)</text><rect fill="#E2E2F0" height="49.2188" rx="2.5" ry="2.5" style="stroke:#181818;stroke-width:0.5;" width="148" x="783.5" y="71"/><text fill="#000000" font-family="sans-serif" font-size="14" lengthAdjust="spacing" textLength="87" x="814" y="92.5332">coleta.service</text><text fill="#000000" font-family="sans-serif" font-size="14" lengthAdjust="spacing" textLength="134" x="790.5" y="110.1426">atualizarStatusColeta</text><rect fill="#E2E2F0" height="49.2188" rx="2.5" ry="2.5" style="stroke:#181818;stroke-width:0.5;" width="148" x="783.5" y="524.7891"/><text fill="#000000" font-family="sans-serif" font-size="14" lengthAdjust="spacing" textLength="87" x="814" y="546.3223">coleta.service</text><text fill="#000000" font-family="sans-serif" font-size="14" lengthAdjust="spacing" textLength="134" x="790.5" y="563.9316">atualizarStatusColeta</text><rect fill="#E2E2F0" height="31.6094" rx="2.5" ry="2.5" style="stroke:#181818;stroke-width:0.5;" width="131" x="972" y="88.6094"/><text fill="#000000" font-family="sans-serif" font-size="14" lengthAdjust="spacing" textLength="117" x="979" y="110.1426">notificacao.service</text><rect fill="#E2E2F0" height="31.6094" rx="2.5" ry="2.5" style="stroke:#181818;stroke-width:0.5;" width="131" x="972" y="524.7891"/><text fill="#000000" font-family="sans-serif" font-size="14" lengthAdjust="spacing" textLength="117" x="979" y="546.3223">notificacao.service</text><text fill="#000000" font-family="sans-serif" font-size="14" lengthAdjust="spacing" textLength="77" x="1124" y="118.1426">PostgreSQL</text><path d="M1147.5,67.6094 C1147.5,57.6094 1165.5,57.6094 1165.5,57.6094 C1165.5,57.6094 1183.5,57.6094 1183.5,67.6094 L1183.5,93.6094 C1183.5,103.6094 1165.5,103.6094 1165.5,103.6094 C1165.5,103.6094 1147.5,103.6094 1147.5,93.6094 L1147.5,67.6094 " fill="#E2E2F0" style="stroke:#181818;stroke-width:1.5;"/><path d="M1147.5,67.6094 C1147.5,77.6094 1165.5,77.6094 1165.5,77.6094 C1165.5,77.6094 1183.5,77.6094 1183.5,67.6094 " fill="none" style="stroke:#181818;stroke-width:1.5;"/><text fill="#000000" font-family="sans-serif" font-size="14" lengthAdjust="spacing" textLength="77" x="1124" y="539.3223">PostgreSQL</text><path d="M1147.5,552.3984 C1147.5,542.3984 1165.5,542.3984 1165.5,542.3984 C1165.5,542.3984 1183.5,542.3984 1183.5,552.3984 L1183.5,578.3984 C1183.5,588.3984 1165.5,588.3984 1165.5,588.3984 C1165.5,588.3984 1147.5,588.3984 1147.5,578.3984 L1147.5,552.3984 " fill="#E2E2F0" style="stroke:#181818;stroke-width:1.5;"/><path d="M1147.5,552.3984 C1147.5,562.3984 1165.5,562.3984 1165.5,562.3984 C1165.5,562.3984 1183.5,562.3984 1183.5,552.3984 " fill="none" style="stroke:#181818;stroke-width:1.5;"/><polygon fill="#181818" points="279,149.5703,289,153.5703,279,157.5703,283,153.5703" style="stroke:#181818;stroke-width:1.0;"/><line style="stroke:#181818;stroke-width:1.0;" x1="51" x2="285" y1="153.5703" y2="153.5703"/><text fill="#000000" font-family="sans-serif" font-size="13" lengthAdjust="spacing" textLength="216" x="58" y="148.7139">PATCH {status, codigoConfirmacao?}</text><polygon fill="#181818" points="671,179.9219,681,183.9219,671,187.9219,675,183.9219" style="stroke:#181818;stroke-width:1.0;"/><line style="stroke:#181818;stroke-width:1.0;" x1="291" x2="677" y1="183.9219" y2="183.9219"/><text fill="#000000" font-family="sans-serif" font-size="13" lengthAdjust="spacing" textLength="368" x="298" y="179.0654">valida status (aceita|a_caminho|em_coleta|concluida|cancelada)</text><polygon fill="#181818" points="845.5,210.2734,855.5,214.2734,845.5,218.2734,849.5,214.2734" style="stroke:#181818;stroke-width:1.0;"/><line style="stroke:#181818;stroke-width:1.0;" x1="291" x2="851.5" y1="214.2734" y2="214.2734"/><text fill="#000000" font-family="sans-serif" font-size="13" lengthAdjust="spacing" textLength="292" x="298" y="209.417">atualizarStatusColeta(coletaId, companyId, status)</text><polygon fill="#181818" points="1153.5,240.625,1163.5,244.625,1153.5,248.625,1157.5,244.625" style="stroke:#181818;stroke-width:1.0;"/><line style="stroke:#181818;stroke-width:1.0;" x1="857.5" x2="1159.5" y1="244.625" y2="244.625"/><text fill="#000000" font-family="sans-serif" font-size="13" lengthAdjust="spacing" textLength="178" x="864.5" y="239.7686">findFirst coleta (id, companyId)</text><path d="M10,259.625 L71,259.625 L71,267.9766 L61,277.9766 L10,277.9766 L10,259.625 " fill="#EEEEEE" style="stroke:#000000;stroke-width:1.5;"/><rect fill="none" height="249.1641" style="stroke:#000000;stroke-width:1.5;" width="1207" x="10" y="259.625"/><text fill="#000000" font-family="sans-serif" font-size="13" font-weight="bold" lengthAdjust="spacing" textLength="16" x="25" y="274.1201">alt</text><text fill="#000000" font-family="sans-serif" font-size="11" font-weight="bold" lengthAdjust="spacing" textLength="190" x="86" y="273.0439">[nao encontrada / sem permissao]</text><polygon fill="#181818" points="302,296.3281,292,300.3281,302,304.3281,298,300.3281" style="stroke:#181818;stroke-width:1.0;"/><line style="stroke:#181818;stroke-width:1.0;stroke-dasharray:2.0,2.0;" x1="296" x2="856.5" y1="300.3281" y2="300.3281"/><text fill="#000000" font-family="sans-serif" font-size="13" lengthAdjust="spacing" textLength="31" x="308" y="295.4717">throw</text><polygon fill="#181818" points="62,326.6797,52,330.6797,62,334.6797,58,330.6797" style="stroke:#181818;stroke-width:1.0;"/><line style="stroke:#181818;stroke-width:1.0;stroke-dasharray:2.0,2.0;" x1="56" x2="290" y1="330.6797" y2="330.6797"/><text fill="#000000" font-family="sans-serif" font-size="13" lengthAdjust="spacing" textLength="21" x="68" y="325.8232">400</text><line style="stroke:#000000;stroke-width:1.0;stroke-dasharray:2.0,2.0;" x1="10" x2="1217" y1="339.6797" y2="339.6797"/><polygon fill="#181818" points="1153.5,375.3828,1163.5,379.3828,1153.5,383.3828,1157.5,379.3828" style="stroke:#181818;stroke-width:1.0;"/><line style="stroke:#181818;stroke-width:1.0;" x1="857.5" x2="1159.5" y1="379.3828" y2="379.3828"/><text fill="#000000" font-family="sans-serif" font-size="13" lengthAdjust="spacing" textLength="79" x="864.5" y="358.1748">update status</text><text fill="#000000" font-family="sans-serif" font-size="13" lengthAdjust="spacing" textLength="232" x="864.5" y="374.5264">(+ dataConclusao = now se "concluida")</text><polygon fill="#181818" points="1025.5,405.7344,1035.5,409.7344,1025.5,413.7344,1029.5,409.7344" style="stroke:#181818;stroke-width:1.0;"/><line style="stroke:#181818;stroke-width:1.0;" x1="857.5" x2="1031.5" y1="409.7344" y2="409.7344"/><text fill="#000000" font-family="sans-serif" font-size="13" lengthAdjust="spacing" textLength="156" x="864.5" y="404.8779">notificarColetaStatus(dono)</text><polygon fill="#181818" points="1153.5,436.0859,1163.5,440.0859,1153.5,444.0859,1157.5,440.0859" style="stroke:#181818;stroke-width:1.0;"/><line style="stroke:#181818;stroke-width:1.0;" x1="1037.5" x2="1159.5" y1="440.0859" y2="440.0859"/><text fill="#000000" font-family="sans-serif" font-size="13" lengthAdjust="spacing" textLength="104" x="1044.5" y="435.2295">create Notificacao</text><polygon fill="#181818" points="302,466.4375,292,470.4375,302,474.4375,298,470.4375" style="stroke:#181818;stroke-width:1.0;"/><line style="stroke:#181818;stroke-width:1.0;stroke-dasharray:2.0,2.0;" x1="296" x2="856.5" y1="470.4375" y2="470.4375"/><text fill="#000000" font-family="sans-serif" font-size="13" lengthAdjust="spacing" textLength="35" x="308" y="465.5811">coleta</text><polygon fill="#181818" points="62,496.7891,52,500.7891,62,504.7891,58,500.7891" style="stroke:#181818;stroke-width:1.0;"/><line style="stroke:#181818;stroke-width:1.0;stroke-dasharray:2.0,2.0;" x1="56" x2="290" y1="500.7891" y2="500.7891"/><text fill="#000000" font-family="sans-serif" font-size="13" lengthAdjust="spacing" textLength="21" x="68" y="495.9326">200</text><!--SRC=[RP9FJnin4CNl_XIZd7PLqeMg9wI28AHgfIeAMjH30A6fFI4ZxTehsm6r3T-TyNgNVyhDijzlviqRHuuDGJs_d1uTmHJEuXOR_eSUAfWvgvijUpaq556XZix3lEqy1LGT-iYQExGH9ikpgzaFgB3ZYl9xfNieLDTiRYU00URBzqmMr17ZDjHwGor2iNAcxCMhVThFWVm3QxgnEDhCU3ROW_NlsNlKkiXhrgZHZNmlN2Y34VzW85Yw4EyzrPU_qiF5kLB3a30z4Tjm37c-_w7lTW3Q6Rvtai-QVPigdpufqObw9U87iMOGiXWArCGHTtYdiMMxSJjgx_8yEvqJDd92gwb1W-LGIEQGKdldB3BzqoGZhKpvDnrpkr8bKFYBSy7NRCrtzY52Hg3Wjr2fi8bWqG5PiHAzz9Uz1sgX8zzo2EWKz5QcOn9nuzsZN2QNwMu8wXY-7XugQWADm61XsqdCDBYxiSKdIB7dhoNbuHjOzoWjquw7C2RbQus5b1Wtw6TlVanXd7L9k7XffJsbLelNXNyqdrFOv_vBSc_DCm00]--></g></svg>