<?xml version="1.0" encoding="us-ascii" standalone="no"?><svg xmlns="http://www.w3.org/2000/svg" xmlns:xlink="http://www.w3.org/1999/xlink" contentStyleType="text/css" height="698px" preserveAspectRatio="none" style="width:1061px;height:698px;background:#FFFFFF;" version="1.1" viewBox="0 0 1061 698" width="1061px" zoomAndPan="magnify"><defs/><g><text fill="#000000" font-family="sans-serif" font-size="14" font-weight="bold" lengthAdjust="spacing" textLength="354" x="354.5" y="29.5332">SEQ-06 - Listar Solicitacoes (ramificacao por perfil)</text><rect fill="none" height="309.1875" style="stroke:#000000;stroke-width:1.5;" width="871" x="183" y="229.2734"/><line style="stroke:#181818;stroke-width:0.5;stroke-dasharray:5.0,5.0;" x1="94" x2="94" y1="121.2188" y2="616.1641"/><line style="stroke:#181818;stroke-width:0.5;stroke-dasharray:5.0,5.0;" x1="266" x2="266" y1="121.2188" y2="616.1641"/><line style="stroke:#181818;stroke-width:0.5;stroke-dasharray:5.0,5.0;" x1="548" x2="548" y1="121.2188" y2="616.1641"/><line style="stroke:#181818;stroke-width:0.5;stroke-dasharray:5.0,5.0;" x1="667" x2="667" y1="121.2188" y2="616.1641"/><line style="stroke:#181818;stroke-width:0.5;stroke-dasharray:5.0,5.0;" x1="870" x2="870" y1="121.2188" y2="616.1641"/><line style="stroke:#181818;stroke-width:0.5;stroke-dasharray:5.0,5.0;" x1="1002" x2="1002" y1="121.2188" y2="616.1641"/><text fill="#000000" font-family="sans-serif" font-size="14" lengthAdjust="spacing" textLength="172" x="5" y="118.1426">Cidadao / Empresa / Admin</text><ellipse cx="94" cy="52.1094" fill="#E2E2F0" rx="8" ry="8" style="stroke:#181818;stroke-width:0.5;"/><path d="M94,60.1094 L94,87.1094 M81,68.1094 L107,68.1094 M94,87.1094 L81,102.1094 M94,87.1094 L107,102.1094 " fill="none" style="stroke:#181818;stroke-width:0.5;"/><text fill="#000000" font-family="sans-serif" font-size="14" lengthAdjust="spacing" textLength="172" x="5" y="629.6973">Cidadao / Empresa / Admin</text><ellipse cx="94" cy="641.2734" fill="#E2E2F0" rx="8" ry="8" style="stroke:#181818;stroke-width:0.5;"/><path d="M94,649.2734 L94,676.2734 M81,657.2734 L107,657.2734 M94,676.2734 L81,691.2734 M94,676.2734 L107,691.2734 " fill="none" style="stroke:#181818;stroke-width:0.5;"/><rect fill="#E2E2F0" height="31.6094" rx="2.5" ry="2.5" style="stroke:#181818;stroke-width:0.5;" width="147" x="193" y="88.6094"/><text fill="#000000" font-family="sans-serif" font-size="14" lengthAdjust="spacing" textLength="133" x="200" y="110.1426">GET /api/solicitacoes</text><rect fill="#E2E2F0" height="31.6094" rx="2.5" ry="2.5" style="stroke:#181818;stroke-width:0.5;" width="147" x="193" y="615.1641"/><text fill="#000000" font-family="sans-serif" font-size="14" lengthAdjust="spacing" textLength="133" x="200" y="636.6973">GET /api/solicitacoes</text><rect fill="#E2E2F0" height="31.6094" rx="2.5" ry="2.5" style="stroke:#181818;stroke-width:0.5;" width="89" x="504" y="88.6094"/><text fill="#000000" font-family="sans-serif" font-size="14" lengthAdjust="spacing" textLength="75" x="511" y="110.1426">route-guard</text><rect fill="#E2E2F0" height="31.6094" rx="2.5" ry="2.5" style="stroke:#181818;stroke-width:0.5;" width="89" x="504" y="615.1641"/><text fill="#000000" font-family="sans-serif" font-size="14" lengthAdjust="spacing" textLength="75" x="511" y="636.6973">route-guard</text><rect fill="#E2E2F0" height="31.6094" rx="2.5" ry="2.5" style="stroke:#181818;stroke-width:0.5;" width="129" x="603" y="88.6094"/><text fill="#000000" font-family="sans-serif" font-size="14" lengthAdjust="spacing" textLength="115" x="610" y="110.1426">solicitacao.service</text><rect fill="#E2E2F0" height="31.6094" rx="2.5" ry="2.5" style="stroke:#181818;stroke-width:0.5;" width="129" x="603" y="615.1641"/><text fill="#000000" font-family="sans-serif" font-size="14" lengthAdjust="spacing" textLength="115" x="610" y="636.6973">solicitacao.service</text><rect fill="#E2E2F0" height="31.6094" rx="2.5" ry="2.5" style="stroke:#181818;stroke-width:0.5;" width="111" x="815" y="88.6094"/><text fill="#000000" font-family="sans-serif" font-size="14" lengthAdjust="spacing" textLength="97" x="822" y="110.1426">privacy mapper</text><rect fill="#E2E2F0" height="31.6094" rx="2.5" ry="2.5" style="stroke:#181818;stroke-width:0.5;" width="111" x="815" y="615.1641"/><text fill="#000000" font-family="sans-serif" font-size="14" lengthAdjust="spacing" textLength="97" x="822" y="636.6973">privacy mapper</text><text fill="#000000" font-family="sans-serif" font-size="14" lengthAdjust="spacing" textLength="77" x="961" y="118.1426">PostgreSQL</text><path d="M984.5,67.6094 C984.5,57.6094 1002.5,57.6094 1002.5,57.6094 C1002.5,57.6094 1020.5,57.6094 1020.5,67.6094 L1020.5,93.6094 C1020.5,103.6094 1002.5,103.6094 1002.5,103.6094 C1002.5,103.6094 984.5,103.6094 984.5,93.6094 L984.5,67.6094 " fill="#E2E2F0" style="stroke:#181818;stroke-width:1.5;"/><path d="M984.5,67.6094 C984.5,77.6094 1002.5,77.6094 1002.5,77.6094 C1002.5,77.6094 1020.5,77.6094 1020.5,67.6094 " fill="none" style="stroke:#181818;stroke-width:1.5;"/><text fill="#000000" font-family="sans-serif" font-size="14" lengthAdjust="spacing" textLength="77" x="961" y="629.6973">PostgreSQL</text><path d="M984.5,642.7734 C984.5,632.7734 1002.5,632.7734 1002.5,632.7734 C1002.5,632.7734 1020.5,632.7734 1020.5,642.7734 L1020.5,668.7734 C1020.5,678.7734 1002.5,678.7734 1002.5,678.7734 C1002.5,678.7734 984.5,678.7734 984.5,668.7734 L984.5,642.7734 " fill="#E2E2F0" style="stroke:#181818;stroke-width:1.5;"/><path d="M984.5,642.7734 C984.5,652.7734 1002.5,652.7734 1002.5,652.7734 C1002.5,652.7734 1020.5,652.7734 1020.5,642.7734 " fill="none" style="stroke:#181818;stroke-width:1.5;"/><polygon fill="#181818" points="254.5,149.5703,264.5,153.5703,254.5,157.5703,258.5,153.5703" style="stroke:#181818;stroke-width:1.0;"/><line style="stroke:#181818;stroke-width:1.0;" x1="94" x2="260.5" y1="153.5703" y2="153.5703"/><text fill="#000000" font-family="sans-serif" font-size="13" lengthAdjust="spacing" textLength="124" x="101" y="148.7139">GET /api/solicitacoes</text><polygon fill="#181818" points="536.5,179.9219,546.5,183.9219,536.5,187.9219,540.5,183.9219" style="stroke:#181818;stroke-width:1.0;"/><line style="stroke:#181818;stroke-width:1.0;" x1="266.5" x2="542.5" y1="183.9219" y2="183.9219"/><text fill="#000000" font-family="sans-serif" font-size="13" lengthAdjust="spacing" textLength="258" x="273.5" y="179.0654">autorizarRota(["usuario","admin","empresa"])</text><polygon fill="#181818" points="277.5,210.2734,267.5,214.2734,277.5,218.2734,273.5,214.2734" style="stroke:#181818;stroke-width:1.0;"/><line style="stroke:#181818;stroke-width:1.0;stroke-dasharray:2.0,2.0;" x1="271.5" x2="547.5" y1="214.2734" y2="214.2734"/><text fill="#000000" font-family="sans-serif" font-size="13" lengthAdjust="spacing" textLength="78" x="283.5" y="209.417">session (role)</text><path d="M183,229.2734 L244,229.2734 L244,237.625 L234,247.625 L183,247.625 L183,229.2734 " fill="#EEEEEE" style="stroke:#000000;stroke-width:1.5;"/><rect fill="none" height="309.1875" style="stroke:#000000;stroke-width:1.5;" width="871" x="183" y="229.2734"/><text fill="#000000" font-family="sans-serif" font-size="13" font-weight="bold" lengthAdjust="spacing" textLength="16" x="198" y="243.7686">alt</text><text fill="#000000" font-family="sans-serif" font-size="11" font-weight="bold" lengthAdjust="spacing" textLength="90" x="259" y="242.6924">[role == usuario]</text><polygon fill="#181818" points="655.5,265.9766,665.5,269.9766,655.5,273.9766,659.5,269.9766" style="stroke:#181818;stroke-width:1.0;"/><line style="stroke:#181818;stroke-width:1.0;" x1="266.5" x2="661.5" y1="269.9766" y2="269.9766"/><text fill="#000000" font-family="sans-serif" font-size="13" lengthAdjust="spacing" textLength="202" x="273.5" y="265.1201">listarSolicitacoesDoUsuario(userId)</text><polygon fill="#181818" points="990.5,296.3281,1000.5,300.3281,990.5,304.3281,994.5,300.3281" style="stroke:#181818;stroke-width:1.0;"/><line style="stroke:#181818;stroke-width:1.0;" x1="667.5" x2="996.5" y1="300.3281" y2="300.3281"/><text fill="#000000" font-family="sans-serif" font-size="13" lengthAdjust="spacing" textLength="185" x="674.5" y="295.4717">where userId (todas as proprias)</text><line style="stroke:#000000;stroke-width:1.0;stroke-dasharray:2.0,2.0;" x1="183" x2="1054" y1="309.3281" y2="309.3281"/><text fill="#000000" font-family="sans-serif" font-size="11" font-weight="bold" lengthAdjust="spacing" textLength="82" x="188" y="320.7471">[role == admin]</text><polygon fill="#181818" points="655.5,342.5156,665.5,346.5156,655.5,350.5156,659.5,346.5156" style="stroke:#181818;stroke-width:1.0;"/><line style="stroke:#181818;stroke-width:1.0;" x1="266.5" x2="661.5" y1="346.5156" y2="346.5156"/><text fill="#000000" font-family="sans-serif" font-size="13" lengthAdjust="spacing" textLength="144" x="273.5" y="341.6592">listarSolicitacoesAdmin()</text><polygon fill="#181818" points="990.5,389.2188,1000.5,393.2188,990.5,397.2188,994.5,393.2188" style="stroke:#181818;stroke-width:1.0;"/><line style="stroke:#181818;stroke-width:1.0;" x1="667.5" x2="996.5" y1="393.2188" y2="393.2188"/><text fill="#000000" font-family="sans-serif" font-size="13" lengthAdjust="spacing" textLength="128" x="674.5" y="372.0107">escopo de moderacao</text><text fill="#000000" font-family="sans-serif" font-size="13" lengthAdjust="spacing" textLength="311" x="674.5" y="388.3623">(rejeitadas / aprovadas-sem-coleta / pendentes &gt; 24h)</text><polygon fill="#181818" points="858.5,419.5703,868.5,423.5703,858.5,427.5703,862.5,423.5703" style="stroke:#181818;stroke-width:1.0;"/><line style="stroke:#181818;stroke-width:1.0;" x1="667.5" x2="864.5" y1="423.5703" y2="423.5703"/><text fill="#000000" font-family="sans-serif" font-size="13" lengthAdjust="spacing" textLength="144" x="674.5" y="418.7139">mascara contato (regiao)</text><line style="stroke:#000000;stroke-width:1.0;stroke-dasharray:2.0,2.0;" x1="183" x2="1054" y1="432.5703" y2="432.5703"/><text fill="#000000" font-family="sans-serif" font-size="11" font-weight="bold" lengthAdjust="spacing" textLength="98" x="188" y="443.9893">[role == empresa]</text><polygon fill="#181818" points="655.5,465.7578,665.5,469.7578,655.5,473.7578,659.5,469.7578" style="stroke:#181818;stroke-width:1.0;"/><line style="stroke:#181818;stroke-width:1.0;" x1="266.5" x2="661.5" y1="469.7578" y2="469.7578"/><text fill="#000000" font-family="sans-serif" font-size="13" lengthAdjust="spacing" textLength="167" x="273.5" y="464.9014">listarSolicitacoesAprovadas()</text><polygon fill="#181818" points="990.5,496.1094,1000.5,500.1094,990.5,504.1094,994.5,500.1094" style="stroke:#181818;stroke-width:1.0;"/><line style="stroke:#181818;stroke-width:1.0;" x1="667.5" x2="996.5" y1="500.1094" y2="500.1094"/><text fill="#000000" font-family="sans-serif" font-size="13" lengthAdjust="spacing" textLength="263" x="674.5" y="495.2529">where aprovado, status=aprovada, coleta=null</text><polygon fill="#181818" points="858.5,526.4609,868.5,530.4609,858.5,534.4609,862.5,530.4609" style="stroke:#181818;stroke-width:1.0;"/><line style="stroke:#181818;stroke-width:1.0;" x1="667.5" x2="864.5" y1="530.4609" y2="530.4609"/><text fill="#000000" font-family="sans-serif" font-size="13" lengthAdjust="spacing" textLength="179" x="674.5" y="525.6045">endereco -&gt; regiao aproximada</text><polygon fill="#181818" points="277.5,563.8125,267.5,567.8125,277.5,571.8125,273.5,567.8125" style="stroke:#181818;stroke-width:1.0;"/><line style="stroke:#181818;stroke-width:1.0;stroke-dasharray:2.0,2.0;" x1="271.5" x2="666.5" y1="567.8125" y2="567.8125"/><text fill="#000000" font-family="sans-serif" font-size="13" lengthAdjust="spacing" textLength="62" x="283.5" y="562.9561">lista (DTO)</text><polygon fill="#181818" points="105,594.1641,95,598.1641,105,602.1641,101,598.1641" style="stroke:#181818;stroke-width:1.0;"/><line style="stroke:#181818;stroke-width:1.0;stroke-dasharray:2.0,2.0;" x1="99" x2="265.5" y1="598.1641" y2="598.1641"/><text fill="#000000" font-family="sans-serif" font-size="13" lengthAdjust="spacing" textLength="21" x="111" y="593.3076">200</text><!--SRC=[XLB1Qjj04BtlLmmwIM3L9fGU0WuqiJ65G1qvpINjORexSRP8ccLtvQJz-evMKh1D8A33QkVDUs_VJBIn9jYjxyh55oZXreQ87dPSMsqZQgO0kSV6FbcD6XaSUt3adsnTADHH_h8RQz18QGxhndaAAAUlfh5j1XZWH-ZGMrOEVHHEXss4RBE-XpawEmz7GWc-tfuYFNUHohrmc5IlDgVrDmBaJu7ymMfAkDt3pIdGUNj0_HSQTE8_ORQLCXZnDmQ2BOUuzxIxk-qhgskbHkDGNeafk8HtFIif2Q3Q200xYSF-GrznnFmnwmQ2R9PXIcEMqP1FzgjGqb5Ep852iDnAq5oJn5f7w4-mNCB8eG068NcMDDHfIiT3Ml5eD-yaXM-ca8uUAoshQ-buUIPFCDGWZspaaV8vpv8BXa9HBI5CgidlXvffnlcv4WNDZi4GD6p8zuFvsUQU_f2qzR9pG94zzESoK5Dg4OtzpZXg3RLHDkuABZu_7n5lAo5kC6Zq29hRY94bBTfRv3FhOyGVcvyyvEz7DNha6KXdxC9oCZs3mV2oxUhwp6B_04ywxSpWBl6ysaOQbLHLGazpJwuWNzr_Bz8UoVsqT9TmiLZy1m00]--></g></svg>