<?xml version="1.0" encoding="us-ascii" standalone="no"?><svg xmlns="http://www.w3.org/2000/svg" xmlns:xlink="http://www.w3.org/1999/xlink" contentStyleType="text/css" height="681px" preserveAspectRatio="none" style="width:914px;height:681px;background:#FFFFFF;" version="1.1" viewBox="0 0 914 681" width="914px" zoomAndPan="magnify"><defs/><g><text fill="#000000" font-family="sans-serif" font-size="14" font-weight="bold" lengthAdjust="spacing" textLength="397" x="259.5" y="29.5332">SEQ-01 - Autenticacao Web (NextAuth Credentials + JWT)</text><rect fill="none" height="232.6484" style="stroke:#000000;stroke-width:1.5;" width="897" x="10" y="349.6797"/><line style="stroke:#181818;stroke-width:0.5;stroke-dasharray:5.0,5.0;" x1="49" x2="49" y1="121.2188" y2="599.3281"/><line style="stroke:#181818;stroke-width:0.5;stroke-dasharray:5.0,5.0;" x1="260.5" x2="260.5" y1="121.2188" y2="599.3281"/><line style="stroke:#181818;stroke-width:0.5;stroke-dasharray:5.0,5.0;" x1="503.5" x2="503.5" y1="121.2188" y2="599.3281"/><line style="stroke:#181818;stroke-width:0.5;stroke-dasharray:5.0,5.0;" x1="662" x2="662" y1="121.2188" y2="599.3281"/><line style="stroke:#181818;stroke-width:0.5;stroke-dasharray:5.0,5.0;" x1="855" x2="855" y1="121.2188" y2="599.3281"/><text fill="#000000" font-family="sans-serif" font-size="14" lengthAdjust="spacing" textLength="53" x="20" y="118.1426">Cidadao</text><ellipse cx="49.5" cy="52.1094" fill="#E2E2F0" rx="8" ry="8" style="stroke:#181818;stroke-width:0.5;"/><path d="M49.5,60.1094 L49.5,87.1094 M36.5,68.1094 L62.5,68.1094 M49.5,87.1094 L36.5,102.1094 M49.5,87.1094 L62.5,102.1094 " fill="none" style="stroke:#181818;stroke-width:0.5;"/><text fill="#000000" font-family="sans-serif" font-size="14" lengthAdjust="spacing" textLength="53" x="20" y="612.8613">Cidadao</text><ellipse cx="49.5" cy="624.4375" fill="#E2E2F0" rx="8" ry="8" style="stroke:#181818;stroke-width:0.5;"/><path d="M49.5,632.4375 L49.5,659.4375 M36.5,640.4375 L62.5,640.4375 M49.5,659.4375 L36.5,674.4375 M49.5,659.4375 L62.5,674.4375 " fill="none" style="stroke:#181818;stroke-width:0.5;"/><rect fill="#E2E2F0" height="31.6094" rx="2.5" ry="2.5" style="stroke:#181818;stroke-width:0.5;" width="80" x="220.5" y="88.6094"/><text fill="#000000" font-family="sans-serif" font-size="14" lengthAdjust="spacing" textLength="66" x="227.5" y="110.1426">Tela /login</text><rect fill="#E2E2F0" height="31.6094" rx="2.5" ry="2.5" style="stroke:#181818;stroke-width:0.5;" width="80" x="220.5" y="598.3281"/><text fill="#000000" font-family="sans-serif" font-size="14" lengthAdjust="spacing" textLength="66" x="227.5" y="619.8613">Tela /login</text><rect fill="#E2E2F0" height="49.2188" rx="2.5" ry="2.5" style="stroke:#181818;stroke-width:0.5;" width="88" x="459.5" y="71"/><text fill="#000000" font-family="sans-serif" font-size="14" lengthAdjust="spacing" textLength="56" x="475.5" y="92.5332">NextAuth</text><text fill="#000000" font-family="sans-serif" font-size="14" lengthAdjust="spacing" textLength="74" x="466.5" y="110.1426">[...nextauth]</text><rect fill="#E2E2F0" height="49.2188" rx="2.5" ry="2.5" style="stroke:#181818;stroke-width:0.5;" width="88" x="459.5" y="598.3281"/><text fill="#000000" font-family="sans-serif" font-size="14" lengthAdjust="spacing" textLength="56" x="475.5" y="619.8613">NextAuth</text><text fill="#000000" font-family="sans-serif" font-size="14" lengthAdjust="spacing" textLength="74" x="466.5" y="637.4707">[...nextauth]</text><rect fill="#E2E2F0" height="49.2188" rx="2.5" ry="2.5" style="stroke:#181818;stroke-width:0.5;" width="209" x="558" y="71"/><text fill="#000000" font-family="sans-serif" font-size="14" lengthAdjust="spacing" textLength="195" x="565" y="92.5332">authenticateUserByCredentials</text><text fill="#000000" font-family="sans-serif" font-size="14" lengthAdjust="spacing" textLength="84" x="620.5" y="110.1426">(mobile-auth)</text><rect fill="#E2E2F0" height="49.2188" rx="2.5" ry="2.5" style="stroke:#181818;stroke-width:0.5;" width="209" x="558" y="598.3281"/><text fill="#000000" font-family="sans-serif" font-size="14" lengthAdjust="spacing" textLength="195" x="565" y="619.8613">authenticateUserByCredentials</text><text fill="#000000" font-family="sans-serif" font-size="14" lengthAdjust="spacing" textLength="84" x="620.5" y="637.4707">(mobile-auth)</text><text fill="#000000" font-family="sans-serif" font-size="14" lengthAdjust="spacing" textLength="77" x="814" y="118.1426">PostgreSQL</text><path d="M837.5,67.6094 C837.5,57.6094 855.5,57.6094 855.5,57.6094 C855.5,57.6094 873.5,57.6094 873.5,67.6094 L873.5,93.6094 C873.5,103.6094 855.5,103.6094 855.5,103.6094 C855.5,103.6094 837.5,103.6094 837.5,93.6094 L837.5,67.6094 " fill="#E2E2F0" style="stroke:#181818;stroke-width:1.5;"/><path d="M837.5,67.6094 C837.5,77.6094 855.5,77.6094 855.5,77.6094 C855.5,77.6094 873.5,77.6094 873.5,67.6094 " fill="none" style="stroke:#181818;stroke-width:1.5;"/><text fill="#000000" font-family="sans-serif" font-size="14" lengthAdjust="spacing" textLength="77" x="814" y="612.8613">PostgreSQL</text><path d="M837.5,625.9375 C837.5,615.9375 855.5,615.9375 855.5,615.9375 C855.5,615.9375 873.5,615.9375 873.5,625.9375 L873.5,651.9375 C873.5,661.9375 855.5,661.9375 855.5,661.9375 C855.5,661.9375 837.5,661.9375 837.5,651.9375 L837.5,625.9375 " fill="#E2E2F0" style="stroke:#181818;stroke-width:1.5;"/><path d="M837.5,625.9375 C837.5,635.9375 855.5,635.9375 855.5,635.9375 C855.5,635.9375 873.5,635.9375 873.5,625.9375 " fill="none" style="stroke:#181818;stroke-width:1.5;"/><polygon fill="#181818" points="248.5,149.5703,258.5,153.5703,248.5,157.5703,252.5,153.5703" style="stroke:#181818;stroke-width:1.0;"/><line style="stroke:#181818;stroke-width:1.0;" x1="49.5" x2="254.5" y1="153.5703" y2="153.5703"/><text fill="#000000" font-family="sans-serif" font-size="13" lengthAdjust="spacing" textLength="116" x="56.5" y="148.7139">informa email/senha</text><polygon fill="#181818" points="491.5,179.9219,501.5,183.9219,491.5,187.9219,495.5,183.9219" style="stroke:#181818;stroke-width:1.0;"/><line style="stroke:#181818;stroke-width:1.0;" x1="260.5" x2="497.5" y1="183.9219" y2="183.9219"/><text fill="#000000" font-family="sans-serif" font-size="13" lengthAdjust="spacing" textLength="115" x="267.5" y="179.0654">signIn("credentials")</text><polygon fill="#181818" points="650.5,210.2734,660.5,214.2734,650.5,218.2734,654.5,214.2734" style="stroke:#181818;stroke-width:1.0;"/><line style="stroke:#181818;stroke-width:1.0;" x1="503.5" x2="656.5" y1="214.2734" y2="214.2734"/><text fill="#000000" font-family="sans-serif" font-size="13" lengthAdjust="spacing" textLength="135" x="510.5" y="209.417">authorize(email, senha)</text><polygon fill="#181818" points="843.5,240.625,853.5,244.625,843.5,248.625,847.5,244.625" style="stroke:#181818;stroke-width:1.0;"/><line style="stroke:#181818;stroke-width:1.0;" x1="662.5" x2="849.5" y1="244.625" y2="244.625"/><text fill="#000000" font-family="sans-serif" font-size="13" lengthAdjust="spacing" textLength="169" x="669.5" y="239.7686">findUnique(email) include role</text><polygon fill="#181818" points="673.5,270.9766,663.5,274.9766,673.5,278.9766,669.5,274.9766" style="stroke:#181818;stroke-width:1.0;"/><line style="stroke:#181818;stroke-width:1.0;stroke-dasharray:2.0,2.0;" x1="667.5" x2="854.5" y1="274.9766" y2="274.9766"/><text fill="#000000" font-family="sans-serif" font-size="13" lengthAdjust="spacing" textLength="25" x="679.5" y="270.1201">user</text><line style="stroke:#181818;stroke-width:1.0;" x1="662.5" x2="704.5" y1="321.6797" y2="321.6797"/><line style="stroke:#181818;stroke-width:1.0;" x1="704.5" x2="704.5" y1="321.6797" y2="334.6797"/><line style="stroke:#181818;stroke-width:1.0;" x1="663.5" x2="704.5" y1="334.6797" y2="334.6797"/><polygon fill="#181818" points="673.5,330.6797,663.5,334.6797,673.5,338.6797,669.5,334.6797" style="stroke:#181818;stroke-width:1.0;"/><text fill="#000000" font-family="sans-serif" font-size="13" lengthAdjust="spacing" textLength="103" x="669.5" y="300.4717">status == "ativo"?</text><text fill="#000000" font-family="sans-serif" font-size="13" lengthAdjust="spacing" textLength="169" x="669.5" y="316.8232">bcrypt.compare(senha, hash)</text><path d="M10,349.6797 L71,349.6797 L71,358.0313 L61,368.0313 L10,368.0313 L10,349.6797 " fill="#EEEEEE" style="stroke:#000000;stroke-width:1.5;"/><rect fill="none" height="232.6484" style="stroke:#000000;stroke-width:1.5;" width="897" x="10" y="349.6797"/><text fill="#000000" font-family="sans-serif" font-size="13" font-weight="bold" lengthAdjust="spacing" textLength="16" x="25" y="364.1748">alt</text><text fill="#000000" font-family="sans-serif" font-size="11" font-weight="bold" lengthAdjust="spacing" textLength="113" x="86" y="363.0986">[credenciais validas]</text><polygon fill="#181818" points="514.5,386.3828,504.5,390.3828,514.5,394.3828,510.5,390.3828" style="stroke:#181818;stroke-width:1.0;"/><line style="stroke:#181818;stroke-width:1.0;stroke-dasharray:2.0,2.0;" x1="508.5" x2="661.5" y1="390.3828" y2="390.3828"/><text fill="#000000" font-family="sans-serif" font-size="13" lengthAdjust="spacing" textLength="126" x="520.5" y="385.5264">{id, name, email, role}</text><polygon fill="#181818" points="843.5,416.7344,853.5,420.7344,843.5,424.7344,847.5,420.7344" style="stroke:#181818;stroke-width:1.0;"/><line style="stroke:#181818;stroke-width:1.0;" x1="503.5" x2="849.5" y1="420.7344" y2="420.7344"/><text fill="#000000" font-family="sans-serif" font-size="13" lengthAdjust="spacing" textLength="166" x="510.5" y="415.8779">refresh do user (jwt callback)</text><polygon fill="#181818" points="271.5,447.0859,261.5,451.0859,271.5,455.0859,267.5,451.0859" style="stroke:#181818;stroke-width:1.0;"/><line style="stroke:#181818;stroke-width:1.0;stroke-dasharray:2.0,2.0;" x1="265.5" x2="502.5" y1="451.0859" y2="451.0859"/><text fill="#000000" font-family="sans-serif" font-size="13" lengthAdjust="spacing" textLength="219" x="277.5" y="446.2295">cookie de sessao JWT (role no token)</text><polygon fill="#181818" points="60.5,493.7891,50.5,497.7891,60.5,501.7891,56.5,497.7891" style="stroke:#181818;stroke-width:1.0;"/><line style="stroke:#181818;stroke-width:1.0;stroke-dasharray:2.0,2.0;" x1="54.5" x2="259.5" y1="497.7891" y2="497.7891"/><text fill="#000000" font-family="sans-serif" font-size="13" lengthAdjust="spacing" textLength="110" x="66.5" y="476.5811">redireciona por role</text><text fill="#000000" font-family="sans-serif" font-size="13" lengthAdjust="spacing" textLength="187" x="66.5" y="492.9326">(/dashboard | /empresa | /admin)</text><line style="stroke:#000000;stroke-width:1.0;stroke-dasharray:2.0,2.0;" x1="10" x2="907" y1="506.7891" y2="506.7891"/><text fill="#000000" font-family="sans-serif" font-size="11" font-weight="bold" lengthAdjust="spacing" textLength="56" x="15" y="518.208">[invalidas]</text><polygon fill="#181818" points="514.5,539.9766,504.5,543.9766,514.5,547.9766,510.5,543.9766" style="stroke:#181818;stroke-width:1.0;"/><line style="stroke:#181818;stroke-width:1.0;stroke-dasharray:2.0,2.0;" x1="508.5" x2="661.5" y1="543.9766" y2="543.9766"/><text fill="#000000" font-family="sans-serif" font-size="13" lengthAdjust="spacing" textLength="20" x="520.5" y="539.1201">null</text><polygon fill="#181818" points="271.5,570.3281,261.5,574.3281,271.5,578.3281,267.5,574.3281" style="stroke:#181818;stroke-width:1.0;"/><line style="stroke:#181818;stroke-width:1.0;stroke-dasharray:2.0,2.0;" x1="265.5" x2="502.5" y1="574.3281" y2="574.3281"/><text fill="#000000" font-family="sans-serif" font-size="13" lengthAdjust="spacing" textLength="135" x="277.5" y="569.4717">401 erro de credenciais</text><!--SRC=[RLB1RjD04BtlLunoiaMSWCG9gLH9ow48HLHjr0FXCDwTn4FMksPtNIZGVsVMiTKMSVFulNdptimcJfRWviDrzVeDLB3g4xd46ZLwkACQYWtzJFAtWOj09cDe8xo2ZtUtfKATV80BDcZGgmw3T7A7Bi7ibYp2qle3knbWXEtLItoItRalYyN2IOLIVHsuczLBRaPEhX9j8uNrmpClErUqlcPBLQQLWy1ggmmch34IVFOn7GBTN7_AoELQgT4lLE_55Rm3TdiVMWHgaUqoacjG2I3mPYLmv8ExSiLCFysSbKeW8QosGiXpVU1VL0mASnWaIYMWK2xNGjcpCrl7t_kHKyfGRNj34Bmb9PngKkibuDWwr35XwYESdSaU4j_xsVdErJeyT6cXVIjxecAODuS6OoCtiGbELZKZHxX7AtcZWYnNJQ5-ivc3mvRcC9hEHXw5TGesk0wq3nGRC7vm1SMt7wADrjQeZ-N8dRQelJyoWKIA5AEiLru855aLd8VaZ-HoIrwij4mto4CC1zBi7K8dhobto4sNuhcfFGO3Vs19RITEC7-YQLcKoCfjsVq_dUkj_SVUMtdU58BF1f-jHv4pVm40]--></g></svg>