<?xml version="1.0" encoding="us-ascii" standalone="no"?><svg xmlns="http://www.w3.org/2000/svg" xmlns:xlink="http://www.w3.org/1999/xlink" contentStyleType="text/css" height="635px" preserveAspectRatio="none" style="width:641px;height:635px;background:#FFFFFF;" version="1.1" viewBox="0 0 641 635" width="641px" zoomAndPan="magnify"><defs/><g><text fill="#000000" font-family="sans-serif" font-size="14" font-weight="bold" lengthAdjust="spacing" textLength="363" x="140.25" y="29.5332">SEQ-15 - Consultar CEP (integracao externa ViaCEP)</text><rect fill="none" height="294" style="stroke:#000000;stroke-width:1.5;" width="580.5" x="54" y="242.2734"/><rect fill="none" height="198.9453" style="stroke:#000000;stroke-width:1.5;" width="560.5" x="64" y="330.3281"/><line style="stroke:#181818;stroke-width:0.5;stroke-dasharray:5.0,5.0;" x1="34" x2="34" y1="121.2188" y2="553.2734"/><line style="stroke:#181818;stroke-width:0.5;stroke-dasharray:5.0,5.0;" x1="139" x2="139" y1="121.2188" y2="553.2734"/><line style="stroke:#181818;stroke-width:0.5;stroke-dasharray:5.0,5.0;" x1="367.5" x2="367.5" y1="121.2188" y2="553.2734"/><line style="stroke:#181818;stroke-width:0.5;stroke-dasharray:5.0,5.0;" x1="583.5" x2="583.5" y1="121.2188" y2="553.2734"/><text fill="#000000" font-family="sans-serif" font-size="14" lengthAdjust="spacing" textLength="53" x="5" y="118.1426">Cidadao</text><ellipse cx="34.5" cy="52.1094" fill="#E2E2F0" rx="8" ry="8" style="stroke:#181818;stroke-width:0.5;"/><path d="M34.5,60.1094 L34.5,87.1094 M21.5,68.1094 L47.5,68.1094 M34.5,87.1094 L21.5,102.1094 M34.5,87.1094 L47.5,102.1094 " fill="none" style="stroke:#181818;stroke-width:0.5;"/><text fill="#000000" font-family="sans-serif" font-size="14" lengthAdjust="spacing" textLength="53" x="5" y="566.8066">Cidadao</text><ellipse cx="34.5" cy="578.3828" fill="#E2E2F0" rx="8" ry="8" style="stroke:#181818;stroke-width:0.5;"/><path d="M34.5,586.3828 L34.5,613.3828 M21.5,594.3828 L47.5,594.3828 M34.5,613.3828 L21.5,628.3828 M34.5,613.3828 L47.5,628.3828 " fill="none" style="stroke:#181818;stroke-width:0.5;"/><rect fill="#E2E2F0" height="31.6094" rx="2.5" ry="2.5" style="stroke:#181818;stroke-width:0.5;" width="131" x="74" y="88.6094"/><text fill="#000000" font-family="sans-serif" font-size="14" lengthAdjust="spacing" textLength="117" x="81" y="110.1426">Form de endereco</text><rect fill="#E2E2F0" height="31.6094" rx="2.5" ry="2.5" style="stroke:#181818;stroke-width:0.5;" width="131" x="74" y="552.2734"/><text fill="#000000" font-family="sans-serif" font-size="14" lengthAdjust="spacing" textLength="117" x="81" y="573.8066">Form de endereco</text><rect fill="#E2E2F0" height="31.6094" rx="2.5" ry="2.5" style="stroke:#181818;stroke-width:0.5;" width="132" x="301.5" y="88.6094"/><text fill="#000000" font-family="sans-serif" font-size="14" lengthAdjust="spacing" textLength="118" x="308.5" y="110.1426">GET /api/cep/[cep]</text><rect fill="#E2E2F0" height="31.6094" rx="2.5" ry="2.5" style="stroke:#181818;stroke-width:0.5;" width="132" x="301.5" y="552.2734"/><text fill="#000000" font-family="sans-serif" font-size="14" lengthAdjust="spacing" textLength="118" x="308.5" y="573.8066">GET /api/cep/[cep]</text><rect fill="#E2E2F0" height="31.6094" rx="2.5" ry="2.5" style="stroke:#181818;stroke-width:0.5;" width="62" x="552.5" y="88.6094"/><text fill="#000000" font-family="sans-serif" font-size="14" lengthAdjust="spacing" textLength="48" x="559.5" y="110.1426">ViaCEP</text><rect fill="#E2E2F0" height="31.6094" rx="2.5" ry="2.5" style="stroke:#181818;stroke-width:0.5;" width="62" x="552.5" y="552.2734"/><text fill="#000000" font-family="sans-serif" font-size="14" lengthAdjust="spacing" textLength="48" x="559.5" y="573.8066">ViaCEP</text><polygon fill="#181818" points="127.5,149.5703,137.5,153.5703,127.5,157.5703,131.5,153.5703" style="stroke:#181818;stroke-width:1.0;"/><line style="stroke:#181818;stroke-width:1.0;" x1="34.5" x2="133.5" y1="153.5703" y2="153.5703"/><text fill="#000000" font-family="sans-serif" font-size="13" lengthAdjust="spacing" textLength="62" x="41.5" y="148.7139">digita CEP</text><polygon fill="#181818" points="355.5,179.9219,365.5,183.9219,355.5,187.9219,359.5,183.9219" style="stroke:#181818;stroke-width:1.0;"/><line style="stroke:#181818;stroke-width:1.0;" x1="139.5" x2="361.5" y1="183.9219" y2="183.9219"/><text fill="#000000" font-family="sans-serif" font-size="13" lengthAdjust="spacing" textLength="136" x="146.5" y="179.0654">GET /api/cep/01310100</text><line style="stroke:#181818;stroke-width:1.0;" x1="367.5" x2="409.5" y1="214.2734" y2="214.2734"/><line style="stroke:#181818;stroke-width:1.0;" x1="409.5" x2="409.5" y1="214.2734" y2="227.2734"/><line style="stroke:#181818;stroke-width:1.0;" x1="368.5" x2="409.5" y1="227.2734" y2="227.2734"/><polygon fill="#181818" points="378.5,223.2734,368.5,227.2734,378.5,231.2734,374.5,227.2734" style="stroke:#181818;stroke-width:1.0;"/><text fill="#000000" font-family="sans-serif" font-size="13" lengthAdjust="spacing" textLength="147" x="374.5" y="209.417">normalizeCep (8 digitos?)</text><path d="M54,242.2734 L115,242.2734 L115,250.625 L105,260.625 L54,260.625 L54,242.2734 " fill="#EEEEEE" style="stroke:#000000;stroke-width:1.5;"/><rect fill="none" height="294" style="stroke:#000000;stroke-width:1.5;" width="580.5" x="54" y="242.2734"/><text fill="#000000" font-family="sans-serif" font-size="13" font-weight="bold" lengthAdjust="spacing" textLength="16" x="69" y="256.7686">alt</text><text fill="#000000" font-family="sans-serif" font-size="11" font-weight="bold" lengthAdjust="spacing" textLength="74" x="130" y="255.6924">[CEP invalido]</text><polygon fill="#181818" points="150.5,278.9766,140.5,282.9766,150.5,286.9766,146.5,282.9766" style="stroke:#181818;stroke-width:1.0;"/><line style="stroke:#181818;stroke-width:1.0;stroke-dasharray:2.0,2.0;" x1="144.5" x2="366.5" y1="282.9766" y2="282.9766"/><text fill="#000000" font-family="sans-serif" font-size="13" lengthAdjust="spacing" textLength="108" x="156.5" y="278.1201">400 "CEP invalido"</text><line style="stroke:#000000;stroke-width:1.0;stroke-dasharray:2.0,2.0;" x1="54" x2="634.5" y1="291.9766" y2="291.9766"/><polygon fill="#181818" points="571.5,311.3281,581.5,315.3281,571.5,319.3281,575.5,315.3281" style="stroke:#181818;stroke-width:1.0;"/><line style="stroke:#181818;stroke-width:1.0;" x1="367.5" x2="577.5" y1="315.3281" y2="315.3281"/><text fill="#000000" font-family="sans-serif" font-size="13" lengthAdjust="spacing" textLength="191" x="374.5" y="310.4717">GET viacep.com.br/ws/{cep}/json</text><path d="M64,330.3281 L125,330.3281 L125,338.6797 L115,348.6797 L64,348.6797 L64,330.3281 " fill="#EEEEEE" style="stroke:#000000;stroke-width:1.5;"/><rect fill="none" height="198.9453" style="stroke:#000000;stroke-width:1.5;" width="560.5" x="64" y="330.3281"/><text fill="#000000" font-family="sans-serif" font-size="13" font-weight="bold" lengthAdjust="spacing" textLength="16" x="79" y="344.8232">alt</text><text fill="#000000" font-family="sans-serif" font-size="11" font-weight="bold" lengthAdjust="spacing" textLength="71" x="140" y="343.7471">[encontrado]</text><polygon fill="#181818" points="378.5,367.0313,368.5,371.0313,378.5,375.0313,374.5,371.0313" style="stroke:#181818;stroke-width:1.0;"/><line style="stroke:#181818;stroke-width:1.0;stroke-dasharray:2.0,2.0;" x1="372.5" x2="582.5" y1="371.0313" y2="371.0313"/><text fill="#000000" font-family="sans-serif" font-size="13" lengthAdjust="spacing" textLength="192" x="384.5" y="366.1748">{logradouro, bairro, localidade, uf}</text><polygon fill="#181818" points="150.5,397.3828,140.5,401.3828,150.5,405.3828,146.5,401.3828" style="stroke:#181818;stroke-width:1.0;"/><line style="stroke:#181818;stroke-width:1.0;stroke-dasharray:2.0,2.0;" x1="144.5" x2="366.5" y1="401.3828" y2="401.3828"/><text fill="#000000" font-family="sans-serif" font-size="13" lengthAdjust="spacing" textLength="130" x="156.5" y="396.5264">{rua, bairro, cidade, uf}</text><line style="stroke:#181818;stroke-width:1.0;" x1="139.5" x2="181.5" y1="431.7344" y2="431.7344"/><line style="stroke:#181818;stroke-width:1.0;" x1="181.5" x2="181.5" y1="431.7344" y2="444.7344"/><line style="stroke:#181818;stroke-width:1.0;" x1="140.5" x2="181.5" y1="444.7344" y2="444.7344"/><polygon fill="#181818" points="150.5,440.7344,140.5,444.7344,150.5,448.7344,146.5,444.7344" style="stroke:#181818;stroke-width:1.0;"/><text fill="#000000" font-family="sans-serif" font-size="13" lengthAdjust="spacing" textLength="214" x="146.5" y="426.8779">preenche endereco automaticamente</text><line style="stroke:#000000;stroke-width:1.0;stroke-dasharray:2.0,2.0;" x1="64" x2="624.5" y1="453.7344" y2="453.7344"/><text fill="#000000" font-family="sans-serif" font-size="11" font-weight="bold" lengthAdjust="spacing" textLength="170" x="69" y="465.1533">[nao encontrado / indisponivel]</text><polygon fill="#181818" points="378.5,486.9219,368.5,490.9219,378.5,494.9219,374.5,490.9219" style="stroke:#181818;stroke-width:1.0;"/><line style="stroke:#181818;stroke-width:1.0;stroke-dasharray:2.0,2.0;" x1="372.5" x2="582.5" y1="490.9219" y2="490.9219"/><text fill="#000000" font-family="sans-serif" font-size="13" lengthAdjust="spacing" textLength="85" x="384.5" y="486.0654">erro / data.erro</text><polygon fill="#181818" points="150.5,517.2734,140.5,521.2734,150.5,525.2734,146.5,521.2734" style="stroke:#181818;stroke-width:1.0;"/><line style="stroke:#181818;stroke-width:1.0;stroke-dasharray:2.0,2.0;" x1="144.5" x2="366.5" y1="521.2734" y2="521.2734"/><text fill="#000000" font-family="sans-serif" font-size="13" lengthAdjust="spacing" textLength="87" x="156.5" y="516.417">404 / 502 / 500</text><!--SRC=[PP7BJiCm44Nt-OfHLaLg6WTQ2NLH5bL0x8fuR12BgJqKeyIE7ASWgluxOwUbBLt4ZzmpldTihtr5y5W-PCK4CfXRqtQLHmVpSW43RJoj74gqGD-Ud45uqSZIHOBIMwQqGeKsQT1vBNM3naDwQrqDYe2C8aVIfe0jFD-VGdVb4-JOw5nIax_oy1QnSd6AzNPHuZb9TeQGpVX4c8BIA-qnQhpdlnnx2YU7Y-Ag48KG2Kjxm714hFGFpQc1mNL_Z6rlkA_AnzwrMJEWR0AX8jlxZOM0z5XF4wfQsb6pMDhxhpMo-qZQUhHq-LURRtYxpJzRQvWEDcIaDTvXD85Ockq3RYgx2ahdx12Mg5sOAok39oeQGlU-ZLN7uJQkmmCj_v7z_KImSSJc7uSd0koyhP7l7MlYH-U2q1QOyF9_CI7djfLk6slqcghprCJ632dqE0hhiuHZCMPz8YxZA8ADKGb_lm00]--></g></svg>