<?xml version="1.0" encoding="us-ascii" standalone="no"?><svg xmlns="http://www.w3.org/2000/svg" xmlns:xlink="http://www.w3.org/1999/xlink" contentStyleType="text/css" height="801px" preserveAspectRatio="none" style="width:1076px;height:801px;background:#FFFFFF;" version="1.1" viewBox="0 0 1076 801" width="1076px" zoomAndPan="magnify"><defs/><g><text fill="#000000" font-family="sans-serif" font-size="14" font-weight="bold" lengthAdjust="spacing" textLength="416" x="331.75" y="29.5332">SEQ-10 - Aceitar Solicitacao (cria Coleta, transacao atomica)</text><rect fill="none" height="338.7031" style="stroke:#000000;stroke-width:1.5;" width="1060.5" x="10" y="242.2734"/><rect fill="none" height="259.6484" style="stroke:#000000;stroke-width:1.5;" width="1040.5" x="20" y="314.3281"/><line style="stroke:#181818;stroke-width:0.5;stroke-dasharray:5.0,5.0;" x1="61" x2="61" y1="121.2188" y2="719.3828"/><line style="stroke:#181818;stroke-width:0.5;stroke-dasharray:5.0,5.0;" x1="329.5" x2="329.5" y1="121.2188" y2="719.3828"/><line style="stroke:#181818;stroke-width:0.5;stroke-dasharray:5.0,5.0;" x1="617.5" x2="617.5" y1="121.2188" y2="719.3828"/><line style="stroke:#181818;stroke-width:0.5;stroke-dasharray:5.0,5.0;" x1="880.5" x2="880.5" y1="121.2188" y2="719.3828"/><line style="stroke:#181818;stroke-width:0.5;stroke-dasharray:5.0,5.0;" x1="1008.5" x2="1008.5" y1="121.2188" y2="719.3828"/><text fill="#000000" font-family="sans-serif" font-size="14" lengthAdjust="spacing" textLength="56" x="30" y="118.1426">Empresa</text><ellipse cx="61" cy="52.1094" fill="#E2E2F0" rx="8" ry="8" style="stroke:#181818;stroke-width:0.5;"/><path d="M61,60.1094 L61,87.1094 M48,68.1094 L74,68.1094 M61,87.1094 L48,102.1094 M61,87.1094 L74,102.1094 " fill="none" style="stroke:#181818;stroke-width:0.5;"/><text fill="#000000" font-family="sans-serif" font-size="14" lengthAdjust="spacing" textLength="56" x="30" y="732.916">Empresa</text><ellipse cx="61" cy="744.4922" fill="#E2E2F0" rx="8" ry="8" style="stroke:#181818;stroke-width:0.5;"/><path d="M61,752.4922 L61,779.4922 M48,760.4922 L74,760.4922 M61,779.4922 L48,794.4922 M61,779.4922 L74,794.4922 " fill="none" style="stroke:#181818;stroke-width:0.5;"/><rect fill="#E2E2F0" height="31.6094" rx="2.5" ry="2.5" style="stroke:#181818;stroke-width:0.5;" width="187" x="236.5" y="88.6094"/><text fill="#000000" font-family="sans-serif" font-size="14" lengthAdjust="spacing" textLength="173" x="243.5" y="110.1426">POST /api/empresa/coletas</text><rect fill="#E2E2F0" height="31.6094" rx="2.5" ry="2.5" style="stroke:#181818;stroke-width:0.5;" width="187" x="236.5" y="718.3828"/><text fill="#000000" font-family="sans-serif" font-size="14" lengthAdjust="spacing" textLength="173" x="243.5" y="739.916">POST /api/empresa/coletas</text><rect fill="#E2E2F0" height="49.2188" rx="2.5" ry="2.5" style="stroke:#181818;stroke-width:0.5;" width="125" x="555.5" y="71"/><text fill="#000000" font-family="sans-serif" font-size="14" lengthAdjust="spacing" textLength="87" x="574.5" y="92.5332">coleta.service</text><text fill="#000000" font-family="sans-serif" font-size="14" lengthAdjust="spacing" textLength="111" x="562.5" y="110.1426">aceitarSolicitacao</text><rect fill="#E2E2F0" height="49.2188" rx="2.5" ry="2.5" style="stroke:#181818;stroke-width:0.5;" width="125" x="555.5" y="718.3828"/><text fill="#000000" font-family="sans-serif" font-size="14" lengthAdjust="spacing" textLength="87" x="574.5" y="739.916">coleta.service</text><text fill="#000000" font-family="sans-serif" font-size="14" lengthAdjust="spacing" textLength="111" x="562.5" y="757.5254">aceitarSolicitacao</text><rect fill="#E2E2F0" height="31.6094" rx="2.5" ry="2.5" style="stroke:#181818;stroke-width:0.5;" width="131" x="815.5" y="88.6094"/><text fill="#000000" font-family="sans-serif" font-size="14" lengthAdjust="spacing" textLength="117" x="822.5" y="110.1426">notificacao.service</text><rect fill="#E2E2F0" height="31.6094" rx="2.5" ry="2.5" style="stroke:#181818;stroke-width:0.5;" width="131" x="815.5" y="718.3828"/><text fill="#000000" font-family="sans-serif" font-size="14" lengthAdjust="spacing" textLength="117" x="822.5" y="739.916">notificacao.service</text><text fill="#000000" font-family="sans-serif" font-size="14" lengthAdjust="spacing" textLength="77" x="967.5" y="118.1426">PostgreSQL</text><path d="M991,67.6094 C991,57.6094 1009,57.6094 1009,57.6094 C1009,57.6094 1027,57.6094 1027,67.6094 L1027,93.6094 C1027,103.6094 1009,103.6094 1009,103.6094 C1009,103.6094 991,103.6094 991,93.6094 L991,67.6094 " fill="#E2E2F0" style="stroke:#181818;stroke-width:1.5;"/><path d="M991,67.6094 C991,77.6094 1009,77.6094 1009,77.6094 C1009,77.6094 1027,77.6094 1027,67.6094 " fill="none" style="stroke:#181818;stroke-width:1.5;"/><text fill="#000000" font-family="sans-serif" font-size="14" lengthAdjust="spacing" textLength="77" x="967.5" y="732.916">PostgreSQL</text><path d="M991,745.9922 C991,735.9922 1009,735.9922 1009,735.9922 C1009,735.9922 1027,735.9922 1027,745.9922 L1027,771.9922 C1027,781.9922 1009,781.9922 1009,781.9922 C1009,781.9922 991,781.9922 991,771.9922 L991,745.9922 " fill="#E2E2F0" style="stroke:#181818;stroke-width:1.5;"/><path d="M991,745.9922 C991,755.9922 1009,755.9922 1009,755.9922 C1009,755.9922 1027,755.9922 1027,745.9922 " fill="none" style="stroke:#181818;stroke-width:1.5;"/><polygon fill="#181818" points="318,149.5703,328,153.5703,318,157.5703,322,153.5703" style="stroke:#181818;stroke-width:1.0;"/><line style="stroke:#181818;stroke-width:1.0;" x1="61" x2="324" y1="153.5703" y2="153.5703"/><text fill="#000000" font-family="sans-serif" font-size="13" lengthAdjust="spacing" textLength="245" x="68" y="148.7139">POST {solicitacaoId, dataPrevisaoColeta?}</text><line style="stroke:#181818;stroke-width:1.0;" x1="330" x2="372" y1="183.9219" y2="183.9219"/><line style="stroke:#181818;stroke-width:1.0;" x1="372" x2="372" y1="183.9219" y2="196.9219"/><line style="stroke:#181818;stroke-width:1.0;" x1="331" x2="372" y1="196.9219" y2="196.9219"/><polygon fill="#181818" points="341,192.9219,331,196.9219,341,200.9219,337,196.9219" style="stroke:#181818;stroke-width:1.0;"/><text fill="#000000" font-family="sans-serif" font-size="13" lengthAdjust="spacing" textLength="158" x="337" y="179.0654">resolve company por userId</text><polygon fill="#181818" points="606,223.2734,616,227.2734,606,231.2734,610,227.2734" style="stroke:#181818;stroke-width:1.0;"/><line style="stroke:#181818;stroke-width:1.0;" x1="330" x2="612" y1="227.2734" y2="227.2734"/><text fill="#000000" font-family="sans-serif" font-size="13" lengthAdjust="spacing" textLength="264" x="337" y="222.417">aceitarSolicitacao(solId, companyId, previsao)</text><path d="M10,242.2734 L121,242.2734 L121,250.625 L111,260.625 L10,260.625 L10,242.2734 " fill="#EEEEEE" style="stroke:#000000;stroke-width:1.5;"/><rect fill="none" height="338.7031" style="stroke:#000000;stroke-width:1.5;" width="1060.5" x="10" y="242.2734"/><text fill="#000000" font-family="sans-serif" font-size="13" font-weight="bold" lengthAdjust="spacing" textLength="66" x="25" y="256.7686">Transacao</text><polygon fill="#181818" points="997,295.3281,1007,299.3281,997,303.3281,1001,299.3281" style="stroke:#181818;stroke-width:1.0;"/><line style="stroke:#181818;stroke-width:1.0;" x1="618" x2="1003" y1="299.3281" y2="299.3281"/><text fill="#000000" font-family="sans-serif" font-size="13" lengthAdjust="spacing" textLength="112" x="625" y="278.1201">findFirst solicitacao</text><text fill="#000000" font-family="sans-serif" font-size="13" lengthAdjust="spacing" textLength="131" x="625" y="294.4717">(aprovada, sem coleta)</text><path d="M20,314.3281 L81,314.3281 L81,322.6797 L71,332.6797 L20,332.6797 L20,314.3281 " fill="#EEEEEE" style="stroke:#000000;stroke-width:1.5;"/><rect fill="none" height="259.6484" style="stroke:#000000;stroke-width:1.5;" width="1040.5" x="20" y="314.3281"/><text fill="#000000" font-family="sans-serif" font-size="13" font-weight="bold" lengthAdjust="spacing" textLength="16" x="35" y="328.8232">alt</text><text fill="#000000" font-family="sans-serif" font-size="11" font-weight="bold" lengthAdjust="spacing" textLength="75" x="96" y="327.7471">[indisponivel]</text><polygon fill="#181818" points="629,351.0313,619,355.0313,629,359.0313,625,355.0313" style="stroke:#181818;stroke-width:1.0;"/><line style="stroke:#181818;stroke-width:1.0;stroke-dasharray:2.0,2.0;" x1="623" x2="1008" y1="355.0313" y2="355.0313"/><text fill="#000000" font-family="sans-serif" font-size="13" lengthAdjust="spacing" textLength="20" x="635" y="350.1748">null</text><polygon fill="#181818" points="341,381.3828,331,385.3828,341,389.3828,337,385.3828" style="stroke:#181818;stroke-width:1.0;"/><line style="stroke:#181818;stroke-width:1.0;stroke-dasharray:2.0,2.0;" x1="335" x2="617" y1="385.3828" y2="385.3828"/><text fill="#000000" font-family="sans-serif" font-size="13" lengthAdjust="spacing" textLength="111" x="347" y="380.5264">throw "indisponivel"</text><polygon fill="#181818" points="72,411.7344,62,415.7344,72,419.7344,68,415.7344" style="stroke:#181818;stroke-width:1.0;"/><line style="stroke:#181818;stroke-width:1.0;stroke-dasharray:2.0,2.0;" x1="66" x2="329" y1="415.7344" y2="415.7344"/><text fill="#000000" font-family="sans-serif" font-size="13" lengthAdjust="spacing" textLength="21" x="78" y="410.8779">400</text><line style="stroke:#000000;stroke-width:1.0;stroke-dasharray:2.0,2.0;" x1="20" x2="1060.5" y1="424.7344" y2="424.7344"/><text fill="#000000" font-family="sans-serif" font-size="11" font-weight="bold" lengthAdjust="spacing" textLength="65" x="25" y="436.1533">[disponivel]</text><line style="stroke:#181818;stroke-width:1.0;" x1="618" x2="660" y1="461.9219" y2="461.9219"/><line style="stroke:#181818;stroke-width:1.0;" x1="660" x2="660" y1="461.9219" y2="474.9219"/><line style="stroke:#181818;stroke-width:1.0;" x1="619" x2="660" y1="474.9219" y2="474.9219"/><polygon fill="#181818" points="629,470.9219,619,474.9219,629,478.9219,625,474.9219" style="stroke:#181818;stroke-width:1.0;"/><text fill="#000000" font-family="sans-serif" font-size="13" lengthAdjust="spacing" textLength="183" x="625" y="457.0654">gera codigoConfirmacao (8 hex)</text><polygon fill="#181818" points="997,501.2734,1007,505.2734,997,509.2734,1001,505.2734" style="stroke:#181818;stroke-width:1.0;"/><line style="stroke:#181818;stroke-width:1.0;" x1="618" x2="1003" y1="505.2734" y2="505.2734"/><text fill="#000000" font-family="sans-serif" font-size="13" lengthAdjust="spacing" textLength="164" x="625" y="500.417">create Coleta (status aceita)</text><polygon fill="#181818" points="997,531.625,1007,535.625,997,539.625,1001,535.625" style="stroke:#181818;stroke-width:1.0;"/><line style="stroke:#181818;stroke-width:1.0;" x1="618" x2="1003" y1="535.625" y2="535.625"/><text fill="#000000" font-family="sans-serif" font-size="13" lengthAdjust="spacing" textLength="201" x="625" y="530.7686">conversa da empresa -&gt; convertida</text><polygon fill="#181818" points="997,561.9766,1007,565.9766,997,569.9766,1001,565.9766" style="stroke:#181818;stroke-width:1.0;"/><line style="stroke:#181818;stroke-width:1.0;" x1="618" x2="1003" y1="565.9766" y2="565.9766"/><text fill="#000000" font-family="sans-serif" font-size="13" lengthAdjust="spacing" textLength="200" x="625" y="561.1201">conversas das outras -&gt; encerrada</text><polygon fill="#181818" points="869,606.3281,879,610.3281,869,614.3281,873,610.3281" style="stroke:#181818;stroke-width:1.0;"/><line style="stroke:#181818;stroke-width:1.0;" x1="618" x2="875" y1="610.3281" y2="610.3281"/><text fill="#000000" font-family="sans-serif" font-size="13" lengthAdjust="spacing" textLength="239" x="625" y="605.4717">notificarColetaAceita(dono da solicitacao)</text><polygon fill="#181818" points="997,636.6797,1007,640.6797,997,644.6797,1001,640.6797" style="stroke:#181818;stroke-width:1.0;"/><line style="stroke:#181818;stroke-width:1.0;" x1="881" x2="1003" y1="640.6797" y2="640.6797"/><text fill="#000000" font-family="sans-serif" font-size="13" lengthAdjust="spacing" textLength="104" x="888" y="635.8232">create Notificacao</text><polygon fill="#181818" points="341,667.0313,331,671.0313,341,675.0313,337,671.0313" style="stroke:#181818;stroke-width:1.0;"/><line style="stroke:#181818;stroke-width:1.0;stroke-dasharray:2.0,2.0;" x1="335" x2="617" y1="671.0313" y2="671.0313"/><text fill="#000000" font-family="sans-serif" font-size="13" lengthAdjust="spacing" textLength="35" x="347" y="666.1748">coleta</text><polygon fill="#181818" points="72,697.3828,62,701.3828,72,705.3828,68,701.3828" style="stroke:#181818;stroke-width:1.0;"/><line style="stroke:#181818;stroke-width:1.0;stroke-dasharray:2.0,2.0;" x1="66" x2="329" y1="701.3828" y2="701.3828"/><text fill="#000000" font-family="sans-serif" font-size="13" lengthAdjust="spacing" textLength="21" x="78" y="696.5264">201</text><!--SRC=[TLF1Rjim3BthAuYSRA1Pqc67eOSDQvi11OOiXOkUUk4a9XLWImObUnk6_VieIrcSTZiO4CZtoCT7EjhO4ZIR- -Nb6fRmIPEDoD3urcfvQVHGQRO8DxwbY1SG6LsOuXXzPpNM2dNq39kkPmgeUkGet1vTXCNkQ_C0A-pjYd9wfQSwOG4OOBCxH-VScq0yMarF3hEQcPY9rZpUdFESZtOlKWHm94_0hJ8OyHi6WfqFyS3Kt7z9YTjhfOfUM7uG7N05azHVuTJhpbn0uk-OHXlGPmS-_bO2FvAaWcz70kqxaV8JUZ5Y40btfg14gy1U3r89BpKenFJiIvzQ7TWFFJmSdLOmbP5gjzTIR6-T-MmvH9Y9VN8Lzkn7DBAZG1raBslXOXj1A3RqtjcHMWb1ghJyAyyDROvEROwpnMVsts4nfoucL9eiWOg1L_1klPO4jUBpYpP5Tsvp84RHPUn1l7Hxors-h_VmJ3_gENwQKpDXf79uK8M8SGZ5od-WlHk9HOv1eDDgSpXQW_zb1A44y8DSTaX9SfgOSMAGCofzXRTDPfLZuomi_p6LySwdrhELr6hxSfRjwL3LcTTvM-gLis_Nbty0]--></g></svg>