<?xml version="1.0" encoding="us-ascii" standalone="no"?><svg xmlns="http://www.w3.org/2000/svg" xmlns:xlink="http://www.w3.org/1999/xlink" contentStyleType="text/css" height="1105px" preserveAspectRatio="none" style="width:760px;height:1105px;background:#FFFFFF;" version="1.1" viewBox="0 0 760 1105" width="760px" zoomAndPan="magnify"><defs/><g><!--class roles--><g id="elem_roles"><rect codeLine="5" fill="#F1F1F1" height="78.8281" id="roles" rx="2.5" ry="2.5" style="stroke:#181818;stroke-width:0.5;" width="121" x="442" y="7"/><text fill="#000000" font-family="sans-serif" font-size="14" lengthAdjust="spacing" textLength="31" x="487" y="26.5332">roles</text><line style="stroke:#181818;stroke-width:0.5;" x1="443" x2="562" y1="34.6094" y2="34.6094"/><ellipse cx="453" cy="48.9141" fill="#000000" rx="3" ry="3" style="stroke:#000000;stroke-width:1.0;"/><text fill="#000000" font-family="sans-serif" font-size="14" lengthAdjust="spacing" textLength="95" x="462" y="53.1426">id : serial &#171;PK&#187;</text><line style="stroke:#181818;stroke-width:1.0;" x1="443" x2="562" y1="60.2188" y2="60.2188"/><text fill="#000000" font-family="sans-serif" font-size="14" lengthAdjust="spacing" textLength="69" x="448" y="78.752">nome : text</text></g><!--class users--><g id="elem_users"><rect codeLine="10" fill="#F1F1F1" height="237.3125" id="users" rx="2.5" ry="2.5" style="stroke:#181818;stroke-width:0.5;" width="206" x="399.5" y="146"/><text fill="#000000" font-family="sans-serif" font-size="14" lengthAdjust="spacing" textLength="35" x="485" y="165.5332">users</text><line style="stroke:#181818;stroke-width:0.5;" x1="400.5" x2="604.5" y1="173.6094" y2="173.6094"/><ellipse cx="410.5" cy="187.9141" fill="#000000" rx="3" ry="3" style="stroke:#000000;stroke-width:1.0;"/><text fill="#000000" font-family="sans-serif" font-size="14" lengthAdjust="spacing" textLength="95" x="419.5" y="192.1426">id : serial &#171;PK&#187;</text><line style="stroke:#181818;stroke-width:1.0;" x1="400.5" x2="604.5" y1="199.2188" y2="199.2188"/><text fill="#000000" font-family="sans-serif" font-size="14" lengthAdjust="spacing" textLength="69" x="405.5" y="217.752">nome : text</text><text fill="#000000" font-family="sans-serif" font-size="14" lengthAdjust="spacing" textLength="130" x="405.5" y="235.3613">email : text &#171;unique&#187;</text><text fill="#000000" font-family="sans-serif" font-size="14" lengthAdjust="spacing" textLength="105" x="405.5" y="252.9707">senhaHash : text</text><text fill="#000000" font-family="sans-serif" font-size="14" lengthAdjust="spacing" textLength="102" x="405.5" y="270.5801">endereco : text?</text><text fill="#000000" font-family="sans-serif" font-size="14" lengthAdjust="spacing" textLength="93" x="405.5" y="288.1895">telefone : text?</text><text fill="#000000" font-family="sans-serif" font-size="14" lengthAdjust="spacing" textLength="124" x="405.5" y="305.7988">status : text = 'ativo'</text><text fill="#000000" font-family="sans-serif" font-size="14" lengthAdjust="spacing" textLength="177" x="405.5" y="323.4082">resetToken : text? &#171;unique&#187;</text><text fill="#000000" font-family="sans-serif" font-size="14" lengthAdjust="spacing" textLength="194" x="405.5" y="341.0176">resetTokenExpiry : timestamp?</text><text fill="#000000" font-family="sans-serif" font-size="14" lengthAdjust="spacing" textLength="137" x="405.5" y="358.627">createdAt : timestamp</text><text fill="#000000" font-family="sans-serif" font-size="14" lengthAdjust="spacing" textLength="100" x="405.5" y="376.2363">roleId : int &#171;FK&#187;</text></g><!--class companies--><g id="elem_companies"><rect codeLine="24" fill="#F1F1F1" height="114.0469" id="companies" rx="2.5" ry="2.5" style="stroke:#181818;stroke-width:0.5;" width="167" x="330" y="496"/><text fill="#000000" font-family="sans-serif" font-size="14" lengthAdjust="spacing" textLength="68" x="379.5" y="515.5332">companies</text><line style="stroke:#181818;stroke-width:0.5;" x1="331" x2="496" y1="523.6094" y2="523.6094"/><ellipse cx="341" cy="537.9141" fill="#000000" rx="3" ry="3" style="stroke:#000000;stroke-width:1.0;"/><text fill="#000000" font-family="sans-serif" font-size="14" lengthAdjust="spacing" textLength="95" x="350" y="542.1426">id : serial &#171;PK&#187;</text><line style="stroke:#181818;stroke-width:1.0;" x1="331" x2="496" y1="549.2188" y2="549.2188"/><text fill="#000000" font-family="sans-serif" font-size="14" lengthAdjust="spacing" textLength="155" x="336" y="567.752">userId : int &#171;FK, unique&#187;</text><text fill="#000000" font-family="sans-serif" font-size="14" lengthAdjust="spacing" textLength="123" x="336" y="585.3613">cnpj : text &#171;unique&#187;</text><text fill="#000000" font-family="sans-serif" font-size="14" lengthAdjust="spacing" textLength="103" x="336" y="602.9707">descricao : text?</text></g><!--class mat--><g id="elem_mat"><rect codeLine="31" fill="#F1F1F1" height="78.8281" id="mat" rx="2.5" ry="2.5" style="stroke:#181818;stroke-width:0.5;" width="121" x="151" y="225"/><text fill="#000000" font-family="sans-serif" font-size="14" lengthAdjust="spacing" textLength="88" x="167.5" y="244.5332">material_tipos</text><line style="stroke:#181818;stroke-width:0.5;" x1="152" x2="271" y1="252.6094" y2="252.6094"/><ellipse cx="162" cy="266.9141" fill="#000000" rx="3" ry="3" style="stroke:#000000;stroke-width:1.0;"/><text fill="#000000" font-family="sans-serif" font-size="14" lengthAdjust="spacing" textLength="95" x="171" y="271.1426">id : serial &#171;PK&#187;</text><line style="stroke:#181818;stroke-width:1.0;" x1="152" x2="271" y1="278.2188" y2="278.2188"/><text fill="#000000" font-family="sans-serif" font-size="14" lengthAdjust="spacing" textLength="69" x="157" y="296.752">nome : text</text></g><!--class sol--><g id="elem_sol"><rect codeLine="36" fill="#F1F1F1" height="219.7031" id="sol" rx="2.5" ry="2.5" style="stroke:#181818;stroke-width:0.5;" width="166" x="128.5" y="443"/><text fill="#000000" font-family="sans-serif" font-size="14" lengthAdjust="spacing" textLength="112" x="155.5" y="462.5332">solicitacao_coleta</text><line style="stroke:#181818;stroke-width:0.5;" x1="129.5" x2="293.5" y1="470.6094" y2="470.6094"/><ellipse cx="139.5" cy="484.9141" fill="#000000" rx="3" ry="3" style="stroke:#000000;stroke-width:1.0;"/><text fill="#000000" font-family="sans-serif" font-size="14" lengthAdjust="spacing" textLength="95" x="148.5" y="489.1426">id : serial &#171;PK&#187;</text><line style="stroke:#181818;stroke-width:1.0;" x1="129.5" x2="293.5" y1="496.2188" y2="496.2188"/><text fill="#000000" font-family="sans-serif" font-size="14" lengthAdjust="spacing" textLength="64" x="134.5" y="514.752">titulo : text</text><text fill="#000000" font-family="sans-serif" font-size="14" lengthAdjust="spacing" textLength="95" x="134.5" y="532.3613">descricao : text</text><text fill="#000000" font-family="sans-serif" font-size="14" lengthAdjust="spacing" textLength="105" x="134.5" y="549.9707">quantidade : text</text><text fill="#000000" font-family="sans-serif" font-size="14" lengthAdjust="spacing" textLength="94" x="134.5" y="567.5801">endereco : text</text><text fill="#000000" font-family="sans-serif" font-size="14" lengthAdjust="spacing" textLength="154" x="134.5" y="585.1895">status : text = 'pendente'</text><text fill="#000000" font-family="sans-serif" font-size="14" lengthAdjust="spacing" textLength="145" x="134.5" y="602.7988">aprovado : bool = false</text><text fill="#000000" font-family="sans-serif" font-size="14" lengthAdjust="spacing" textLength="137" x="134.5" y="620.4082">createdAt : timestamp</text><text fill="#000000" font-family="sans-serif" font-size="14" lengthAdjust="spacing" textLength="104" x="134.5" y="638.0176">userId : int &#171;FK&#187;</text><text fill="#000000" font-family="sans-serif" font-size="14" lengthAdjust="spacing" textLength="126" x="134.5" y="655.627">materialId : int &#171;FK&#187;</text></g><!--class img--><g id="elem_img"><rect codeLine="49" fill="#F1F1F1" height="96.4375" id="img" rx="2.5" ry="2.5" style="stroke:#181818;stroke-width:0.5;" width="154" x="55.5" y="767"/><text fill="#000000" font-family="sans-serif" font-size="14" lengthAdjust="spacing" textLength="127" x="69" y="786.5332">solicitacao_imagens</text><line style="stroke:#181818;stroke-width:0.5;" x1="56.5" x2="208.5" y1="794.6094" y2="794.6094"/><ellipse cx="66.5" cy="808.9141" fill="#000000" rx="3" ry="3" style="stroke:#000000;stroke-width:1.0;"/><text fill="#000000" font-family="sans-serif" font-size="14" lengthAdjust="spacing" textLength="95" x="75.5" y="813.1426">id : serial &#171;PK&#187;</text><line style="stroke:#181818;stroke-width:1.0;" x1="56.5" x2="208.5" y1="820.2188" y2="820.2188"/><text fill="#000000" font-family="sans-serif" font-size="14" lengthAdjust="spacing" textLength="50" x="61.5" y="838.752">url : text</text><text fill="#000000" font-family="sans-serif" font-size="14" lengthAdjust="spacing" textLength="142" x="61.5" y="856.3613">solicitacaoId : int &#171;FK&#187;</text></g><!--class col--><g id="elem_col"><rect codeLine="55" fill="#F1F1F1" height="184.4844" id="col" rx="2.5" ry="2.5" style="stroke:#181818;stroke-width:0.5;" width="220" x="244.5" y="723"/><text fill="#000000" font-family="sans-serif" font-size="14" lengthAdjust="spacing" textLength="45" x="332" y="742.5332">coletas</text><line style="stroke:#181818;stroke-width:0.5;" x1="245.5" x2="463.5" y1="750.6094" y2="750.6094"/><ellipse cx="255.5" cy="764.9141" fill="#000000" rx="3" ry="3" style="stroke:#000000;stroke-width:1.0;"/><text fill="#000000" font-family="sans-serif" font-size="14" lengthAdjust="spacing" textLength="95" x="264.5" y="769.1426">id : serial &#171;PK&#187;</text><line style="stroke:#181818;stroke-width:1.0;" x1="245.5" x2="463.5" y1="776.2188" y2="776.2188"/><text fill="#000000" font-family="sans-serif" font-size="14" lengthAdjust="spacing" textLength="193" x="250.5" y="794.752">solicitacaoId : int &#171;FK, unique&#187;</text><text fill="#000000" font-family="sans-serif" font-size="14" lengthAdjust="spacing" textLength="133" x="250.5" y="812.3613">companyId : int &#171;FK&#187;</text><text fill="#000000" font-family="sans-serif" font-size="14" lengthAdjust="spacing" textLength="132" x="250.5" y="829.9707">status : text = 'aceita'</text><text fill="#000000" font-family="sans-serif" font-size="14" lengthAdjust="spacing" textLength="164" x="250.5" y="847.5801">codigoConfirmacao : text?</text><text fill="#000000" font-family="sans-serif" font-size="14" lengthAdjust="spacing" textLength="143" x="250.5" y="865.1895">dataAceite : timestamp</text><text fill="#000000" font-family="sans-serif" font-size="14" lengthAdjust="spacing" textLength="208" x="250.5" y="882.7988">dataPrevisaoColeta : timestamp?</text><text fill="#000000" font-family="sans-serif" font-size="14" lengthAdjust="spacing" textLength="179" x="250.5" y="900.4082">dataConclusao : timestamp?</text></g><!--class av--><g id="elem_av"><rect codeLine="66" fill="#F1F1F1" height="131.6563" id="av" rx="2.5" ry="2.5" style="stroke:#181818;stroke-width:0.5;" width="177" x="7" y="967"/><text fill="#000000" font-family="sans-serif" font-size="14" lengthAdjust="spacing" textLength="67" x="62" y="986.5332">avaliacoes</text><line style="stroke:#181818;stroke-width:0.5;" x1="8" x2="183" y1="994.6094" y2="994.6094"/><ellipse cx="18" cy="1008.9141" fill="#000000" rx="3" ry="3" style="stroke:#000000;stroke-width:1.0;"/><text fill="#000000" font-family="sans-serif" font-size="14" lengthAdjust="spacing" textLength="95" x="27" y="1013.1426">id : serial &#171;PK&#187;</text><line style="stroke:#181818;stroke-width:1.0;" x1="8" x2="183" y1="1020.2188" y2="1020.2188"/><text fill="#000000" font-family="sans-serif" font-size="14" lengthAdjust="spacing" textLength="165" x="13" y="1038.752">coletaId : int &#171;FK, unique&#187;</text><text fill="#000000" font-family="sans-serif" font-size="14" lengthAdjust="spacing" textLength="109" x="13" y="1056.3613">autorId : int &#171;FK&#187;</text><text fill="#000000" font-family="sans-serif" font-size="14" lengthAdjust="spacing" textLength="55" x="13" y="1073.9707">nota : int</text><text fill="#000000" font-family="sans-serif" font-size="14" lengthAdjust="spacing" textLength="112" x="13" y="1091.5801">comentario : text?</text></g><!--class msg--><g id="elem_msg"><rect codeLine="74" fill="#F1F1F1" height="114.0469" id="msg" rx="2.5" ry="2.5" style="stroke:#181818;stroke-width:0.5;" width="152" x="295.5" y="976"/><text fill="#000000" font-family="sans-serif" font-size="14" lengthAdjust="spacing" textLength="73" x="335" y="995.5332">mensagens</text><line style="stroke:#181818;stroke-width:0.5;" x1="296.5" x2="446.5" y1="1003.6094" y2="1003.6094"/><ellipse cx="306.5" cy="1017.9141" fill="#000000" rx="3" ry="3" style="stroke:#000000;stroke-width:1.0;"/><text fill="#000000" font-family="sans-serif" font-size="14" lengthAdjust="spacing" textLength="95" x="315.5" y="1022.1426">id : serial &#171;PK&#187;</text><line style="stroke:#181818;stroke-width:1.0;" x1="296.5" x2="446.5" y1="1029.2188" y2="1029.2188"/><text fill="#000000" font-family="sans-serif" font-size="14" lengthAdjust="spacing" textLength="114" x="301.5" y="1047.752">coletaId : int &#171;FK&#187;</text><text fill="#000000" font-family="sans-serif" font-size="14" lengthAdjust="spacing" textLength="140" x="301.5" y="1065.3613">remetenteId : int &#171;FK&#187;</text><text fill="#000000" font-family="sans-serif" font-size="14" lengthAdjust="spacing" textLength="103" x="301.5" y="1082.9707">mensagem : text</text></g><!--class conv--><g id="elem_conv"><rect codeLine="81" fill="#F1F1F1" height="114.0469" id="conv" rx="2.5" ry="2.5" style="stroke:#181818;stroke-width:0.5;" width="154" x="499.5" y="758"/><text fill="#000000" font-family="sans-serif" font-size="14" lengthAdjust="spacing" textLength="139" x="507" y="777.5332">conversas_solicitacao</text><line style="stroke:#181818;stroke-width:0.5;" x1="500.5" x2="652.5" y1="785.6094" y2="785.6094"/><ellipse cx="510.5" cy="799.9141" fill="#000000" rx="3" ry="3" style="stroke:#000000;stroke-width:1.0;"/><text fill="#000000" font-family="sans-serif" font-size="14" lengthAdjust="spacing" textLength="95" x="519.5" y="804.1426">id : serial &#171;PK&#187;</text><line style="stroke:#181818;stroke-width:1.0;" x1="500.5" x2="652.5" y1="811.2188" y2="811.2188"/><text fill="#000000" font-family="sans-serif" font-size="14" lengthAdjust="spacing" textLength="142" x="505.5" y="829.752">solicitacaoId : int &#171;FK&#187;</text><text fill="#000000" font-family="sans-serif" font-size="14" lengthAdjust="spacing" textLength="133" x="505.5" y="847.3613">companyId : int &#171;FK&#187;</text><text fill="#000000" font-family="sans-serif" font-size="14" lengthAdjust="spacing" textLength="135" x="505.5" y="864.9707">status : text = 'aberta'</text></g><!--class pre--><g id="elem_pre"><rect codeLine="88" fill="#F1F1F1" height="114.0469" id="pre" rx="2.5" ry="2.5" style="stroke:#181818;stroke-width:0.5;" width="154" x="599.5" y="976"/><text fill="#000000" font-family="sans-serif" font-size="14" lengthAdjust="spacing" textLength="148" x="602.5" y="995.5332">mensagens_pre_aceite</text><line style="stroke:#181818;stroke-width:0.5;" x1="600.5" x2="752.5" y1="1003.6094" y2="1003.6094"/><ellipse cx="610.5" cy="1017.9141" fill="#000000" rx="3" ry="3" style="stroke:#000000;stroke-width:1.0;"/><text fill="#000000" font-family="sans-serif" font-size="14" lengthAdjust="spacing" textLength="95" x="619.5" y="1022.1426">id : serial &#171;PK&#187;</text><line style="stroke:#181818;stroke-width:1.0;" x1="600.5" x2="752.5" y1="1029.2188" y2="1029.2188"/><text fill="#000000" font-family="sans-serif" font-size="14" lengthAdjust="spacing" textLength="134" x="605.5" y="1047.752">conversaId : int &#171;FK&#187;</text><text fill="#000000" font-family="sans-serif" font-size="14" lengthAdjust="spacing" textLength="140" x="605.5" y="1065.3613">remetenteId : int &#171;FK&#187;</text><text fill="#000000" font-family="sans-serif" font-size="14" lengthAdjust="spacing" textLength="103" x="605.5" y="1082.9707">mensagem : text</text></g><!--class notif--><g id="elem_notif"><rect codeLine="95" fill="#F1F1F1" height="131.6563" id="notif" rx="2.5" ry="2.5" style="stroke:#181818;stroke-width:0.5;" width="121" x="532" y="487"/><text fill="#000000" font-family="sans-serif" font-size="14" lengthAdjust="spacing" textLength="75" x="555" y="506.5332">notificacoes</text><line style="stroke:#181818;stroke-width:0.5;" x1="533" x2="652" y1="514.6094" y2="514.6094"/><ellipse cx="543" cy="528.9141" fill="#000000" rx="3" ry="3" style="stroke:#000000;stroke-width:1.0;"/><text fill="#000000" font-family="sans-serif" font-size="14" lengthAdjust="spacing" textLength="95" x="552" y="533.1426">id : serial &#171;PK&#187;</text><line style="stroke:#181818;stroke-width:1.0;" x1="533" x2="652" y1="540.2188" y2="540.2188"/><text fill="#000000" font-family="sans-serif" font-size="14" lengthAdjust="spacing" textLength="104" x="538" y="558.752">userId : int &#171;FK&#187;</text><text fill="#000000" font-family="sans-serif" font-size="14" lengthAdjust="spacing" textLength="57" x="538" y="576.3613">tipo : text</text><text fill="#000000" font-family="sans-serif" font-size="14" lengthAdjust="spacing" textLength="64" x="538" y="593.9707">titulo : text</text><text fill="#000000" font-family="sans-serif" font-size="14" lengthAdjust="spacing" textLength="107" x="538" y="611.5801">lida : bool = false</text></g><!--link roles to users--><g id="link_roles_users"><path codeLine="104" d="M502.5,94.23 C502.5,111.3 502.5,106.24 502.5,127.69 " fill="none" id="roles-users" style="stroke:#181818;stroke-width:1.0;"/><line style="stroke:#181818;stroke-width:1.0;" x1="498.5" x2="506.5" y1="90.23" y2="90.23"/><line style="stroke:#181818;stroke-width:1.0;" x1="498.5" x2="506.5" y1="93.23" y2="93.23"/><line style="stroke:#181818;stroke-width:1.0;" x1="502.5" x2="502.5" y1="94.23" y2="86.23"/><line style="stroke:#181818;stroke-width:1.0;" x1="502.5" x2="508.5" y1="137.69" y2="145.69"/><line style="stroke:#181818;stroke-width:1.0;" x1="502.5" x2="496.5" y1="137.69" y2="145.69"/><line style="stroke:#181818;stroke-width:1.0;" x1="502.5" x2="502.5" y1="137.69" y2="145.69"/><ellipse cx="502.5" cy="131.69" fill="none" rx="4" ry="4" style="stroke:#181818;stroke-width:1.0;"/></g><!--link users to companies--><g id="link_users_companies"><path codeLine="105" d="M448.25,391.09 C448.25,430.1 448.25,448.7 448.25,480.97 " fill="none" id="users-companies" style="stroke:#181818;stroke-width:1.0;"/><line style="stroke:#181818;stroke-width:1.0;" x1="444.25" x2="452.25" y1="387.09" y2="387.09"/><line style="stroke:#181818;stroke-width:1.0;" x1="444.25" x2="452.25" y1="390.09" y2="390.09"/><line style="stroke:#181818;stroke-width:1.0;" x1="448.25" x2="448.25" y1="391.09" y2="383.09"/><line style="stroke:#181818;stroke-width:1.0;" x1="448.25" x2="448.25" y1="484.97" y2="495.97"/><ellipse cx="448.25" cy="484.97" fill="none" rx="4" ry="4" style="stroke:#181818;stroke-width:1.0;"/><line style="stroke:#181818;stroke-width:1.0;" x1="452.25" x2="444.25" y1="491.97" y2="491.97"/></g><!--link users to sol--><g id="link_users_sol"><path codeLine="106" d="M391.3,357 C334.43,357 283.25,357 283.25,357 C283.25,357 283.25,380.29 283.25,424.97 " fill="none" id="users-sol" style="stroke:#181818;stroke-width:1.0;"/><line style="stroke:#181818;stroke-width:1.0;" x1="395.3" x2="395.3" y1="353" y2="361"/><line style="stroke:#181818;stroke-width:1.0;" x1="392.3" x2="392.3" y1="353" y2="361"/><line style="stroke:#181818;stroke-width:1.0;" x1="391.3" x2="399.3" y1="357" y2="357"/><line style="stroke:#181818;stroke-width:1.0;" x1="283.25" x2="289.25" y1="434.97" y2="442.97"/><line style="stroke:#181818;stroke-width:1.0;" x1="283.25" x2="277.25" y1="434.97" y2="442.97"/><line style="stroke:#181818;stroke-width:1.0;" x1="283.25" x2="283.25" y1="434.97" y2="442.97"/><ellipse cx="283.25" cy="428.97" fill="none" rx="4" ry="4" style="stroke:#181818;stroke-width:1.0;"/></g><!--link mat to sol--><g id="link_mat_sol"><path codeLine="107" d="M211.5,312.01 C211.5,347.74 211.5,376.06 211.5,424.86 " fill="none" id="mat-sol" style="stroke:#181818;stroke-width:1.0;"/><line style="stroke:#181818;stroke-width:1.0;" x1="207.5" x2="215.5" y1="308.01" y2="308.01"/><line style="stroke:#181818;stroke-width:1.0;" x1="207.5" x2="215.5" y1="311.01" y2="311.01"/><line style="stroke:#181818;stroke-width:1.0;" x1="211.5" x2="211.5" y1="312.01" y2="304.01"/><line style="stroke:#181818;stroke-width:1.0;" x1="211.5" x2="217.5" y1="434.86" y2="442.86"/><line style="stroke:#181818;stroke-width:1.0;" x1="211.5" x2="205.5" y1="434.86" y2="442.86"/><line style="stroke:#181818;stroke-width:1.0;" x1="211.5" x2="211.5" y1="434.86" y2="442.86"/><ellipse cx="211.5" cy="428.86" fill="none" rx="4" ry="4" style="stroke:#181818;stroke-width:1.0;"/></g><!--link sol to img--><g id="link_sol_img"><path codeLine="108" d="M169,671.35 C169,707.43 169,719.66 169,748.7 " fill="none" id="sol-img" style="stroke:#181818;stroke-width:1.0;"/><line style="stroke:#181818;stroke-width:1.0;" x1="165" x2="173" y1="667.35" y2="667.35"/><line style="stroke:#181818;stroke-width:1.0;" x1="165" x2="173" y1="670.35" y2="670.35"/><line style="stroke:#181818;stroke-width:1.0;" x1="169" x2="169" y1="671.35" y2="663.35"/><line style="stroke:#181818;stroke-width:1.0;" x1="169" x2="175" y1="758.7" y2="766.7"/><line style="stroke:#181818;stroke-width:1.0;" x1="169" x2="163" y1="758.7" y2="766.7"/><line style="stroke:#181818;stroke-width:1.0;" x1="169" x2="169" y1="758.7" y2="766.7"/><ellipse cx="169" cy="752.7" fill="none" rx="4" ry="4" style="stroke:#181818;stroke-width:1.0;"/></g><!--link sol to col--><g id="link_sol_col"><path codeLine="109" d="M269.5,671.35 C269.5,691.21 269.5,688.72 269.5,707.99 " fill="none" id="sol-col" style="stroke:#181818;stroke-width:1.0;"/><line style="stroke:#181818;stroke-width:1.0;" x1="265.5" x2="273.5" y1="667.35" y2="667.35"/><line style="stroke:#181818;stroke-width:1.0;" x1="265.5" x2="273.5" y1="670.35" y2="670.35"/><line style="stroke:#181818;stroke-width:1.0;" x1="269.5" x2="269.5" y1="671.35" y2="663.35"/><line style="stroke:#181818;stroke-width:1.0;" x1="269.5" x2="269.5" y1="711.99" y2="722.99"/><ellipse cx="269.5" cy="711.99" fill="none" rx="4" ry="4" style="stroke:#181818;stroke-width:1.0;"/><line style="stroke:#181818;stroke-width:1.0;" x1="273.5" x2="265.5" y1="718.99" y2="718.99"/></g><!--link companies to col--><g id="link_companies_col"><path codeLine="110" d="M397.25,618.17 C397.25,651.15 397.25,667.39 397.25,704.93 " fill="none" id="companies-col" style="stroke:#181818;stroke-width:1.0;"/><line style="stroke:#181818;stroke-width:1.0;" x1="393.25" x2="401.25" y1="614.17" y2="614.17"/><line style="stroke:#181818;stroke-width:1.0;" x1="393.25" x2="401.25" y1="617.17" y2="617.17"/><line style="stroke:#181818;stroke-width:1.0;" x1="397.25" x2="397.25" y1="618.17" y2="610.17"/><line style="stroke:#181818;stroke-width:1.0;" x1="397.25" x2="403.25" y1="714.93" y2="722.93"/><line style="stroke:#181818;stroke-width:1.0;" x1="397.25" x2="391.25" y1="714.93" y2="722.93"/><line style="stroke:#181818;stroke-width:1.0;" x1="397.25" x2="397.25" y1="714.93" y2="722.93"/><ellipse cx="397.25" cy="708.93" fill="none" rx="4" ry="4" style="stroke:#181818;stroke-width:1.0;"/></g><!--link col to av--><g id="link_col_av"><path codeLine="111" d="M270,915.24 C270,949.41 270,972 270,972 C270,972 242.22,972 199.03,972 " fill="none" id="col-av" style="stroke:#181818;stroke-width:1.0;"/><line style="stroke:#181818;stroke-width:1.0;" x1="266" x2="274" y1="911.24" y2="911.24"/><line style="stroke:#181818;stroke-width:1.0;" x1="266" x2="274" y1="914.24" y2="914.24"/><line style="stroke:#181818;stroke-width:1.0;" x1="270" x2="270" y1="915.24" y2="907.24"/><line style="stroke:#181818;stroke-width:1.0;" x1="195.03" x2="184.03" y1="972" y2="972"/><ellipse cx="195.03" cy="972" fill="none" rx="4" ry="4" style="stroke:#181818;stroke-width:1.0;"/><line style="stroke:#181818;stroke-width:1.0;" x1="188.03" x2="188.03" y1="976" y2="968"/></g><!--link users to av--><g id="link_users_av"><path codeLine="112" d="M391.37,331 C252.68,331 31.25,331 31.25,331 C31.25,331 31.25,774.2 31.25,948.96 " fill="none" id="users-av" style="stroke:#181818;stroke-width:1.0;"/><line style="stroke:#181818;stroke-width:1.0;" x1="395.37" x2="395.37" y1="327" y2="335"/><line style="stroke:#181818;stroke-width:1.0;" x1="392.37" x2="392.37" y1="327" y2="335"/><line style="stroke:#181818;stroke-width:1.0;" x1="391.37" x2="399.37" y1="331" y2="331"/><line style="stroke:#181818;stroke-width:1.0;" x1="31.25" x2="37.25" y1="958.96" y2="966.96"/><line style="stroke:#181818;stroke-width:1.0;" x1="31.25" x2="25.25" y1="958.96" y2="966.96"/><line style="stroke:#181818;stroke-width:1.0;" x1="31.25" x2="31.25" y1="958.96" y2="966.96"/><ellipse cx="31.25" cy="952.96" fill="none" rx="4" ry="4" style="stroke:#181818;stroke-width:1.0;"/></g><!--link col to msg--><g id="link_col_msg"><path codeLine="113" d="M371.5,915.14 C371.5,938.49 371.5,936.91 371.5,957.95 " fill="none" id="col-msg" style="stroke:#181818;stroke-width:1.0;"/><line style="stroke:#181818;stroke-width:1.0;" x1="367.5" x2="375.5" y1="911.14" y2="911.14"/><line style="stroke:#181818;stroke-width:1.0;" x1="367.5" x2="375.5" y1="914.14" y2="914.14"/><line style="stroke:#181818;stroke-width:1.0;" x1="371.5" x2="371.5" y1="915.14" y2="907.14"/><line style="stroke:#181818;stroke-width:1.0;" x1="371.5" x2="377.5" y1="967.95" y2="975.95"/><line style="stroke:#181818;stroke-width:1.0;" x1="371.5" x2="365.5" y1="967.95" y2="975.95"/><line style="stroke:#181818;stroke-width:1.0;" x1="371.5" x2="371.5" y1="967.95" y2="975.95"/><ellipse cx="371.5" cy="961.95" fill="none" rx="4" ry="4" style="stroke:#181818;stroke-width:1.0;"/></g><!--link users to msg--><g id="link_users_msg"><path codeLine="114" d="M510.33,391.16 C510.33,492.85 510.33,615 510.33,615 C510.33,615 475.33,615 475.33,615 C475.33,615 475.33,1033 475.33,1033 C475.33,1033 481.34,1033 465.51,1033 " fill="none" id="users-msg" style="stroke:#181818;stroke-width:1.0;"/><line style="stroke:#181818;stroke-width:1.0;" x1="506.33" x2="514.33" y1="387.16" y2="387.16"/><line style="stroke:#181818;stroke-width:1.0;" x1="506.33" x2="514.33" y1="390.16" y2="390.16"/><line style="stroke:#181818;stroke-width:1.0;" x1="510.33" x2="510.33" y1="391.16" y2="383.16"/><line style="stroke:#181818;stroke-width:1.0;" x1="455.51" x2="447.51" y1="1033" y2="1039"/><line style="stroke:#181818;stroke-width:1.0;" x1="455.51" x2="447.51" y1="1033" y2="1027"/><line style="stroke:#181818;stroke-width:1.0;" x1="455.51" x2="447.51" y1="1033" y2="1033"/><ellipse cx="461.51" cy="1033" fill="none" rx="4" ry="4" style="stroke:#181818;stroke-width:1.0;"/></g><!--link sol to conv--><g id="link_sol_conv"><path codeLine="115" d="M302.89,641 C394.61,641 521.17,641 521.17,641 C521.17,641 521.17,688.86 521.17,739.54 " fill="none" id="sol-conv" style="stroke:#181818;stroke-width:1.0;"/><line style="stroke:#181818;stroke-width:1.0;" x1="298.89" x2="298.89" y1="645" y2="637"/><line style="stroke:#181818;stroke-width:1.0;" x1="301.89" x2="301.89" y1="645" y2="637"/><line style="stroke:#181818;stroke-width:1.0;" x1="302.89" x2="294.89" y1="641" y2="641"/><line style="stroke:#181818;stroke-width:1.0;" x1="521.17" x2="527.17" y1="749.54" y2="757.54"/><line style="stroke:#181818;stroke-width:1.0;" x1="521.17" x2="515.17" y1="749.54" y2="757.54"/><line style="stroke:#181818;stroke-width:1.0;" x1="521.17" x2="521.17" y1="749.54" y2="757.54"/><ellipse cx="521.17" cy="743.54" fill="none" rx="4" ry="4" style="stroke:#181818;stroke-width:1.0;"/></g><!--link companies to conv--><g id="link_companies_conv"><path codeLine="116" d="M486.17,618.17 C486.17,695.26 486.17,815 486.17,815 C486.17,815 473.47,815 481.5,815 " fill="none" id="companies-conv" style="stroke:#181818;stroke-width:1.0;"/><line style="stroke:#181818;stroke-width:1.0;" x1="482.17" x2="490.17" y1="614.17" y2="614.17"/><line style="stroke:#181818;stroke-width:1.0;" x1="482.17" x2="490.17" y1="617.17" y2="617.17"/><line style="stroke:#181818;stroke-width:1.0;" x1="486.17" x2="486.17" y1="618.17" y2="610.17"/><line style="stroke:#181818;stroke-width:1.0;" x1="491.5" x2="499.5" y1="815" y2="809"/><line style="stroke:#181818;stroke-width:1.0;" x1="491.5" x2="499.5" y1="815" y2="821"/><line style="stroke:#181818;stroke-width:1.0;" x1="491.5" x2="499.5" y1="815" y2="815"/><ellipse cx="485.5" cy="815" fill="none" rx="4" ry="4" style="stroke:#181818;stroke-width:1.0;"/></g><!--link conv to pre--><g id="link_conv_pre"><path codeLine="117" d="M626.5,880.28 C626.5,912.19 626.5,925.81 626.5,957.73 " fill="none" id="conv-pre" style="stroke:#181818;stroke-width:1.0;"/><line style="stroke:#181818;stroke-width:1.0;" x1="622.5" x2="630.5" y1="876.28" y2="876.28"/><line style="stroke:#181818;stroke-width:1.0;" x1="622.5" x2="630.5" y1="879.28" y2="879.28"/><line style="stroke:#181818;stroke-width:1.0;" x1="626.5" x2="626.5" y1="880.28" y2="872.28"/><line style="stroke:#181818;stroke-width:1.0;" x1="626.5" x2="632.5" y1="967.73" y2="975.73"/><line style="stroke:#181818;stroke-width:1.0;" x1="626.5" x2="620.5" y1="967.73" y2="975.73"/><line style="stroke:#181818;stroke-width:1.0;" x1="626.5" x2="626.5" y1="967.73" y2="975.73"/><ellipse cx="626.5" cy="961.73" fill="none" rx="4" ry="4" style="stroke:#181818;stroke-width:1.0;"/></g><!--link users to pre--><g id="link_users_pre"><path codeLine="118" d="M613.65,265 C663,265 703.5,265 703.5,265 C703.5,265 703.5,779.92 703.5,957.9 " fill="none" id="users-pre" style="stroke:#181818;stroke-width:1.0;"/><line style="stroke:#181818;stroke-width:1.0;" x1="609.65" x2="609.65" y1="269" y2="261"/><line style="stroke:#181818;stroke-width:1.0;" x1="612.65" x2="612.65" y1="269" y2="261"/><line style="stroke:#181818;stroke-width:1.0;" x1="613.65" x2="605.65" y1="265" y2="265"/><line style="stroke:#181818;stroke-width:1.0;" x1="703.5" x2="709.5" y1="967.9" y2="975.9"/><line style="stroke:#181818;stroke-width:1.0;" x1="703.5" x2="697.5" y1="967.9" y2="975.9"/><line style="stroke:#181818;stroke-width:1.0;" x1="703.5" x2="703.5" y1="967.9" y2="975.9"/><ellipse cx="703.5" cy="961.9" fill="none" rx="4" ry="4" style="stroke:#181818;stroke-width:1.0;"/></g><!--link users to notif--><g id="link_users_notif"><path codeLine="119" d="M568.75,391.09 C568.75,426.53 568.75,438.1 568.75,468.87 " fill="none" id="users-notif" style="stroke:#181818;stroke-width:1.0;"/><line style="stroke:#181818;stroke-width:1.0;" x1="564.75" x2="572.75" y1="387.09" y2="387.09"/><line style="stroke:#181818;stroke-width:1.0;" x1="564.75" x2="572.75" y1="390.09" y2="390.09"/><line style="stroke:#181818;stroke-width:1.0;" x1="568.75" x2="568.75" y1="391.09" y2="383.09"/><line style="stroke:#181818;stroke-width:1.0;" x1="568.75" x2="574.75" y1="478.87" y2="486.87"/><line style="stroke:#181818;stroke-width:1.0;" x1="568.75" x2="562.75" y1="478.87" y2="486.87"/><line style="stroke:#181818;stroke-width:1.0;" x1="568.75" x2="568.75" y1="478.87" y2="486.87"/><ellipse cx="568.75" cy="472.87" fill="none" rx="4" ry="4" style="stroke:#181818;stroke-width:1.0;"/></g><!--SRC=[hLLDRnen4Btlhx1oeQtA7wYID554rQggcaFlQF0EC8q_DhPt5GJvxnrx5xp04XJK2wp7u-VnUy_ZaVXbIrHMb2Wc9b099Nen5fE7tmPb0F4Xm0mLU34dJvB_6m9nTwUX-bWiYLT9Sb9XuP_8LE102qK6mwf2OLrOsg90XWqhSUMiGdyb629zYNKXn2SgnHVXqH4eSNtz-FFsbgFZCVyOgv7d0hw4udK7KdDk2vA-tWCY16eWrGqviJRqN6DAzcYMy1tyifTiIdGeRHVvog602kVMO2_a0uJQRp5ln0W2DNR4CmuzXZ_s2SqsVN_BF3zvgSYjOXPfP41THMJf40AMzw4_4TSnUJ_YWSd4GtoBfytyIAihCDGHlHkTuocIkGVwMVHAbQRwEqWRUqKwTaKcALUYkVguqpHGPTjoE7IPwjugaXI0TvfAFd-0XCVXStYylbOsgtfOCOUUQ-YCVrBy8Q6hc6C2HgsXShQ1CgRFB1Tr8-QWFBwXuX7XgUGjPwVrxJD16XPeMcf9Byvgx5JlE1ddBJD5ghTMEilrASnzBoLBhexFVdoJ93BOAAqfQM4Vh9cJqz2t6miA0UvZ9Xum72SU7JRaWPV6WnpUi9Z1e5BLleNCava3Q40HIDlTA6ZEiT2ITfe0g8CTaDxOL237Mf9uVt0qUB5OyooyzeiBAkewaCOGBJnWn7OFVNmLfJKDDrxmqvxSdKDCSwb5tckD6RfeZG5IffN3QR8EfgfuU9wVzaZ_YI5MakRSOdQUIO5tT-0q5NjdlhI7pKnnrpfiEQz5qJwlcyruRDVjCrcqZsKARVAhq0-lepP5xD2zOMomtP0RJ1v635NarwNBQOEx76ZsD-2np81itFtf6EXj65KPsY95sMbTWFNTXpaA9Fh_0G00]--></g></svg>