<?xml version="1.0" encoding="us-ascii" standalone="no"?><svg xmlns="http://www.w3.org/2000/svg" xmlns:xlink="http://www.w3.org/1999/xlink" contentStyleType="text/css" height="1020px" preserveAspectRatio="none" style="width:673px;height:1020px;background:#FFFFFF;" version="1.1" viewBox="0 0 673 1020" width="673px" zoomAndPan="magnify"><defs/><g><ellipse cx="460.125" cy="20" fill="#222222" rx="10" ry="10" style="stroke:#222222;stroke-width:1.0;"/><rect fill="#F1F1F1" height="35.0938" rx="12.5" ry="12.5" style="stroke:#181818;stroke-width:0.5;" width="215" x="352.625" y="50"/><text fill="#000000" font-family="sans-serif" font-size="12" lengthAdjust="spacing" textLength="195" x="362.625" y="72.457">Cidadao cria solicitacao (pendente)</text><rect fill="#F1F1F1" height="35.0938" rx="12.5" ry="12.5" style="stroke:#181818;stroke-width:0.5;" width="99" x="410.625" y="105.0938"/><text fill="#000000" font-family="sans-serif" font-size="12" lengthAdjust="spacing" textLength="79" x="420.625" y="127.5508">Admin analisa</text><polygon fill="#F1F1F1" points="433.125,160.1875,487.125,160.1875,499.125,172.1875,487.125,184.1875,433.125,184.1875,421.125,172.1875,433.125,160.1875" style="stroke:#181818;stroke-width:0.5;"/><text fill="#000000" font-family="sans-serif" font-size="11" lengthAdjust="spacing" textLength="54" x="433.125" y="176.6885">Aprovada?</text><text fill="#000000" font-family="sans-serif" font-size="11" lengthAdjust="spacing" textLength="16" x="405.125" y="169.7705">sim</text><text fill="#000000" font-family="sans-serif" font-size="11" lengthAdjust="spacing" textLength="18" x="499.125" y="169.7705">nao</text><rect fill="#F1F1F1" height="50.1875" rx="12.5" ry="12.5" style="stroke:#181818;stroke-width:0.5;" width="164" x="233.75" y="194.1875"/><text fill="#000000" font-family="sans-serif" font-size="12" lengthAdjust="spacing" textLength="98" x="243.75" y="216.6445">status = aprovada</text><text fill="#000000" font-family="sans-serif" font-size="12" lengthAdjust="spacing" textLength="144" x="243.75" y="231.7383">disponivel no marketplace</text><rect fill="#F1F1F1" height="35.0938" rx="12.5" ry="12.5" style="stroke:#181818;stroke-width:0.5;" width="228" x="201.75" y="279.375"/><text fill="#000000" font-family="sans-serif" font-size="12" lengthAdjust="spacing" textLength="208" x="211.75" y="301.832">Empresas negociam (chat pre-aceite)</text><polygon fill="#F1F1F1" points="275.75,334.4688,355.75,334.4688,367.75,346.4688,355.75,358.4688,275.75,358.4688,263.75,346.4688,275.75,334.4688" style="stroke:#181818;stroke-width:0.5;"/><text fill="#000000" font-family="sans-serif" font-size="11" lengthAdjust="spacing" textLength="80" x="275.75" y="350.9697">Empresa aceita?</text><text fill="#000000" font-family="sans-serif" font-size="11" lengthAdjust="spacing" textLength="16" x="247.75" y="344.0518">sim</text><text fill="#000000" font-family="sans-serif" font-size="11" lengthAdjust="spacing" textLength="18" x="367.75" y="344.0518">nao</text><rect fill="#F1F1F1" height="50.1875" rx="12.5" ry="12.5" style="stroke:#181818;stroke-width:0.5;" width="145" x="113" y="368.4688"/><text fill="#000000" font-family="sans-serif" font-size="12" lengthAdjust="spacing" textLength="103" x="123" y="390.9258">cria Coleta (aceita)</text><text fill="#000000" font-family="sans-serif" font-size="12" lengthAdjust="spacing" textLength="125" x="123" y="406.0195">codigo de confirmacao</text><rect fill="#F1F1F1" height="50.1875" rx="12.5" ry="12.5" style="stroke:#181818;stroke-width:0.5;" width="203" x="84" y="438.6563"/><text fill="#000000" font-family="sans-serif" font-size="12" lengthAdjust="spacing" textLength="183" x="94" y="461.1133">conversa vencedora -&gt; convertida</text><text fill="#000000" font-family="sans-serif" font-size="12" lengthAdjust="spacing" textLength="108" x="94" y="476.207">outras -&gt; encerrada</text><rect fill="#F1F1F1" height="35.0938" rx="12.5" ry="12.5" style="stroke:#181818;stroke-width:0.5;" width="153" x="109" y="508.8438"/><text fill="#000000" font-family="sans-serif" font-size="12" lengthAdjust="spacing" textLength="133" x="119" y="531.3008">Empresa atualiza status</text><rect fill="#F1F1F1" height="35.0938" rx="12.5" ry="12.5" style="stroke:#181818;stroke-width:0.5;" width="157" x="107" y="620.8564"/><text fill="#000000" font-family="sans-serif" font-size="12" lengthAdjust="spacing" textLength="137" x="117" y="643.3135">a_caminho -&gt; em_coleta</text><polygon fill="#F1F1F1" points="137.5,563.9375,233.5,563.9375,245.5,575.9375,233.5,587.9375,137.5,587.9375,125.5,575.9375,137.5,563.9375" style="stroke:#181818;stroke-width:0.5;"/><text fill="#000000" font-family="sans-serif" font-size="11" lengthAdjust="spacing" textLength="36" x="189.5" y="599.3564">avanca</text><text fill="#000000" font-family="sans-serif" font-size="11" lengthAdjust="spacing" textLength="96" x="137.5" y="580.4385">status != concluida?</text><text fill="#000000" font-family="sans-serif" font-size="11" lengthAdjust="spacing" textLength="46" x="79.5" y="573.5205">concluida</text><rect fill="#F1F1F1" height="35.0938" rx="12.5" ry="12.5" style="stroke:#181818;stroke-width:0.5;" width="137" x="117" y="697.9502"/><text fill="#000000" font-family="sans-serif" font-size="12" lengthAdjust="spacing" textLength="117" x="127" y="720.4072">grava dataConclusao</text><polygon fill="#F1F1F1" points="147.5,753.0439,223.5,753.0439,235.5,765.0439,223.5,777.0439,147.5,777.0439,135.5,765.0439,147.5,753.0439" style="stroke:#181818;stroke-width:0.5;"/><text fill="#000000" font-family="sans-serif" font-size="11" lengthAdjust="spacing" textLength="76" x="147.5" y="769.5449">Cidadao avalia?</text><text fill="#000000" font-family="sans-serif" font-size="11" lengthAdjust="spacing" textLength="16" x="119.5" y="762.627">sim</text><text fill="#000000" font-family="sans-serif" font-size="11" lengthAdjust="spacing" textLength="18" x="235.5" y="762.627">nao</text><rect fill="#F1F1F1" height="35.0938" rx="12.5" ry="12.5" style="stroke:#181818;stroke-width:0.5;" width="172" x="11" y="787.0439"/><text fill="#000000" font-family="sans-serif" font-size="12" lengthAdjust="spacing" textLength="152" x="21" y="809.501">cria Avaliacao (1-5 estrelas)</text><rect fill="#F1F1F1" height="35.0938" rx="12.5" ry="12.5" style="stroke:#181818;stroke-width:0.5;" width="112" x="41" y="842.1377"/><text fill="#000000" font-family="sans-serif" font-size="12" lengthAdjust="spacing" textLength="92" x="51" y="864.5947">notifica empresa</text><rect fill="#F1F1F1" height="35.0938" rx="12.5" ry="12.5" style="stroke:#181818;stroke-width:0.5;" width="142" x="203" y="787.0439"/><text fill="#000000" font-family="sans-serif" font-size="12" lengthAdjust="spacing" textLength="122" x="213" y="809.501">aguardando avaliacao</text><polygon fill="#F1F1F1" points="185.5,883.2314,197.5,895.2314,185.5,907.2314,173.5,895.2314,185.5,883.2314" style="stroke:#181818;stroke-width:0.5;"/><rect fill="#F1F1F1" height="35.0938" rx="12.5" ry="12.5" style="stroke:#181818;stroke-width:0.5;" width="142" x="375" y="368.4688"/><text fill="#000000" font-family="sans-serif" font-size="12" lengthAdjust="spacing" textLength="122" x="385" y="390.9258">permanece disponivel</text><polygon fill="#F1F1F1" points="315.75,913.2314,327.75,925.2314,315.75,937.2314,303.75,925.2314,315.75,913.2314" style="stroke:#181818;stroke-width:0.5;"/><rect fill="#F1F1F1" height="35.0938" rx="12.5" ry="12.5" style="stroke:#181818;stroke-width:0.5;" width="115" x="547" y="194.1875"/><text fill="#000000" font-family="sans-serif" font-size="12" lengthAdjust="spacing" textLength="95" x="557" y="216.6445">status = rejeitada</text><rect fill="#F1F1F1" height="35.0938" rx="12.5" ry="12.5" style="stroke:#181818;stroke-width:0.5;" width="106" x="551.5" y="264.2813"/><text fill="#000000" font-family="sans-serif" font-size="12" lengthAdjust="spacing" textLength="86" x="561.5" y="286.7383">notifica cidadao</text><polygon fill="#F1F1F1" points="460.125,943.2314,472.125,955.2314,460.125,967.2314,448.125,955.2314,460.125,943.2314" style="stroke:#181818;stroke-width:0.5;"/><ellipse cx="460.125" cy="998.2314" fill="none" rx="11" ry="11" style="stroke:#222222;stroke-width:1.0;"/><ellipse cx="460.125" cy="998.2314" fill="#222222" rx="6" ry="6" style="stroke:#222222;stroke-width:1.0;"/><line style="stroke:#181818;stroke-width:1.0;" x1="460.125" x2="460.125" y1="30" y2="50"/><polygon fill="#181818" points="456.125,40,460.125,50,464.125,40,460.125,44" style="stroke:#181818;stroke-width:1.0;"/><line style="stroke:#181818;stroke-width:1.0;" x1="460.125" x2="460.125" y1="85.0938" y2="105.0938"/><polygon fill="#181818" points="456.125,95.0938,460.125,105.0938,464.125,95.0938,460.125,99.0938" style="stroke:#181818;stroke-width:1.0;"/><line style="stroke:#181818;stroke-width:1.0;" x1="315.75" x2="315.75" y1="244.375" y2="279.375"/><polygon fill="#181818" points="311.75,269.375,315.75,279.375,319.75,269.375,315.75,273.375" style="stroke:#181818;stroke-width:1.0;"/><line style="stroke:#181818;stroke-width:1.0;" x1="185.5" x2="185.5" y1="418.6563" y2="438.6563"/><polygon fill="#181818" points="181.5,428.6563,185.5,438.6563,189.5,428.6563,185.5,432.6563" style="stroke:#181818;stroke-width:1.0;"/><line style="stroke:#181818;stroke-width:1.0;" x1="185.5" x2="185.5" y1="488.8438" y2="508.8438"/><polygon fill="#181818" points="181.5,498.8438,185.5,508.8438,189.5,498.8438,185.5,502.8438" style="stroke:#181818;stroke-width:1.0;"/><line style="stroke:#181818;stroke-width:1.0;" x1="185.5" x2="185.5" y1="587.9375" y2="620.8564"/><polygon fill="#181818" points="181.5,610.8564,185.5,620.8564,189.5,610.8564,185.5,614.8564" style="stroke:#181818;stroke-width:1.0;"/><line style="stroke:#181818;stroke-width:1.0;" x1="185.5" x2="185.5" y1="655.9502" y2="665.9502"/><line style="stroke:#181818;stroke-width:1.0;" x1="185.5" x2="276" y1="665.9502" y2="665.9502"/><polygon fill="#181818" points="272,629.4854,276,619.4854,280,629.4854,276,625.4854" style="stroke:#181818;stroke-width:1.0;"/><line style="stroke:#181818;stroke-width:1.0;" x1="276" x2="276" y1="575.9375" y2="665.9502"/><line style="stroke:#181818;stroke-width:1.0;" x1="276" x2="245.5" y1="575.9375" y2="575.9375"/><polygon fill="#181818" points="255.5,571.9375,245.5,575.9375,255.5,579.9375,251.5,575.9375" style="stroke:#181818;stroke-width:1.0;"/><line style="stroke:#181818;stroke-width:1.0;" x1="125.5" x2="95" y1="575.9375" y2="575.9375"/><polygon fill="#181818" points="91,615.4854,95,625.4854,99,615.4854,95,619.4854" style="stroke:#181818;stroke-width:1.0;"/><line style="stroke:#181818;stroke-width:1.0;" x1="95" x2="95" y1="575.9375" y2="677.9502"/><line style="stroke:#181818;stroke-width:1.0;" x1="95" x2="185.5" y1="677.9502" y2="677.9502"/><line style="stroke:#181818;stroke-width:1.0;" x1="185.5" x2="185.5" y1="677.9502" y2="697.9502"/><polygon fill="#181818" points="181.5,687.9502,185.5,697.9502,189.5,687.9502,185.5,691.9502" style="stroke:#181818;stroke-width:1.0;"/><line style="stroke:#181818;stroke-width:1.0;" x1="185.5" x2="185.5" y1="543.9375" y2="563.9375"/><polygon fill="#181818" points="181.5,553.9375,185.5,563.9375,189.5,553.9375,185.5,557.9375" style="stroke:#181818;stroke-width:1.0;"/><line style="stroke:#181818;stroke-width:1.0;" x1="97" x2="97" y1="822.1377" y2="842.1377"/><polygon fill="#181818" points="93,832.1377,97,842.1377,101,832.1377,97,836.1377" style="stroke:#181818;stroke-width:1.0;"/><line style="stroke:#181818;stroke-width:1.0;" x1="135.5" x2="97" y1="765.0439" y2="765.0439"/><line style="stroke:#181818;stroke-width:1.0;" x1="97" x2="97" y1="765.0439" y2="787.0439"/><polygon fill="#181818" points="93,777.0439,97,787.0439,101,777.0439,97,781.0439" style="stroke:#181818;stroke-width:1.0;"/><line style="stroke:#181818;stroke-width:1.0;" x1="235.5" x2="274" y1="765.0439" y2="765.0439"/><line style="stroke:#181818;stroke-width:1.0;" x1="274" x2="274" y1="765.0439" y2="787.0439"/><polygon fill="#181818" points="270,777.0439,274,787.0439,278,777.0439,274,781.0439" style="stroke:#181818;stroke-width:1.0;"/><line style="stroke:#181818;stroke-width:1.0;" x1="97" x2="97" y1="877.2314" y2="895.2314"/><line style="stroke:#181818;stroke-width:1.0;" x1="97" x2="173.5" y1="895.2314" y2="895.2314"/><polygon fill="#181818" points="163.5,891.2314,173.5,895.2314,163.5,899.2314,167.5,895.2314" style="stroke:#181818;stroke-width:1.0;"/><line style="stroke:#181818;stroke-width:1.0;" x1="274" x2="274" y1="822.1377" y2="895.2314"/><line style="stroke:#181818;stroke-width:1.0;" x1="274" x2="197.5" y1="895.2314" y2="895.2314"/><polygon fill="#181818" points="207.5,891.2314,197.5,895.2314,207.5,899.2314,203.5,895.2314" style="stroke:#181818;stroke-width:1.0;"/><line style="stroke:#181818;stroke-width:1.0;" x1="185.5" x2="185.5" y1="733.0439" y2="753.0439"/><polygon fill="#181818" points="181.5,743.0439,185.5,753.0439,189.5,743.0439,185.5,747.0439" style="stroke:#181818;stroke-width:1.0;"/><line style="stroke:#181818;stroke-width:1.0;" x1="263.75" x2="185.5" y1="346.4688" y2="346.4688"/><line style="stroke:#181818;stroke-width:1.0;" x1="185.5" x2="185.5" y1="346.4688" y2="368.4688"/><polygon fill="#181818" points="181.5,358.4688,185.5,368.4688,189.5,358.4688,185.5,362.4688" style="stroke:#181818;stroke-width:1.0;"/><line style="stroke:#181818;stroke-width:1.0;" x1="367.75" x2="446" y1="346.4688" y2="346.4688"/><line style="stroke:#181818;stroke-width:1.0;" x1="446" x2="446" y1="346.4688" y2="368.4688"/><polygon fill="#181818" points="442,358.4688,446,368.4688,450,358.4688,446,362.4688" style="stroke:#181818;stroke-width:1.0;"/><line style="stroke:#181818;stroke-width:1.0;" x1="185.5" x2="185.5" y1="907.2314" y2="925.2314"/><line style="stroke:#181818;stroke-width:1.0;" x1="185.5" x2="303.75" y1="925.2314" y2="925.2314"/><polygon fill="#181818" points="293.75,921.2314,303.75,925.2314,293.75,929.2314,297.75,925.2314" style="stroke:#181818;stroke-width:1.0;"/><line style="stroke:#181818;stroke-width:1.0;" x1="446" x2="446" y1="403.5625" y2="925.2314"/><line style="stroke:#181818;stroke-width:1.0;" x1="446" x2="327.75" y1="925.2314" y2="925.2314"/><polygon fill="#181818" points="337.75,921.2314,327.75,925.2314,337.75,929.2314,333.75,925.2314" style="stroke:#181818;stroke-width:1.0;"/><line style="stroke:#181818;stroke-width:1.0;" x1="315.75" x2="315.75" y1="314.4688" y2="334.4688"/><polygon fill="#181818" points="311.75,324.4688,315.75,334.4688,319.75,324.4688,315.75,328.4688" style="stroke:#181818;stroke-width:1.0;"/><line style="stroke:#181818;stroke-width:1.0;" x1="604.5" x2="604.5" y1="229.2813" y2="264.2813"/><polygon fill="#181818" points="600.5,254.2813,604.5,264.2813,608.5,254.2813,604.5,258.2813" style="stroke:#181818;stroke-width:1.0;"/><line style="stroke:#181818;stroke-width:1.0;" x1="421.125" x2="315.75" y1="172.1875" y2="172.1875"/><line style="stroke:#181818;stroke-width:1.0;" x1="315.75" x2="315.75" y1="172.1875" y2="194.1875"/><polygon fill="#181818" points="311.75,184.1875,315.75,194.1875,319.75,184.1875,315.75,188.1875" style="stroke:#181818;stroke-width:1.0;"/><line style="stroke:#181818;stroke-width:1.0;" x1="499.125" x2="604.5" y1="172.1875" y2="172.1875"/><line style="stroke:#181818;stroke-width:1.0;" x1="604.5" x2="604.5" y1="172.1875" y2="194.1875"/><polygon fill="#181818" points="600.5,184.1875,604.5,194.1875,608.5,184.1875,604.5,188.1875" style="stroke:#181818;stroke-width:1.0;"/><line style="stroke:#181818;stroke-width:1.0;" x1="315.75" x2="315.75" y1="937.2314" y2="955.2314"/><line style="stroke:#181818;stroke-width:1.0;" x1="315.75" x2="448.125" y1="955.2314" y2="955.2314"/><polygon fill="#181818" points="438.125,951.2314,448.125,955.2314,438.125,959.2314,442.125,955.2314" style="stroke:#181818;stroke-width:1.0;"/><line style="stroke:#181818;stroke-width:1.0;" x1="604.5" x2="604.5" y1="299.375" y2="955.2314"/><line style="stroke:#181818;stroke-width:1.0;" x1="604.5" x2="472.125" y1="955.2314" y2="955.2314"/><polygon fill="#181818" points="482.125,951.2314,472.125,955.2314,482.125,959.2314,478.125,955.2314" style="stroke:#181818;stroke-width:1.0;"/><line style="stroke:#181818;stroke-width:1.0;" x1="460.125" x2="460.125" y1="140.1875" y2="160.1875"/><polygon fill="#181818" points="456.125,150.1875,460.125,160.1875,464.125,150.1875,460.125,154.1875" style="stroke:#181818;stroke-width:1.0;"/><line style="stroke:#181818;stroke-width:1.0;" x1="460.125" x2="460.125" y1="967.2314" y2="987.2314"/><polygon fill="#181818" points="456.125,977.2314,460.125,987.2314,464.125,977.2314,460.125,981.2314" style="stroke:#181818;stroke-width:1.0;"/><!--SRC=[PL91Zjim3Bpx5UnfxKCEFVHYOri4GVkA1HQ4n2HiPTAGP6_HrvUox1YBt0nwPZGpv0kSCo_iqHESu5UO_ogCwABsa3ImuumE5KxVmMcWZEKB5mnSnatA67FJNmhVK2uoVgAr4uadoTGDJN_s8mkW63dXqF0LslCKTJ7gZmxodGJQn6FN0FGcdES4hu0Ruaqyfqc55meWnMFyGtaAw6WeX9_Z52bX0g6REiOHMdV733Oz6OPN2m3bqGqAw_ZfQTDQOrngtBQYkZTnwlccO3qvbIl7iIGSDeRAGj4q5n97NYFMnieqSt6lSuxcpgO54QD5shWFEtcsPlvPWMls-lVZpe7CMwtZoslHT67cjJ9EPcz1SLYDcnY-ExIMx-l6Q7olIwjQjefDxY6o1Rv5am6F6I_hdxG7AtNjowrRVwvhB-oyNmMqNq_VW5AE531rmuuIpNnbX-PhJRov2iaS2UgHuJPZz2XUZqjx9E1hyyJf9x9j23c2uqWAe-8_eO_BYlIxRBRkuJ3dQjoXgUIKTVeF]--></g></svg>