<?xml version="1.0" encoding="us-ascii" standalone="no"?><svg xmlns="http://www.w3.org/2000/svg" xmlns:xlink="http://www.w3.org/1999/xlink" contentStyleType="text/css" height="748px" preserveAspectRatio="none" style="width:235px;height:748px;background:#FFFFFF;" version="1.1" viewBox="0 0 235 748" width="235px" zoomAndPan="magnify"><defs/><g><ellipse cx="108.5" cy="20" fill="#222222" rx="10" ry="10" style="stroke:#222222;stroke-width:1.0;"/><rect fill="#F1F1F1" height="35.0938" rx="12.5" ry="12.5" style="stroke:#181818;stroke-width:0.5;" width="190" x="13.5" y="50"/><text fill="#000000" font-family="sans-serif" font-size="12" lengthAdjust="spacing" textLength="170" x="23.5" y="72.457">Cidadao solicita cancelamento</text><rect fill="#F1F1F1" height="35.0938" rx="12.5" ry="12.5" style="stroke:#181818;stroke-width:0.5;" width="173" x="22" y="105.0938"/><text fill="#000000" font-family="sans-serif" font-size="12" lengthAdjust="spacing" textLength="153" x="32" y="127.5508">Carrega solicitacao + coleta</text><rect fill="#F1F1F1" height="35.0938" rx="12.5" ry="12.5" style="stroke:#181818;stroke-width:0.5;" width="156" x="30.5" y="209.1055"/><text fill="#000000" font-family="sans-serif" font-size="12" lengthAdjust="spacing" textLength="136" x="40.5" y="231.5625">Erro: estado nao permite</text><ellipse cx="108.5" cy="283.1523" fill="none" rx="11" ry="11" style="stroke:#222222;stroke-width:1.0;"/><ellipse cx="108.5" cy="283.1523" fill="#222222" rx="6" ry="6" style="stroke:#222222;stroke-width:1.0;"/><polygon fill="#F1F1F1" points="51,160.1875,166,160.1875,178,172.1875,166,184.1875,51,184.1875,39,172.1875,51,160.1875" style="stroke:#181818;stroke-width:0.5;"/><text fill="#000000" font-family="sans-serif" font-size="11" lengthAdjust="spacing" textLength="16" x="112.5" y="195.6064">sim</text><text fill="#000000" font-family="sans-serif" font-size="11" lengthAdjust="spacing" textLength="115" x="51" y="176.6885">rejeitada ou cancelada?</text><rect fill="#F1F1F1" height="35.0938" rx="12.5" ry="12.5" style="stroke:#181818;stroke-width:0.5;" width="138" x="39.5" y="385.0703"/><text fill="#000000" font-family="sans-serif" font-size="12" lengthAdjust="spacing" textLength="118" x="49.5" y="407.5273">Erro: coleta avancada</text><ellipse cx="108.5" cy="459.1172" fill="none" rx="11" ry="11" style="stroke:#222222;stroke-width:1.0;"/><ellipse cx="108.5" cy="459.1172" fill="#222222" rx="6" ry="6" style="stroke:#222222;stroke-width:1.0;"/><polygon fill="#F1F1F1" points="32,336.1523,185,336.1523,197,348.1523,185,360.1523,32,360.1523,20,348.1523,32,336.1523" style="stroke:#181818;stroke-width:0.5;"/><text fill="#000000" font-family="sans-serif" font-size="11" lengthAdjust="spacing" textLength="16" x="112.5" y="371.5713">sim</text><text fill="#000000" font-family="sans-serif" font-size="11" lengthAdjust="spacing" textLength="153" x="32" y="352.6533">coleta em em_coleta/concluida?</text><rect fill="#F1F1F1" height="35.0938" rx="12.5" ry="12.5" style="stroke:#181818;stroke-width:0.5;" width="130" x="43.5" y="561.0352"/><text fill="#000000" font-family="sans-serif" font-size="12" lengthAdjust="spacing" textLength="110" x="53.5" y="583.4922">Coleta -&gt; cancelada</text><polygon fill="#F1F1F1" points="39,512.1172,178,512.1172,190,524.1172,178,536.1172,39,536.1172,27,524.1172,39,512.1172" style="stroke:#181818;stroke-width:0.5;"/><text fill="#000000" font-family="sans-serif" font-size="11" lengthAdjust="spacing" textLength="16" x="112.5" y="547.5361">sim</text><text fill="#000000" font-family="sans-serif" font-size="11" lengthAdjust="spacing" textLength="139" x="39" y="528.6182">coleta em aceita/a_caminho?</text><polygon fill="#F1F1F1" points="108.5,616.1289,120.5,628.1289,108.5,640.1289,96.5,628.1289,108.5,616.1289" style="stroke:#181818;stroke-width:0.5;"/><rect fill="#F1F1F1" height="35.0938" rx="12.5" ry="12.5" style="stroke:#181818;stroke-width:0.5;" width="154" x="31.5" y="660.1289"/><text fill="#000000" font-family="sans-serif" font-size="12" lengthAdjust="spacing" textLength="134" x="41.5" y="682.5859">Solicitacao -&gt; cancelada</text><ellipse cx="108.5" cy="726.2227" fill="none" rx="11" ry="11" style="stroke:#222222;stroke-width:1.0;"/><ellipse cx="108.5" cy="726.2227" fill="#222222" rx="6" ry="6" style="stroke:#222222;stroke-width:1.0;"/><line style="stroke:#181818;stroke-width:1.0;" x1="108.5" x2="108.5" y1="30" y2="50"/><polygon fill="#181818" points="104.5,40,108.5,50,112.5,40,108.5,44" style="stroke:#181818;stroke-width:1.0;"/><line style="stroke:#181818;stroke-width:1.0;" x1="108.5" x2="108.5" y1="85.0938" y2="105.0938"/><polygon fill="#181818" points="104.5,95.0938,108.5,105.0938,112.5,95.0938,108.5,99.0938" style="stroke:#181818;stroke-width:1.0;"/><line style="stroke:#181818;stroke-width:1.0;" x1="108.5" x2="108.5" y1="244.1992" y2="272.1523"/><polygon fill="#181818" points="104.5,262.1523,108.5,272.1523,112.5,262.1523,108.5,266.1523" style="stroke:#181818;stroke-width:1.0;"/><line style="stroke:#181818;stroke-width:1.0;" x1="108.5" x2="108.5" y1="184.1875" y2="209.1055"/><polygon fill="#181818" points="104.5,199.1055,108.5,209.1055,112.5,199.1055,108.5,203.1055" style="stroke:#181818;stroke-width:1.0;"/><line style="stroke:#181818;stroke-width:1.0;" x1="178" x2="196.5" y1="172.1875" y2="172.1875"/><polygon fill="#181818" points="192.5,242.1523,196.5,252.1523,200.5,242.1523,196.5,246.1523" style="stroke:#181818;stroke-width:1.0;"/><line style="stroke:#181818;stroke-width:1.0;" x1="196.5" x2="196.5" y1="172.1875" y2="316.1523"/><line style="stroke:#181818;stroke-width:1.0;" x1="196.5" x2="108.5" y1="316.1523" y2="316.1523"/><line style="stroke:#181818;stroke-width:1.0;" x1="108.5" x2="108.5" y1="316.1523" y2="336.1523"/><polygon fill="#181818" points="104.5,326.1523,108.5,336.1523,112.5,326.1523,108.5,330.1523" style="stroke:#181818;stroke-width:1.0;"/><line style="stroke:#181818;stroke-width:1.0;" x1="108.5" x2="108.5" y1="140.1875" y2="160.1875"/><polygon fill="#181818" points="104.5,150.1875,108.5,160.1875,112.5,150.1875,108.5,154.1875" style="stroke:#181818;stroke-width:1.0;"/><line style="stroke:#181818;stroke-width:1.0;" x1="108.5" x2="108.5" y1="420.1641" y2="448.1172"/><polygon fill="#181818" points="104.5,438.1172,108.5,448.1172,112.5,438.1172,108.5,442.1172" style="stroke:#181818;stroke-width:1.0;"/><line style="stroke:#181818;stroke-width:1.0;" x1="108.5" x2="108.5" y1="360.1523" y2="385.0703"/><polygon fill="#181818" points="104.5,375.0703,108.5,385.0703,112.5,375.0703,108.5,379.0703" style="stroke:#181818;stroke-width:1.0;"/><line style="stroke:#181818;stroke-width:1.0;" x1="197" x2="209" y1="348.1523" y2="348.1523"/><polygon fill="#181818" points="205,418.1172,209,428.1172,213,418.1172,209,422.1172" style="stroke:#181818;stroke-width:1.0;"/><line style="stroke:#181818;stroke-width:1.0;" x1="209" x2="209" y1="348.1523" y2="492.1172"/><line style="stroke:#181818;stroke-width:1.0;" x1="209" x2="108.5" y1="492.1172" y2="492.1172"/><line style="stroke:#181818;stroke-width:1.0;" x1="108.5" x2="108.5" y1="492.1172" y2="512.1172"/><polygon fill="#181818" points="104.5,502.1172,108.5,512.1172,112.5,502.1172,108.5,506.1172" style="stroke:#181818;stroke-width:1.0;"/><line style="stroke:#181818;stroke-width:1.0;" x1="108.5" x2="108.5" y1="536.1172" y2="561.0352"/><polygon fill="#181818" points="104.5,551.0352,108.5,561.0352,112.5,551.0352,108.5,555.0352" style="stroke:#181818;stroke-width:1.0;"/><line style="stroke:#181818;stroke-width:1.0;" x1="190" x2="202" y1="524.1172" y2="524.1172"/><polygon fill="#181818" points="198,568.582,202,578.582,206,568.582,202,572.582" style="stroke:#181818;stroke-width:1.0;"/><line style="stroke:#181818;stroke-width:1.0;" x1="202" x2="202" y1="524.1172" y2="628.1289"/><line style="stroke:#181818;stroke-width:1.0;" x1="202" x2="120.5" y1="628.1289" y2="628.1289"/><polygon fill="#181818" points="130.5,624.1289,120.5,628.1289,130.5,632.1289,126.5,628.1289" style="stroke:#181818;stroke-width:1.0;"/><line style="stroke:#181818;stroke-width:1.0;" x1="108.5" x2="108.5" y1="596.1289" y2="616.1289"/><polygon fill="#181818" points="104.5,606.1289,108.5,616.1289,112.5,606.1289,108.5,610.1289" style="stroke:#181818;stroke-width:1.0;"/><line style="stroke:#181818;stroke-width:1.0;" x1="108.5" x2="108.5" y1="640.1289" y2="660.1289"/><polygon fill="#181818" points="104.5,650.1289,108.5,660.1289,112.5,650.1289,108.5,654.1289" style="stroke:#181818;stroke-width:1.0;"/><line style="stroke:#181818;stroke-width:1.0;" x1="108.5" x2="108.5" y1="695.2227" y2="715.2227"/><polygon fill="#181818" points="104.5,705.2227,108.5,715.2227,112.5,705.2227,108.5,709.2227" style="stroke:#181818;stroke-width:1.0;"/><!--SRC=[VP11Zi8m34NtEOLt58rGzwqqer752JW0iXm37ZKnIatFZqjXfcW4KZR9__zzEoluDXabOcJOG8UPkCV4sHJyPT1UI0m9DGo6nKBJJLxKNmbeaMbTnrBuYCieV01fpuPja0DKXN_OXOYWbqSwujSQxCGPga7IEW0qsrAq0VRQg92TSkQInBXrSJ0z1yvH3ZVYJ0TEVlRpfIRDr5_a9VYUmT47yFgtLAHfu1htX4doIVyXkzcw-VpRfxsJcjtY8vuDKzyL]--></g></svg>