<?xml version="1.0" encoding="us-ascii" standalone="no"?><svg xmlns="http://www.w3.org/2000/svg" xmlns:xlink="http://www.w3.org/1999/xlink" contentStyleType="text/css" height="509px" preserveAspectRatio="none" style="width:741px;height:509px;background:#FFFFFF;" version="1.1" viewBox="0 0 741 509" width="741px" zoomAndPan="magnify"><defs/><g><ellipse cx="530.125" cy="20" fill="#222222" rx="10" ry="10" style="stroke:#222222;stroke-width:1.0;"/><rect fill="#F1F1F1" height="35.0938" rx="12.5" ry="12.5" style="stroke:#181818;stroke-width:0.5;" width="176" x="442.125" y="50"/><text fill="#000000" font-family="sans-serif" font-size="12" lengthAdjust="spacing" textLength="156" x="452.125" y="72.457">Usuario informa credenciais</text><rect fill="#F1F1F1" height="35.0938" rx="12.5" ry="12.5" style="stroke:#181818;stroke-width:0.5;" width="155" x="452.625" y="105.0938"/><text fill="#000000" font-family="sans-serif" font-size="12" lengthAdjust="spacing" textLength="135" x="462.625" y="127.5508">Busca usuario por email</text><polygon fill="#F1F1F1" points="478.625,160.1875,581.625,160.1875,593.625,172.1875,581.625,184.1875,478.625,184.1875,466.625,172.1875,478.625,160.1875" style="stroke:#181818;stroke-width:0.5;"/><text fill="#000000" font-family="sans-serif" font-size="11" lengthAdjust="spacing" textLength="103" x="478.625" y="176.6885">Existe e status ativo?</text><text fill="#000000" font-family="sans-serif" font-size="11" lengthAdjust="spacing" textLength="16" x="450.625" y="169.7705">sim</text><text fill="#000000" font-family="sans-serif" font-size="11" lengthAdjust="spacing" textLength="18" x="593.625" y="169.7705">nao</text><polygon fill="#F1F1F1" points="337.25,194.1875,433.25,194.1875,445.25,206.1875,433.25,218.1875,337.25,218.1875,325.25,206.1875,337.25,194.1875" style="stroke:#181818;stroke-width:0.5;"/><text fill="#000000" font-family="sans-serif" font-size="11" lengthAdjust="spacing" textLength="96" x="337.25" y="210.6885">bcrypt.compare ok?</text><text fill="#000000" font-family="sans-serif" font-size="11" lengthAdjust="spacing" textLength="16" x="309.25" y="203.7705">sim</text><text fill="#000000" font-family="sans-serif" font-size="11" lengthAdjust="spacing" textLength="18" x="445.25" y="203.7705">nao</text><rect fill="#F1F1F1" height="35.0938" rx="12.5" ry="12.5" style="stroke:#181818;stroke-width:0.5;" width="201" x="135" y="228.1875"/><text fill="#000000" font-family="sans-serif" font-size="12" lengthAdjust="spacing" textLength="181" x="145" y="250.6445">Gera sessao JWT (role no token)</text><polygon fill="#F1F1F1" points="60.5,283.2813,84.5,283.2813,96.5,295.2813,84.5,307.2813,60.5,307.2813,48.5,295.2813,60.5,283.2813" style="stroke:#181818;stroke-width:0.5;"/><text fill="#000000" font-family="sans-serif" font-size="11" lengthAdjust="spacing" textLength="28" x="76.5" y="318.7002">admin</text><text fill="#000000" font-family="sans-serif" font-size="11" lengthAdjust="spacing" textLength="18" x="63.5" y="299.7822">role</text><rect fill="#F1F1F1" height="35.0938" rx="12.5" ry="12.5" style="stroke:#181818;stroke-width:0.5;" width="123" x="11" y="341.1172"/><text fill="#000000" font-family="sans-serif" font-size="12" lengthAdjust="spacing" textLength="103" x="21" y="363.5742">redireciona /admin</text><polygon fill="#F1F1F1" points="202,283.2813,244,283.2813,256,295.2813,244,307.2813,202,307.2813,190,295.2813,202,283.2813" style="stroke:#181818;stroke-width:0.5;"/><text fill="#000000" font-family="sans-serif" font-size="11" lengthAdjust="spacing" textLength="42" x="202" y="299.7822">empresa</text><text fill="#000000" font-family="sans-serif" font-size="11" lengthAdjust="spacing" textLength="36" x="256" y="292.8643">usuario</text><rect fill="#F1F1F1" height="35.0938" rx="12.5" ry="12.5" style="stroke:#181818;stroke-width:0.5;" width="138" x="154" y="327.2813"/><text fill="#000000" font-family="sans-serif" font-size="12" lengthAdjust="spacing" textLength="118" x="164" y="349.7383">redireciona /empresa</text><rect fill="#F1F1F1" height="35.0938" rx="12.5" ry="12.5" style="stroke:#181818;stroke-width:0.5;" width="148" x="312" y="337.1992"/><text fill="#000000" font-family="sans-serif" font-size="12" lengthAdjust="spacing" textLength="128" x="322" y="359.6563">redireciona /dashboard</text><rect fill="#F1F1F1" height="35.0938" rx="12.5" ry="12.5" style="stroke:#181818;stroke-width:0.5;" width="110" x="480" y="228.1875"/><text fill="#000000" font-family="sans-serif" font-size="12" lengthAdjust="spacing" textLength="90" x="490" y="250.6445">Erro credenciais</text><polygon fill="#F1F1F1" points="385.25,402.2109,397.25,414.2109,385.25,426.2109,373.25,414.2109,385.25,402.2109" style="stroke:#181818;stroke-width:0.5;"/><rect fill="#F1F1F1" height="35.0938" rx="12.5" ry="12.5" style="stroke:#181818;stroke-width:0.5;" width="110" x="620" y="194.1875"/><text fill="#000000" font-family="sans-serif" font-size="12" lengthAdjust="spacing" textLength="90" x="630" y="216.6445">Erro credenciais</text><polygon fill="#F1F1F1" points="530.125,432.2109,542.125,444.2109,530.125,456.2109,518.125,444.2109,530.125,432.2109" style="stroke:#181818;stroke-width:0.5;"/><ellipse cx="530.125" cy="487.2109" fill="none" rx="11" ry="11" style="stroke:#222222;stroke-width:1.0;"/><ellipse cx="530.125" cy="487.2109" fill="#222222" rx="6" ry="6" style="stroke:#222222;stroke-width:1.0;"/><line style="stroke:#181818;stroke-width:1.0;" x1="530.125" x2="530.125" y1="30" y2="50"/><polygon fill="#181818" points="526.125,40,530.125,50,534.125,40,530.125,44" style="stroke:#181818;stroke-width:1.0;"/><line style="stroke:#181818;stroke-width:1.0;" x1="530.125" x2="530.125" y1="85.0938" y2="105.0938"/><polygon fill="#181818" points="526.125,95.0938,530.125,105.0938,534.125,95.0938,530.125,99.0938" style="stroke:#181818;stroke-width:1.0;"/><line style="stroke:#181818;stroke-width:1.0;" x1="72.5" x2="72.5" y1="307.2813" y2="341.1172"/><polygon fill="#181818" points="68.5,331.1172,72.5,341.1172,76.5,331.1172,72.5,335.1172" style="stroke:#181818;stroke-width:1.0;"/><line style="stroke:#181818;stroke-width:1.0;" x1="72.5" x2="72.5" y1="376.2109" y2="396.2109"/><polygon fill="#181818" points="68.5,386.2109,72.5,396.2109,76.5,386.2109,72.5,390.2109" style="stroke:#181818;stroke-width:1.0;"/><line style="stroke:#181818;stroke-width:1.0;" x1="223" x2="223" y1="307.2813" y2="327.2813"/><polygon fill="#181818" points="219,317.2813,223,327.2813,227,317.2813,223,321.2813" style="stroke:#181818;stroke-width:1.0;"/><line style="stroke:#181818;stroke-width:1.0;" x1="223" x2="223" y1="362.375" y2="396.2109"/><polygon fill="#181818" points="219,386.2109,223,396.2109,227,386.2109,223,390.2109" style="stroke:#181818;stroke-width:1.0;"/><line style="stroke:#181818;stroke-width:1.0;" x1="96.5" x2="190" y1="295.2813" y2="295.2813"/><polygon fill="#181818" points="180,291.2813,190,295.2813,180,299.2813,184,295.2813" style="stroke:#181818;stroke-width:1.0;"/><line style="stroke:#181818;stroke-width:1.0;" x1="235.5" x2="235.5" y1="263.2813" y2="268.2813"/><line style="stroke:#181818;stroke-width:1.0;" x1="235.5" x2="72.5" y1="268.2813" y2="268.2813"/><line style="stroke:#181818;stroke-width:1.0;" x1="72.5" x2="72.5" y1="268.2813" y2="283.2813"/><polygon fill="#181818" points="68.5,273.2813,72.5,283.2813,76.5,273.2813,72.5,277.2813" style="stroke:#181818;stroke-width:1.0;"/><line style="stroke:#181818;stroke-width:1.0;" x1="256" x2="386" y1="295.2813" y2="295.2813"/><line style="stroke:#181818;stroke-width:1.0;" x1="386" x2="386" y1="295.2813" y2="337.1992"/><polygon fill="#181818" points="382,327.1992,386,337.1992,390,327.1992,386,331.1992" style="stroke:#181818;stroke-width:1.0;"/><line style="stroke:#181818;stroke-width:1.0;" x1="386" x2="386" y1="372.293" y2="396.2109"/><polygon fill="#181818" points="382,386.2109,386,396.2109,390,386.2109,386,390.2109" style="stroke:#181818;stroke-width:1.0;"/><line style="stroke:#181818;stroke-width:1.0;" x1="72.5" x2="386" y1="396.2109" y2="396.2109"/><line style="stroke:#181818;stroke-width:1.0;" x1="325.25" x2="235.5" y1="206.1875" y2="206.1875"/><line style="stroke:#181818;stroke-width:1.0;" x1="235.5" x2="235.5" y1="206.1875" y2="228.1875"/><polygon fill="#181818" points="231.5,218.1875,235.5,228.1875,239.5,218.1875,235.5,222.1875" style="stroke:#181818;stroke-width:1.0;"/><line style="stroke:#181818;stroke-width:1.0;" x1="445.25" x2="535" y1="206.1875" y2="206.1875"/><line style="stroke:#181818;stroke-width:1.0;" x1="535" x2="535" y1="206.1875" y2="228.1875"/><polygon fill="#181818" points="531,218.1875,535,228.1875,539,218.1875,535,222.1875" style="stroke:#181818;stroke-width:1.0;"/><line style="stroke:#181818;stroke-width:1.0;" x1="235.5" x2="235.5" y1="396.2109" y2="414.2109"/><line style="stroke:#181818;stroke-width:1.0;" x1="235.5" x2="373.25" y1="414.2109" y2="414.2109"/><polygon fill="#181818" points="363.25,410.2109,373.25,414.2109,363.25,418.2109,367.25,414.2109" style="stroke:#181818;stroke-width:1.0;"/><line style="stroke:#181818;stroke-width:1.0;" x1="535" x2="535" y1="263.2813" y2="414.2109"/><line style="stroke:#181818;stroke-width:1.0;" x1="535" x2="397.25" y1="414.2109" y2="414.2109"/><polygon fill="#181818" points="407.25,410.2109,397.25,414.2109,407.25,418.2109,403.25,414.2109" style="stroke:#181818;stroke-width:1.0;"/><line style="stroke:#181818;stroke-width:1.0;" x1="466.625" x2="385.25" y1="172.1875" y2="172.1875"/><line style="stroke:#181818;stroke-width:1.0;" x1="385.25" x2="385.25" y1="172.1875" y2="194.1875"/><polygon fill="#181818" points="381.25,184.1875,385.25,194.1875,389.25,184.1875,385.25,188.1875" style="stroke:#181818;stroke-width:1.0;"/><line style="stroke:#181818;stroke-width:1.0;" x1="593.625" x2="675" y1="172.1875" y2="172.1875"/><line style="stroke:#181818;stroke-width:1.0;" x1="675" x2="675" y1="172.1875" y2="194.1875"/><polygon fill="#181818" points="671,184.1875,675,194.1875,679,184.1875,675,188.1875" style="stroke:#181818;stroke-width:1.0;"/><line style="stroke:#181818;stroke-width:1.0;" x1="385.25" x2="385.25" y1="426.2109" y2="444.2109"/><line style="stroke:#181818;stroke-width:1.0;" x1="385.25" x2="518.125" y1="444.2109" y2="444.2109"/><polygon fill="#181818" points="508.125,440.2109,518.125,444.2109,508.125,448.2109,512.125,444.2109" style="stroke:#181818;stroke-width:1.0;"/><line style="stroke:#181818;stroke-width:1.0;" x1="675" x2="675" y1="229.2813" y2="444.2109"/><line style="stroke:#181818;stroke-width:1.0;" x1="675" x2="542.125" y1="444.2109" y2="444.2109"/><polygon fill="#181818" points="552.125,440.2109,542.125,444.2109,552.125,448.2109,548.125,444.2109" style="stroke:#181818;stroke-width:1.0;"/><line style="stroke:#181818;stroke-width:1.0;" x1="530.125" x2="530.125" y1="140.1875" y2="160.1875"/><polygon fill="#181818" points="526.125,150.1875,530.125,160.1875,534.125,150.1875,530.125,154.1875" style="stroke:#181818;stroke-width:1.0;"/><line style="stroke:#181818;stroke-width:1.0;" x1="530.125" x2="530.125" y1="456.2109" y2="476.2109"/><polygon fill="#181818" points="526.125,466.2109,530.125,476.2109,534.125,466.2109,530.125,470.2109" style="stroke:#181818;stroke-width:1.0;"/><!--SRC=[RP2xReH034Lxlk9sWI993qMqaLQHKYTARMQCrjfbZEmXZxyFBA1e8rhxdEl77GvPFYLIPDpZC6PEMG85KdnnMtWcoqNzxYEPA2HrQZqX64TEGKYyAUhdqGDXN9b13ToJN9f2EfJ7R_7CO4nHUNJGD4wVAkGJ9vGkVLK0CzW6-ndoGz1-86Fe-Jy4r2zi16VtQRtNZpUKfXT6KcGzSwgQApM7pVLDfzXBMWAcY6bpCGwYYV1uRIqMNvnda_l1s6cVNvj_1ihrx7q-afzQ9OkhaQ9qnMOcMgtwQAQtFztO6tA7MoZFElm2]--></g></svg>